<?xml version="1.0" encoding="UTF-8"?>
<!-- Generator: Adobe Illustrator 24.0.3, SVG Export Plug-In . SVG Version: 6.00 Build 0)  -->
<svg xmlns="http://www.w3.org/2000/svg" xmlns:xlink="http://www.w3.org/1999/xlink" id="Layer_1" x="0px" y="0px" width="501.3px" height="107.8px" viewBox="0 0 501.3 107.8" style="enable-background:new 0 0 501.3 107.8;" xml:space="preserve">
<style type="text/css">
	.st0{fill:#010202;}
	.st1{fill:none;}
	.st2{clip-path:url(#SVGID_2_);}
	.st3{clip-path:url(#SVGID_4_);}
</style>
<g id="Group_37" transform="translate(0 0.262)">
	<path id="Fill_1" class="st0" d="M135.9,48L135.9,48l-8.2,0l15.8-44.7h8.9L168.1,48l-8.6,0l-2.9-8.5h-17.9L135.9,48L135.9,48z    M147.7,13.3l-6.4,18.9h12.8L147.7,13.3z"></path>
	<g id="Group_36" transform="translate(0 0)">
		<path id="Fill_2" class="st0" d="M169.8,31.6c0-5,1.2-9,3.6-12c1.3-1.6,3-2.8,4.8-3.7c2-1,4.3-1.5,6.5-1.5c4.8,0,8.6,1.7,11.4,5.2    c1.6,2,2.5,4.6,2.6,7.1h-7.9c0-1.1-0.4-2.1-1-3.1c-1.1-1.7-2.7-2.5-5.1-2.4c-1.8-0.1-3.6,0.7-4.8,2c-1.5,1.6-2.2,4.4-2.2,8.4    s0.7,6.7,2.2,8.3c1.2,1.4,3,2.1,4.8,2.1c2.3,0,4-0.8,5.1-2.5c0.6-0.9,0.9-2,1-3h7.9c-0.1,2.6-1,5.1-2.6,7.1    c-2.8,3.5-6.6,5.2-11.4,5.2c-2.3,0-4.5-0.5-6.5-1.5c-1.8-0.9-3.5-2.1-4.8-3.7C171,40.5,169.8,36.5,169.8,31.6"></path>
		<path id="Fill_4" class="st0" d="M203,31.6c0-5,1.2-9,3.6-12c1.3-1.6,3-2.8,4.8-3.7c2-1,4.3-1.5,6.5-1.5c4.8,0,8.6,1.7,11.4,5.2    c1.6,2,2.5,4.6,2.6,7.1H224c0-1.1-0.4-2.1-1-3.1c-1.1-1.7-2.7-2.5-5.1-2.4c-1.8-0.1-3.6,0.7-4.8,2c-1.5,1.6-2.2,4.4-2.2,8.4    s0.7,6.7,2.2,8.3c1.2,1.4,3,2.1,4.8,2.1c2.3,0,4-0.8,5.1-2.5c0.6-0.9,0.9-2,1-3h7.9c-0.1,2.6-1,5.1-2.6,7.1    c-2.8,3.5-6.6,5.2-11.4,5.2c-2.3,0-4.5-0.5-6.5-1.5c-1.8-0.9-3.5-2.1-4.8-3.7C204.2,40.5,203,36.5,203,31.6"></path>
		<path id="Fill_6" class="st0" d="M251.6,48.9c-2.3,0-4.5-0.5-6.6-1.5c-1.9-0.8-3.5-2.1-4.8-3.6c-2.5-3.2-3.8-7.3-3.8-12.2    s1.3-9,3.8-12.2c1.3-1.6,3-2.8,4.8-3.6c2.1-1,4.3-1.5,6.6-1.4c2.3,0,4.5,0.5,6.6,1.5c1.9,0.8,3.5,2.1,4.8,3.6    c2.5,3.2,3.8,7.3,3.8,12.2s-1.3,8.9-3.8,12.2c-1.3,1.6-3,2.8-4.8,3.6C256.2,48.4,253.9,48.9,251.6,48.9z M251.7,21.2L251.7,21.2    L251.7,21.2c-1.9,0-3.7,0.7-5,2.1c-1.6,1.7-2.4,4.5-2.4,8.3s0.8,6.6,2.4,8.3c1.3,1.4,3.1,2.2,5,2.1h0.1c1.9,0,3.7-0.7,5-2.1    c1.6-1.7,2.4-4.5,2.4-8.3s-0.8-6.6-2.4-8.3C255.4,21.9,253.6,21.1,251.7,21.2L251.7,21.2z"></path>
		<path id="Fill_8" class="st0" d="M272.9,37.1V15.2h7.9v20c0,4.1,1.9,6.2,5.7,6.2c1.5,0,3-0.6,4-1.6c1.6-1.5,2.4-3.9,2.4-7.4V15.2    h7.9V48h-6l-0.9-4.4c-0.9,1.7-2.2,3-3.9,3.8c-1.8,0.9-3.8,1.4-5.9,1.4c-3.5,0-6.3-1.1-8.3-3.2C273.9,43.5,272.9,40.6,272.9,37.1"></path>
		<path id="Fill_10" class="st0" d="M308.7,48V15.2h6.6l0.6,4.3c0.9-1.6,2.3-3,4-3.8c1.8-0.9,3.7-1.3,5.7-1.3c3.5,0,6.2,1.1,8.2,3.3    s3,5,3,8.5V48h-7.9V27.9c0-2-0.4-3.6-1.2-4.6s-2.2-1.6-4.2-1.6c-2.5,0-4.4,1.4-5.7,4.2c-0.7,1.6-1.1,4.6-1.1,8.8V48H308.7z"></path>
		<path id="Fill_12" class="st0" d="M340.7,21.7v-6.5h6V6.9l7.9-2v10.3h8.3v6.5h-8.3v16.1c0,2.4,1.2,3.6,3.7,3.6    c1.7,0,3.4-0.1,5.1-0.3v6.8c-2.2,0.4-4.5,0.6-6.8,0.6c-3.3,0-5.7-0.9-7.4-2.6s-2.5-4.2-2.5-7.4V21.7H340.7z"></path>
		<path id="Fill_14" class="st0" d="M379.1,48.9c-3.8,0-6.8-1-8.9-3c-2.1-1.9-3.2-4.5-3.2-7.3c-0.1-2.7,1-5.4,3.1-7.2    c2.1-1.8,4.8-2.8,8-3l9.8-0.7v-2c0-1.6-0.4-2.9-1.2-3.8c-0.8-0.9-2.3-1.3-4.4-1.3c-3.8,0-5.8,1.5-6,4.5h-7.8    c0.2-3.5,1.6-6.2,4.1-8s5.8-2.7,9.7-2.7c6.5,0,10.8,2.3,12.5,6.8c0.6,1.6,1,3.8,0.9,6.7v12c-0.1,0.6,0.1,1.1,0.4,1.6    c0.4,0.3,0.9,0.5,1.4,0.5l1-0.1v5.9c-1.2,0.6-2.5,0.9-3.8,0.9h-0.1c-1.5,0.1-2.9-0.4-4-1.4c-1-0.9-1.6-2-1.7-3.3    c-0.9,1.5-2.3,2.8-3.9,3.6C383.3,48.4,381.2,48.9,379.1,48.9z M388,33.4l-8.5,0.6c-1.2,0.1-2.3,0.5-3.2,1.3    c-0.9,0.7-1.4,1.8-1.3,3c0,1.1,0.5,2.2,1.4,2.9c0.9,0.7,2.1,1.1,3.3,1.1c2.5,0,4.6-0.7,6.1-2c1.5-1.3,2.3-3.1,2.3-5.5L388,33.4z"></path>
		<path id="Fill_16" class="st0" d="M404.2,48V15.2h6.6l0.6,4.3c0.9-1.6,2.3-3,4-3.8c1.8-0.9,3.7-1.3,5.7-1.3c3.5,0,6.2,1.1,8.2,3.3    c2,2.2,3,5,3,8.5V48h-7.9V27.9c0-2-0.4-3.6-1.2-4.6s-2.2-1.6-4.2-1.6c-2.5,0-4.4,1.4-5.7,4.2c-0.7,1.6-1.1,4.6-1.1,8.8V48H404.2z"></path>
		<path id="Fill_18" class="st0" d="M437.9,31.6c0-5,1.2-9,3.6-12c1.3-1.6,3-2.8,4.8-3.7c2-1,4.3-1.5,6.5-1.5    c4.8,0,8.6,1.7,11.4,5.2c1.6,2,2.5,4.6,2.6,7.1h-7.9c0-1.1-0.4-2.1-1-3.1c-1.1-1.7-2.7-2.5-5.1-2.4c-1.8-0.1-3.6,0.7-4.8,2    c-1.5,1.6-2.2,4.4-2.2,8.4s0.7,6.7,2.2,8.3c1.2,1.4,3,2.1,4.8,2.1c2.3,0,4-0.8,5.1-2.5c0.6-0.9,0.9-2,1-3h7.9    c-0.1,2.6-1,5.1-2.6,7.1c-2.8,3.5-6.6,5.2-11.4,5.2c-2.3,0-4.5-0.5-6.5-1.5c-1.8-0.9-3.5-2.1-4.8-3.7    C439.1,40.5,437.9,36.5,437.9,31.6"></path>
		<g id="Group_22" transform="translate(902.185 29.812)">
			<path id="Clip_21-2" class="st1" d="M-434.4-14.6h33.5V32h-33.5V-14.6z"></path>
			<g>
				<defs>
					<rect id="SVGID_1_" x="-434.4" y="-14.6" width="33.5" height="46.6"></rect>
				</defs>
				<clipPath id="SVGID_2_">
					<use xlink:href="#SVGID_1_" style="overflow:visible;"></use>
				</clipPath>
				<g id="Group_22-2" transform="translate(0 0)" class="st2">
					<path id="Fill_20" class="st0" d="M-434.4-14.6h8.7l8.6,23.7l8.2-23.7h8l-14.5,38.4c-2.1,5.5-5.5,8.2-10.1,8.2       c-2.1,0-4.1-0.3-6.1-0.8v-6.5c1.5,0.3,3,0.5,4.4,0.6c1.9,0,3.1-0.8,3.8-2.5l1.9-4.6L-434.4-14.6z"></path>
				</g>
			</g>
		</g>
		<path id="Fill_23" class="st0" d="M131.3,92.1c-0.8-3.5-1.2-7-1.1-10.6c-0.1-3.5,0.3-7.1,1.1-10.6c0.8-2.9,2.3-5.5,4.4-7.6    c3.4-3.4,7.6-5,12.7-5c5.1,0,9.4,1.7,12.7,5.2c2.4,2.5,3.8,5.7,4.2,9.7h-8.2c-0.2-1.7-0.9-3.4-2-4.7c-1.5-1.8-3.7-2.8-6.8-2.8    c-2.6-0.1-5.1,1-6.9,3c-1,1.1-1.8,2.5-2.2,4c-0.4,1.4-0.7,2.8-0.8,4.2c-0.1,1.1-0.1,2.7-0.1,4.6s0,3.5,0.1,4.6    c0.1,1.4,0.4,2.9,0.8,4.2c0.4,1.5,1.1,2.9,2.2,4c1.8,1.9,4.3,3,6.9,3c3,0,5.2-0.9,6.8-2.8c1.2-1.4,1.9-3.1,2-4.9h8.2    c-0.4,4-1.8,7.3-4.2,9.8c-3.3,3.5-7.9,5.4-12.7,5.3c-5.1,0-9.3-1.7-12.7-5C133.6,97.7,132.1,95,131.3,92.1"></path>
		<path id="Fill_25" class="st0" d="M170.9,95.5V58.3h7.9v35.8c-0.1,0.8,0.2,1.7,0.6,2.4c0.4,0.5,1.3,0.8,2.5,0.8c0.2,0,0.5,0,0.8,0    c0.3,0,0.4,0,0.6,0v6.7c-1.1,0.2-2.3,0.4-3.5,0.4c-2.8,0-5-0.7-6.6-2.1C171.7,100.8,170.9,98.5,170.9,95.5"></path>
		<path id="Fill_27" class="st0" d="M201.6,104.8c-2.3,0-4.5-0.5-6.6-1.5c-1.9-0.8-3.5-2.1-4.8-3.6c-2.5-3.2-3.8-7.3-3.8-12.2    s1.3-8.9,3.8-12.2c1.3-1.6,3-2.8,4.8-3.6c2.1-1,4.3-1.5,6.6-1.4c2.3,0,4.5,0.5,6.6,1.5c1.9,0.8,3.5,2.1,4.8,3.6    c2.5,3.2,3.8,7.3,3.8,12.2s-1.3,8.9-3.8,12.2c-1.3,1.6-3,2.8-4.8,3.6C206.1,104.3,203.9,104.8,201.6,104.8z M201.6,77.1    L201.6,77.1L201.6,77.1c-1.9,0-3.7,0.7-5,2.1c-1.6,1.7-2.4,4.5-2.4,8.3c0,3.8,0.8,6.6,2.4,8.3c1.3,1.4,3.1,2.2,5,2.1h0    c1.9,0,3.7-0.7,5-2.1c1.6-1.7,2.4-4.5,2.4-8.3s-0.8-6.6-2.4-8.3C205.3,77.8,203.5,77,201.6,77.1L201.6,77.1z"></path>
		<path id="Fill_29" class="st0" d="M222.5,93V71.1h7.9v20c0,4.2,1.9,6.2,5.7,6.2c1.5,0,3-0.6,4-1.6c1.6-1.5,2.4-3.9,2.4-7.4V71.1    h7.9V104h-6l-0.9-4.4c-0.9,1.7-2.2,3-3.9,3.8c-1.8,0.9-3.8,1.4-5.9,1.4c-3.5,0-6.3-1.1-8.3-3.2C223.6,99.4,222.5,96.6,222.5,93"></path>
		<path id="Fill_31" class="st0" d="M270.3,104.7c-2.9,0-5.8-0.9-8-2.8c-3.8-3.2-5.8-8-5.8-14.3c0-6.5,2-11.4,5.8-14.7    c2.3-1.8,5.1-2.7,8-2.7c4,0,6.9,1,8.6,3.1v-15h7.9V104H280l-0.5-3.5C277.7,103.3,274.6,104.7,270.3,104.7z M271.9,76.8    c-2.1,0-4.1,0.9-5.3,2.6c-1.4,1.8-2.1,4.5-2.1,8c0,3.6,0.7,6.3,2.1,8.1c1.2,1.7,3.2,2.7,5.3,2.6c1.8,0.1,3.6-0.6,4.9-1.8    c1.7-1.7,2.6-4.7,2.6-8.9c0-3.5-0.6-6.2-1.9-8C276.2,77.7,274.3,76.8,271.9,76.8L271.9,76.8z"></path>
		<g id="Group_35" transform="translate(0 0)">
			<path id="Clip_34-2" class="st1" d="M-0.4-0.3h108v107.8h-108V-0.3z"></path>
			<g>
				<defs>
					<rect id="SVGID_3_" x="-0.4" y="-0.3" width="108" height="107.8"></rect>
				</defs>
				<clipPath id="SVGID_4_">
					<use xlink:href="#SVGID_3_" style="overflow:visible;"></use>
				</clipPath>
				<g id="Group_35-2" class="st3">
					<path id="Fill_33" class="st0" d="M53.6,107.5C23.9,107.4-0.1,83.2,0,53.5S24.3-0.3,54.1-0.2c21.5,0.1,40.9,13,49.3,32.8       c11.6,27.4-1.3,59.1-28.8,70.6C68,106.1,60.8,107.5,53.6,107.5z M49.6,45.1c-0.3,0-0.6,0-0.9,0c-4.6,0.1-8.7,1.4-12,3.8       c-7.7,5.5-9.5,16.2-4,23.9c0.9,1.2,1.9,2.4,3.1,3.3c1.6,1.5,3.5,2.6,5.5,3.5c2.1,0.9,4.4,1.4,6.7,1.5c0.3,0,0.6,0,0.9,0       c4,0,7.9-1.2,11.2-3.5l0.9-0.6v-9.3c-3.8,3-7.7,4.6-11.3,4.6c-0.2,0-0.4,0-0.7,0c-3.2-0.1-6.2-1.6-8.2-4.1       c-2-2.5-2.5-5.8-1.4-8.8c1.4-3.5,5.2-6,9.7-6.5c0.5-0.1,1.1-0.1,1.7-0.1c3.5,0,7,1,10.1,2.1V47C57.3,45.8,53.5,45.2,49.6,45.1z        M53.3,30.9c0.3,0,0.6,0,0.9,0c3.1,0.1,6,1.5,8.1,3.8c2.1,2.3,3.3,5.3,3.3,8.4V73c0,3.7,3,6.6,6.7,6.6h8.7v-8.5H75V43.8       c0.1-11.5-9.1-20.8-20.5-21.1c-0.3,0-0.6,0-0.9,0c-6.5,0-12.3,2.1-16.1,5.8c-3.4,3.3-5.3,7.8-5.3,12.9h9.3       c0-2.8,0.9-5.4,2.4-6.9C46.4,32,49.3,30.9,53.3,30.9L53.3,30.9z"></path>
				</g>
			</g>
		</g>
	</g>
</g>
</svg>
