<?xml version="1.0" encoding="utf-8"?><svg xmlns="http://www.w3.org/2000/svg" viewBox="0 0 14 16" enable-background="new 0 0 14 16"><path fill-rule="evenodd" clip-rule="evenodd" d="M5.6 1.3zM7 5.146c-.2 0-.1-.1-.1-.2-.1-.2.2 0 .1-.1l.1.3H7m-.3-2l.2-.7v-.2l.1.3c-.2.1.3.1 0 .2-.1.1-.2.3-.3.4m.3-.9v-.3c0-.1.1-.2.2-.2 0 .1.1.2.1.2-.2.1-.2.2-.3.3m.1 3.4h.7c-.1-.1-.1-.1-.1-.2 0-.3.3-.6.2-.9l.1-.1c.1-.2-.1-.1-.1-.1-.2-.2-.2.1-.3.2h-.1l-.2-.2h.1c0-.4.6-.1.6-.5l.1-.1c.3.1.2-.2.3-.3v-.1l.1.2v.2c0-.1.1-.1.1-.2-.1-.5-.1-1-.2-1.4 0-.2.1-.3.1-.5 0-.1 0-.2-.1-.2h-.2c0 .1 0 .1.1.2v.2c-.1 0-.2 0-.2-.1v-.4-.2H8c0 .1-.1.1-.1.2 0 .3-.1 0-.2 0 0-.4-.9.4-.5-.4 0-.1-.1-.3-.2-.5v.2s-.1 0-.2.1v-.1h.1v-.1h-.4c-.3.1-.6.1-.9.1l-.1.1c.1.1.1.2 0 .4 0 0 0 .1-.1.2h.1l.1.1c0 .1-.1.1-.1.2v.2l.1-.1v-.1.1l-.1.2c0 .1-.1.1 0 .2.3.2.1.5 0 .8h.1v-.1h.1v.1c.1.1-.3.2 0 .2l-.1.5-.1-.2-.1.2c0 .1 0 .2-.1.2-.2.3.1.5.1.7 0 0-.1 0-.1.1v.2c-.1.3 0 0-.1 0l-.1.2h.2c0 .1-.1.1-.1.2l-.1.1c.1-.4-.1-.2.2-.2h-.2c.1 0 .2.1.2.1.1 0 .1-.1.2-.1s.1.1.2.1c.1.1.1.2.1.2.1 0 .1 0 .1.1h.9c-.1 0-.1-.1-.1-.1l-.1-.1.1-.1.4.4"/><path d="M8 5.546c0-.1-.2-.3.1-.4H8v-.1c.2-.1.2.2.3.2-.1 0-.1 0-.2.1s0 .1.1.1v.2l-.2-.1c-.1.1-.1 0 0 0M8.1 4.946c-.1-.3-.1-.5.3-.3-.1 0-.3 0-.3.3.1 0 0 0 0 0M8.5 4.646l-.1-.1h.1zM8.6 4.546h-.1.1zM8.1 4.046s.1 0 0 0c.1 0 .2.2.2.3 0 0 0 .1-.1.1s-.1-.2-.1-.4M7.3 8.246c-.1-.3-.2-.5-.2-.7 0-.4.1-.1.1 0 .2-.1 0 .2.1.2v.5zm.2-.5l-.1-.1v-.2-.2c0 .1 0 .2-.1 0 0-.1-.1-.2-.1-.2.1 0 .1 0 .2.1l.1-.1c.1-.2.1-.3.3-.1l.1.1c0 .1-.1.1-.2.2l-.1-.3v.2l-.1.6zm.4-1v-.4H8c.2 0 .1 0 0 .1-.2.2.2.1.1.2 0 .1-.1.1-.2.1zm-.6-.1c-.1-.1-.1-.2-.2-.4 0 0 0-.1.1-.2.1.1.1.3.2.5l-.1.1zm-.7 6.1c.2.1.4 0 .3-.3-.1 0-.1-.1-.1-.2 0 0 .1-.1.1-.2.3.4.1-.6.5-.2 0-.3.4-.4.4-.6-.3 0 0-.2-.2-.3-.1 0-.1.3-.3 0v.4h-.1v-.4l.2.1c0-.2.1-.4.1-.6-.1-.3-.1-.7.1-1 0-.1.1-.1 0-.2 0 0-.1-.3.1-.1.1.1.1.1.1.2v.1l.1-.1c-.2-.4-.2-.9.1-1.3-.1 0-.2-.1-.1-.2 0 .2.1.2.2.2v.2c.2 0 .3-.1.3-.3 0-.1-.1-.2-.1-.2v-.9c.1 0 .1.1.2.1.2-.1-.1-.2 0-.2.2-.2.2-.2-.1-.2l-.1-.2c.2-.1-.1-.3 0-.4h.1v-.1l-.1-.1h-.4c0 .2.1.4.1.5-.2.1-.2.2-.3.3l-.1-.9.1-.1-2.4-.1V5.746v-.1l-.1-.1V5.846c.5 0 .1.3.2.5.1.1.1.3.1.4v.2h-.1l-.1.1v.3c0 .4-.1.8-.1 1.3v.4c-.1.4 0 .9.1 1.3h-.1c-.1.1-.3.2-.2.2 0 .1.1.1.1.2 0 .2.2.4 0 .5v.2c-.2.1-.2.1 0 .1-.1.4.1.4.3.5.2 0 .2.1.2.3h.1c0-.1 0-.2.1-.2 0-.1.1-.1.1-.2l.1.1v0c.1-.3.3 0 .5-.1v.3c0 .2 0 .5.1.5zM5.3 12.846s0-.1 0 0l.4.3h-.2c0-.1-.1-.2-.2-.3M6.7 14.846" fill-rule="evenodd" clip-rule="evenodd"/><path d="M7.9 11.546c.1.1 0 .2-.1.2 0 .2-.1-.2-.2 0 0-.1 0-.2.1-.3.1.1.2.1.2.1m-.9 1.4c-.2.1-.4.2-.5.3l-.1.1c0-.1.1-.1.1-.2.2 0-.2-.2.1-.2.1.1.2 0 .4 0m-.8.4c0 .1-.1.2-.1.2h-.2c0-.1.1-.2.1-.2h.2m1.8-2.2l-.5-.5v.2c-.2.2-.5.2-.6.5h-.2c-.2 0 0 .1 0 .2.2.3.3.1.4.1l.1.1v.2l-.1-.1c-.2.3-.5-.3-.7 0h-.1c-.2-.3-.3-.1-.4 0v.1c0-.1 0-.1.1-.1 0 0 0-.1.1-.1-.1 0-.1 0-.1.1-.2.3-.4.7-.7 1-.2-.1-.4 0-.5 0 0 0-.1.1-.1.2s.1.1.2.1c0 0 0-.1.1-.1l.1-.1.1.1c-.2.1-.3.2-.3.3l-.1.1v.1h.1c.2-.3.1 0 .2 0-.3.2.9.4.1.6-.1 0-.1.3-.1.4l.1-.1c.1 0 .1.1.2.1v.1s-.1 0-.1-.1l-.1.1.3.3c.1.1.4.3.5.5h.2c0-.2.1-.2.2-.2s.1-.1.1-.1h-.1v-.1h.2c.1 0 .1-.1.2-.1h-.1v0h.1c.1 0 .1 0 .2-.1l.1-.1c-.1-.4.2-.4.4-.5v-.1h-.1-.1v-.1h-.1s.1 0 0 0c0-.1.3.1.1-.1.1-.1.2-.2.3-.2 0 .1 0 .1-.1.2.1 0 .1 0 .2-.1.1 0 .1-.1.2-.1.3-.1.2-.3.3-.5h.1c.3 0 .3-.1.4-.1.2-.1 0 .1 0 .1.1 0 .2-.1.2-.1s0-.1-.1-.1h-.1c.1 0 .1-.1.2-.1H9c0-.1.2-.1.1-.3v-.1l.1.1c0-.1-.1-.2-.1-.2-.1 0-.2 0-.2-.1 0 0-.1-.1-.1-.2v-.2-.1l-.5-.5c0 .1.1.1 0 .1v.1h-.1c0-.1-.1-.3-.2-.4" fill-rule="evenodd" clip-rule="evenodd"/><path d="M7.4 10.646c-.1 0-.1.3-.3.2l.1.1c-.3-.1-.1-.2-.2-.3v-.1c.1 0 .1 0 .2.1.1 0 0-.1-.1-.2l.1-.1.2.3c.1 0 0 0 0 0M6.9 10.946c-.1.2-.2.4-.4 0 .2.1.3.1.4 0M6.4 10.846l.1.1c0-.1-.1-.1-.1-.1" fill-rule="evenodd" clip-rule="evenodd"/><path d="M6.5 11.446s-.1 0 0 0c-.1-.1 0-.2 0-.3h.1c.1.1-.1.2-.1.3M9.4 9.446c-.1.2-.1.4-.2.5-.2.2-.1 0-.1-.1-.2-.1.1-.1 0-.2.1-.1.2-.1.3-.2m-.5.1c0 .1.1.1 0 .2l-.1.1s-.1.1-.1.2c.1 0 .1-.1.1.1 0 .1 0 .1-.1.2 0-.1-.1-.1-.1-.2h-.1c-.1 0-.2 0-.3-.2v-.1h.2v.1l.1-.1c.2-.1.3-.2.4-.3m-.8.4c0 .1-.1.2-.2.3 0 0-.1 0-.1-.1-.1-.1-.1-.1.1-.1s-.1-.2 0-.2.1.1.2.1m.4.4c0 .1-.1.3-.1.4 0 0-.1 0-.1.1 0-.1.1-.3.1-.4 0-.1.1-.1.1-.1m3.8-3.5c-.1-.2-.3-.2-.3 0 0 .1-.1.2-.1.3 0 0-.1 0-.2.1-.1-.5-.4.3-.5-.2-.1.2-.5 0-.6.1.2.1-.1.2 0 .3.1.1.3-.1.2.1 0 0 .1 0 .1-.1l.1-.1s.1 0 .1.1c-.1.1-.2.3-.2.4l-.1-.2c-.1.1-.3.2-.3.3-.1.2-.3.5-.6.6-.1 0-.2 0-.1.1 0 0-.1.2-.1-.1v-.2-.1h-.1c-.2.3-.4.6-.9.7.1.2.1.3-.1.3.1-.1 0-.2 0-.3.1 0 .2-.1.3-.1-.1-.1-.3-.1-.4 0 0 0 0 .2-.1.2-.1.2-.3.4-.4.6 0-.1-.1-.1-.1-.2-.2 0-.1.2-.2.2-.3 0-.2 0 0 .2v.2c-.3-.1-.1.2-.3.2h-.1V10.546l.3.3c.1-.1.1-.3.2-.4.1-.2.3-.2.4-.3-.2.2-.3.4-.5.6h-.1l1.7 1.6c0-.1.1-.1.1-.1s.1 0 .1-.1v.2h.1l.1-.1c-.4-.3.1-.3.1-.4 0-.1.1-.2.1-.3l.1-.1v.1h.1c.1-.1.1-.1.1-.2.3-.2.6-.5.8-.7.1-.1.1-.2.2-.3.3-.2.5-.5.6-.9l.1.1c.1 0 .2.1.2 0v-.2c.1-.1 0-.4.3-.3l.1-.2c.2.1.2 0 .1-.1.2-.1.1-.3-.1-.5-.1-.2-.1-.2 0-.3-.1 0-.1.1-.2.1s-.1 0-.2.1v-.2c0-.1.1-.1.1-.1l-.1.1c-.2.1-.3-.2-.4-.3.3-.2.3-.3.4-.4.1-.1.2-.3.2-.4" fill-rule="evenodd" clip-rule="evenodd"/><g transform="matrix(1 0 0 -1 -1 9.146)"><defs><filter id="a" filterUnits="userSpaceOnUse" x="14.1" y="-2" width=".2" height=".5"><feColorMatrix values="1 0 0 0 0 0 1 0 0 0 0 0 1 0 0 0 0 0 1 0"/></filter></defs><mask maskUnits="userSpaceOnUse" x="14.1" y="-2" width=".2" height=".5" id="b"><path fill-rule="evenodd" clip-rule="evenodd" fill="#fff" d="M14.3 2.2h-.6v-1h.6z" filter="url(#a)"/></mask><path d="M14.3 1.5c-.1.2-.2.3-.2.5.1 0 .1-.1.2-.1v-.4" mask="url(#b)" fill-rule="evenodd" clip-rule="evenodd"/></g><path d="M4.5 11.846c.1-.1.2 0 .2.1.2 0-.2.1 0 .2-.1 0-.2-.1-.3-.1 0-.1.1-.1.1-.2m1.3 1.1s.1 0 0 0c.1.2.2.3.3.5l.1.1c-.1 0-.2 0-.2-.1 0-.2-.3.2-.2-.1.1-.1 0-.3 0-.4m.3.8c.1 0 .1.1.2.1v.2c-.1 0-.2-.1-.2-.1v-.2m-2-2l-.5.4h.2c.1.2.1.5.4.7v.2c0 .2.1 0 .2 0 .3-.1.1-.2.1-.3l.1-.1h.2l-.1.1c.3.2-.3.4-.1.6v.1c-.2.1-.1.3 0 .4h.1s-.1 0-.1-.1c0 0-.1 0-.1-.1v.2c.3.3.6.5.9.8.1.1.1.3.2.4 0 .1.1.1.2.1l.1-.1s-.1 0-.1-.1l-.1-.1.1-.1c.1.1.2.2.2.3 0 0 0 .1.1.1h.1v-.1c-.2-.2.1-.1.1-.2.1.3.4-.9.6 0 0 .1.3.1.4.1 0-.1-.1-.1-.1-.1 0-.1.1-.1.1-.2 0 0 .1 0 .1.1l-.1.1.1.1c.1-.1.2-.2.3-.2.1-.3.3-.5.6-.7v-.2c-.2 0-.2-.1-.2-.2s0-.1-.1-.2v.1h-.1v-.2c0-.1-.1-.1-.1-.2 0 0 0 .1-.1.1h0v-.1-.2s0-.1-.1-.1c-.4.2-.4-.1-.5-.3H7v.2h-.1v0c-.1 0 .2-.3-.1-.1 0-.2-.1-.3-.1-.4.1 0 .1 0 .2.1 0-.1 0-.1-.1-.2 0-.1-.1-.1-.1-.2 0-.3-.3-.2-.5-.4v-.1c0-.1-.1-.1-.1-.2-.1-.2.1 0 .1 0 0-.1-.1-.1-.1-.2 0 0-.1 0-.1.1V10.946v-.1c-.1 0-.1-.2-.3-.1h-.1l.1-.1c-.1 0-.2 0-.2.1-.1.1 0 .2-.1.2 0 0-.1 0-.2.1H5v-.1l-.7.6c.1 0 .1-.1.1 0h.1s0 .1-.1.1c0 0-.2 0-.3.1" fill-rule="evenodd" clip-rule="evenodd"/><path d="M3.6 12.346c0 .1.3.1.2.3 0 0 .1 0 .1-.1-.1.2-.2 0-.3.1h-.1c0-.1.1-.1.1-.2s-.1 0-.2.1l-.1-.1.3-.1c0-.1 0-.1 0 0M3.8 12.846c.2.1.4.2 0 .4.1-.2.1-.3 0-.4M3.7 13.246c.1 0 .1 0 0 0 .1 0 0 0 0 0M3.6 13.346l.1-.1s0 .1-.1.1c.1 0 .1 0 0 0M4.3 13.346H4v-.1c.1-.1.2 0 .3.1" fill-rule="evenodd" clip-rule="evenodd"/><path d="M2.5 10.246c.1.1.4.1.5.3.2.2 0 .1-.1.1-.1.2-.1-.1-.2 0-.1-.2-.2-.3-.2-.4m.1.5c.1 0 .1-.1.2 0 0 0 0 .1.1.1 0 0 .1.1.2.1 0-.1-.1-.1.1-.1.1 0 .1 0 .2.1-.1 0-.1.1-.2.1 0 0-.1.1 0 .1.1.2.1.3-.2.3h-.1v-.2H3c-.1-.1-.1-.1-.2-.1 0-.2-.1-.3-.2-.4m.3.8l.2.2s0 .1-.1.1c-.1.1 0 .1 0 0 0-.2-.2.1-.2 0s.1-.2.1-.3m.5-.4c.1 0 .2.1.4.1 0 0 0 .1.1.1-.1 0-.3-.1-.4-.1-.1 0-.1 0-.1-.1m-3.2-4c-.2.1-.3.3-.1.4.1 0 .2.1.2.1v.2c-.5 0 .2.5-.2.5.2.1 0 .5.1.7.2-.2.2.1.3 0 .1 0-.1-.3.2-.2v-.1c-.1-.2-.1-.2-.2-.3l.1-.1c.1.1.2.2.4.3-.1 0-.1.1-.2.1 0 .1.1.3.2.4.2.2.4.3.6.6 0 .1 0 .2.1.1 0 0 .2.1-.1.1h-.2-.1v.1c.4.1.7.4.7.8.1-.1.2 0 .2.1-.1-.1-.2 0-.3 0 0-.1-.1-.2-.1-.3 0 .3 0 .4.1.5 0 0 .2 0 .2.1.2.2.4.3.5.5-.1 0-.1 0-.2.1 0 .1.2 0 .2.1-.1.2-.1.2.2 0 0 0 .2 0 .2.1-.1.2.2.1.2.3v.1H3.5l.2-.3c-.2-.1-.3-.2-.4-.3 0-.1-.1-.3-.1-.4.2.2.4.3.6.5v.1l1.7-1.6-.1-.1s0-.1-.1-.1h.2v-.1h-.2c-.3.3-.2-.2-.4-.2-.1 0-.2-.1-.3-.2l-.1-.1h.1v-.1c-.1-.1-.2-.1-.3-.2l-.6-.9c-.1 0-.2-.1-.3-.2-.2-.3-.5-.5-.9-.7l.1-.1c0-.1.1-.2 0-.2h-.2c-.1-.1-.3-.1-.2-.3 0 0-.2-.1-.1-.1.1-.2.1-.2-.1-.1-.1-.3-.3-.1-.5 0s-.2.1-.3 0c0 .1.1.1.1.2v.2h-.2c-.1 0-.1-.1-.2-.1.1.1.1.1.1.2.1.2-.2.3-.3.4 0-.1-.1-.2-.1-.2-.2-.1-.3-.3-.4-.3M1 6.246c-.1.1-.3.1-.5.1 0 0 .1-.1.1-.2.2.1.3.1.4.1" fill-rule="evenodd" clip-rule="evenodd"/></svg>