<?xml version="1.0" encoding="utf-8"?><svg xmlns="http://www.w3.org/2000/svg" xmlns:xlink="http://www.w3.org/1999/xlink" viewBox="0 0 193.3 192.2"><path d="M60.426 93.526h-.1l-.1.3c.5-.3-.7.6 0 .2.3-.2.6-.3.9-.5v-.1l-.7.1zM60.126 93.426c-.2.1-.3.1-.5.2-.1.1-.1.2-.1.3.3-.1.5-.2.6-.3v-.2M62.026 94.526l.1-.1-.4.2c-.2.3-.5.6-.8.8l.8-.7c.2-.1.4-.3.3-.2M63.426 90.226l-.1.1.1-.1c.1 0 0 0 0 0M61.426 94.526c.2-.3-.5.4-.4.2l-.3.4.5-.3c.5-.4.3-.3.2-.3M63.426 90.326z"/><path d="M56.726 99.526v-.5c0-.3 0-.6-.1-.9 0-.1-.1-.1-.2-.1H56.126c0-.1.1-.2.1-.3l.3-.3.1-.1v.1c0 .1 0 .1-.1.2v.1l.4-.4c0-.1 0-.2-.1-.3h-.1-.1l.1-.1.1-.1h.1s.1 0 .1-.1h.1c.1 0 .2-.1.2-.3 0-.1.1-.2.2-.2 0-.1.3-.4.7-.8.4-.4.9-.8.8-.9-.1 0-.3.1-.4.1-.1 0 .1-.2.2-.5.1-.1.2-.3.2-.4h.2c.1-.1.4-.3.6-.5v-.1-.1c-.1.1-.2.1-.3.2l-.2.1-.1.1-.1-.1.3-.3.7-.7c.9-.8 1.7-1.7 2.4-2.3.1-.1.3-.2.4-.3-.1.2-.1.3-.1.3.1 0 .2-.1.3-.1h.2c-.1.1-.2.2-.3.2-.1.1-.1.2-.2.3.1 0 .1-.1.2-.1l.2-.2h.1l-.4.3.4-.2h.2c-.4.5-.4.6-.3.7h.1c.1 0 .2 0 .2-.1.1 0 .1 0 .2-.1 0 0-.1.1-.1.2h-.1s-.1 0-.1.1l-.2.2-.1.1h-.1v.1l.2-.2.2-.2c-.1.2-.2.3-.4.4h.4l.1-.4.3-.1h.1c.1 0 .1 0 .2-.1 0 0 .1-.1.2-.1.1.1 0 .2-.1.4s-.1.3-.1.3l.1-.1s.1 0 .1-.1h.2c.2-.1.2-.1.2-.2v-.1l.1-.1.3-.1-.2.3.4.6h.1c.1 0 .1-.1.2-.1s.1-.1.2-.1l.1-.1v.1h.1s0 .1-.3.4l-.1.1.1-.1.4-.4c-.1.2-.3.4-.5.6l-.6.5c-.2.2-.3.4-.4.6 0 .1-.1.1-.1.2-.1.1-.1.2-.2.3l-.1.2-.1.1-2.1 2.3c0-.1.1-.2.1-.2h-.1l.1-.2-.4.3c-.1.2-.3.5-.5.7-.1.1-.2.2-.3.4l-1.8 2c.1-.1.3-.4.2-.4h-.4c-.1 0-.2.1-.3.1h-.1v-.2c-.1 0-.1 0-.1.1-.1 0-.1.1-.1.1h-.1s0-.1.2-.3l.2-.2c.4-.6.5-.6.7-.6.1 0 .1 0 .1-.1.1-.1.2-.2.3-.4l.2-.2c.1-.1.2-.3.3-.4l-.3.3c-.2 0-.5.3-.8.6-.3.3-.7.7-.8.7-.1 0-.2.1-.2.1-.5.6-.7.6-.7.6h-.1-.1v-.1s0-.1.1-.1v.1l-.1.1-.1.3-.1.2H56.726z"/><path d="M58.826 97.126c-.3.1.2-.4-.5 0l.3-.2c-.7.5-.4.5-.7.7l-.1.1c.2-.1.3-.2.6-.5.3-.1 0 .1-.4.4v.1l.9-.7c0 .1-.1.1-.1.1M58.226 97.126c.1-.3 0-.4-1 .6.5-.4.9-.6.8-.4 0-.1.1-.1.2-.2M57.126 97.726zM56.726 98.026l.4-.3-.4.3zM57.926 96.726s-.1.1-.2.1c-.1.2-.3.4-.4.6 0 0 .1 0 .2-.1.5-.4.3-.4.4-.6M65.126 92.026l.2-.2-.2.2zM65.626 106.726c0-.1.2-.4.5-.7.3-.3.4-.5.5-.6 0 .1-.1.3-.1.3h.1c.8-.5.9-.7 1-.9.2-.4.5-.7.8-1 1.1-.9 1.6-1.5 1.6-1.6-.6.2-1.1.5-1.5.9l-1.6 1.9c0 .1-.1.2-.1.3-.1 0-.2.1-.2.1-.2.2-.4.4-.7.5 0 0 0-.1.1-.2s.1-.2.1-.2-.1 0-.3.2c.1-.1.2-.2.3-.4.2-.3.5-.6.5-.7-.1-.3.4-.6.8-.9.2-.1.3-.2.5-.3l-.3-.3c-.3-.3-.6-.5-.9-.7-.2.1-.4.2-.5.3l-.2.1-.1.1c-.1.1-.1.2-.2.3-.3.3-.6.6-1.1.7-.5.2-1 .5-1.4 1l-.5.3.3-1.7h.1s.1.1.2.1h.1c.3-.2.6-.5.9-.7.3-.3.6-.6.9-1 .5-.6 1.1-1.2 1.8-1.6l.1-.3-1.1.8-.8.7-.6-.1.9-.6 1.8-1.3h-.5l-.1.1c-.1.1-.2.3-.3.4-.2.2-.5.4-.7.5h-.1c0-.1.1-.2.3-.5.2-.2.3-.4.3-.5-.3.1-.6.3-.8.5l3.6-3c-.1.1-.2.2-.2.3-.2.2-.4.4-.5.7-.2.3-.3.5-.2.6l.1.1c.5-.1.9-.3 1.3-.5s.8-.4 1.3-.5c0 .1-.1.1-.1.2-.1.1-.1.2-.2.2l-.5.4-1.2.9.1.1c.2-.2.4-.3.4-.3s.1 0 .1.1l.1.1c.1 0 .3-.1.9-.7.4-.4.9-.8 1.4-1.2h.1c.1 0 .2 0 .3.1 0 0 .1 0 .1.1l-1.7.7c0 .1 0 .2.1.2s.1.1.1.1c0 .2-.2.5-.8 1 .3-.3.7-.5 1.1-.6h.1c0 .1 0 .2-.1.4s-.1.3-.1.4h.1c.1 0 .2 0 .3-.1.1 0 .2-.1.3-.1.1 0 .1 0 .2.1s.1.3 0 .6c-.3.3-.6.7-.9 1l-.7.7-.1.1c-.3.3-.5.6-.8.9-.1.2-.3.5-.4.7 0 .1-.1.2-.1.3l-.5.3-1.2.9c-.4.6-1 1-1.6 1.4zM61.426 98.926s-.4.3-.6.5l-.4.4c.1 0 .1-.1.2-.1l1.2-1.1c-.2-.1-.3.1-.4.3M61.726 99.526c.4-.3.9-.5 1.1-1-.2.1-.5.5-.5.4l-.6.4c0 .1.6-.3 0 .2l-.6.5c-.1.1-.2.1-.3.2l.7-.3s.1-.1.2-.1v-.2-.1M61.626 100.926l-1.2 1c.3-.2.7-.4 1.2-.8.1-.1.3-.2.4-.3.3-.4-1.2 1-.4.1"/><path d="M63.626 97.826l.1-.1s-.1 0-.1-.1l.2-.2v.1c.2 0 .2.1-.6.7-.1 0-.1.1-.2.2 0 .1-.1.2-.1.1l.6-.4c.1-.2.9-.7.6-.7-.1 0 .1-.3.1-.4 0-.1 0-.2-.5.3.6-.8-.5-.1-.1-.7.1-.1-.1 0-.2 0l-.3.3c-.2.2-.3.3-.4.5 0-.1.1-.2.1-.3 0-.1 0-.1-.1-.1-.1.1-.2.1-.2.1-.1.1-.1.2-.2.3v.2c-.1 0-.2.1-.2.1-.2.2 0-.2-.3.2-.1 0-.3.2-.6.4l-.1.1h.2c-.1.1-.2.1-.3.2-.1 0-.2 0-.3.1 0 .1-.1.2-.1.2.2 0 .3-.1.4-.2.8-.5.5-.6 1-1-.3.5.9-.6 1.2-.6.2 0 .1.2.3.2 0 0-.1.1-.1.2l-.2.2h-.1c.4-.5-.9.5-.7.1-.1.1-.2.1-.2.2s-.1.1 0 .1c.3-.1 0 .1-.2.3-.2.2.6-.5.4-.2-.1.2.1.1.2.1l.3-.3c.6-.6-.1.3.5-.3l-.2.2-.2.2.6-.3zM62.226 100.026l-.3.1-.4.2c.8-.7-.2 0 0-.2-.2.2-.3.4-.5.6-.3.3-.3.4-.7.7l-.1.1v.1c.2 0 .5-.4.7-.6.4-.3.5-.4.4-.2-.1.3.5-.1.7-.3.3-.4-.5.1.2-.5M62.926 101.526l-.1.1c-.1 0-.2.1-.3.1l.3-.3c.5-.5-.1-.2.7-.8h-.1c-.1 0-.2.1-.2.2-.2.2-.4.4-.6.5-.2.2-.4.2-.5.5 0 .1-.1.2-.2.4s-.3.4-.4.5c.5-.3-.2.4-.1.4 1-.7 1.3-.7 1.5-.7.9-1.2-.6-.1 0-.9M65.526 102.326c.2.1.8-.3.5.2 0 .1.3-.1.4-.2l.2-.2v-.1c0-.1.1-.4 0-.4s.1-.2.3-.4c.1-.1 0-.1 0 0-.3.2-.5.3-.6.3 0 0 0-.1.1-.1l.3-.2c.1 0 .1-.1.2-.1 0 0 .1-.1 0-.1-.1.1-.2.2-.3.2-.2.1-.4.2-.5.3 0 0 .2-.3.4-.4.1-.1.1-.1.2-.1v.1l-.3.3c.3-.2.8-.7 1.3-1.1 0 0 .1-.2 0-.1-.9.7-1.7 1.5-2.5 2.3-.1-.2.1-.2.3-.2M64.026 103.926c0-.2.6-.8.5-.8-.1 0-.4.4-.7.6.1-.2.2-.3.4-.5l.4-.4c-.2 0-1 .9-1.1.7l-.1.1c-.3.4-.4.6.3.2-.4.4-.6.7-.2.5 0 0 0 .1-.1.2-.7.7-.3.1-.7.4-.1.1-.1 0-.2 0 0 .1-.1.2 0 .3.2 0 .3-.1.4-.1.5-.5 1-.9 1.1-1.2M64.726 104.326c-.4.2-.3-.1-.1-.3.4-.5-.4.2-.3 0l-.5.4c.1 0 .1 0 .2.1s-.2.4-.6.9c-.1.1-.2.2-.3.2 0 0 0 .1.1 0 .2-.1.5-.6.6-.5.1 0 .3 0 .8-.4-.1-.1 0-.3.1-.4M60.326 100.126l-.3.3c-.1.2-.2.3-.4.4.1 0 .2-.1.2-.1.9-1 .5-.4.6-.4h.1v-.4c0 .1-.1.1-.2.2M64.926 101.426v-.1c1.1-1 1.2-1.3 1.2-1.6 0 0-.1.1-.2.1l-.1.1c-.3.4-.5.7-.8 1.1l-1.2 1.2-.3.2c0-.1.2-.4-.1-.1-.1.1-.1.2-.1.4 0 .1.1.1.1.2-.4.3-.2.4-.8.8.2 0 .5-.5.8-.6.2-.1.3-.1.3-.3l-.3.2c0-.1.6-.6.2-.4.5-.4 1.2-1.3 1.5-1.2.1 0-.2.3.2-.1.1-.1.1-.2.2-.3-.5.6.1-.3-.6.4M66.126 99.426c-.1 0-.4.3-.3.3.1 0-.6.5-.5.5.1 0 .5-.5.8-.6 0 0 .1-.2 0-.2"/><path d="M65.926 100.626c-.1.1.6-.7-.2 0-.2.2-.4.6-.1.4l.3-.4V100.926l1.3-1.1-.3.1c-.3.3-.1-.2-1 .7M61.926 97.126c.1-.1.2-.3.3-.5-.2.1-.3.1-.4.2l-.7.7c.3-.1.5-.3.8-.4M77.026 117.026c.9-.6 0 .4.7-.1l-.3.2s-.1 0-.1.1v-.1s-.1.1-.2.1c0 .1.1.1.1.1l.1-.1-.3.2c.3-.1 1.1-.9 1.3-.9 0-.2.1-.5-.1-.5s-.2-.4-1.5.7c.1.3.1.4.3.3M60.126 99.026l-.2.2-.1.1h-.2s0-.1.1-.1c.3-.4.8-1 .3-.9-.2.1.1.1-.4.4-.1.3-.2.6-.4 1 0 .1.5-.4.1 0 .1 0 .1 0 .2-.1s.3-.2.4-.3c.2-.1.2-.2.2-.3M68.726 95.726v.3l.3-.1c.3-.3.5-.6.7-.9-.2-.2-.8.7-1 .7M64.826 92.326c.1-.1.2-.2.3-.2l-.6.5.3-.3M61.426 95.326c.5-.1-.6.9.1.6l-.2.2c.2 0 .4-.1.5-.2.5-.4.1-.2.1-.3 0-.1 0-.1.4-.4.2-.1.4-.2.5-.4-.2 0 .2-.6-.6-.1-.1.1-.1 0-.2 0l.3-.3.3-.3h-.1c-.9.7-.6.4-.3.2l-.8.7c-.2.2-.2.4 0 .3M71.926 112.426l-.2.2h.1l.4-.3.9-.7v.1c-.1.1-.2.2-.2.3l.4-.4c.1-.1.1-.2 0-.1-.2.1-.6.4-.7.5 0-.2.6-.4.8-.7.3-.3-.7.6-.2.1.3-.2.6-.5.5-.6-.1-.2-.4.1-1 .6l-.6.6c.1-.1.2-.1.3-.2l.2-.2.4-.4s.2-.1.1 0c-.2.2-.3.4-.6.6-.4.3-1 .7-1.1 1l.8-.6-.3.2zM62.026 96.126c-.1 0-.2.1-.3.2 0 .1 0 .2.1.3.2-.1.3-.1.5-.2-.2-.1-.2-.2-.3-.3M59.726 98.326c0 .1 0 .1 0 0 .2 0 .3 0 .4-.1.2-.2.2-.3-.4.1M61.226 96.726c-.1 0-.2.1-.3.1l-.7.7.3-.2c.1-.1.1-.2.2-.2.3-.3-.1.2.3-.2l.2-.2M62.526 95.626c.2-.2.6-.4.7-.5.5-.6-.8.3 0-.5l-.2.1c-.9.9.4.1-.5.9M64.726 96.726l.2-.1c.3-.4.4-.5.1-.5-.5.5 0 .3-.3.6M67.926 103.026s.1-.1.2-.1h-.4l.3-.3c.1 0 .2-.1.3-.1v.1l.2-.2.2-.2c-.2.1.2-.5-.4-.1 0 0 .2-.3.4-.5l.1-.1.3-.2-.3.1c-.1.2-.7.5-.7.6-.2.1-.4.3-.5.5-.1-.1.2-.5-.3 0-.3.2-.5.2-.7.3v.1c-.1.4 0 .3.1.3.5-.2.7-.1.3.5 0 .1.8-.9.9-.7M62.826 102.326c-.1 0-.6.6-.4.2 0-.1 0 0-.1 0l-.1.1v.1c.1 0 .2-.1.3-.1l-.4.4c.2-.2.5-.5.7-.6.6-.5-.1 0 0-.1M79.126 111.426c-.2 0-.3.1-.5.1l-.4.4.7-.3c.1 0 .3-.2.2-.2M81.626 108.426c-.3.2-.6.3-.9.5-.5.4.2 0 .1 0-.1.2-.3.3-.5.4-.6.6.2 0 .4-.1.3-.2.5-.4.7-.6.3-.1.2-.1.2-.2M77.826 112.526c-.2.1-.3.1-.4.2-.2.3-.5.5-.8.9.2-.1.6-.4.6-.4.2-.2.4-.5.6-.7M77.226 115.026c.1-.2.7-.5.7-.5-.2-.1-.8.5-1.2.9l-.2.2c.2-.1.4-.2.5-.3.3-.3.2-.3.2-.3M78.326 113.926c.1 0 0 0 0 0M80.326 107.026c0-.2-.5.3-.7.5-.5.4-.6.5-.6.6l.2-.1c.3-.2.3-.2.1-.1.3-.3.4-.6 1-.9"/><path d="M67.726 103.126l-.5.7.9-.8.2-.2-.6.3M74.626 110.226l-.2.1c-.1.2-.2.4-.2.6l.6-.4c.2-.3.5-.7-.2-.3M78.526 107.526c.2-.2.4-.5.5-.7.1-.1-.2 0-.2 0 .7-.4.5-.5.7-.8.1-.1.1-.2 0-.2-.9.6-.8.8-1.2 1.2-.1.1.1.1.1.1l.1.4zM78.926 107.326c.1 0 .3-.1.4-.2 0-.2.1-.3.1-.5-.4.3.1.1-.5.5.1.1 0 .2 0 .2M72.926 112.526l.1-.1.2-.6-.2.1c-1.3 1.2.6 0-.1.6M81.226 116.626s.1 0 .2-.1l.6-.9c-.1 0-.2.1-.2.1-.8.7-.6.7-.6.9M78.326 118.726l.1.5s.1 0 .1-.1l.5-.9c-.3.2-.5.3-.7.5M82.426 117.326c0-.1-.2.1-.3.2-.2.3-.8 1-.4.8l.3-.2c.2-.3.4-.6.4-.8M79.726 117.726c.1-.1.2-.3.3-.5-.1.1-.3.1-.4.2-.2.2-.4.4-.7.8.4-.2.7-.4.8-.5M81.426 120.326c-.3.5-.4.7-.5.8-.1.1-.2.1-.3.1l-.2.6c.3-.4.6-.7.8-1.1.4-.5-.1.1.2-.4M78.726 114.126c-.1 0-.3-.1-.4-.1l-.2.2c.1.1.2.1.3.1 0 0 .1-.1.3-.2zM85.526 125.426c0 .3.1.7.2 1 .1-.2.1-.4.2-.7-.1-.2-.1-.3-.2-.6-.1.2-.1.2-.2.3M81.626 111.826l-.6.7c.4-.4.8-.6.9-.6 0-.1.1-.2.1-.3-.2 0-.3.1-.4.2M74.926 109.426l.4-.4c-.2-.1-.9.8-1.2.8-.6.6-.1.3.4.3-.5-.1-.2-.4.4-.7M81.626 112.626l-.9.7c.1 0-.4.5 0 .1.3-.3.7-.6 1-.9l-.1.1M81.026 116.026c-.2.3-.4.5 0 .3.1 0 .1-.1.2-.1.1-.2.3-.4.3-.4-.2 0-.4.1-.5.2M80.326 114.526l-1 .6c0 .1-.1.2-.1.2.3-.1.6-.3.9-.5.2-.1.2-.2.2-.3M72.526 112.726c-.1 0-.2.1-.2.1l-.8.8.9-.6c0-.1.1-.2.1-.3M69.526 104.926l.4-.2.5-.9-.5.4-.2.2.1-.2c.1-.2.2-.3.3-.5-.2.1-.4.2-.5.4-1.1 1-.4.3-.3.1.1-.1.1-.2.2-.3-.2.2-.4.4-.5.6 0 .1-.5.7-.1.5.1 0 0 .1 0 .2-1.4 1.4.1.2.1.4l.2-.2c0-.2.1-.3.3-.5-.2.2-.3.2-.3.3-.6.4-.1 0-.1-.1 0 0-.1.1-.2.1.5-.4.4-.5.4-.5s.1-.1.1-.2l.6-.2-.3.2-.1.1-.1.3zM70.326 106.626c-.4.3-.8.6-1.2 1-.3.2.6-.5.2 0l.8-.5.1-.1c.2-.1.3-.2.5-.2 1-1.1-.8.3-.4-.2M74.026 102.226c-.1.1-.3.2-.4.3-.1.1-.3.4-.3.4.3-.1.6-.2.8-.3 0-.2 0-.4-.1-.4"/><path d="M69.426 105.426c.1-.1-.2-.1.3-.3.3-.1.5-.3.7-.5h-.4c-.2.1-.4.3-.6.5-.4.4-.5.6-.2.5.1 0 .2-.1.2-.2M69.826 106.126c0 .1.1.1.3.2l-.2.2-.3.3h-.1l-.5.5c.3-.3.7-.5 1.2-.9.2-.4.5-.7.7-1.1l-1.1.8zM73.726 107.226c-.1 0 .6-.4.4-.4l-.6.3-.9.6-.3.6c0 .1.2-.1.4-.2.1-.1.1-.2.2-.3l.1-.2.6-.4c-.6.6 0 .1 0 .1l.1-.1M71.226 106.426c-.1.2-.1.3-.2.5 0 0 .4-.3.7-.5 0-.1-.1-.2-.1-.3l-.4.3M76.326 105.026c.2 0 .3-.1.5-.1.7-.6-.2 0 .3-.5-.2.1-.3.2-.5.3-.2.1-.3.2-.3.3M72.226 107.226c-.1.2-.3.3-.4.5-.2.2.3-.4-.3.2h.1c.1-.1.3-.1.4-.2-.7.6-.2.4-.8.8h.1c.3-.3.6-.6.9-.8.9-.9 0-.3 0-.5M72.526 109.426c-.1.1-.6.5-.6.6 0 .1.2-.1.4-.3.1-.1.3-.2.5-.3.2-.3-.1-.1-.3 0M74.126 107.226c0-.1-.5.2-.7.4 0 .2.3.1 1.1-.4h.1c.5-.8-.5 0-.5 0M71.326 110.326c-.3.3.3-.1-.2.4l.3-.1.7-1c-.3.3-.6.5-.8.7M68.226 103.726c-.1 0 0-.1 0-.2l-.2.1c-.4.6.1.3.2.1.1.1.2 0 .4-.1.5-.5-.1-.1-.4.1M72.826 99.226l-.2.1.2-.1c.1-.2.2-.4.2-.5-.1 0-.2.1-.2.1l-.1.1c.4-.2-.1.3-.4.6-.4.4-.4.4-.3.4.3-.2.5-.4.7-.5.2-.2.3-.5.5-.7l-.4.5zM72.726 110.026c.7-.7 0-.3.4-.8h-.1l-.2.2c-.1.2-.2.3-.3.4-.8.7-.3.5-.6.7l.2-.2c.2 0 .4-.2.6-.3M71.326 112.526zM65.626 101.026z"/><path d="M87.726 130.026c-.1-.1-.1-.1 0 0-.1-.4-.2-.4-.3-.5-.1 0-.2-.1-.3-.7v-.3c0-.4-.1-.9-.2-.9 0 0-.1.1-.1.2v-.6-.3.2c0-.2-.1-.4-.1-.4s-.1.1-.1.3c0 .1 0 .2-.1.3 0 0-.1-.1-.1-.2v-.3-.2c-.1.5-.1.8-.2.8s-.1-.1-.2-.1l-.1-.1c-.1-.2-.2-.5-.2-.7 0-.1 0-.3-.1-.4v-.2c0 .1-.1.2-.1.2-.1.1-.1.2-.1.4 0 .3 0 .6-.2.9 0 .1-.1.2-.1.3 0-.1 0-.2-.1-.2h-.1c-.1 0-.1-.1-.2-.6 0-.5-.1-.8-.2-.8s-.2.1-.4.5v-.4-.7c-.1-.6 0-1.2.2-1.7v-.5l-.1.4V123.526c-.1.3-.2.6-.2.9v.1c-.1.7-.2.8-.2.8s-.1 0-.1-.1l-.1-.1s-.1.1-.2.5v-.1-.3s-.1 0-.1.2h-.1v-.1l.1-.1.1-.1v-.1c-.1 0-.1-.1-.2-.1s-.1.2-.2.5v.1c-.1.4-.1.6-.2.6l-.1-.1-.2-.6.1-.1c.1-.1.1-.2.1-.2.2-.4.2-.8.2-1.1v-.6c0-.1.1-.3.1-.4l.1-.3-.5 1c.1.1 0 .3-.2.7 0 .1-.1.1-.2.1s-.1 0-.1-.1c-.1-.1-.1-.2 0-.3v-.3s-.1.1-.1.2-.1.1-.1.2v-.4-.4c0-.1-.1-.1-.1-.1h-.1c-.6 1-.6 1-.7 1-.1-.1 0-.3.1-.7 0-.2.1-.4.1-.5 0-.1 0-.3-.1-.4h-.1s-.1 0-.1.1h-.1v-.3c0-.1.1-.2.1-.3h-.1l-.2.2c0-.1.1-.2.1-.3 0 0-.1.1-.1.2-.2.3-.2.3-.3.3-.1 0-.1 0-.2.3h-.1s-.1 0-.1.1l.3-.4v-.3c0-.2 0-.5-.1-.5h-.1c-.2 0-.3.1-.5.1-.1 0-.3.1-.4.1 0 0-.1 0-.1-.1l.5-.5c.1-.1.2-.2.3-.4l.1-.2-.2.2-.1.1c-.1.1-.2.1-.2.1s0-.1.1-.2c.1-.2.2-.3.2-.3s-.1 0-.2.2c-.1.1-.2.2-.3.2l-.2.2V121.626l.1-.1.1-.1c0 .1 0 .1-.1.2-.1.2-.2.3-.3.3h-.1l-.1-.1c-.1 0-.2-.1-.2-.2v-.2c.3-.5.2-.6.1-.7-.1-.1-.1-.2 0-.4h-.1l-.1.2-.1.2v.2c0 .1 0 .2-.4.5h-.1c0-.1 0-.1.1-.2l.1-.1v-.2c0-.1.1-.2 0-.2H77.626h-.1-.1c0-.1.1-.2.2-.4s.3-.4.2-.4h-.1-.1-.1c-.1-.1 0-.2.2-.4v-.1H77.426c-.2.1-.4.1-.6.2l.5-.5h-.1-.1v-.1l.1-.1c-.1.1-.2.1-.3.1-.1 0-.1 0-.2-.1h-.4c-.1 0-.2.1-.3.1-.1 0-.2-.1-.3-.2l-.1-.1c0-.1.2-.2.3-.3.1 0 .2-.1.2-.1H75.126l.1-.1c.1-.1.2-.1.3-.2h.2l.2-.2c.1-.2.3-.3.3-.4 0-.1.1-.2.3-.3l.1-.1v.1s0 .1.1.1h.1c.1-.1.2-.2.4-.2v.2c.1 0 .2 0 .3-.1l-.3.2s-.1 0-.1.1v-.1s-.1.1-.2.1l.1.1s.1 0 .1-.1l-.3.3c.2-.1.4-.3.6-.4.2-.2.4-.3.7-.4v-.2c0-.2 0-.3-.1-.3h-.1-.1c-.1 0-.4.1-1.3.8v-.1c-.1 0-.2.1-.3.2-.1.1-.3.3-.5.4h-.1c-.1-.1 0-.2.1-.3l.1-.1v-.1h-.1c-.2.1-.4.3-.6.3-.1 0-.1 0-.1-.1 0 0 0-.1-.1-.1s-.2.1-.3.2h-.1-.1l.2-.2c.2-.2.3-.3.2-.3h-.1-.1c-.4.2-.8.4-1.2.7h-.1c.1-.2.3-.4.5-.5l.2-.2c.2-.1.3-.2.4-.3h-.1-.1l.9-.7.6-.5c-.1 0-.1.1-.2.1s-.1.1-.2.2c-.2.2-.4.3-.6.4-.1.1-.3.1-.4.2-.1.1-.2.2-.4.3v-.1h-.1-.1c0-.1.1-.3.5-.5l-.2.2-.3.3c-.1 0-.2.1-.2.1h-.1v.1l-.1.1c-.1 0-.3.1-.4.2l-.1.1c-.1.1-.2.1-.3.2v-.1c0-.1.1-.1.2-.2l.1-.1.1.1.7-.7.1-.1c-.1 0-.1 0-.2.1h-.1l-.1.1h-.1c-.1 0-.3.1-.4.2-.1.1-.3.2-.4.3h-.1s.1-.1.2-.3l.2-.1c.2-.2.4-.3.4-.4-.1 0-.2.1-.3.1h-.1c-.1 0-.2.1-.3.1v-.1l-.2.1.3-.3c.1 0 .1-.1.2-.1h.1c.4-.3.4-.4.4-.4h-.1-.2c-.1-.1.1-.2.2-.4.1-.1.2-.3.2-.3h-.1-.2l-.2.2-.1.1h-.4c-.1.1-.2.1-.3.2v.1h-.1c0-.1 0-.2.6-.6v-.1-.1s0-.1.1-.1l.1-.1c-.1.1-.2.1-.2.2-.2.1-.4.3-.4.4 0 0-.4.3-.6.4l.2-.3h.2c.1 0 .1-.1.1-.1l.6-.5c-.1.1-.4.3-.4.3-.1 0-.1 0-.2.1-.1 0-.2.1-.3.1 0 0 0-.1.1-.2 0-.1.1-.1.1-.1-.1 0-.1 0-.2.1l-.1.1-.1.1-.3.3c0 .1-.2.3-.4.4l-.1.1c-.1 0-.1.1-.2.1 0-.1.2-.3.3-.4l1.1-.9-.2.2c-.2.2-.4.3-.5.4-.1.1-.2.1-.3.1l.3-.3c.1 0 .1-.1.1-.2 0 0 0-.1.1-.1h.1c.1 0 .2-.1.3-.1.2-.2.4-.4.6-.5-.1 0-.1.1-.2.1s-.1.1-.1.1l-.1.1c-.1.1-.2.1-.3.2l.2-.2h-.1s0-.1.3-.3c.1-.1.2-.2.2-.3l.1-.1-.3.2-.1.1-.1.1c-.1.1-.3.3-.5.3 0-.1.1-.2.1-.3 0-.1.1-.1.1-.2s.1-.2.1-.2h-.1c-.1.1-.5.3-.5.5 0 0-.1.1-.2.1v-.1c0-.1.1-.2.1-.2l.1-.1c-.1 0-.2 0-.2.1-.3.3-.7.5-1 .7-.1 0 0-.1 0-.1v-.1c-.1 0-.2 0-.2.1l.3-.3.1-.1.3-.2c.1-.1.3-.2.4-.3l-.1.1c-.1 0-.1.1-.2.1v-.1-.1c-.1 0-.3.1-.8.5-.1.1-.3.2-.4.3-.1 0-.1 0-.2-.1h-.1.1c.1-.1.3-.2.5-.3.3-.1.6-.3.8-.6l.7-.6-.9.7.5-.5c-.1 0-.2.1-.3.2-.1 0-.1.1-.2.1 0 0 0-.1.5-.4l-.2.1s0-.1.1-.1v-.1c.1-.1.1-.2.1-.2-.2.1-.4.2-.6.4-.2.1-.3.3-.5.4l-.1.1c.2-.1.2-.2.2-.2.1-.2.1-.3.1-.3-.1-.1-.1-.2.8-.9l-.2.2c-.1.1-.2.1-.3.2l.3-.3.3-.3h-.1c-.1 0-.1.1-.2.1l-.1.1c-.1.2-.3.3-.4.4-.2.1-.3.2-.4.3 0-.1 0-.2.1-.3l.1-.1c.1-.1.1-.3.1-.3 0-.1-.1-.1-.1-.1-.1 0-.2.1-.3.2-.2.2-.4.4-.6.5-.1 0-.2.1-.2.1s.1-.2.3-.4l.1-.1.3-.3.2-.2h-.1l.1-.1-.1.1c-.1.1-.2.1-.2.2 0 0 0-.1.1-.2l.1-.1.2-.2c-.1 0-.1-.1-.1-.1 0-.1 0-.1-.1-.1s-.2.1-.3.2l-.3.3c-.1 0-.2.1-.2.2l.2-.2h-.2l.1-.1c.3-.3.4-.4.4-.5-.2.1-.4.2-.5.3-.1 0-.1.1-.2.1v-.1l.1-.1h.1c.1 0 .1-.1.2-.2s.2-.2.3-.4c.2-.2.4-.4.5-.6 0 0 .1-.2.3-.3l.1-.1c-.1 0-.1.1-.2.1-.2.2-.6.5-.9.8-.2.1-.3.3-.5.4l-.1.1v-.1-.1c-.1 0-.2 0-.2.1l.1-.1c.1 0 .1-.1.1-.1 0-.1.1-.1.1-.1h-.1-.1c-.1-.1.1-.4.4-.7-.1.1-.2.2-.4.2v-.1-.1h-.1s-.1 0-.1.1c.1-.2.1-.3.1-.3 0-.1-.2-.1-.3-.1-.1 0-.2 0-.3-.1v-.1-.2h-.1-.1c-.3.1-.5.2-.7.4l-.2.1-.3.3v-.1s0-.1.4-.4l.1-.1.1-.1-.2.1-.4.4.1-.1c.1-.1.1-.2.2-.3.2-.2.4-.3.5-.3.3 0 .4-.3.5-.4-.2.2-.3.2-.3.2s0-.1.1-.1l.1-.1c-.1-.1-.2-.1-.3-.2-.1 0-.1-.1-.2-.1l-.4-.2c-.3.3-.5.4-.5.4v-.1-.1s-.1 0-.1.1l.7-.7h-.1-.1c-.1 0-.2.1-.3.2l-.2.2v.1l-.4.2.4-.4.8-.8-.8.7v-.1c.2-.3.3-.4.3-.4-.1 0-.2.1-.3.1h-.1-.1v-.1-.1H64.726c-.1 0-.2.1-.2.1l-.2.3-.2.1c-.1.1-.2.1-.3.1-.1-.1 0-.2.1-.3 0 0 .1 0 .2-.1l.2-.1c.2-.1.3-.2.5-.3.1 0 .1 0 .1-.1h.1l.3-.3.2-.2h-.1-.1v-.1-.1-.1l-.4.4h-.1-.1c.3-.4.5-.7.5-.8 0-.1-.1-.1-.2-.1s-.1-.1-.2-.1c0-.1 0-.2.1-.3v-.1c-.2 0-.3.1-.4.1-.1.1-.2.1-.3.1-.3.3-.4.3-.4.3v-.1c0-.1.1-.1.3-.3l.2-.2c-.2 0-.9.6-1.4 1.2l-.3.3s-.1 0-.1.1l.2-.2.1-.1-.1.1-.5.5.5-.7.1-.1s-.1 0-.2.1h-.1l-.1.1h-.1c-.1.1-.1.2-.2.2h-.1s-.1 0-.2.2l-.1.1-.2.1.4-.4h-.1-.1v-.1s.1-.1 0-.1h-.1H61.326v-.1c0-.1.1-.1 0-.2h-.1H61.426v-.1c.1-.3.3-.5.5-.7.1-.1.1-.1.1-.2-.1.1-.2.1-.3.2-.2.1-.3.2-.5.3h-.1s0-.1.2-.2l.1-.1c.1 0 .1-.1.2-.2h-.1l.1-.1c.1-.1.2-.1.2-.1h-.1v-.1c.1-.1.1-.2.2-.3l.1-.1h-.1c-.1.1-.2.1-.3.2-.2.2-.4.4-.5.6 0 0 0-.1-.1-.1-.1-.1-.1-.2.1-.5.2-.2.3-.4.3-.5-.2.1-.5.2-.6.4l.2-.2c-.1 0-.1 0-.2.1-.1 0-.1.1-.2.1 0 0 0-.1.1-.3l.1-.1h-.1H60.426h-.1v-.1s.2-.1.2-.2l.2-.2v.1c.1 0 .1-.1.2-.1v-.1-.1c-.2.1-.3.1-.5.2-.1.1-.2.1-.2.2l-.1.1.1-.4v-.2c-.1 0-.1-.1-.2-.1-.1-.1-.2-.1-.3-.2-.1-.1-.1-.3-.1-.4v-.2c0-.1 0-.1-.1-.2 0 0 0-.1-.1-.2v-.1c0-.1 0-.2-.1-.2h-.1c-.1 0-.2 0-.3-.1-.1-.1-.1-.3 0-.7v-.2c-.1-.1-.1-.2.1-.4.1-.1.1-.1.1-.2-.1 0-.2 0-.2.1-.1 0-.1.1-.2.1 0 0 0-.1.1-.1.2-.2.2-.3.2-.3h-.2-.1-.1s0-.1.1-.3l.3-.3.4-.4h-.1c-.1-.1 0-.2 0-.2 0-.1.1-.1.1-.2v-.1-.1-.1c.2-.2.4-.5.7-.8l.3-.3-.1.1c-.3.2-.5.4-.8.5 0 0 .1-.2.3-.4l1.8-1.5c-.2.2-.2.2-.2.3H61.726c.1.1 0 .2-.1.3-.1.1-.2.3-.1.3s.1 0 .2-.1l-.2.2h.1c.1 0 .3-.1.4-.2.2-.1.2-.2.2-.2h-.2c0-.1 0-.1.4-.4h.1c.2-.1.3-.2.5-.3h-.1v-.1-.1h-.1c-.2 0-.3.1-.4.2h-.2l.1-.1c.1 0 .1-.1.2-.1l.1-.1c.1-.1.2-.2.2-.3h-.1c-.2.2-.4.3-.6.4l.3-.3 2.3-1.9c.1 0 .1-.1.2-.1s.1-.1.2-.1c.1-.1.2-.1.2-.2l.2-.2.1-.1.1-.1h.2c.1 0 .2 0 .7-.5l.3-.3h.1l-.4-1.1c-.2.1-.3.2-.2.2h.2s0 .1-.1.1l-.3.3-.3.3v.1c.1 0 .2-.1.6-.4.1-.1.3-.2.4-.3v.2h.1l.1-.1c.2-.1.3-.1.3-.1h.2s0 .1-.4.4v.1c.1-.1.2-.1.2-.2.1-.1.2-.1.2-.1l-.1.1-.2.2c.1 0 .3-.1.4-.1l.2-.1-.3.3-.3.3c-.1.1-.3.2-.4.3.1 0 .2-.1.3-.2 0 0-.1.1-.1.2l-.2.2-.1-.2.1-.1h-.1l-.2.2c-.1.1-.2.2-.3.4-.1.3-.1.5-.1.8.1 0 .2-.1.2-.2v-.1h-.1s0-.1.4-.4c.1-.1.1-.1.2-.1s.2 0 .3-.1c.1-.1.2-.1.3-.2 0 0 0 .1-.1.2s-.1.2-.1.2c.1 0 .2-.1.5-.3l.2-.2v-.1h-.1-.1s.1-.2.4-.5V92.426h.1c0 .1-.1.2-.3.3l-.2.2c.1 0 .2-.1.4-.2.1-.1.2-.1.3-.2h.1l.1.1-.6.4-.1.1s.1 0 .1-.1c.1 0 .1-.1.2-.1-.1.1-.1.2-.1.2.2 0 .4-.1.6-.2.1-.1.2-.1.3-.2.1 0 .1-.1.2-.1s.1 0 .2.1c.1.2-.1.9-.7 1.5l-.3.3s.1 0 .2-.2l.1-.1.1-.1c-.2.2-.2.3-.2.3.2-.1.4-.2.6-.4.4-.4.5-.4.5-.4s0 .1-.1.2c-.1.4-.1.5-.1.5.1-.1.2-.1.3-.1.1 0 .1 0 .1.1v.2l-.3.3c.1 0 .2-.1.3-.2.1-.1.2-.1.3-.2 0 0-.1.2-.2.3l.2-.2s0 .1-.1.2-.2.2-.2.3c0 0 .1 0 .4-.3-.4.3-.4.4-.4.5 0 .1 0 .1-.2.4-.1.1-.3.2-.4.3-.1.1-.1.2-.2.2-.1.1-.1.2-.2.3l.3-.3h.2s.1 0 .1.1v.1c-.2.3-.5.6-.9.7l-.2.2c.1 0 .1.1.2.1l.6-.5.2-.2.3-.3.2-.1c.1-.1.3-.2.4-.2 0 0 0 .1-.3.5h.1l.3-.1-.3.2c-.3 0-.6.2-.6.3-.1.1-.1.2-.2.3 0 .1-.1.1-.1.2l.4-.5.1-.1h.1c-.2.2-.2.4-.2.4l.1.1h.1l.3-.2h.1l.4-.2c.3-.2.6-.3.8-.5.1 0 .1-.1.2-.1h.1c-.2.2-.2.2-.2.3 0 0 0 .1-.3.4l-.3.3c0 .1-.1.1-.1.1l.5-.4.3-.3.2.2v.1l-.5.4-.6.2.3-.3s0 .1-.1.2l-.2.2h.1c.4-.2.8-.5 1.1-.8l.2-.2h.4v.1c-.1.1-.1.2-.1.2h.2v.1s-.1.1-.1.2v.1l-.4.2.3-.3.1-.2-.4.2-.1.1v.1s-.1 0-.1.1h-.1-.1V97.326l-.7.6v.2c0 .1 0 .1-.1.2l-.2.2v-.1s0-.1.1-.1l-.2.1v.1c0 .1-.1.2-.1.2.1.1.3.1.4.1h.1s.1-.1.2-.1c.1-.1.2-.2.2-.3.1-.2.3-.4.5-.5.2-.1.3-.3.5-.4l-.2.4-.4.2s0 .1-.1.1c.1 0 .1-.1.1-.1l.3-.3.2-.2.3-.3s0 .1-.1.1l-.8 1.3c.2-.2.5-.4.8-.6 0 0-.1.1-.3.4-.1.1-.2.2-.3.4v.1c.1 0 .2-.1.3-.3l.2-.2c.1-.1.2-.1.4-.1.1 0 .1 0 .1.1s.1.1.1.1h.5v.1c0 .1-.1.2-.1.2s0 .1-.1.1h-.1c-.1 0-.1.1-.2.1 0-.1.1-.2.1-.2l-.5.5c.1 0 .1-.1.2-.1.1-.1.3-.1.4-.2 0 .1-.2.3-.2.4l-.1.1c.1 0 .2-.1.2-.1.1-.1.2-.1.2-.1s0 .1-.1.1c-.1.1-.2.1-.2.2h-.1c-.1.1-.2.1-.3.2 0 0 0 .1-.1.1 0 0-.1.1-.1.2l.2-.1c.1 0 .2-.1.3-.1l.2-.1c.1-.1.2-.2.3-.2 0 .1 0 .1-.1.1l-.1.1c-.1.2-.2.2-.2.2l-.1.1-.3.3h.1c-.1.2-.3.4-.5.6l-.3.2-.2.2.4-.1-.4.2-.1.1c0 .1.1.1.1.1h.1l.4-.4c.2-.2.4-.3.4-.4h-.1c0-.1.1-.2.3-.3h.2c.2-.1.3-.3.4-.5.1-.3.4-.5.6-.6h.1c-.2.3-.5.6-.8.8v.1l.3-.2.3-.3-.3.3-.2.2-.2.2-.1.1.4-.3.4-.4-.1.2v.1c0 .1-.1.2 0 .2.2-.1.5-.2.6-.4l.1-.1s.1 0 .1.1c-.1.1-.1.2-.2.3l-.1.1v-.1-.1c-.1 0-.2 0-.2.1-.1.1-.2.2-.4.3-.3.2-.5.4-.7.6 0 .1-.1.1-.1.1.1 0 .2-.1.2-.2l.3-.3c.3-.2.4-.3.5-.3h.2c.1 0 .2-.1.2-.1.2-.1.2-.1.3-.3l.1-.1H75.126c0 .1-.1.1-.2.2l-.1.1c-.1 0-.1.1-.2.1.1-.1.3-.2.4-.2.1.1-.1.2-.4.6l-.2.2.1-.1.1-.1c-.1 0-.1.1-.2.1-.1.1-.2.1-.3.2-.1.1-.1.2-.2.2l-.1.1.2-.2.3-.1-.1.1-.1.1-.3.3-.3.2-.1.3.3-.3c.1-.1.3-.3.5-.4.4-.3.9-.6 1.4-.8 0 .1-.2.2-.5.5h-.1v.1c.3-.2.4-.3.5-.3l.1.1c0 .1 0 .1.1.1s.2-.1.3-.2l-.2.2h.2l-.3.3v.2c.1.1.2.1.3.1.1 0 .2.1.3.1l.1.1c0 .1.1.2.2.2.2 0 .5.1.6.2.1.2 0 .4-.2.8v.1h.5c.1 0 .1 0 .1.1h.4s0 .1-.3.4c-.3.3-.4.5-.4.5.1 0 .3-.1.4-.2h.1c.1-.1.2-.1.4-.2v.1s.1.1.2.1.2 0 .2.1c0 .2-.3.6-.9 1.2l.2-.2.4-.4v.1c0 .1 0 .1-.1.2l-.1.1-.2.2c.1 0 .1-.1.2-.1.1-.1.3-.2.4-.3l.4-.3v.1c0 .1-.1.1-.1.1s.1 0 .2-.1l.2.4c0 .1-.1.1-.1.1l-.3.3v.2H79.726s0 .1-.2.3c.1-.1.2-.1.3-.1l-.3.3-.3.3c.1 0 .3-.1.4-.2l.2-.2c.1-.1.1-.1.2-.1s.2 0 .2.1 0 .3-.4.7l-.2.2-.1.1.3-.3.5-.4-.4.3c0 .1-.1.1-.2.2s-.3.2-.2.2h.1c.1-.1.3-.1.4-.2.1-.1.2-.2.3-.2h.1v.1l.2.6h-.1-.1c-.1 0-.2.1-.3.1v.4l.2-.1.2-.3c-.3.2-.4.3-.4.3s.1-.1.2-.3l.1-.1c.2-.1.4-.3.7-.3l-.1.1c-.4.3-.3.4-.3.4v.1c.1 0 .2-.1.3-.2.1-.1.3-.2.5-.3.1 0 .1-.1.2-.1 0 0 0 .1-.2.3l-.1.1-.2.2s0 .1-.1.1-.1.1-.2.1c0 0 .1 0 .1-.1.1-.1.2-.1.3-.2 0 0 .1 0 .1-.1.2-.1.4-.3.7-.4 0 0 0 .1-.3.4v.1h.6c.1 0 .1 0 .1.1s-.2.3-.6.7v.1s.2-.1.3-.2c.1-.1.2-.1.2-.1s0 .1-.1.2-.1.1-.1.2c0 0 .1 0 .2-.1h.1c.1 0 .2-.1.3-.1h.1c0 .3.2.5.5.6v.2c0 .1-.1.2-.1.2.1 0 .2-.1.3-.1l-.1.1h.1c0 .2-.1.4-.2.5.1 0 .1 0 .2-.1s.1-.1.2-.1c.1.2.2.4.4.5.1 0 .1.1.2.2l.3.3.2.3c-.2.2-.3.2-.3.3h.1c.1-.1.2-.1.3-.2 0 0 0 .1-.1.2s-.2.2-.1.3c.1 0 .2-.1.3-.1 0 0-.1.3-.2.4-.1.1-.1.2-.1.2h.2c.1 0 .2-.1.3-.1.1 0 .1 0 .2.1s.1.3.1.4c0 .1 0 .2.1.3l.1.1-.1.1-.7.6c.2-.1.3-.3.5-.4l.3-.3.1-.1-.5.5c.1-.1.2-.1.2-.2l.1-.1.1-.1h.1v.2l-.1.1h.2s0 .1-.1.3v.1l.1-.1s0-.1.1-.1v.1c-.1.2-.1.3-.2.5l.1-.1c0 .1-.1.2-.1.3-.1.1-.1.3-.1.3v.1s.1-.1.1-.2c.1-.2.1-.2.2-.2v.2c0-.1.1-.1.1-.2V114.726c.1-.2.1-.3.2-.5 0 .2 0 .4-.1.6v.3c0-.1.1-.2.1-.2v.2c0-.1.1-.2.1-.4v-.1c0-.1.1-.1.1-.1v.2c0 .3.1.7.1.7s0-.1.1-.2v.3-.1.5-.8l.1.8v.1c0-.3.1-.6 0-.9v-.3c.1.7.1.8.1.8l.9 10.9.1 1.6-.1-.6-.1-.6c0-.1 0-.1-.1-.1v.5c.1.6.2 1.3.2 1.9v.5c0-.3-.1-.6-.2-.9v1.2zm-15.6-18.1l-.2.4c-.1 0-.1.1-.2.1h.1l.4-.3.9-.7c0 .1-.1.1-.1.2l-.1.1.2-.2.2-.2v-.1h-.1c-.1.1-.3.2-.5.3h-.1l-.1.1c0-.1.2-.2.4-.4.1-.1.3-.2.4-.3v-.1c-.1 0-.1.1-.2.1s-.1.1-.2.1v-.1l.1-.1.2-.2c.2-.2.4-.3.3-.4 0 0 0-.1-.1-.1s-.4.2-.9.7c-.2.2-.4.3-.5.5.1 0 .2-.1.3-.2l.1-.1.1-.1.4-.4h.1l-.2.2c-.1.1-.2.3-.4.4-.1.1-.2.2-.4.3-.3.3-.7.5-.7.7l.8-.2zm-3.2-6.9s0 .1-.1.2c-.4.4-.6.6-.6.7.1 0 .2-.1.3-.1.1-.1.2-.1.3-.2.1-.1.2-.1.3-.2l.1-.1c.1-.1.1-.2.2-.2l-.1.1-.1.1c-.2.2-.3.2-.3.2s0-.1.1-.1c0 0 .1-.1.1-.2 0 0-.1 0-.1.1h-.1c.5-.4.4-.4.4-.5l.1-.2.6-.2-.3.2-.1.1-.2.3.4-.2.5-.9-.5.4-.2.2.1-.2.1-.1c.1-.1.2-.3.2-.4-.2.1-.4.2-.5.4l-.6.5s0-.1.1-.2c0-.1.1-.1.1-.2.1-.1.1-.2.2-.3v-.1l-.2.2c-.1.1-.3.2-.4.4 0 .1-.1.2-.1.3-.1.1-.1.2-.1.3h.1c.2-.1.2-.1.3-.1zm-5.2-.7s0 .1 0 0c.1 0 .1.1.2.1 0 .1-.1.4-.6.9-.1.1-.1.1-.2.1l-.1.1h.2l.3-.3c.1-.1.2-.2.3-.2h.1c.1 0 .3-.1.7-.4 0 0 .1-.1.1-.2l.1-.1c-.1 0-.2.1-.3.1h-.1c0-.1 0-.2.2-.4.1-.1.1-.2.1-.2-.1 0-.2 0-.2.1-.1 0-.1.1-.2.1v-.1l-.6.4c.2-.2.3-.3.3-.4.1-.1.2-.3.3-.4.1-.2.3-.3.2-.4-.1 0-.2.1-.3.2-.1.1-.2.3-.4.4l.1-.1c.1-.1.2-.3.3-.4.1-.1.2-.2.4-.3h.1c-.2.1-.4.2-.5.4-.1.2-.3.3-.5.4 0 0-.1 0-.1.1-.2.2-.2.4-.2.4.2 0 .3-.1.4-.2-.1.1-.4.5-.4.5.1 0 .2 0 .2-.1 0 .1-.1.1-.1.1-.2.2-.4.3-.4.3-.1 0-.1-.1-.1-.1-.1 0-.1 0-.2.1h-.1-.1v.2h.1c.1 0 .3-.1.4-.1l.2-.2.4-.4zm-.1-2.1c-.1 0-.1.1-.2.1v.1c0 .1-.1.2-.1.2s0 .1.1.1c-.1.1-.2.2-.3.4-.1.2-.3.4-.5.5.2-.1.3-.2.5-.4l.3-.3s.1 0 .1-.1c.1-.1.2-.1.2-.2-.1 0-.1.1-.2.1s-.1.1-.1.1.1-.1.1-.2l.2-.2h-.1c.2-.1.4-.3.6-.5.4-.3.8-.7 1-.7v.2s.1 0 .2-.2c.1-.1.1-.2.2-.2v-.1c-.2.1-.3.2-.3.2v-.1-.1s-.1 0-.4.3v-.1c1.1-1 1.2-1.3 1.2-1.6-.1 0-.2.1-.2.1l-.1.1c-.1.1-.2.3-.3.4-.2.2-.3.5-.5.7-.2.2-.4.5-.7.7l-.4.4c-.1.1-.2.1-.3.2v-.1c0 .3.1.2 0 .2zm3.5.8c.1 0 .1 0 .1.1s0 .3-.2.5c0 0 .1 0 .1-.1l.2-.2c.2-.2.4-.3.5-.3.1 0 .1 0 .2-.1h-.3l.2-.2.1-.1c.1 0 .2-.1.3-.1v.2l.1-.1.1-.1s.1-.1.1-.2l-.1-.1v-.1c-.1 0-.2.1-.3.1.1-.1.1-.2.2-.3l.2-.2c.1 0 .1-.1.1-.1l.3-.2-.3.1-.3.3c-.2.1-.4.3-.3.4-.4.2-.5.4-.5.5v-.1-.1c-.1 0-.2.1-.3.2-.3.2-.5.3-.7.3l-.1.1c-.1.2-.1.3 0 .3h.2c.2-.4.3-.4.4-.4zm-5.5-.4s-.1.1-.1.2c-.1.1-.1.1-.1.2v.1c.4-.3.8-.6 1.3-.7h.1c-.1 0-.1.1-.2.2l-.2.2v-.1l-.1.1v.1h.4l-.2.2-.2.2.1-.1.6-.6.2-.2c-.1 0-.1.1-.1.1l-.1.1c.3-.3.4-.4.4-.5h-.1-.1-.1-.1s0-.1.2-.3c0 0-.1 0-.1.1-.1 0-.2.1-.3.1l.3-.3c.3-.2.3-.3.3-.4 0-.1 0-.2.4-.5 0 0-.1 0-.1.1-.1 0-.1.1-.2.2-.1.2-.3.3-.5.4 0 0-.1 0-.1.1l-.1.1c-.2.1-.3.2-.4.4v.1c0 .1-.1.2-.1.3 0 .1-.1.2-.2.3-.1.1-.1.1-.1.2-.5-.4-.5-.4-.4-.4zm4.4-.4s.1 0 0 0c.1.1.1.1 0 .3.1 0 .2-.1.3-.1.1 0 .1-.1.2-.1s.1-.1.2-.2v-.1-.2c0-.1 0-.2-.1-.2 0-.1 0-.1.1-.2 0-.1.1-.1.1-.2v-.1c-.2.1-.3.2-.4.2s-.2.1-.2.1v-.1l.1-.1c.1 0 .1-.1.2-.1s.1-.1.2-.1v-.1c-.1.1-.3.2-.4.2-.2.1-.4.2-.5.3 0-.1.1-.1.1-.2l.2-.2c.1-.1.1-.1.2-.1-.1.1-.1.2-.2.3l-.1.1s.1 0 .1-.1c.3-.2.6-.5.9-.8.1-.1.3-.2.4-.3v-.1h-.1c-.6.4-1.1.9-1.5 1.4-.3.3-.6.6-1 .9H65.426c.4-.1.5-.1.6-.1zm-2-2.1c0 .1-.1.1-.1.2l-.1.1c-.1.1-.1.2-.2.3 0 0 .2-.1.6-.5.1-.1.3-.2.4-.3.1 0 .1-.1.2-.1v-.1c0-.1.1-.2.1-.3.1-.1.2-.2.3-.4l.3-.3.3-.3v-.2h-.1-.1-.1c-.1 0 0-.1 0-.2v-.2c-.2 0-.3.1-.4.2.3-.3.3-.3.3-.4 0 0-.1 0 0-.1l.4-.3h-.1s-.3.3-.5.4c-.2.2-.3.2-.3.2h-.1l.3-.2.2-.1.1-.1c-.2 0-.3.1-.5.2-.1.1-.3.1-.5.2-.1 0-.1-.1 0-.2s.1-.2.2-.2l.1-.1-1.2 1.1c.2-.2.3-.2.3-.2s0 .1-.1.1c-.1.1-.1.2-.1.2.1 0 .2-.1.2-.2.1 0 .1-.1.1-.2h.2l-.6.4-.3.2h.2l.3-.3.4-.3v.1c-.2.2-.4.3-.6.6l-.3.3-.3.3h-.1l-.1.6.2-.1c.1-.2.3-.3.5-.4.1 0 .3-.1.4-.3l.1-.1.1-.1c.1 0 .1-.1.2-.1l.3.3.1.1-.1.1c-.2.1-.3.2-.3.3 0 0-.1.1-.1.2s-.1.1-.1.2l.1-.1v.1l-.1.1c-.3.1-.2 0 0-.1-.1 0 0 0 0 0zm-1.8-1.9l-.3.3c-.2 0-.4.2-.5.4 0 0-.1.1-.3.2l-.3.2-.4.4h.1s.1 0 .1-.1l1.2-1.1.2-.2c.1 0 .2-.1.2-.1l.1.1v.1h.2l.3-.3.2-.2v.2s.1 0 .3-.2l-.2.2-.2.2.6-.5.1-.1v-.1l.2-.2v.1c.1 0 .1 0 .2.1 0 0 0 .1-.8.6-.1 0-.1.1-.2.2l-.1.1.7-.4.3-.3c.2-.2.4-.3.3-.4h-.1v-.2s.1-.1.1-.2c0 0 0-.1-.1-.1s-.2.1-.5.4c.2-.2.2-.3.2-.4 0 0-.1-.1-.2-.1h-.2c0-.1 0-.1.1-.2-.1 0-.2.1-.2.1l-.3.3-.3.3h-.1v-.1-.2-.1-.1l-.1.1-.1.1c-.1.1-.1.2-.2.3v.2c-.1 0-.1.1-.2.1l-.1.1-.1-.1-.2.2c-.1 0-.3.2-.6.4l-.1.1c.1 0 .1.1.2.1v.2c-.1 0-.1.1-.2.1H60.626v.1c0 .1-.1.1-.1.1.2 0 .3-.1.5-.2.3-.1.5-.3.7-.6l.3-.3v.1l.6-.3c.2-.2.4-.3.7-.4.1 0 .1 0 .2.1l.1.1s-.1.1-.1.2l-.2.2h-.1c.1-.1.1-.2.1-.2-.1 0-.3.1-.4.2-.1.1-.2.1-.3.2v-.1l-.1.1c-.3 0-.3.1-.3.2h-.1.1zM74.826 116.426zM74.826 116.426zM68.426 92.126z"/><path d="M69.226 105.726s-.1 0 .1-.1l-.1.1zM62.826 102.326zM78.326 113.926s-.1 0-.1.1l.1-.1zM61.926 98.526zM72.826 109.426zM65.026 96.126s-.1 0-.2.1l.2-.1zM60.126 98.326zM64.026 107.026zM63.626 106.126l-.1.1v-.1c.1 0 .1-.1.2-.1s.1-.1.2-.1l.3-.3-.2.1-.2.2v-.2l.1-.1-.3.3c-.1.1-.1.2-.1.2.4-.1-.2.5-.6.9-.5.5.1.2-.1.4l.4-.3.9-.7-.5-.3zM58.926 97.626c0-.1.1-.1.1-.2.4-.4-.5.1.3-.6l.2-.2-.9.7v.3c0 .2.2.1.3 0"/><path d="M63.526 106.826l-.1.1v-.1h.1c.4-.4.6-.5.1-.2-.4.2.7-.6.2-.3l-.9.7c-.7.8.4 0 .4.2l.4-.3.1-.1c-.3.1.6-.8-.3 0M67.126 92.626c0 .1.2.1.4.2.2-.4.4-.7.5-1l-.4.3c-.1 0-.3.2-.5.5M64.026 107.026z"/><path d="M64.526 106.626c-.1 0 0-.3-.5.1-.5.5.6-.7-.2.1l-.1.1c-.7.8-.3.6.3.2l.5-.5M71.226 95.726c.8-.8-.5.2-.1-.3-.1 0-.2.1-.3.1-.1.2-.3.4-.2.5 0 0 .2 0 .6-.3M64.826 108.226c0 .1.3-.1.4-.2l.2-.4.4-.4-.6.4c-.1.1-.3.3-.4.6M68.626 111.126c.1-.1.2-.3.4-.4-.2.1-.2 0-.6.4-.9.8.5-.2-.2.5.1-.2.3-.3.4-.5M71.026 96.326l.2-.2c0-.1.1-.2 0-.1s-.2.2-.4.2c0 0 .1 0 0 0l-.3.3-.2.2c-.3.1-.3.3-.5.4l.3-.2.1-.1c.3-.1.6-.6.8-.5M70.326 96.926l-.1.1c0-.1 0-.1.1-.1M66.426 108.226l-.4.4c-.2.2-.6.6-.3.4.2-.1.6-.5 1-.8-.2.1-.7.5-.3 0M85.626 126.926v.3c.1.4.2.9.3 1.3 0-.1.1-.2.1-.3-.1-1-.4-.1-.4-1.3M73.326 116.626c-.2.1-.5.2-.7.3 0 .1-.1.1-.1.2.1 0 .3-.1.5-.2l.3-.3M70.826 113.526l-.8.6h.2l-.2.2c.2-.2.5-.5.7-.6.1 0 0-.1.1-.2M75.126 118.626c-.1.1-.3.1-.4.2 0 .1-.1.2-.1.3.2-.1.3-.2.5-.3 0-.1.1-.2 0-.2M79.926 121.926c-.2.1-.4.1-.5.2-.5.8.5-.3.1.4l.2-.2c.1-.1.2-.3.2-.4M68.126 110.226c-.4.3-.8.6-1.2.8-.1.2.1.1.5-.3.6-.5.2-.1.1.1.6-.3.2-.3.6-.6M67.926 92.226l.5-.1c.1-.1.2-.2.1-.2-.3.2.1-.3-.6.3M68.426 92.126zM68.426 92.126zM66.026 108.626z"/><path d="M66.626 108.026c0-.1.1-.2.1-.2-.1.1-.2.1-.3.2l-.8.9.4-.3c.1-.3.3-.5.6-.6M66.026 108.626zM66.026 108.626z"/><path fill="none" d="M-.7 189.492H1v1.8H-.8v-1.8z"/><path d="M75.026 116.226c.3-.2.3-.3 0 0l-.7.5v.1l.5-.4.2-.2zM74.826 116.426zM72.126 116.226c0 .1 0 .2.1.3h.2v-.4c-.1-.1-.2 0-.3.1M64.026 100.226c.5-.3.1-.2.6-.7.6-.5.9-.9 0-.3l-.6.7c0 .2-.1.4 0 .3M64.726 98.426c-.4.3-.3.3-.3.4.1 0 .2-.1.4-.1.1-.1.2-.3.2-.4 0-.1-.1.1-.3.1M86.926 117.126s.1 0 0 0v-.4.4zM97.226 125.026c0-.1.1-.1.1-.1.1-.1.1-.3.1-.4-.2-.3-.4-.5-.6-.7-.3-.2-.6-.4-.9-.5-.7-.2-1.2-.7-1.6-1.3l-.4.1.7.9.7.6-.2.9-.5-.8-1.1-1.6-.1.7c.1 0 .1 0 .2.1.1 0 .2.1.3.2.2.2.3.4.4.7v.1h-.1c-.1 0-.3-.1-.4-.1-.1-.1-.2-.1-.4-.1h-.1c0 .1.1.4.4.9l-2.5-3.1.2.2c.2.1.4.3.6.4.1 0 .2.1.3.1.1 0 .2 0 .3-.1.2-.3-.1-1-.4-1.7-.2-.4-.3-.7-.4-1.1.1 0 .1 0 .2.1.1 0 .2.1.2.1l.3.4.8.9.1-.1c-.4-.3-.3-.4-.2-.5 0 0 .1-.1.1-.2s-.2-.4-.6-.7c-.4-.3-.8-.7-1.1-1.1 0-.2 0-.4.2-.6 0-.1.1-.1.1-.1l.7 1c.1 0 .2-.2.3-.3.1-.2.1-.3.3-.3.3.1.6.2.8.4-.4-.6-.6-.9-.5-1.1.1-.1.2-.2.4-.2s.4-.1.5-.2c.1-.1 0-.3 0-.4-.1-.2-.1-.3 0-.5.2-.2.4-.4.7-.4.3.1.6.3.9.5.2.2.5.3.7.5.3.2.6.4 1 .5h1c.1.1.2.3.3.5.2.3.5.7.8 1 .9.9 1.3 1.3 1.2 1.4h-.1c-.2-.1-.5-.2-.7-.3l-.6-.3c.1 0 .3 0 .3-.1v-.1c-.4-.6-.5-.7-.7-.7h-.2c-.2 0-.4-.1-.9-.5-.4-.5-.9-.8-1.5-1 0 0-.1 0-.1.1-.1.1 0 .5.8 1.4l1.9.9h.3c0 .1 0 .1.1.2.4.4.5.5.5.6h-.5-.1s0 .1.1.2c-.1 0-.3-.1-.4-.1-.2-.1-.4-.1-.6-.2h-.1c-.1.1-.1.1-.2.1-.2 0-.4-.3-.6-.6-.1-.1-.2-.3-.3-.4l-1.3 2.1s.1.2.1.3c.1.1.1.2.2.3h.1c.1 0 .2 0 .3.1.3.2.6.5.6.9.1.3.1.7.9 1.1 0 0 .3.4.2.4-.1.1-.3.1-.4.2 0 .1-.5.3-.9.5z"/><path d="M92.426 121.826s.3.5.4.7c.1.2.2.3.4.4v-.3l-1.1-1.3c0 .3 0 .5.3.5M93.626 120.726c-.4-.3-.4-1.1-1-1.1.1.2.5.4.3.6 0 0 .3.4.4.7.1-.2-.2-.8.3-.2l.6.5c.1.1.1.2.2.3 0-.3 0-.7-.1-1 0-.1-.1-.1-.1-.2-.1 0-.2.1-.3.1l-.3.3M95.826 119.526l1.2 1c-.2-.3-.5-.6-.9-1.2-.1-.1-.3-.2-.4-.3-.5-.2 1.2 1.1.1.5"/><path d="M91.826 118.726h-.2l-.1.1-.2-.2s.1 0 .1-.1c.1-.4.2-.4.7.6 0 .1.1.1.2.2.1 0 .2.1.2 0-.1-.2-.2-.5-.4-.7-.2 0-.8-.8-.8-.5 0 .2-.3 0-.4.1-.1.1-.2.1.2.7-.8-.6-.3.9-.9.6-.1-.1 0 .2 0 .4s.1.3.2.4c.1.2.3.3.4.5h-.4c-.1 0-.1.1-.2.2 0 .1.1.2.1.2.1.1.2.1.3.1.1 0 .1-.1.2-.1h.1v.3c.2.2-.3.1.1.5-.1.2 0 .5.3.9 0 0 .1.1.1 0 .1-.1.1-.3.2-.4 0 .1.1.3.1.4 0 .2-.1.4-.1.6.1 0 .3.1.3-.1.1-.2.1-.5 0-.8-.3-1.2-.6-.6-.9-1.1.6.2-.3-1.3-.3-1.7.1-.4.3-.3.4-.6 0 0 .1 0 .2.1s.1.2.2.3c0 .1 0 .1-.1.1-.5-.3.4 1.3-.1 1.1 0 .1.1.2.1.2.1 0 .2.1.1 0 0-.4.1-.1.3.2.3.1-.5-.7-.1-.6.2.1.2-.3.3-.5-.1-.1-.2-.2-.3-.4-.6-.6.4-.1-.2-.7l.2.1.2.1-.1-.5zM94.726 119.326l.1.4.1.6c-.8-.7-.1.3-.3.2.2.1.5.2.7.3.3.3.6 0 .8.6 0 .1-.1.1-.1.1l.1.1c.1 0 .2 0 .2-.1.1-.4-.5-.4-.6-.7-.4-.3-.4-.4-.2-.5.4-.1 0-.7-.2-.9-.4-.5.1.5-.6-.1M96.826 117.326l.1.1c0 .1.1.3.1.4-.1-.1-.3-.1-.4-.2-.6-.5-.3.3-1-.4 0 0 0 .1.1.1l.2.2c.4.1.5.4.6.5.2.2.2.5.6.4h.4c.2 0 .7.2.7.2-.3-.5.5 0 .5 0-.8-.9-.8-1.3-.7-1.6-1.4-.8-.2.7-1.2.3M98.326 113.326c.1-.3-.3-1 .3-.9.1 0-.1-.3-.2-.5l-.2-.2h-.1c-.2.1-.5.1-.5.3-.1.2-.3-.1-.5-.1-.1 0-.1.1-.1 0 .2.4.3.5.4.7h-.1l-.3-.3c0-.1-.1-.1-.1-.2h-.1c0 .1.2.2.2.3l.3.6c-.2-.1-.4-.1-.5-.2-.1 0-.1-.1-.2-.2h.1c.1 0 .7.5.4.2-.4-.4-.9-.7-1.3-1-.1 0-.2 0-.2.1.8.8 1.7 1.5 2.6 2.1 0-.3.1-.5.1-.7M100.326 114.326c-.2 0-.9-.4-1-.2-.1.2.5.3.7.6-.2 0-.4-.1-.6-.2-.2-.1-.3-.2-.5-.4 0 .2 1.1.9.8 1 0 0 .1.1.2.1.5.1.8.1.3-.5.5.3.9.4.6-.1h.2c.8.6 0 .4.4.7.1.1 0 .2 0 .2.1 0 .3 0 .3-.1 0-.2 0-.3-.1-.5-.5-.2-1-.7-1.3-.6M100.926 113.126c.2.5-.2.5-.5.4-.7-.3.2.5-.1.4l.5.5c0-.1.1-.2.1-.3.1-.2.6 0 1.1.3.1.1.2.2.2.3 0-.1.1-.1.1-.2-.1-.2-.7-.3-.6-.5.1-.1.1-.4-.4-.8l-.4-.1M93.826 122.726l.3.3c.2.1.3.2.5.2 0-.1 0-.2-.1-.3-1.1-.7-.3-.6-.2-.8v-.2c-.2.1-.4.3-.6.4 0 .2 0 .4.1.4M97.026 114.626h-.1c-1.2-1-1.6-.8-2-.7l.2.2s.1 0 .1.1c.5.1.9.2 1.4.4.5.3 1 .6 1.4.9.1 0 .2.3.2.3-.1.1-.5-.1-.2.3.2 0 .3 0 .5-.1.1-.1.2-.2.2-.3.4.4.6 0 1 .6 0-.3-.5-.5-.7-.7-.1-.2-.1-.3-.3-.2l.2.3c-.1 0-.7-.5-.5-.1-.5-.5-1.5-.9-1.4-1.4 0-.1.4 0 0-.3-.1-.1-.3 0-.4-.1.7.6-.4.2.4.8M94.526 114.226c0 .1.3.3.4.2.1-.1.5.6.6.4 0-.1-.6-.4-.6-.7-.2 0-.4-.1-.4.1"/><path d="M96.126 113.726c.1.1-.8-.4 0 .2.2.1.7.3.5-.1l-.4-.3h.4l-1.3-1.2.2.3c.1.4-.4.4.6 1.1M90.126 122.126c-.1-.1-.3-.2-.4-.4 0 .2 0 .4.1.6.1.3.3.6.5.9-.1-.3-.1-.6-.2-1.1M120.626 87.726c-.7-.8.5-.2 0-.8l.3.2s0 .1.1.1c0 0-.1 0-.1.1 0 0 .1.1.1.2.1-.1.2-.2.2-.3 0 0 0-.1-.1-.1l.3.3c0-.3-1.1-1-1-1.3-.3.1-.7.2-.8.5-.1.3-.6.5.7 1.6.2-.3.4-.4.3-.5M91.826 124.226l.2.1.1.1c0 .1 0 .2-.1.3h-.2c-.5-.2-1-.8-1.2-.1.1.2.2-.2.3.5h1.3c.1 0-.2-.8.1-.3v-.3c-.1-.2-.1-.3-.2-.5-.1.1-.2.2-.3.2M89.826 113.026c.1 0 .2-.1.4-.1 0-.1-.1-.2-.1-.3-.4-.1-1-.5-1.1-.4-.3.2.9.4.8.8M87.026 117.626c0-.2 0-.3-.1-.5l.1 1.1c.1 0 0-.9 0-.6M87.826 123.826c.1-.8.6.7.7-.5 0 0 .1.3.1.2.1-.3.1-.6.1-.8-.2-.7-.2-.1-.2-.1-.1 0-.1.1-.2-.6l-.1-.9c-.1.4-.4-.3-.4 1.1 0 .1 0 .3-.1.4 0-.2-.1-.4-.1-.5 0-.2-.1-.4-.1-.6v.2c.1 1.6.1 1.1 0 .6l.1 1.4c0 .3.1.5.2.1M113.326 97.626l.2.2v-.1c-.1-.1-.3-.2-.4-.3l-.9-.7h.1l.4.1c-.1-.1-.3-.2-.5-.3-.1 0-.2 0-.2.1.1.2.6.6.5.6-.3.1-.5-.5-.9-.6-.4-.2.7.6.1.2-.3-.2-.6-.5-.7-.3-.2.2 0 .5.7 1 .2.2.5.3.7.4l-.2-.3c-.1-.1-.1-.1-.2-.1l-.5-.2c0-.1-.1-.2 0-.2.2.1.5.2.7.4.4.3.9 1 1.2.8l-.7-.7h.6zM89.026 122.426c0 .1 0 .3.1.5.1-.1.3-.1.4-.3v-.7c-.2.1-.3.3-.5.5"/><path d="M90.426 125.526c.1-.1.2-.1.2-.2 0-.2.1-.4.1-.6-.3-.2-.4-.1-.3.8M90.126 117.426c-.1 0-.1 0 0 0M89.226 123.626l-.1.5.5.9v-.4l-.2-.2c-.2-.4.2 0 0-.5-.1-.1-.2-.3-.2-.3M88.826 121.626c-.1-.4-.1-1-.2-1.1-.3-.8-.1 1.3-.5.2v.4c.5 1.3.3-.8.7.5M90.726 117.726l-.1-.2c-.4-.3-.5-.4-.5 0 .5.6.3-.1.6.2M99.726 109.426s-.1-.1-.1-.2v.1l-.1.4-.3-.3c-.1-.1-.1-.2-.1-.3h.2l-.2-.2c-.1 0-.3-.1-.3-.1.1.3-.6 0-.2.6-.2 0-.4-.1-.7-.2-.1 0-.1-.1-.1-.1l-.3-.3.1.3c.2 0 .5.7.8.5.3.6.7.3.6.4-.1.1-.6 0-.1.5l.3.7h.1c.6-.1.4-.2.4-.4-.1-.6 0-.9.8-.7.1.1-1-.5-.8-.7M97.926 117.026c0 .1.7.4.2.4-.1 0-.1.1-.1.1l.1.1s.1 0 .1-.1v-.4s.3.2.4.3c-.3-.2-.5-.4-.8-.6-.4-.3.2.2.1.2M113.126 88.326c0 .2.1.4.1.5.1.1.3.2.5.3-.1-.3-.2-.5-.3-.8-.2.1-.3 0-.3 0M109.126 86.926c.2.3.4.6.6.8.5.4 0-.2.1-.2.2 0 .4.1.5.4.8.4 0-.3-.1-.4-.2-.2-.5-.5-.7-.6-.2-.1-.2 0-.4 0M114.426 89.426c-.1 0 .2.3.2.5.3.1.7.3 1.1.4-.2-.2-.4-.6-.4-.6l-.9-.3M117.726 88.626c-.3.1-.6-.7-.6-.6-.2.4.6.7 1 1.1l.2.2c-.1-.2-.2-.4-.3-.5-.1-.3-.2-.2-.3-.2M116.526 87.826c-.1-.1-.1 0 0 0M107.026 89.726c-.3.2.3.5.6.7.4.4.7.5.8.4l-.2-.1c-.3-.2-.2-.2-.1-.2-.3-.3-.8-.3-1.1-.8"/><path d="M99.826 109.626l.8.3-.9-.8s-.1-.1-.2-.1c.2.2.2.4.3.6M110.726 95.326l.1.2c.3 0 .5-.1.8-.1l-.5-.5c-.4-.1-.9-.3-.4.4M107.526 91.826l-.9-.3c-.1 0 0 .2 0 .3-.5-.6-.7-.4-.9-.5-.1-.1-.3 0-.2.1.7.9 1 .6 1.5.9.1.1.1-.1.1-.2l.4-.3zM107.226 91.326c0-.2-.1-.3-.2-.5-.2 0-.4.1-.6.1.4.4.2-.2.6.4 0 .1.2.1.2 0M113.626 96.126s0-.1-.1-.1c-.3 0-.5 0-.8.1 0 0 .1.2.2.2 1.4 1-.1-.7.7-.2M120.826 82.226v-.2l-1.2-.3.1.2c.8.7.9.4 1.1.3M123.126 85.026l.7-.4-.1-.1-1.2-.2c.3.3.5.5.6.7M122.526 79.826c-.1 0 0 .3.1.4.3.1 1 .8.9.3l-.1-.3c-.4-.2-.7-.3-.9-.4M122.126 83.626c-.2-.1-.4-.2-.6-.2.1.1.1.3.2.4.3.2.5.3.9.5-.1-.3-.3-.5-.5-.7M125.626 80.526c.4.3.6.5.7.5.1.1.1.2.1.3l.6.2c-.3-.3-.6-.7-.9-1-.5-.4.1.2-.5 0M116.726 87.226c-.1.2-.1.4-.2.6.1.1.3.2.3.2.1-.2.2-.3.2-.5l-.3-.3zM132.526 74.726c.3.1.6.2.9.2.1 0-.2-.4-.4-.6-.2 0-.3.1-.6.1 0 0 0 .1.1.3M114.026 84.826l.9.4c-.4-.3-.8-.6-.6-.8-.2 0-.3 0-.5.1l.2.3zM109.626 95.526s-.5-.3-.5-.2c-.2.3.9.7 1 1.1.7.4.4 0 .4-.7-.2.6-.5.4-.9-.2M115.226 84.126l.8.7c0-.1.6.3.2-.1-.3-.3-.7-.5-1.1-.8.1.1 0 .2.1.2M120.026 82.926c.3.1.6.2.4-.1 0-.1-.1-.1-.1-.3-.2-.1-.5-.2-.5-.2 0 .2.1.4.2.6M117.726 84.726l.6 1c.1 0 .2.1.2 0-.1-.3-.3-.7-.5-1 0-.1-.2-.1-.3 0M113.826 96.426c0 .1.1.2.2.2l1.1.6-.8-.8c-.1 0-.3.1-.5 0M102.626 105.926l-.2-.5-1.1-.1.4.5.2.2h-.2c-.2 0-.4-.1-.6-.1.1.2.2.4.4.5 1.2.9.3.4.1.4-.1 0-.3-.1-.4-.1.2.2.4.3.7.4.2-.1.9.2.7-.2 0-.1.2-.1.3-.1 1.6 1.1.3-.2.5-.3-.1-.1-.2-.1-.3-.2l-.4-.2c.1.1.2.1.2.2.5.5 0 .2-.2.2 0 0 .1.1.1.2-.4-.4-.5-.3-.6-.2h-.2l-.2-.8.3.2.1.1.4-.1zM105.126 103.726c.3.4.7.7 1.1 1.1.3.2-.5-.6 0-.3l-.5-.8-.1-.1c-.1-.2-.2-.3-.3-.5-1.2-.7.4.8-.2.6M99.726 101.326s.2.3.3.4c.2.1.5.2.5.2l-.3-.9c-.3.1-.4.2-.5.3M103.326 105.726c-.1-.1-.2.4-.3-.2 0-.2-.2-.4-.6-.7 0 .2-.1.3 0 .5.2.2.3.4.6.6.5.3.7.3.6 0-.1-.1-.2-.1-.3-.2M104.326 104.726s.1 0 .1.1c0-.2.1-.4.2-.5 0 0 .2.1.3.1.1.1.2.1.3.2v.2l.6.4c-.3-.3-.6-.7-1-1.2-.5-.1-.9-.2-1.4-.3l.9 1zM106.426 98.626c-.1.2-.4-.6-.4-.3.1.2.2.5.3.6l.6.9c.2.1.5.1.8.1.1 0-.1-.3-.1-.5h-.7l-.4-.7c.7.5.1-.1.1-.1-.2-.2-.2-.1-.2 0M105.026 102.526c.2 0 .5 0 .7-.1l-.6-.6c-.1.1-.3.2-.4.4l.3.3M103.826 96.426c0-.2 0-.5-.1-.6-.7-.6-.1.4-.7 0 .1.2.2.3.4.5.2 0 .3.1.4.1M106.226 100.726c.2.1.4.1.6.2.3.2-.5-.1.2.3v-.2l-.2-.5c.6.7.5 0 1 .5v-.1c-.3-.2-.7-.5-1-.7-1-.6-.3.3-.6.5M109.326 98.826c.1.1.6.6.7.4.1-.1-.1-.2-.3-.4-.1-.1-.2-.3-.3-.5-.4 0-.3.3-.1.5M106.526 98.026c-.1.1.3.5.4.7.2-.2.2-.5-.4-1.2v-.1c-.9-.3.1.5 0 .6M110.326 99.926c.4.2 0-.4.6 0l-.1-.3-1.2-.3c.4.2.6.6.7.6M100.826 108.526c0 .1-.2 0-.2.1 0 0 .1.1.1.2.7.3.3-.2.2-.4-.1-.1-.1-.3-.2-.4-.7-.3-.1.2.1.5M95.426 104.926l.2.2c-.1-.1-.2-.1-.2-.2h-.7l.2.2c.1 0 .1.1.2.1-.2-.4.4-.1.8.2.4.3.6.2.5.1-.2-.3-.4-.5-.6-.7-.3-.1-.6-.2-.8-.3l.4.4z"/><path d="M110.126 98.226c-.9-.5-.4.3-1 0v.1l.2.1c.2 0 .4 0 .5.1.8.7.6.2.9.3-.1 0-.1-.1-.2-.2 0-.1-.2-.3-.4-.4M113.426 98.326zM96.626 113.926zM120.526 88.026z"/><path d="M90.726 127.626c-.1 0-.2-.1-.2-.1-.1-.1-.2-.3-.3-.4-.1-.2-.2-.4-.3-.4l-.1.1c0 .2-.1.3-.2.3s-.1 0-.2-.1l-.1-.1c-.1 0-.2.1-.2.1-.1.1-.1.1-.2.1h-.1c-.3-.4-.5-.8-.6-1.2l-.1-.1c.1.5.1.9 0 1.4-.1 0-.2-.3-.3-.5l-.3-2.8c.1.2.1.3.1.3s.1-.1.1-.2c0-.2.1-.3.1-.3s.1.1.2.1c.1.1.1.1.2.1s.1-.1.2-.4v.1c0 .1 0 .1.1.1v-.1c.1-.2.1-.5.1-.7-.1-.2-.1-.3-.1-.3s0 .1-.1.1v.1h-.1c-.1 0-.1-.1-.1-.6l-.1-.9c0 .1-.1.2-.2.2s-.2 0-.2.9v.4-.2l-.1-.3c0-.2-.1-.4-.1-.6v.2c.1.4.1.7.1 1.1-.1-.2-.1-.3-.1-.5l-.4-4.2v-.5-.2-1.3-.2c0-.4 0-.7-.1-1.1v-.2c.1.4.1 1 .2 1.2v.1c0-.3 0-.6-.1-.9v-.3c0-.2 0-.3-.1-.4v.2c0-.1-.1-.6-.1-.8v-.1-.1c.1.1.1.3.1.5v.2l-.1-.3s-.1-.3-.1-.5l.1.2.1.2c0 .1.1.2.1.3.1.5.2.6.2.6s0-.1-.1-.4v.2c0 .1.1.2.1.3v.1l-.1-.1v.1c.1.3.2.5.3.8.1.2.3.3.5.3 0-.1-.1-.2-.1-.3v.2s-.1 0-.3-.6c0-.1-.1-.2-.1-.3 0-.1 0-.2-.1-.4-.2-.4-.2-.4-.1-.4 0 0 .1.1.1.2s.1.1.1.2c-.1-.2-.1-.4-.3-.6l-.2-.3c0 .1.1.1.1.2l-.1-.1c-.1-.1-.2-.3-.3-.6.1.1.1.2.1.2l.2.3c.1.1.1.2.2.3-.1-.2-.2-.3-.2-.5-.1-.1-.1-.2-.1-.3v-.1l.4.7.1.1s0 .1.1.1c0-.1-.1-.1-.1-.2l-.1-.1c.1.1.1.2.2.2-.2-.3-.3-.6-.5-.8-.1-.1-.1-.2-.2-.2 0 0 .1 0 .1.1.4.3.8.5 1.2.8.1.1.2.1.3.2l-.2-.2c-.1 0-.1-.1-.2-.2h.1c.1.1.2.1.3.1h.1c0-.1-.3-.5-.4-.6-.5-.4-.5-.5-.5-.5h.4c-.2-.3-.1-.4.1-.5.1 0 .1-.1.1-.1h.1c.1.1.3.2.5.2 0 0 0-.1-.1-.3-.1-.2-.2-.3-.2-.3.1 0 .2.1.3.2-.2-.2-.2-.2-.2-.3H88.926c.1 0 .2.1.3.1h.1s-.1-.1-.2-.3c.1.1.3.2.4.2h.2c.1 0 .2.1.3.1l.1.1c.1.1.2.2.3.2.1.1.3.1.4.2.1 0 .1 0 .2.1l-.4-.3v-.1s0-.1.1-.1c0-.1.1-.2.2-.2h.1c.4.1.7.4.9.8.1 0 .2.1.2.1l.2-.4-.6-.5c-.1-.1-.2-.1-.2-.2l-.3-.3c0-.1-.1-.1-.1-.2-.1-.2-.3-.4-.2-.5h.1c.2 0 .3.1.5.2v-.2l-.1-.3.3.3.1.1.3.3c.1 0 .3.1.4.1h.2l-.6-.3-.2-.1v-.1c.1 0 .2.1.3.1.2 0 .2-.1.3-.3v-.1l-.2-.3s0-.1-.1-.1l-.8-1.2c0-.1-.1-.1 0-.2v-.1c.1.1.2.1.2.1h.2c.1 0 .2.1.4.3.1.1.2.2.4.2.1 0 .1.1.2.1l-.5-.4-.1-.1c-.2-.1-.2-.2-.2-.2.1-.2.2-.3.3-.5v-.1l.1.1.3.3c.1.1.3.2.4.3l.2.1h.1l-.1-.1-.2-.2c.1 0 .2 0 .2.1.1 0 .2.1.2.1v-.1c-.2-.4-.6-.8-.9-1.1l-.2-.2v-.2-.4h.4v-.2-.2h.4l.3.5-.4-.3c-.1 0-.1-.1-.2-.1l.2.4s.1 0 .2.1h.1s.1 0 .1.1l.1.1v.1h-.1-.2l.7.6.3-.1H94.626l.2.2h-.1-.1l.1.2H95.026c.1-.2.2-.4.2-.6 0-.1 0-.2.1-.2-.1-.1-.1-.1-.2-.1h-.1c-.1-.1-.2-.1-.3-.1-.2 0-.4-.2-.6-.4-.1-.2-.3-.3-.5-.4l.5.1.3.4h.1v-.1c0-.1-.1-.1-.1-.1l-.5-.5-.4-.3.2.1 1.6.3c-.7-.6-.7-.7-.7-.7.2 0 .3.1.4.2.1.1.3.1.4.2.1 0 .1 0 .1-.1s-.1-.2-.3-.3c-.1-.1-.2-.1-.3-.2-.2-.4-.1-.5 0-.7.1-.1.1-.2.1-.3v-.3c0-.3 0-.5.2-.6h.5l.1.1.1.1H95.626l.6.5c0-.1-.1-.1-.1-.2-.1-.2-.1-.3-.2-.5h.1c.1 0 .3.1.4.1h.1s-.1-.2-.2-.3c-.1-.1-.1-.2-.1-.2h.1l.2.2.2.4s.1 0 .1.1c.1 0 .1.1.2.1l-.1-.1c-.1-.1-.1-.2-.2-.3l-.2-.2-.2-.2c.1 0 .2 0 .3.1v-.1.2c.1.1.2.1.3.2v-.1c0-.1 0-.1.1-.1l.6.3c.1.1.2.2.3.2.1 0 .1.1.2.1l-.1-.5.3.4s0 .1.1.1l.1-.1c.1-.1.1-.1.1-.2v-.1-.1c-.1 0-.3-.2-.4-.3-.2-.2-.3-.4-.4-.4v.2c-.1 0-.2 0-.3-.2v-.1-.1c-.2-.2-.4-.3-.6-.3-.3 0-.6-.2-.7-.5v-.1c.4.1.7.3 1 .6h.1l-.2-.3-.3-.3.7.3.2.2.1.1-.4-.4-.4-.4h.4c.1 0 .2 0 .3-.1 0-.1-.1-.3-.4-.6 0 0-.1-.1-.1-.2s0-.1.1-.2c.1 0 .2.1.3.1.1 0 .1.1.2.1h-.1c-.1 0-.1 0-.1.1 0 0 0 .2.1.2.1.1.2.2.3.4.2.3.4.5.7.6h.1c0-.1-.1-.1-.2-.2l-.3-.2c-.2-.2-.4-.3-.4-.4 0 0 0-.1.1-.1s.1-.1.1-.2-.1-.2-.1-.2c0-.1-.1-.2-.2-.2h-.2l-.1-.1v-.1-.3c.1 0 .1.1.2.1s.1.1.2.1l.1.1s0 .1.1.1v-.1c-.2-.3-.3-.4-.2-.5 0 0 .1-.1.1 0 .2 0 .4.1.6.2l.1.1.1.1h-.2l-.1-.1c0 .1.1.1.1.2.1.1.2.2.2.3.1.1.2.1.3.1h.1c-.1-.1-.3-.2-.3-.2 0-.1-.1-.3-.1-.4h.1s.1 0 .1.1l.1.1c0 .1.1.2.3.3l.2.3.4-.1c-.1-.1-.2-.1-.3-.2-.2-.1-.4-.3-.5-.4-.4-.4-.7-.9-.9-1.4v-.1c.1 0 .3.2.7.5h.1c-.4 0-.5-.2-.5-.3 0-.1.1-.1.1-.1.1 0 .1-.1.1-.1 0-.1-.1-.2-.2-.4h.1c.1.1.2.1.2.1v-.1-.1c.1 0 .1.1.3.2h.1c.1 0 .1-.1.2-.1l.5-.9.2-.2c.1-.1.2-.2.3-.4.1-.6.3-1.2 1.1-1.2h.4c.1-.1 0-.2 0-.4s0-.4.1-.5c.1 0 .1-.1.1-.2v-.2h.1c.2 0 .3.1.4.2l.6.3h.1c0-.1-.1-.3-.2-.5s-.2-.4-.2-.5h.1c.2 0 .2-.2.3-.4 0-.1.1-.3.2-.3.1-.1.2-.1.3-.1.4.1.9.2 1.2.5h.1l-.2-.2-.5-.3h.1c.1 0 .1-.1.2-.1s.2.1.2.1c.1 0 .1.1.2.1 0-.1-.1-.1-.1-.2-.1-.1-.2-.3-.4-.4l-.4-.3H104.626s0-.1-.2-.2l.5-.6c.1 0 .1 0 .1.1.1.1.2.2.3.2.1 0 .2 0 .2-.1.1-.1.1-.3.1-.4v-.4-.2-.2h.1c.1 0 .2.1.4.1-.2-.2-.1-.3-.1-.3.1 0 .2.1.3.2h.1c.1.1.2.2.3.2 0-.1-.1-.3-.2-.4-.1-.1-.2-.1-.3-.1-.1 0-.1 0-.2-.1v-.1c.1-.3.3-.5.6-.4.2 0 .4 0 .6.1.1.1.3.1.4.2l-.3-.3-.4-.4.4.3c.1 0 .1.1.2.2s.2.1.3.2v-.1c-.1-.1-.1-.2-.2-.3-.1-.1-.2-.2-.2-.3 0-.1 0-.1.1-.2l.1-.1.6.6V89.126c0 .1 0 .1.1.2 0 0 0 .1.1.1l.6-.3-.1-.1-.1-.1-.4-.1c.3.3.3.4.3.4-.1 0-.2-.1-.3-.1l-.2-.1c-.2-.2-.4-.6-.4-.7.1 0 .1 0 .1.1.1.1.3.2.4.2H108.626s-.1-.1-.2-.3c-.1-.1-.3-.2-.4-.4-.1-.1-.1-.2-.1-.3.1 0 .3.1.4.1.1.1.2.1.3.2v-.1c.1 0 .1.1.2.1s.1.1.2.1l-.1-.1c-.1-.1-.2-.2-.2-.3 0 0 0-.1-.1-.1-.2-.3-.4-.6-.4-.7h.1c.2 0 .3.1.5.2h.1v-.3-.4s.1-.1.1-.2c.1-.1.1-.3.3-.3.3.1.6.2.8.4h.1l-.2-.2c-.1-.1-.2-.2-.2-.3h.2c.1 0 .2.1.3.1h.1s0-.2-.1-.3c-.1-.2-.2-.4 0-.5.4-.2.8-.6 1-1.1 0-.1.2-.1.3-.1s.2 0 .3-.1c0-.1 0-.2-.1-.3 0 0 .1.1.2.1v-.1-.1c.2-.1.5-.1.7-.1 0 0 0-.1-.1-.2s-.2-.2-.2-.3c.3-.2.6-.5.8-.8l.3-.3.5-.6.4-.5c.1.1.2.2.3.2v-.1c-.1-.2-.2-.3-.2-.4h.5c.1 0 .1 0 .1-.1s0-.2-.1-.3c0 0 0-.1.1 0 .2 0 .3 0 .4.1H115.826v-.4c-.1-.6.3-.8.8-1h.1c.1-.1.3-.2.4-.3l.2-.2c.1 0 .1 0 .2.1l.7.6c-.1-.2-.2-.4-.4-.5l-.3-.3-.1-.1.7.3-.1-.1c-.1-.1-.2-.2-.2-.3v-.1c0-.2 0-.3.2-.4.1-.1.2-.1.3-.2.1-.1.2-.2.4-.3.3-.1.6-.4.8-.7.1-.1.2-.3.3-.4.1-.1.2-.2.2-.3.1-.3.4-.5.8-.5.2 0 .2-.2.2-.3 0-.1 0-.3.2-.3h.2c.1 0 .2 0 .3.1h.1v-.1-.2h.1c.1 0 .2 0 .3.1H122.526c.3 0 .3-.3.3-.5s0-.3.1-.4c.1-.1.1-.1.2-.1h.2c.1-.1 0-.3-.1-.4 0-.1 0-.1-.1-.2.1 0 .1.1.2.1l.2.2v-.1c-.1-.3-.1-.5.1-.8.1-.2.4-.3.6-.2h.5c0-.1 0-.2-.2-.4 0 0 .1 0 .1.1.1.1.2.1.2.1v-.4c0-.2 0-.3.1-.5.1-.3.4-.7.6-.9.2-.1.3-.2.5-.3.5-.3 1-.6 1.1-1.2.2.1.3.2.3.2v-.2c-.1-.1-.1-.2-.1-.2s.1 0 .2.1h.2l-.3-.1c-.1 0-.1-.1-.1-.1l-.1-.1.7-.1h.1l-.1-1-.2-.2c.1-.1.1-.1.2-.1.1.1.3.2.5.3h.1l6.1 4.9 1.1.8-.9-.3h-.1l.3.3 1.3.8.2.2.1.1-.6-.3s.1.1.4.3c.3.2.4.3.4.3h-.1c-.1 0-.2.1-.2.1-.1.1-.1.2-.2.2s-.3-.1-.4-.1l-.2-.1c-.2-.1-.4-.2-.7-.3h-.1s0 .1.1.3l-.4-.3-.2-.2.1.1.1.1h-.2-.1c0 .1.1.2.1.3.1.1.1.2.1.3 0 0 0 .1-.1.1h-.1c-.1-.1-.2-.2-.3-.2.3.3.4.5.4.7 0 .1-.1.2-.2.2l-.1.1h-.1c-.2 0-.3 0-.5-.1-.1 0-.2-.1-.4-.1-.1 0-.1-.1-.2-.1 0 .1.1.1.1.2.1.1.1.2.2.3.3.2.5.4.6.6.1.1.1.2.2.3h-.1c-.1 0-.1.1-.1.1 0 .1 0 .2-.2.2-.1 0-.3-.1-.4-.1-.2-.1-.3-.1-.5-.1-.1 0-.2 0-.2.1-.1.1 0 .4.2.8-.1-.1-.2-.1-.3-.2-.2-.1-.3-.2-.5-.3h-.1c-.5-.1-.9-.4-1.2-.8-.1-.1-.2-.1-.3-.2h-.1l.3.2.1.1H130.326c0 .1.3.3.5.5.1.1.1.1.2.1.4.3.5.4.5.6 0 .1-.1.1-.1.1-.1 0-.1.1-.1.1 0 .1.1.2.4.4h-.1-.1c-.1 0-.1-.1-.2-.1 0 0 0 .1.1.2v.1h-.1-.1l-.1-.2-.1-.1h-.1c-.1.1-.1.2-.2.3 0 .1.2.3.4.4.2.2.4.3.4.4 0 0 0 .1-.1.1l-.6.1-.1-.1c0-.1-.1-.1-.1-.2-.5-.4-.7-.5-.8-.5h-.1-.1c-.2 0-.3 0-.4-.1-.2-.1-.4-.3-.5-.4l.7.9h.1c.1 0 .2.1.4.4.1.1.1.3 0 .4 0 .1-.1.1-.2.1h-.1c-.1 0-.1-.1-.2-.1 0 0 0 .1.1.2l.1.1.1.1h-.8c-.1 0-.1 0-.2.1v.1c.5.6.8.9.7 1h-.1c-.2 0-.3-.1-.5-.2s-.3-.1-.5-.2h-.1c-.1 0-.2 0-.3.1V81.026c-.1 0-.2 0-.3-.1-.1 0-.2-.1-.2-.1v.1l.1.2c-.1-.1-.1-.1-.2-.1l.1.1c.3.2.3.3.3.4 0 .1 0 .2.2.3v.2s-.1 0-.3-.3h-.5c-.1 0-.3 0-.3.1-.1.2 0 .5 0 .8 0 .1.1.3.1.4v.1l-.5-.6-.5-.5.1.1c0 .1.1.2.2.2l.1.2c-.1 0-.2-.1-.3-.1-.1-.1-.2-.1-.3-.1 0 0 0 .1.2.3.1.1.2.2.3.4l.1.1h.1c.1 0 .1 0 .2-.1 0 0 0-.1-.1-.1-.1-.1-.1-.1-.1-.2.1 0 .1.1.2.1.4.2.3.4.2.4 0 .1-.1.1-.1.2-.1.1-.1.3-.3.3h-.1c-.1-.1-.3-.1-.4-.1-.1 0-.2.1-.3.1-.1.1-.2.1-.3.1h-.2v.1l.4.2h.2c.1 0 .2 0 .5.4v.1c-.1 0-.1 0-.2-.1 0 0-.1-.1-.2-.1h-.2-.1-.1V84.726h-.1c-.1 0-.3 0-.4-.1-.1-.1-.3-.1-.4-.1h-.1v.4s-.1.1-.1 0c-.1 0-.3 0-.4-.1-.1.1 0 .3 0 .4v.1c0 .1 0 .2.1.4 0 .1.1.2.1.4-.1 0-.2-.1-.2-.1l-.3-.2c.1.1.1.2.1.2h-.1-.2c.1.2.1.4 0 .6-.1.1-.1.3-.1.5.1.3 0 .7-.3.9l-.2.2h-.1c-.1 0-.1-.1-.2-.2v-.1c0-.1-.1-.2-.1-.2-.1.3-.1.6-.1.9v.3s0 .1.1.1v.1l-.1-.1-.1-.1-.2-.2V88.426l-.2-.1c-.1-.1-.3-.1-.4-.2h-.1c-.1 0-.2-.1-.3-.2l.1-.1c.1-.1.2-.1.1-.2-.2-.2-.2-.3-.2-.4 0-.1.1-.1.2-.1s.1 0 .2-.1c0-.1 0-.1-.1-.3l.3.2.1.1h-.1-.1l.1.1.1.1.1-.1.2-.2v-.1-.1l.3.3c0-.2-.2-.4-.5-.6-.3-.3-.5-.5-.5-.7l-.3.1c-.2.1-.4.2-.5.4 0 .1 0 .1-.1.1-.1.2-.3.5.8 1.4h-.1-.1c0 .1.1.2.3.3.2.2.4.3.4.5v.2h-.1c-.1 0-.2-.1-.3-.1-.1 0-.1-.1-.2-.1h-.1v.2c.3.3.4.5.4.6 0 .1-.1.1-.1.1-.1 0-.1.1-.1.1 0 .1 0 .2.2.4v.1s-.1 0-.3-.2c-.1-.1-.2-.1-.3-.2-.1 0-.1.1-.1.2v.2c-.1.2.1.6.7 1.2v.1l-.9-.5c0-.2-.2-.3-.4-.4-.1 0-.1.1 0 .1v.1l-.9-.7-.7-.5.1.1.3.3c.2.1.4.3.5.6 0 .1.1.3.3.4l.3.3h-.1-.1v.2h-.1l-.6-.3.2.2.3.3c.1.1.1.2.1.3v0l.1-.1h.1l.1.1c0 .1.1.2.2.4.2.2.3.3.2.3h-.1c-.1 0-.1-.1-.2-.1s-.1-.1-.2-.1l.1-.1-1-.4V92.126l.1.1v.1c0 .1.1.2.2.3.1.2.3.3.4.4h-.1c-.1 0-.2-.1-.3-.2l-.2-.1c-.1-.1-.3-.2-.4-.3 0 0 0 .2.1.3.1.2.2.3.2.4h-.1s0 .1.1.2l-.1-.1c-.1 0-.2-.1-.3-.2-.1-.1-.1-.2-.1-.3l.1-.1v-.1c-.1-.1-.3-.2-.4-.3h-.1v.1c0 .1.1.2 0 .2h-.1c-.1 0-.2 0-.3-.1-.1 0-.2-.1-.3-.1h-.1V92.626l.3.1.2.1-.1.4v.1c.1.1.1.2.2.2h.1v.1s0 .1-.1.1c0 0-.1.1-.2.1-.2 0-.4-.2-.6-.5H116.826l-.1-.1s-.1 0-.1-.1l.2.2c.1.2.3.3.4.3 0 0 .1 0 .1.1l.4.4-.4-.1-.1-.2-.1-.1-.7-.5.3.3h-.1c0 .1 0 .2.1.4s.1.3.1.3H116.526h-.1s0 .1.1.2.1.1.1.2c.1 0 .1.1.2.1.1.1.2.1.3.2.2 0 .3.2.5.3l.1.1c.1.1.1.1.1.2-.2 0-.3-.1-.4-.2l-1.1-.9.2.2c.2.2.4.3.5.5.1.1.2.2.2.3 0 0-.1 0-.4-.2-.1 0-.1-.1-.2-.1h-.1c0-.1.1-.1.1-.2s-.1-.2-.1-.2l-.7-.5.1.1.1.1.3.5c-.6.7-.7.7-.7.7s-.1 0-.1.1 0 .1-.1.1c0 0-.1-.1-.3-.2-.1-.1-.2-.1-.3-.1-.1 0-.1 0-.1-.1l.2.2h.2c.2.2.5.4.5.5v.1h-.8v.1c.1.1.3.5.5.5 0 0 .1.1.2.1h-.1H115.126h-.1-.1c0 .1.1.2.1.2.6.5.9.8.9.9 0 .1-.1.1-.2.1s-.2.1-.2.1c0 .1 0 .2.2.3h-.1l-.2-.2-.3-.3-.5-.7c.1.1.2.2.2.3 0 .1-.1.1-.1.1l-.1.1c0 .1.2.3.6.7.1.1.2.2.3.4 0 .1-.1.2-.1.3v.1l-.1-.1c-.1-.1-.2-.3-.2-.4 0-.2-.2-.4-.7-.7l-.8-.5.9.8.1.1h-.1c-.2-.1-.4-.3-.6-.3 0 0 0 .1.1.4.1.1.1.2.1.2-.2-.1-.4-.2-.5-.4l.2.2h-.1-.1-.1-.2c0 .1.2.3.5.5.2.1.3.3.4.4l.1.1c-.1 0-.2-.1-.2-.1-.1 0-.1 0-.1.1s0 .1-.1.1h-.2c-.1 0-.2 0-.2.1s-.1.1-.2.1c-.2 0-.5-.2-.9-.6l.4.5c-.1 0-.2-.1-.3-.2h-.1c-.1-.1-.2-.2-.4-.2v.1l.3.3c.2 0 .4.2.4.4.1.2.2.3.4.3 0 .1-.1.1-.1.1h-.4-.2c-.2 0-.4.2-.5.4 0 .1.1.2.2.2.3.1.5.3.6.5.1.2.1.2.1.3-.2 0-.4-.1-.5-.2-.1-.1-.3-.2-.5-.2v.1l-.2-.2v.2s-.1 0-.1-.1l.1.1c.1.1.1.1.1.2v.1c-.1 0-.1 0-.2-.1s-.2-.1-.3-.1v.1c0 .2-.1.2-.2.3-.1.1-.2.1-.2.2 0 .2.1.2.2.2s.2.1.3.2l.1.1.1.1c-.1-.1-.2-.1-.2-.1-.1 0-.1.1-.1.1s0 .1-.1.1h-.1c-.2-.1-.4-.2-.6-.2h-.1c0 .1.1.2.3.5.1.1.1.2.1.2h-.2v-.1c0-.1-.1-.1-.2-.2s-.3-.1-.4-.2c-.2-.1-.5-.3-.8-.3h-.1c-.1 0-.2-.1-.3-.2l-.1-.1-.1-.1.1.2c.3.3.5.5.8.7.2.1.4.3.5.4h.1-.1c-.1 0-.1 0-.1.1 0 0 0 .1.1.3-.1-.1-.2-.1-.2-.2h-.1-.1v.3l-.1.1c-.3 0-.5-.1-.7-.2.2.2.3.3.2.4 0 .1-.1.1-.2.1s-.2 0-.2.1v.2s0 .1.1.1h-.2c-.4 0-.4.3-.4.6 0 .2-.1.5-.3.5-.3.1-.4.2-.4.5.1.3.2.5.3.7.1.1.1.2.2.3.1.1.2.2.3.2l.1.1h-.1-.1-.1c-.1 0-.2-.1-.4-.3-.1 0-.1-.1-.2-.1h-.1l.1.2.4.3h-.1c-.1 0-.2-.1-.3-.1-.2-.1-.4-.3-.3-.4 0-.1 0-.2-.1-.3-.1-.1-.3-.2-.4-.1.2.2.2.3.2.3-.1 0-.1 0-.2-.1 0 0-.1 0-.1-.1-.1.2-.2.4-.3.5-.1.1-.1.2-.2.3l-.4.7c.4.3.5.4.5.5 0 0-.1 0-.1.1h-.1s0 .1.1.1c-.5-.3-.7-.5-.8-.5-.1 0-.1.1-.1.2s0 .2-.1.2c0 .1.1.2.2.3.1.1.2.1.2.2 0 0 .1 0 .1-.1l.1.5-.4-.3-1-.7.8.7h-.1c-.1-.1-.3-.1-.4-.2 0 0 0 .1.1.3v.2l-.1.1s-.1 0-.1.1c0 .4-.1.8-.1 1.2 0 0 0 .1.1.2l.1.1.3.1.2.2c.1.2.1.3.1.4 0 0-.1.1-.2.1h-.2.1l-.2-.2-.2-.2c-.1-.2-.2-.3-.3-.5 0-.1 0-.1-.1-.2v-.1l-.3-.3c-.1 0-.1-.1-.2-.1v.1c0 .1.1.1 0 .2h-.1-.1-.1s.1.2.4.4v.2c-.2-.1-.5-.2-.8-.2-.3 0-.4.2-.4.4-.1.2-.2.4-.5.4h-.2c-.1.1 0 .3.1.6.1.1.1.3.1.4.2.2.4.3.4.3s0 .1-.1.1h-.1c-.1 0-.2-.1-.3-.2l-.2-.2v.1c-.1.3.6.9 1.4 1.2.1.1.2.1.3.2l.1.1-.3-.1-.1-.1.1.1.5.4-.8-.3h-.1l.1.1h.1c.1.1.2.1.2.1h-.1v.2c.1 0 .2.1.2.1v.2s.1.1.2.1h.1v.2c-.3-.3-.5-.3-.5-.3-.1 0 0 .1 0 .2v.2h-.1-.1-.1c-.1 0-.1.2-.1.3 0 .1 0 .3-.2.3h-.1c-.2 0-.2.2-.2.4s0 .3-.2.3c-.3 0-.6-.1-.9-.3-.1 0-.1-.1-.2-.1 0 0 0 .1.2.3s.4.4.4.5c0 .1 0 .1-.1.1s-.2-.1-.3-.2l-.2-.2v.2l-.1-.2c-.1-.1-.1-.2-.1-.2 0 .1-.1.1-.1.1-.1 0-.3-.1-.4-.1l-.1-.1.1.1c.1.1.1.2.2.2.2.1.4.3.6.4h.1c-.1 0-.2.1-.2.2-.1.1-.3.2-.4.2h-.2c-.2-.1-.3-.1-.5-.1h-.1c0 .1.1.3.4.6-.1-.1-.2-.1-.3-.1-.1 0 0 .1 0 .2.1.1.1.2.1.3h-.1c-.1 0-.2 0-.3-.1h-.1c-.2 0-.2.2-.2.5v.3h-.1c0-.1-.1-.1-.2-.2s-.3-.2-.3-.2h.1v-.1s0-.1-.1-.1h-.1-.1c0 .2.1.4.2.5.1.1.2.1.2.2.1 0 .1.1.1.1l-.6.1c-.1 0-.2.1-.3.2-.1.1-.1.2-.2.4s-.2.4-.4.6l-1.2 1.1-.8.8c-.1.1-.2.2-.3.2-.2.1-.4.3-.5.6-.3.9-.9 1.5-1.8 1.8-.1.1-.3.2-.4.3-.1.2-.3.3-.5.3-.1 0-.2 0-.3-.1 0 0-.1-.1-.2-.1s-.1.2-.1.4v.1c0 .2 0 .3-.1.3l-.1-.1c-.1-.1-.2-.2-.3-.2-.1 0-.2.2-.3.4.6-.1.5.2.4.2zm1.1-4.1h.1c.1 0 .1 0 .1-.1.1-.2.1-.5 0-.8-.2-.7-.3-.8-.5-.8s-.3-.1-.3-.3h.2c.1-.1-.1-.5-.2-.9-.1-.3-.2-.5-.2-.8 0-.1.1-.3.2-.4.1-.1.2-.2.2-.3.1 0 .1 0 .2.1s.1.2.2.3v.1h-.1-.1-.1c-.1.1 0 .3.1.5s.1.5.1.5h-.1-.1v.1c0 .1.1.1.1.2h.1v-.2c.1 0 .1.1.3.3v.1c0 .2 0 .3.1.5.1.1.1.1.2.1s.1.1.2.3c.1.1.2.3.2.4l.3.3.1.1v-.2-.2l-1.1-1.3h.1s0-.1-.1-.2v-.1c-.1-.1-.1-.2-.1-.3h.2c.1 0 .2-.2.2-.3 0-.1 0-.1.1-.2 0 0-.2-.3-.3-.4-.1-.1-.2-.2-.2-.3h.2s0-.1-.2-.3l.2.1.2.1-.5-.7h-.1s-.1 0-.1.1v.1l-.1-.1-.1-.1c.1 0 .1-.1.1-.1 0-.2.1-.2.1-.2.1 0 .3.3.6.8 0 .1.1.1.2.2h.1c-.1-.3-.2-.5-.4-.8l-.3-.3c-.2-.1-.3-.3-.4-.3 0 0-.1 0-.1.1s-.1.1-.1.1h-.1-.2-.1l-.1.1c0 .1.1.3.3.6-.1-.1-.2-.1-.3-.2-.2 0-.2.2-.2.4s-.1.4-.2.4h-.1c-.1 0-.1.2 0 .3 0 .2.1.3.2.4.1.2.2.3.4.5H90.526c-.1 0-.1.1-.1.1l-.1.1c0 .1.1.2.1.2.1.1.2.1.3.1 0 0 .1 0 .1-.1h.2V121.226c.1.1 0 .1 0 .2v.1l.2.2c-.1.2 0 .5.3.9l.1.1h.1c.1-.1.1-.2.1-.3l.1-.1v.4c0 .1 0 .3-.1.4-.1.3-.1.4 0 .4zm.8-5.7c.2.2.4.4.7.5.1 0 .3.1.4.2l.3.3c0 .1 0 .1-.1.2.2-.1.4-.2.6-.2.1 0 .2-.1.2-.1l-.1-.2c-.3-.2-.4-.3-.4-.4 0-.2-.1-.3-.3-.4h-.1-.1s0-.1-.1-.1c-.1-.1-.1-.1-.1-.2l.6-.8s.1.1.1.2c.1.1.2.2.3.2h.1c.1 0 .2 0 .3.1.1 0 .1 0 .2.1l-.1-.1h.2c0-.1 0-.1-.2-.2 0 0-.1-.1 0-.1s.2 0 .3.1c.1 0 .2.1.3.1 0-.1-.2-.2-.5-.6l-.4-.4c-.1-.1-.1-.1-.1-.2h-.1H94.226c-.2 0-.3-.1-.4-.2-.1 0-.2-.1-.3-.2-.1-.1-.3-.2-.4-.2-.2 0-.3.1-.3.2v.4c0 .1-.1.1-.2.1s-.2 0-.2.1.1.2.2.4c-.1-.1-.2-.1-.4-.2-.1 0-.1.1-.1.1 0 .1 0 .1-.1.1l-.3-.4v.1c-.1.1-.1.1-.1.2.2.2.3.3.5.4.2.1.3.2.3.3v.2s0 .1.1.1l-.4-.4-.2-.1c-.1 0-.1-.1-.2-.1 0 .1.1.3.2.4.1.3.3.6.2.7l-.1.1h-.2c-.1 0-.2-.1-.2-.1l-.1-.1 1.1 1.2c-.2-.2-.2-.3-.2-.3h.1c.1 0 .1.1.2.1v-.1c0-.1-.1-.2-.2-.3l-.1-.1h-.1v-.3l.5.6.2.3.1-.3-.3-.2-.3-.3.1-.2zm4.6.7h.2c.1 0 .3.1.4.1.1 0 .2.1.3.1-.1-.1-.1-.2 0-.2h.1c.1 0 .2 0 .3.1.1 0 .1.1.2.1-.8-.9-.8-1.3-.7-1.6-.2-.1-.3-.2-.5-.2h-.1v.5h-.1c-.1 0-.2 0-.3-.1v.2c0 .1.1.3.1.4 0 0-.1 0-.1-.1-.1-.1-.2-.1-.3-.2-.1-.1-.2-.1-.3-.2h-.1-.1c-.1 0-.3-.1-.5-.3v.1l.1.1c.2.1.4.2.5.4 0 0 0 .1.1.1l.1.1c.1.2.2.3.4.3h.1c.1.3.2.3.2.3zm1.5-2.8c.1.1.3.2.4.2.2 0 .5.2.6.4 0-.2-.2-.3-.4-.4l-.3-.3-.1-.1c0-.1-.1-.1-.1-.1h-.1s0 .1.1.2l.1.1c-.1 0-.2-.1-.2-.1-.1-.1-.2-.1-.3-.1v.1c-.2-.2-.4-.3-.6-.5-.4-.3-.9-.6-.8-.9h.2s0-.1-.2-.2c-.1 0-.2-.1-.3-.1h-.1c.2.1.2.2.2.3 0 0 0 .1-.1.1 0 0-.1 0-.1.1 0 0 0 .1.3.3h-.1c-.4-.4-.9-.7-1.5-.8-.1 0-.3 0-.4.1 0 .1 0 .1.1.2l.1.1s.1 0 .1.1c.1 0 .3.1.4.1.3.1.7.2 1 .3.4.2.8.4 1.1.7l.3.2c.1.1.1.2.2.3h-.4s0 .1.1.2h.1c.1 0 .2 0 .4-.1.1 0 .1-.1.2-.2s.1-.1.1-.2zm2.1-1.1c.1 0 .1 0 .2.1.3.2.4.3.4.4 0 0 0 .1-.1.1s-.1.1 0 .3V115.826h.1c.1 0 .2 0 .2-.1 0-.2 0-.4-.1-.5l-.2-.2c-.2-.2-.4-.3-.6-.4 0 0 0-.1.1-.1 0-.1 0-.1.1-.2 0-.1.1-.1.2-.1.3.1.7.2.9.4.1.1.1.1.1.2l.1.1v-.1-.2c-.1-.1-.2-.2-.3-.2-.1-.1-.2-.1-.3-.2v-.1c.1-.3 0-.6-.4-.9l-.2-.1-.2-.1h-.1c.1.2.1.3.1.4-.1.1-.1.1-.2.1s-.2 0-.3-.1c-.1 0-.1-.1-.2-.1 0 0 0 .1.1.2s.1.2.1.2h-.1l.4.5c-.1-.1-.3-.1-.5-.2h-.1c-.1 0-.3-.1-.4-.1h-.1c-.1-.1-.3-.1-.4-.1h-.1c0 .1.1.2.3.3.2.1.3.2.4.3h-.2c-.2 0-.3-.1-.5-.1-.1-.1-.2-.1-.3-.2-.1 0-.1-.1-.2-.1 0 .1.2.3.4.5s.4.4.4.5v.1s.1 0 .1.1l.1.1c.1 0 .3.1.4.1.1 0 .1 0 .2-.1 0-.1 0-.2-.2-.5l.6.3h.1c.3-.2.3-.3.2-.5zm-5.1-2.9c-.1 0-.1 0-.1.1v.1c.5.5 1 .9 1.6 1.3.4.2.7.5 1.1.8v-.3c0-.2 0-.3.1-.4v-.4-.4c.1-.1.1-.1.2-.1h.1s0-.1-.1-.3c0-.1-.1-.1-.1-.2l-.1-.1-.1-.1-.1.1c-.1 0-.1.1-.2.1-.2 0-.3.1-.4.2 0 0 0 .1-.1.1s-.2-.1-.2-.1c-.1 0-.1-.1-.2-.1h-.1l.4.7h-.1l-.3-.3c0-.1-.1-.1-.1-.2h-.2c0 .1.1.1.1.2 0 0 .1.1.1.2l.3.6c-.1 0-.3-.1-.4-.2l-.1-.1c-.1 0-.1-.1-.2-.2h.1c.1 0 .2.1.3.1.1 0 .1.1.2.1l-.1-.1c-.3-.3-.6-.6-1-.8 0-.1-.1-.2-.3-.3zm3.2-1.7c0 .1-.1.1-.2.1s-.1 0-.2.1c0 0 .1.2.2.3l.2.3c.1.2.1.3.2.4h.1c.3 0 .4-.1.4-.1v-.1-.1c-.1-.2-.1-.4 0-.6.1-.1.2-.2.4-.1h.3l-.2-.2c-.2-.2-.5-.4-.5-.5v-.1s-.1-.1-.1-.2v.1l-.1.4-.1-.1c-.1 0-.1-.1-.2-.2s-.1-.2-.1-.3h.2s-.1 0-.1-.1l-.1-.1c-.1 0-.2-.1-.3-.1 0 .1-.1.2-.2.2s-.1 0-.2.1c0 .1 0 .2.1.3-.2 0-.3-.1-.5-.1l-.2-.1c-.1 0-.1-.1-.1-.1l-.3-.3.1.3c.1 0 .2.2.3.3.1.1.2.3.3.3h.1c.2.3.4.4.5.4.2 0 .2 0 .3-.1zm3.8-3.3h.1c.2.2.5.3.8.4 0-.1-.1-.2-.2-.4s-.2-.3-.2-.4c-.1-.1-.1-.2-.2-.2l-.4-.2.1.1c.1 0 .1.1.1.1.2.2.2.3.2.3h-.2c-.1 0-.1 0-.2-.1l.1.1v.1c-.2-.2-.4-.3-.5-.3-.1 0-.1 0-.1.1h-.1-.1l-.2-.8.3.2.1.1.4.1-.2-.5-1.1-.1.4.4.2.2-.2-.1h-.5-.1c.1.2.2.4.4.5l.6.5c-.1 0-.2 0-.3-.1-.1 0-.1 0-.2-.1-.1 0-.2 0-.3-.1h-.1c.1 0 .2.1.3.2.1.1.3.2.4.2H102.426c.1 0 .1 0 .2-.1s0-.1 0-.2v-.1c0 .2.1.2.1.2zm8.8-9.6l.1.1.6.3c.1.1.3.2.4.3.3.3.5.5.8.5h.1l-.7-.7.6.1.1.1.1.1v-.1l-.1-.1c-.1-.1-.2-.1-.3-.2l-.9-.7h.1l.4.1-.1-.1c-.1-.1-.2-.1-.4-.2h-.2v.1c.1.2.3.3.4.5.1 0 .1.1.1.2h-.1c-.1 0-.3-.1-.4-.3-.1-.1-.2-.2-.4-.3h-.1s0 .1.2.2l.2.2c-.1 0-.1-.1-.2-.1s-.2-.1-.2-.1c-.1-.1-.3-.2-.4-.2h-.1c-.1 0-.1.1-.1.2 0 .2.3.4.8.8.2.1.3.2.5.3l.2.1-.2-.3c-.1-.1-.1-.1-.2-.1l-.5-.2v-.1l-.1-.4zM127.826 81.926c.1 0 0 0 0 0M119.426 91.026zM119.426 91.026zM86.926 113.326z"/><path d="M103.626 105.926s0 .1-.1-.1l.1.1zM97.926 117.026zM116.526 87.826s0 .1 0 0zM92.126 121.326zM109.426 98.426zM90.126 117.526s0 .1.1.2l-.1-.2zM90.726 124.726zM104.526 112.326zM103.226 113.526l.1.1c-.1 0-.1.1-.2.1 0-.1-.1-.2-.1-.2 0-.1-.1-.1-.1-.2l-.4-.2.1.1.2.2c-.1.1-.2.1-.3.2h-.1l.3.3c.1 0 .1.1.2.1-.1-.4.6 0 1.1.3.6.3.2-.2.6-.1l-.3-.4-.8-.8-.3.5zM88.626 127.526s-.1 0-.1-.1c-.2-.5-.3 1-.5-.2 0-.2-.1-.3-.1-.2l.1 1.4c.2-.1.4-.1.5-.2.1-.2.1-.5.1-.7"/><path d="M104.226 113.226l.1.1s0 .1-.1.1l-.1-.1c-.3-.5-.5-.7-.2-.1.2.4-.7-.7-.4-.1l.8.8c1 .5.1-.6.4-.7l-.4-.3h-.1c.1.1-1-.5 0 .3M87.326 114.726c.1 0 0-.2 0-.4-.2-.3-.4-.7-.5-1 0 .1.2.5.2.6.1.2.2.5.3.8M104.526 112.326zM104.026 111.926c-.1.1-.4.2.1.6.5.5-.9-.4 0 .3h.1c.9.5.7.1.3-.5-.1-.2-.3-.3-.5-.4M90.226 109.426c-1-.6.1.6-.4.3 0 .1.1.2.1.3.2 0 .6.1.6 0 .1 0 .2-.3-.3-.6M106.226 110.526c.1 0-.1-.3-.2-.5l-.5-.1-.4-.3.4.6c.2.2.5.2.7.3M111.026 103.226c-.2-.1-.3-.2-.5-.2.1.2-.1.2.4.6.9.7-.2-.6.6 0-.2-.2-.2-.5-.5-.4M91.126 109.326c-.1-.1-.1-.1-.2-.1s-.2 0-.2.1c.1.1.2.2.3.4v-.1c.1.1.2.1.3.2.1.1.2.1.2.2.1.3.3.3.5.4l-.2-.3-.1-.1c-.1-.3-.7-.5-.6-.7M91.826 109.926l.1.1c-.1 0-.1-.1-.1-.1M106.626 108.126l.5.4c.3.1.7.4.5.1l-.9-.9c.1.3.5.7-.1.4M133.626 75.126l.2.2 1.1.2c-.1-.1-.1-.2-.2-.3-.7-.3-.2.5-1.1-.1M119.426 92.826c.1.2.2.5.3.8h.3c0-.2-.1-.4-.2-.6-.1 0-.3-.1-.4-.2M114.826 98.326l.8.7v-.3s.2.1.3.2c-.3-.2-.5-.4-.8-.6-.1-.1-.2 0-.3 0M122.426 89.326c.1.2.1.3.2.4.1 0 .3 0 .4-.1 0 0-.2-.3-.4-.5 0 .1-.2.1-.2.2M127.026 82.226c0 .2.1.4.2.6.7.5-.3-.6.4-.2-.1-.1-.1-.1-.2-.3-.2 0-.4-.1-.4-.1M109.726 104.526c.3.4.9.8 1 1.1.2 0 .1-.2-.3-.5-.6-.5-.1-.2.1-.1-.5-.7-.5-.2-.8-.5M87.126 113.826l-.2-.5-.1-.2c.1.2.2.5.3.7M86.926 113.326zM86.926 113.326zM107.026 108.526zM106.326 108.126c-.1 0-.2-.1-.2 0 .1.1.1.2.2.2l1.1.6-.4-.4c-.3 0-.5-.2-.7-.4M107.026 108.526zM107.026 108.526zM119.126 90.826c-.3-.2-.4-.2-.1 0 .2.2.5.4.8.6 0 0 .1 0 .1-.1l-.5-.4-.3-.1zM119.426 91.026zM118.726 94.726c.1-.1.3-.2.4-.3v-.2c-.2.1-.4.2-.5.3-.1 0 0 .1.1.2M95.226 116.626c-.4-.5-.3 0-.8-.4-.6-.5-1.1-.6-.4.2l.9.3c.1 0 .4 0 .3-.1M92.926 116.726c.3.3.3.2.5.2 0-.1-.1-.3-.1-.4h-.6c0-.1.1.1.2.2M135.626 71.026l-.8.6s.1.2.1.3l.8-.1c0-.4-.1-.6-.1-.8M133.926 70.126c-.1 0 0 .2 0 .3.3 0 .5 0 .9.1l-.2-.3c-.3-.1-.5-.1-.7-.1M135.026 69.226c.5.4.1-.2.5.1l.1-.4c-.3 0-.8 0-.9.2-.1.2.2 0 .3.1M136.226 71.826c.5.4.4.3.1-.1-.4-.5.6.4.4.1-.2-.2-.3-.4-.5-.5l-.3.3c0-.1.1.1.3.2M135.426 69.526c-.1 0 0 .2 0 .2s-.2 0-.3.1c0-.1 0-.2-.3-.3h-.4c.2.1.4.2.6.4l.3.3c0 .3.1.5.8.8.1 0 .3.1.2 0-.1-.2-.2-.3-.3-.5h-.4l.1-.2.1-.6c-.1-.1-.2-.2-.4-.2"/><path d="M136.626 72.826c-.1 0-.1 0 0 0l-.5-.2-1.1-.8.8-.1c0-.1-.1-.3-.1-.4 0-.1 0-.2-.1-.3l-.8.5s0 .1.1.2c0 0 0 .1.1.1l-6.3-4.9v-.1s0-.1.1-.1h.1v-.1-.1h-.2l-.3-.1c0-.1-.1-.1-.1-.2s0-.1.1-.2c.2.2.4.4.7.5v-.2-.2h.4c.1 0 .2 0 .3-.1h.1c.1 0 .1-.1.1-.1v-.1h-.1c-.1 0-.2-.1-.2-.1-.1-.2-.2-.3-.2-.3l.1-.1c.1 0 .1 0 .2-.1s.1-.3.2-.4c.1-.3.2-.5.4-.8l.1-.1c.1 0 .2-.1.2-.2 0-.5.4-.7 1.2-.7 0 0-.1-.1-.2-.1-.1-.1-.2-.1-.2-.2l-.4-.4h.7c.1 0 .2 0 .3-.1 0-.1 0-.2-.2-.3 0 0 .1 0 .2-.1h.1l-.3-.3c.2.1.3.1.5.3v-.1h.1c.4.1.8.3 1.1.5.2.1.4.3.7.3.1 0 .1 0 .2-.1l.2.1V62.826c0 .1.1.2.1.3 0 0 0 .1.1.1h.4c.1 0 .1 0 .2-.1h.1v.2c.1.3.4.5.8.7.2.1.4.2.5.3 0 0 0-.1.1-.1 0-.1.1-.1.1-.2l.1-.1c.1-.1.2-.2.3-.2h.2c.5.2.8.5.8.7 0 0 0 .1-.1.1h-.1-.5s0 .1.1.2c0 0 0 .1.1.1.6.2.6.4.7.6 0 .2 0 .4.6.6 0 0-.1 0-.1.1s.2.4.4.6c.2.2.4.5.4.6-.2-.2-.3-.2-.4-.2 0 0-.1 0-.1.1 0 0 0 .1-.1.1h-.1c-.1-.1-.2-.1-.2-.2-.1-.2-.3-.3-.5-.3v-.1l.2-.3s-.2-.1-.2-.2l-.6.3.6.3v.2c0 .2-.1.3-.2.4-.5.2-.7.5-.6.9v.2c-.1 0-.2 0-.2-.1 0 0-.1 0-.1.1 0 0 .1.1.4.3.1 0 .2.1.3.1h.4c0 .1.1.1.1.1-.5.2-.9.6-.4 1.5h-.1c-.1-.1-.3-.2-.4-.2 0 0 0 .1.1.2v.1l.1-.1c.2.1.5.2.7.3l-.1-.5c.3.3.5.5.5.7v.1h-.1H138.726h-.1c-.2.1-.4.3-.6.5l-.2.2.1.1c.1.1.3.2.4.2l.2.2h-.2s-.1 0-.2-.1l.1.1c.2.2.2.3.2.3l-.6-.3-.1-.1H137.426c.1.1.1.2.1.2h-.4v.1c-.6.2-.6.2-.5.3zM133.726 61.626l.1.1 1.4.5c-.2-.1-.3-.2-.6-.4l-.9-.2z"/><path fill="none" d="M-.7.8h193.3v190.5H-.7V.8z"/><g><defs><path id="a" d="M-.7.8h193.3v190.5H-.7z"/></defs><clipPath id="b"><use xlink:href="#a" overflow="visible"/></clipPath><g clip-path="url(#b)"><path d="M85.8 191.2h-.7c-.2-.2-.4-.3-.7-.3h-.7c-.3 0-.5-.2-.7-.4l-.3-.3c-.2 0-.4.1-.4.3l-.4.4c-.2 0-.3-.1-.3-.3h-.4l.4-.3h.4c.2 0 .4-.2.4-.3v-.7H82c-.2 0-.3.1-.3.3l-.4.4-.3.4-.4-.4-.3-.4h.7c0-.1 0-.2-.1-.2-.1-.1-.2-.1-.3-.1h-1.4l-.7-.7v-.7h-1.8l.1-.1-.8-.3c0 .2-.2.4-.4.4 0 .2-.1.3-.3.3h1.1c.2 0 .3.1.4.3 0 .2-.1.3-.3.3h-1.1c-.1 0-.1.1-.1.2s.1.1.2.2.3.2.3.3l.4.4c0 .2-.1.3-.3.4h-.7c-.3-.3-.4-.7-.4-1.1 0 .2-.1.3-.3.3 0 .2-.2.4-.4.4h-.3c-.2 0-.3-.1-.4-.3v-.3h-1.1c-.4 0-.7.3-.7.7h-.3c-.4 0-.8-.1-1.1-.4l-.4-.3h-1.4c.2.2.4.3.7.3h-1v-.3c-.3 0-.5.2-.7.3-.7 0-1.1-.4-1.4-1.1v-.4l.4.4h.3c.2 0 .4-.2.4-.3 0-.2-.2-.3-.3-.3h-1.1v-.4h.7v-.5l.3-.3-1.1-1.1v.4c0 .3 0 .7-.4.7-.6.4-1.3.6-2.1.7h-.4c0-.3.2-.5.4-.7h-.4c0 .3-.4.3-.7.3s-.4 0-.7-.3c-.1 0-.3-.1-.4-.2-.1-.1-.2-.2-.3-.2-.4 0-.4 0-.4.4h-.4v-.4h-.7v-.3c-.2 0-.3-.1-.3-.4 0-.3-.4-.3-.7-.3l-3.5-1.4c-.2-.1-.3-.3-.5-.3-.2-.1-.4-.2-.5-.4-.2-.2-.4-.3-.7-.3-.3-.1-.5-.2-.7-.4-2.4-.3-4.1-1.7-6-3.5-.3-.4-.9-.7-1.4-.7-.5-.1-1-.3-1.4-.7-.4-.4-.4-.4-.7-.4-.1-.1-.3-.2-.4-.3-.3-.2-.6-.3-.6-.8 0-.4-.1-.8-.4-1.1-.3-.4-.3-.4-.7-.4h-.7s-.7 0-.7-.3c-.3-.4-.9-.7-1.4-.7-.2-.2-.5-.3-.7-.4-.2-.1-.4-.2-.7-.3-.7-.7-1.2-1.5-1.4-2.5 0 .4 0 .4-.4.7-.3-.4-.3-.4-.3-.7v-.7h-.4c-.2 0-.3.2-.3.3 0 .2-.1.3-.3.3l-.4-.3-.3-.4H32l-.7-.3c-.7-.4-1.3-.8-1.8-1.4v-.3h.4v-.4c-.4-.6-1-1.1-1.7-1.4-.2-.2-.4-.3-.6-.4-.2-.1-.4-.2-.5-.4-.2 0-.3-.1-.3-.3-.1-.1-.2-.2-.3-.2-.3-.2-.5-.5-.4-.8-.4 0-.7 0-.7-.4s0-.4.4-.4c.2 0 .3-.1.3-.3h-.6c.2 0 .3-.2.3-.4v-.2c.2 0 .3-.2.3-.4 0-.3-.2-.5-.3-.7v.4c0 .2-.1.3-.3.3l-.3-.3c0 .1-.1.2-.1.3-.2.2-.2.5-.2.7.4.4.4.4.7.4v.7H25c-1.3 0-1.9-1.5-2.1-2.5v-.7c0 .2-.1.3-.3.3l-.4.4v-1.1s.2-.2.2-.3c0 0-.1-.1-.2-.1 0-.1 0-.2-.1-.2-.1-.1-.2-.1-.3-.1h-1.4c-.2 0-.3-.1-.3-.3 0-.2-.2-.4-.3-.4l.4-.2v-.2c.1-.1.1-.2.1-.3 0-.3-.3-.5-.5-.7 0-.1 0-.2-.1-.3-.1-.1-.2-.1-.3-.1-.2 0-.4.2-.4.3l-.4.3c-.1 0-.3-.1-.3-.2-.1-.1-.2-.2-.4-.2V155h-1c-.3 0-1.1 0-1.1-.3-.3-.3-.4-.7-.4-1.1 0-.2-.1-.3-.3-.4-.1-.1-.3-.2-.4-.3-.1-.1-.2-.2-.4-.3-.2-.1-.3-.2-.3-.4l-.4-.4c-.1-.1-.1-.3-.2-.4-.5-.6-.6-1.4-.1-2.1v-.3H13c-.2 0-.3-.1-.3-.3v-.4c0-.2-.1-.3-.3-.4-.1-.1-.3-.2-.4-.3-.2-.1-.3-.3-.5-.3-.2-.1-.4-.2-.5-.4-.5-1.2-1.2-2.4-1.9-3.5-.3-.5-.6-.9-.9-1.4-.3-.3-.4-.7-.3-1.1 0-.5-.3-1-.7-1.4v-.4c0-.2-.2-.4-.3-.4 0-.1 0-.2-.1-.2-.1-.1-.2-.1-.3-.1v-.4c0-.2-.1-.4-.1-.6-.4-.3-.4-.7-.4-1.1 0-.2-.2-.4-.3-.4-.2 0-.3-.1-.3-.3-.2-.5-.4-1-.5-1.4s-.4-.9-.5-1.4c-.2-.4-.4-.8-.5-1.2s-.4-.9-.5-1.2l-1-2.8c-.4-.8-.6-1.6-.7-2.5h.1c.2 0 .2 0 .2-.3v-.3c-1-.5-1-1.2-1-1.9v-.5c.1-.5.1-1-.4-1.2 0-.5.1-1 .4-1.4.3-.3 0-1-.4-1.4v-.3c-.7-1.5-1-3.3-.7-4.9v-2.8c0-.2.1-.3.3-.3.3 0 .3 0 .7-.4h.3c0-.1 0-.2-.1-.3-.1-.1-.2-.1-.2-.1H.3l.3-.3c0-.1.1-.3.2-.4.2-.2.2-.3.2-.5H.3l-1.1.4v-4.9c.3-1.3.4-2.6.4-3.9v-3.2c.1-1.2.3-2.4.7-3.5.3-.4.3-.7 0-1.4 0-.5.1-1 .3-1.4l.4-.4c.3-.3.4-.7.3-1.1-.1-.5.1-1 .4-1.4 0-.2.1-.3.3-.4.3-.7.4-1.4.3-2.1-.1-.8.1-1.7.4-2.5v-1.8h.7l.3.3v-.3c-.2-1.8.3-3.6 1.4-4.9.1-.2.2-.3.2-.4.2-.4.4-.7.1-1H6c.3 0 .3 0 .3-.4v-.3c0-.3.1-.7.2-1 .1-.5.2-1 .2-1.5-.7-1.1-.5-2.4.3-4.1.2-.6.4-1.1.7-1.6.3-.5.5-1 .7-1.6.3-.7.7-1.5 1-2.3.4-.8.7-1.6 1.1-2.3h.4v-.7h.3c0-.2.1-.4.4-.4v-.3l1.4-1.8v-.4l.7-2.8V52c0-.1.1-.3.2-.3.1-.1.2-.2.2-.4h.4c.2 0 .3-.1.3-.3l.5.3-.2.4v.3l.7-.3.1.1c-.1.1-.1.2-.1.3-.2 0-.4.2-.4.3-.2 0-.3.2-.3.3l5.8 3.7-.2.2h.5l.5.3v-.3c.1 0 .1.1.2.1s.2.1.3.1l-.4-.3c.4-.4.7-.7 1-.7.2 0 .4-.2.4-.3l.3-.7.4-1.1-.7.7c-.2.3-.4.6-.7.9l-.1.1-.9-.3-5.5-3.5c.1 0 .1-.1.2-.1v-.3c.2 0 .3-.1.4-.3.1-.1.2-.3.3-.4 0-.3.2-.5.3-.7.2-.1.3-.3.5-.4.2-.1.4-.2.5-.3l.3-.4.4-.3c0-.2.1-.3.3-.4H19v-.7c0-.2.1-.3.3-.4.2 0 .3-.1.3-.3l.4-.7c.7-1.3 1.6-2.5 2.7-3.5l.1-.1.4-.4c.1-.2.2-.5.4-.7.2-.2.3-.5.3-.7 1.1-1.4 2.5-2.5 4.2-3.2l-.4-.4v-.7h.7l.4-.4c.1-.1.3-.2.4-.3.3-.2.6-.3.6-.8l.3-.4h.4c.2-.2.3-.4.3-.7.2 0 .4.2.4.4v-.1c.4-.3.7-.6 1-.6.3 0 .7.4 1.1.7s.3.3.7.3c.1 0 .3-.1.3-.2.1-.1.2-.2.4-.2V35l-.4.4c0 .1-.1.3-.2.3-.1.1-.2.2-.2.4v.3h.7c.3 0 .3 0 .3-.3h.4l-.4.3c-.2 0-.3.2-.3.4-.3.5-.1.7.1.9.1.1.2.1.2.2.2 0 .3.1.4.3l.4-.3c.3-.4.3-.4.7-.4.2 0 .3-.1.3-.3.2-.1.3-.3.5-.4.2-.1.4-.2.5-.4.4 0 .4.3.4.7 0 .2-.2.5-.4.5-.1 0-.2-.1-.3-.1h-.1c-.3 0-.3 0-.6.4-.2 0-.3.1-.3.3l-.4.4v.3c.4 0 .4 0 .7.4 0 .4 0 .4-.3.7s-.4.4-.4.7c.2.2.4.3.7.4-.4.3-.7.9-.7 1.4 0 .4-.1.8-.3 1.1 0-.2-.1-.3-.3-.4-.2 0-.4.2-.4.3l-.3.4v-.7h-.4c-.3.4-.3.4-.3.7-.3.3-.7.7-1 .7-1 .6-1.8 1.5-2.5 2.5v.3c0 .4 0 .4-.4.4h-.3c-.2 0-.4.1-.4.3h.4c.3 0 .3 0 .7-.3h.7v.2c-1.5.8-2.5 2.2-2.8 3.9h-.3c-.4 0-.4.4-.4.7v.3c0-.2.1-.3.3-.3.3 0 .3 0 .7.3v-.3c0-.3.2-.5.4-.7.3.4.3 1 0 1.4l-.4.4c-.2 0-.4.1-.4.3l-2.1 2.1h.4c.3 0 .3 0 .3.3v.4c-.2 0-.3.1-.3.3h-.4v-1c-.4 0-.4 0-.7-.4l-.5-.3c-.2 0-.4.2-.4.3.1.1.2.3.1.4-.1.2-.3.3-.5.3s-.4.2-.4.3l-.4.3-.7.4-.3-.2v-.1c-.1 0-.2 0-.3-.1l.3.2v.6h-1.1l.4.4c.2 0 .3.1.3.3-.2 0-.3.1-.4.3-.1.1-.2.3-.3.4-.1.1-.2.2-.2.3-.1.3-.4.5-.7.5h.4c-.3 0-.6.1-.8.4 0 .1 0 .2-.1.3-.1.1-.1.2.1.4h-.4c-.2 0-.3-.1-.3-.3H19v.7c-.5.3-.5.5-.4.8v1c0 .2-.1.3-.3.4h-.4c.7.7.3 1.4 0 2.1 0 .2-.1.3-.3.4-.2.2-.4.3-.6.5-.1-.2-.1-.4-.1-.5l-1.1.8v.7c.2 0 .3-.1.3-.3 0 .3.2.5.4.7.4 0 .7.3.7.7 0 .2.2.4.3.4-.4.3-.4.3-.4.7 0 .3-.3 1.1-.7 1.1-.4 0-.7.3-.7.7-.4.5-.4 1.2 0 1.8h-.4c-.3 0-.3 0-.7.3l-.2.2c-.4.3-.4.3-.7.3-.3 0-.5-.2-.7-.3h-.3c-.2.2-.3.4-.4.7.2.2.4.3.7.3h.4c.3 0 .3 0 .7.4v.7c0 .1 0 .3-.1.4 0 .1-.1.2 0 .3h.1l.4.4c0 .2-.1.3-.3.3-.2 0-.4.2-.4.3v1.1l-.3-.4c0 .2-.1.4-.2.5-.1.2-.2.3-.2.5v.5h.4c.3 0 .3 0 .3.4v.4l-.8 1.3c0-.1 0-.2-.1-.2-.1-.1-.2-.1-.3-.1h-.4c-.4 0-.7.3-.7.7 0 .4-.3.7-.7.7h-.7l1.1.7c0-.2.1-.4.3-.4.2 0 .4.1.4.3v1.4c0 .1-.1.3-.2.4-.1.1-.2.2-.2.3-.2 0-.4.2-.4.4l.4.3h.4c0 .2-.1.3-.3.4-.1.1-.2.2-.3.4-.1.2-.2.3-.4.3 0 .1 0 .2-.1.3-.1.1-.1.2.1.4.4.2.7.4 1.1.7 0 .4-.3.7-.7.7l-.7.7c-.3.7-.7 1.4-.3 1.8.1.1.2.3.1.4-.2.2-.4.3-.6.3-.3 1.1-.3 1.1-.3 1.4l.3.3h-.3c.2 0 .3.1.3.3v.4c0 .3 0 .3.4.3h.3v.7c-.3 0-.3 0-.3-.3 0 .1-.1.3-.2.3-.1.1-.2.2-.2.4-.3.4-.4.9-.3 1.4 0 .4.1.8.2 1.2.1.2.1.4.1.6 0 .4.1.8.4 1.1v.3h-.4c0-.1 0-.2-.1-.2-.1-.1-.2-.1-.3-.1-.4 0-.4 0-.4-.4h-.2l.4.4.4.3-.4.4c-.2 0-.4.1-.4.3 0 .2.2.4.3.4.2 0 .3.1.4.3l.3.3v-.7h-.3c-.4 0-.4 0-.4-.4l.4-.3h.7v1.1c0 .7 0 1.1-.4 1.4-.5.5-.6 1.2-.3 1.8 0 .5-.1 1-.4 1.4h.4c.2 0 .3-.1.3-.3 0-.2.1-.3.3-.4 0-.2.1-.4.3-.4h.4v.4h-.4l-.3.4v.3c-.3.3-.4.7-.4 1.1.2.1.2.3.1.5s-.3.4-.4.5c-.4.4-.7.7-.4 1.4.7.7.7 1.4.4 1.8 0 .5.1 1 .3 1.4 0 .1.1.3.2.4.1.1.2.2.2.3.3.4.3.4.3.7l-.3.4h-.3c.2.2.3.4.2.6 0 .1-.1.1-.2.1v.4c.4.3.7.9.7 1.4.1.5.3 1 .7 1.4.2.4.4.8.5 1.3.2.4.3.9.5 1.2 0 .2 0 .4.1.6.1.1.1.1.2.1v.4c-.2 0-.4-.2-.4-.4h-.3v.4c.3.6.6 1.2 1.1 1.8.2.2.3.4.4.7H13l-.3-.4v-.3c0 .2-.1.3-.3.3-.2.2-.3.4-.3.7v.4h-.4v-.4c0-.3-.2-.5-.4-.7-.7 0-.7-.7-.7-1.1 0-.4-.1-.8-.3-1.1l.3-.4h.1l-.1-.3h.4c0-.1 0-.2-.1-.2-.1-.1-.2-.1-.3-.1h-.8c-.2 0-.3-.1-.3-.3v.7c.1.9.3 1.7.7 2.5v.3h.3c.4.7.7 1.4 1.4 1.4.3 0 .3 0 .7-.4v.4h1.1c.3.2.4.6.1.9 0 .1-.1.1-.1.1v.4c-.2.3-.3.7-.3 1.1 0 .2.1.3.3.3h.3c.7 0 .7.4.7.7 0 .4.3.7.7.7v.4c.2 0 .4.1.4.4 0 .3 0 .3-.4.3l-.3.4c0 .3.2.5.3.7l.4.3c.3.3.7.7 1.1.7h.7l.3.3.2.2c-.1 0-.2 0-.2.2 0 .1-.1.3-.2.3-.1.1-.2.2-.2.4l-.4.3c-.2 0-.3-.1-.3-.3-.2 0-.4.1-.4.3s.1.4.3.4h.1v.4l-.7.7c-.2 0-.3.2-.3.3l-.4.4h.7c0-.2.2-.4.4-.4s.4.2.4.4l.3.3h.7l.4.4v.4c.3.3.3.3.3.7 0 .1-.1.3-.2.3-.1.1-.2.2-.2.4h.3l.4-.4c.2 0 .3.1.4.3v-.3c0 .1 0 .2.1.3.1.1.2.1.2.1h.7v.3c0 .2-.1.4-.2.5-.1.2-.2.3-.2.5l.3.4h.4v-.4h.4c.1 0 .3.1.4.2.1.1.2.2.4.2h.7c.2.2.2.2.1.3 0 .1-.1.1-.1.1l-.4.4-.3.3c.2.2.4.3.7.4.3 0 .5.2.7.4h.3c0 .2-.2.3-.3.3h-.4l-.3-.3-.4-.4c-.2 0-.3.2-.3.4l.3.3c.7.4.7.7.7 1.4 0 .4.1.8.4 1.1l.3.4v-.7l.7.7-.3-1 .4.4h.3v-.4l.4.4c-.2.2-.2.3-.2.3s0 .2-.2.4c0 .2-.1.3-.3.3v.4l.3.3v.4c.2 0 .4-.2.4-.3.2 0 .3-.1.3-.3v-.4l.4-.3h.3l.4.7h-.7l-.4.7h.7l.7.7c.1.1.2.2.4.3.2.1.3.2.3.4 0 .4 0 .4.3.4h.7v-.9c0-.1 0-.2.1-.3h-.1c-.1 0-.1 0-.1-.1s.1-.3.1-.3c.2 0 .3-.1.4-.3h.4c.3 0 .3 0 .3.3v.7l-.7.7-.4.4c.2 0 .4-.1.4-.3.4-.3.4-.3.7-.3h.7c0 .2-.2.3-.3.3v.7l-.4-.4h-.3c0 .1-.1.3-.2.4-.1.1-.2.2-.2.3v.4h1.4v.3c0 .4 0 .4.4.4l.3.3c0 .2-.1.3-.3.4v.7h.3c0-.2.2-.3.4-.3s.3.2.3.3c0 .1.1.3.2.4.1.1.2.2.2.3 0 .4 0 .4.4.4 0 .3.2.5.3.7h.7v-.3h.3c0 .1 0 .2.1.2.1.1.2.1.3.1 0 .1.1.3.2.4.1.1.2.2.2.3 0 .2.2.4.3.4.4-.4.7-.7 1.1-.7.1 0 .2 0 .3.1-.2.2-.3.4-.3.6.2.2.3.4.3.7l.4-.4c.1.2.4.4.6.4h.3l-.3.3.3.4h-1.4c-.1 0-.3.1-.3.2-.1.1-.2.2-.4.2 0 .1-.1.3-.2.3-.1.1-.2.2-.2.4v.3l.7-.7c0 .3-.2.5-.4.7l.4.4c0 .1-.1.2-.1.3l-.4.4c0 .1 0 .2.1.2.1.1.2.1.3.1.3 0 .3 0 .7-.4.2 0 .3.1.3.3-.3.1-.4.2-.4.3v.7c0 .1 0 .2-.1.2-.1.1-.1.2.4.5.4.4.4.4.7.4.2 0 .3-.1.4-.3.1-.1.2-.3.3-.4v-1.1c0-.2.1-.3.3-.3h.8c0 .2.1.4.2.5.1.1.3.2.5.2s.3.1.3.3c0 .4.3.7.7.7.1.1.2.2.4.3.2.1.3.2.3.4v.4c.1-.1.2-.1.4-.1v.7h.4l.3-.3c0-.1 0-.2-.1-.3H43.2v-.3l.7.7v.3c.4.7 1 1.1 1.8 1.4h.3v-.7l.4-.3c.3 0 .3 0 .7.3 0 .1 0 .2.1.3.1.1.1.2-.1.4 0 .2 0 .4.1.6.1.1.1.1.2.1 0 .1-.1.1-.1.2v.1l.1.1h.7l.3-.3c.2 0 .3.1.4.3 0 .4 0 .4.3.7.3 0 .7.3 1 .7.2.2.3.3.5.4.2.1.4.2.5.4h.3v-.7h.4c0 .2.1.3.2.5.1.1.3.2.5.2.4 0 .4 0 .4.3.1.2.2.4.2.5.1.4.2.5.5.5s.3 0 .7-.4h.7c.2 0 .3.1.4.3H55v.7c.1.4.2.7.4 1.1.3 0 .3.4.3.7v.4h.4c.1-.2.3-.3.3-.5.1-.2.2-.4.4-.5 0-.4 0-.4.3-.7.4.3.4.3.7.3.2 0 .3 0 .3-.1v.1c0 .2.2.4.3.4 1 0 1.4.7 1.8 1.4.2 0 .3-.2.3-.3.3 0 .5.2.7.3.4.4.4.4.7.4.6.7 1.5 1.1 2.5 1.1.7 0 1.3.3 1.8.7h.1c.5.3 1.1.5 1.7.7.2 0 .3-.1.5-.1.3-.1.6-.2.9-.2.2 0 .4-.1.4-.3.1 0 .1 0 .2-.1v-.1c0-.1 0-.2.2-.2v-.3l.3.3c.3 0 .3 0 .3.4v.3c0 .2.1.4.3.4l.4-.7v.3l.3.4c0 .3 0 .3-.3.3h-.7c0 .1 0 .2.1.2.1.1.2.1.3.1 0-.2.1-.3.3-.4l.3.4c0 .1 0 .2.1.3.1.1.2.1.3.1l3.2.7 2.8.3c0-.4 0-.7.3-.7h1.1v.7c.4.4.4.4.7.4h1.1l.3-.4v-.3H81l-.3.3-.4-.3-.7-.7h.1c.1 0 .2-.1.3-.2.1-.1.2-.2.3-.2.3 0 .7.3 1 .7l-.3.4 1-.4.4.7.3 1.4.4-1.1h.3l.4.3h.1c.3 0 .3 0 .3-.3h1.1c.5-.2 1.1-.3 1.6-.4h.2c0 .2-.2.3-.4.4s-.3.2-.3.3h-.7v.7l.3.3h2v-.3h.7c.4.7 1.1.7 1.8.7h2.1c.4 0 .8.1 1.1.3h.4c.3 0 .5-.2.7-.3.2-.1.4-.2.7-.4.4-.3.4-.3.7-.3v-.3h1.1v.4s-.2.2-.2.3c0 0 .1.1.2.1h.4c.4 0 .7-.3.7-.7h.3c.3-.3.7-.4 1.1-.4.4 0 .7 0 .7.4.2 0 .4.1.4.4h.1c.2 0 .2 0 .2-.3l.4-.4.4-.7-.7-.3h-.3c-.5 0-1.1-.3-1.4-.7v-.4h.3c.2 0 .4-.2.4-.3.2 0 .3-.2.3-.3h.7c.3 0 .7 0 .7-.4.3-.3.7-.4 1.1-.3h.7c.4 0 .8-.1 1.1-.4.3-.3.7-.4 1.1-.3h.3c.5.1 1 .3 1.4.7h.3l.4-.4c0-.3.2-.5.3-.7h1.1c.4 0 .8-.1 1.1-.4h.7c.3.3.7.4 1.1.4.4 0 .7-.3.7-.7l.3.3c.2 0 .4-.1.4-.3.4-.4.4-.4.7-.4s.4 0 .4.4h.3c.5-.1 1-.3 1.4-.7.3-.3.7-.4 1.1-.4h.4c0 .1 0 .2.1.2.1.1.2.1.3.1l.3.2c-.1.1-.2.1-.3.1-.3 0-.3 0-.3-.3h-.4c-.2.7-.6 1.3-1 1.8-.2.2-.5.5-.8.6.1.1.2.1.4.1s.4-.1.5-.2.3-.2.5-.2c.3-.3.7-.4 1.1-.3.4 0 .4 0 .4.3l.7-.7.4.4c0 .1 0 .2.1.2.1.1.2.1.3.1h.7c.2 0 .3.1.4.3v-.4c-.2 0-.3-.1-.4-.3 0-.2.1-.3.3-.4v-.7s.2-.2.2-.3c0 0-.1-.1-.2-.1h-1.4c-.4 0-.4 0-.7-.3v-.7h1.8c.4 0 .8-.1 1.1-.4.3-.1.6-.3.9-.4l.9-.3c.5-.3 1.1-.6 1.8-.7.3-.2.7-.3 1.1-.4.4-.1.7-.2 1.1-.4h.4c.2 0 .3.1.3.3v.4h-.3c-.6 0-1 .5-1.1 1.1v.4h.4c.2 0 .3-.2.3-.3.2 0 .4.2.4.4l.3-.7.4-.7c0 .2.1.3.3.3.2 0 .3-.1.3-.3 0-.4 0-.4.4-.4h-.4c-.2 0-.3-.1-.3-.3 0-.1-.1-.3-.2-.3h.2c.3-.1.6-.3.9-.4l.9-.3c.1 0 .3-.1.4-.2.1-.1.2-.2.4-.2.4-.1.9-.3 1.2-.5l.5.5-.3.4h-.1c-.3 0-.3 0-.3.3l-.3.4 1.8-.4v-.3l-.4-.4c-.2-.3-.5-.5-.8-.6l.1-.1c1.3-1.1 2.9-1.7 4.6-1.8.2 0 .4-.1.5-.2s.3-.2.5-.2c.3-.3.7-.4 1.1-.4h.4c-.6.1-1.3.3-1.8.7-.2.2-.2.5 0 .7l-.3.4v.7c0 .4.4.4.7.4.4 0 .7 0 .7.3v-.3h.7l-.3-.4c.2 0 .3-.2.3-.4 0-.3 0-.3-.3-.3h-.4c-.1 0-.3.1-.3.2-.1.1-.2.2-.4.2l-.4.4v-.5c0-.2.1-.3.3-.3.4-.4.4-.4.7-.4l.4-.3H139l.4-.4h1.4c.7 0 1.3-.3 1.8-.7h-.7v-.4c0-.2.2-.3.3-.3h.3c.3 0 .7-.3 1-.7.4-.4.7-.7 1.1-.7h.3c.4 0 .4 0 .7.3s.4.4.7.4c0 .3 0 .3.4.7h.4l.3-.4v-.3h-.7c.3-.3.7-.4 1.1-.4h.3c.1 0 .3-.1.4-.2.1-.1.2-.2.3-.2.4-.4.4-.4.7-.4.5-.1 1 .1 1.4.4.3 0 .3 0 .7.3-.3-.5-.3-.8-.2-1 .1-.1.1-.1.2-.1 0 0 .2-.2.3-.2.1 0 .1.1.1.2h1.1l1.4 1.8H153c-.3 0-.5.2-.7.4-.3.4-.9.7-1.4.7-.7 0-1.4.3-1.4 1.1h-.7l.4-.4-.4-.3c-.3 0-.5.2-.7.3-.4.4-.4.4-.7.4-.3.3-.5.4-.6.4h-.1v-.1 1.1h.3c.4 0 .7-.3.7-.7l.7-.7h.3l-.3.3c-.2.2-.3.4-.4.7l.4.4c.2 0 .3-.1.3-.3l.4-.3c.2 0 .3-.1.3-.3v1c.1-.1.2-.2.4-.3.2-.1.3-.2.3-.4.6-.3 1.1-.8 1.4-1.4 0-.2.1-.3.3-.4l.4-.4.3.4c.1 0 .3.1.4.2.1.1.2.2.4.2l.3-.4c-.2-.2-.3-.4-.3-.7.2 0 .3.2.3.3l1.8 2.5v.7h.4l.3.3v.4c0 .2-.1.3-.3.3-.4.4-.4.4-.4.7-.2 0-.4.2-.4.3 0 .4 0 .4-.3.4l-.4-.4c0-.1 0-.2-.1-.3-.1-.1-.2-.1-.3-.1-.4 0-.4 0-.4.4 0 .3.2.5.4.7 0 .2.1.3.3.4v.1c-.2.2-.4.3-.7.3v.4c0 .4 0 .4-.3.4l-.4.3c-.2.2-.4.3-.7.4-.4 0-.4 0-.7-.4v.7c-.4 0-.4 0-.4-.3l-.7.7-.4.3-.3-.3c0-.1 0-.2-.1-.2-.1-.1-.2-.1-.3-.1h-.3c0-.1 0-.2-.1-.2-.1-.1-.2-.1-.3-.1l-.3.3h-.7l-.3-.3c-.1 0-.3-.1-.4-.2-.1-.1-.2-.2-.3-.2-1.2.3-2.4.7-3.5 1.4l-.4.4h.7c.3-.4.3-.4.7-.4h.1c-.3.2-.6.4-.9.7l.3-.1c.2 0 .4-.1.6-.1l-.2.2c-.1.1-.2.2-.4.3-.2.1-.3.2-.3.4v.1l1.1-.8c.2.2.2.3.2.4 0 .2-.4.3-.7.4-.2.1-.4.1-.6.3h-.1c0-.1.1-.2.1-.3l-.4.3h.3c-.2.4-.7.4-1 .4-.3 0-.7 0-.7.3 0 .1 0 .2-.1.3-.1.1-.1.2.1.4v.3h.7c.3-.3.3-.3.7-.3.3 0 .5.2.7.3h-.1c-.1 0-.2.1-.3.2-.1.1-.2.2-.4.2-.5.1-1 .3-1.4.7-.2 0-.3.1-.4.3v-.7h-.3c0 .1-.1.3-.2.4-.1.1-.2.2-.2.3 0 .4 0 .4-.4.4-.3.4-.3.4-.7.4h-.3v-1.1l-.7.7h-.4c-.5.1-.9.3-1.2.8-.1.1-.2.2-.2.3 0 .1-.1.3-.2.3-.1.1-.2.2-.2.4-1.4 1.1-3.1 1.7-4.9 1.8-.6.1-1.2-.1-1.8-.4l-.3-.3v.7c-.4 0-.4 0-.4-.4h-.1.5l.2-.7h-1c-.3.4-.9.7-1.4.7h-.7l-.4-.3c-.2 0-.3.2-.3.3 0 .2-.1.3-.3.4-.2 0-.3-.1-.3-.3 0 .4 0 .4-.4.4h-.1c.1 0 .1-.1.1-.4 0-.3 0-.3-.3-.3-.2 0-.3-.1-.4-.3h-1.1v.4c.2 0 .3.1.4.3.2.2.5.3.8.3h-.4v.7c0-.4-.3-.6-.7-.7h-.7c-.3 0-.3 0-.3-.4h.3v-.3c-.1 0-.3-.1-.3-.2-.1-.1-.2-.2-.4-.2h-.4c0 .1 0 .2.1.2.1.1.2.1.3.1l-.4.3h-.1c-.3 0-.3 0-.3.4-.3 0-.5.2-.7.3h-.4c-.3 0-.5-.2-.7-.3 0-.4 0-.4.4-.7l-1.4.7.4.7v.3c0 .1 0 .2.1.3h-.1c0 .2-.2.4-.4.4-.1.1-.2.2-.3.4-.1.2-.2.3-.4.3-.3 0-.5-.2-.7-.4-.2 0-.4.2-.4.3l-.7-.4v-1.4h-.1c-.1 0-.2-.1-.3-.2-.1-.1-.2-.2-.4-.2h-.3c-.4.1-.7.2-1.1.4h-.4v.7l-.3.4c-.2.2-.3.4-.4.6h-.1l-.2-.2v.6c.1-.1.1-.2.2-.3l.1-.1.2.2s0 .1-.1.2l-.1.3c-.1-.1-.2-.2-.2-.3v-.1c0 .1-.1.1-.1.2l-.3.3-.4.3h-.3v-.3H109.1v-.4c0-.2-.2-.3-.3-.3l-.4-.4v1.1l-2.5.3v-.7c0-.3 0-.3-.3-.3v.3c-.4 0-.4 0-.4-.3l-.3-.4h-.1c-.3 0-.3 0-.3.4-.4.4-.6.9-.7 1.4v.4c-.2 0-.4.2-.4.3-.3.3-.7.4-1.1.4h-.3v-.7h-1.8v-.4h.7c.2 0 .4-.2.4-.3h-1.1l-3.2.7v.3l.4.4c.3 0 .3.3.3.7s0 .3.4.7l-1.1-.4v1.1h-.4c-1-.3-1.9-.6-2.8-1.1 0 .4-.1.8-.4 1.1-.1 0-.3-.1-.3-.2-.1-.1-.2-.2-.4-.2-.3-.4-.3-.4-.7-.4h-.7v.7h-.1c-.4.2-.9.4-1.3.5-.1 0-.3 0-.4-.1h-1.1c-.3 0-.7 0-.7.3-.3-.1-.6-.1-.9-.1-.2 0-.4 0-.6.1h-.4zm6.7-6v.3l.3.4h1.1c0-.5 0-1 .3-1.5.1-.1.1-.2.1-.3.1 0 .3.1.4.2.1.1.2.2.4.2h.3V185.1l-.3.2h.1c.1 0 .2 0 .2-.2l.4-.2v-.4s.2-.2.1-.3l-.1-.1h-.4l.4-.4c0-.3-.2-.3-.5-.3h.7c.4 0 .4 0 .7-.4l1.1-.7h-1.1c-.3 0-.3 0-.7.4h-.3c-.6.4-1.4.6-2.1.7-.7 0-1.1 0-1.4-.4l-1.4-.7v1.4l.7-.3.7-.4v1.1l-.4.3h.4l1.4-.3v.7c-.1 0-.3.1-.3.2-.1.1-.2.2-.4.2h-.4zm-15.4-2l.7.3c.2.2.4.3.7.3.3 0 .3 0 .3-.3 0-.2.1-.3.3-.4v-.7l.3.3.4.3.4.4v-.4c0-.3 0-.3-.4-.3-.1 0-.3-.1-.4-.2-.1-.1-.2-.2-.3-.2-.3-.3-.7-.4-1.1-.4h-.3c-.3 0-.5-.2-.7-.3 0-.3-.1-.6-.3-.9-.1-.1-.3-.2-.4-.2-.3 0-.3 0-.7.4s-.3.3-.7.3v.4c0 .2.2.3.3.3v-.3c0-.2.1-.3.3-.4.2 0 .3.1.4.3 0 .3 0 .3.3.3h.4v.4c0 .3.2.3.6.4l-.3.1c-.3.1-.6.2-.9.2v-.4l-.4-.4-.7.4.7.3c.3.4.9.7 1.4.7l.1-.3.1.1-.1-.1zm29.3-1c.1.1.2.2.2.3 0 .1.1.4.4.4h1.1c.2-.7.1-1.5-.4-2.1-.3-.3-.3-.7-.3-1.4l-.9.3c-.3.1-.6.2-.9.4-.2 0-.4.1-.5.2-.2.1-.3.2-.5.2-.4.3-.9.4-1.4.3h-.7l-.5.2-.3.3v.4h2.8c.2 0 .3.1.4.3l.3.4.7-.7h.2c0 .1.1.2.1.3 0 .2-.1.3-.3.4h.4c0-.1 0-.2.1-.2zm3-1.9v1.8l.4-.3c.3-.4.3-.4.7-.4.3 0 .5-.2.7-.3v-.7h.4v-.4c-.3-.3-.4-.4-.6-.4.1 0 .2-.2.3-.3.5.9 1.4 1.5 2.5 1.4h.7c0-.2.2-.3.4-.3h.7c.3 0 .3 0 .7-.4v-.4l-.4-.3h-.3c0 .1 0 .2-.1.2s-.1-.1-.3-.3c-.2 0-.3.1-.3.1.1 0 .2-.1.2-.1-.1.2-.2.4-.2.5-.1.3-.2.4-.3.5-.1 0-.1-.1-.2-.1-.1-.1-.2-.2-.3-.2-.2-.1-.4-.2-.7-.3-.3-.1-.5-.2-.7-.4-.2-.2-.4-.5-.6-.7.1 0 .1 0 .2.1h.1c-.4-.4-.4-.4-.4-.7v.2c-.1-.1-.2-.2-.3-.2l.3-.4h.7c.3 0 .5-.2.7-.4H112c-.3 0-.7 0-.7.4h-.4c.2 0 .4.2.4.4l.4.3c.1 0 .2-.1.3-.2v.2c0 .1 0 .2.1.3-.1 0-.2 0-.4-.1-.2 0-.3.1-.4.2 0 .2-.1.4-.1.6-.2.2-.4.3-.7.3h-.7v.4h.3l.4.4c-.1.1-.2.2-.3.2-.1 0-.1 0-.2-.1s-.2-.1-.3-.1h-.3zm-41.9-2.1c-.4.4-.9.8-1.4 1.1l1.8 1.8.3.3 1.1-1.1h-.7c-.5 0-1-.1-1.4-.4l-.3-.4v-.3h.3l.3-1zm36.7 0c.3 0 .5.1.7.2.1.1.2.1.3.1v.7c.1 0 .3-.1.3-.2 0-.2.1-.3 0-.5v-.7l.3-.4c-.3-.3-.7-.4-1.1-.4-.3.4-.5.8-.5 1.2-.1-.1-.2-.2-.3-.4-.1-.2-.2-.3-.4-.3-.3 0-.3 0-.7.4h-.3v-.4l.3-.4h.1c.3 0 .3 0 .6-.3.2 0 .4-.1.4-.3h-.7c-.4 0-1.1.4-1.1.7v.4c0 .6.5 1 1.1 1.1.3 0 .5.2.7.3.4.4.4.4.7.4.2 0 .4-.2.4-.3 0-.3 0-.3-.4-.3-.2 0-.4 0-.5-.1-.1-.3-.1-.4.1-.5zm16.5 0c.1 0 .3.1.4.2.1.1.2.2.4.2l.3.3.4.4h.2c.6 0 1.1-.1 1.6-.4.3-.3.7-.4 1.1-.3.3 0 1.1 0 1.1-.7l.4.3c.3 0 .5-.2.7-.3.1 0 .3-.1.3-.2.1-.1.2-.2.4-.2l-.4.7h.4c.1 0 .3-.1.3-.2.1-.1.2-.2.4-.2 0-.4 0-.4-.4-.7v-.3l.4-.4c.2 0 .3-.1.4-.3h.3v1.1h.4c.1-.1.2-.2.4-.3.2-.1.3-.2.3-.4.3-.7 1-1.1 1.8-1.1.3 0 .3 0 .3.3h.4l-.7-1.4c0 .3 0 .3-.4.3h-1.1v.4h-.7v-1.4l-.7.3c0 .1 0 .2.1.2.1.1.2.1.3.1v.7h-.4c0-.2-.1-.4-.2-.5-.1-.1-.3-.2-.5-.2s-.3-.1-.4-.3c-.1-.1-.2-.2-.1-.3l.1-.1.2-.2-2.5.7-.4.4c.2 0 .3.1.4.3v.4l-.4.4v.3h.4c0 .2-.2.4-.4.4l-.3.3h-.4l-.3.3c-.6.2-1.3.5-2 .7l-.2.1v-.7h-.9l-.5-.4c-.2.1-.4.2-.7.2-.2 0-.4 0-.4.2-.1.1-.1.2-.1.3l.1.1h-.3v1.1l1.1-.2zm11.9-3.9h.4c.4 0 .8-.1 1.1-.4h.4v-.3h-.3c.3 0 .5-.2.7-.4v-.3h.4c.5 0 .9-.2 1.3-.4.2-.1.3-.2.5-.3.5-.4 1.1-.7 1.8-.7.2 0 .3-.1.4-.3.1-.1.2-.3.3-.4v-.4c-.2 0-.3-.1-.4-.3h.2c.3 0 .6 0 .6-.3.1 0 .3-.1.4-.2.1-.1.2-.2.3-.2H139v-.4c-.4 0-.5.1-.6.3-.1.3-.1.5-.1.8 0 .4-.1.8-.4 1.1-.2.1-.3.3-.5.3-.2.1-.4.2-.5.4-.3.3-.7.4-1.1.3h-.4v-.3l.4-.4h.4c.4 0 .7-.3.7-.7.1-.1.2-.2.3-.4.1-.2.2-.3.4-.3v-.4h-.7c0 .2-.1.3-.3.4l-.3-.4v.7h-.7c-.2 0-.4.1-.5.2-.2.1-.3.2-.5.2l-.4.4v.3h.3c.1 0 .1 0 .1.1s-.1.3-.1.3c-.2 0-.3.1-.4.3h-.1c-.2 0-.2 0-.2.3s0 .3.2.4h-.5v.7c-.1 0-.3.1-.4.2-.1.1-.2.2-.3.2-.2.2-.2.3-.2.3-.3-.1-.6-.8-.6-1.4v-.4c-.1-.1-.2-.2-.2-.3 0 0 .1-.1.2-.1 0-.2.1-.3.3-.3v-.7l-.3.3c0 .2-.1.3-.3.4v.7l.4.4-.4.7c.2 0 .3.1.4.3 0 .2.1.3.3.4h.2zm-89.7-7.7v.4c0 .2-.1.2-.2.2s-.2 0-.2.2l-.3.4c0 .3.1.7.4.8.1.1.2.1.3.2.1.1.2.2.4.3.2.1.3.2.3.4h.4l-.3-.8c.1.1.4.1.6.1h.4c.2-.2.3-.4.3-.7 0-.3 0-.3-.3-.3h-.4c-.3 0-.3 0-.7.7-.2-.2-.3-.4-.3-.7l.3-.4c0-.1 0-.2-.1-.2-.1-.1-.2-.1-.3-.1-.1-.1-.3-.3-.3-.5zm-13.7-2.1c0 .3.1.6.2.9.1.1.1.3.1.5 0 .4.4.4.7.4h.3c-.2 0-.3.2-.3.3 0 .4 0 .4.4.7l.3.4-.3.3h.3c.1 0 .3-.1.4-.2.1-.1.2-.2.4-.2v-1.1c0-.1-.1-.3-.2-.3-.1-.1-.2-.2-.2-.4l-.4-.4c-.2 0-.3-.1-.3-.3l-1.4-.6zm6-1.4l.3.3c.3.2.6.5.7.8.1.1.2.1.3.1v.2c0 .3-.4.3-.7.3v.7c.2 0 .3.1.3.4.2 0 .4-.2.4-.4s.1-.3.3-.3h.4c0-.6-.2-.7-.7-.9-.1-.3-.5-.6-1.3-1.2zm-27.8-50c-.1.2-.3.3-.3.5-.1.2-.2.4-.4.5l.4.4.7-.7.3-.3v.3l1.1.4-.3-2.8v.1c-.4.6-.6 1.3-.7 2.1-.4-.2-.7-.3-.8-.5zm16.7-62.3h.2c-.3 0-.5.2-.7.4-.2 0-.3.1-.3.3l.7.4v1.4c0 .2.2.4.3.4h.3l-.7 1v.3l.4.3v-1h.7l-.2-.4.1.1c0-.2-.1-.3-.3-.4.2 0 .4-.2.4-.4v-1.1l-.4.4.4-.7 1-1.8h-.9c0-.1 0-.2.2-.4 0-.2.1-.3.3-.3l.7-1.1c-.1 0-.3.1-.4.2-.1.1-.2.2-.3.2-.2.2-.5.4-.7.5-.3.2-.5.3-.7.5-.2.2-.3.4-.4.7.2 0 .4-.1.4-.3l.3-.4c0 .1 0 .2.1.2.1.1.2.1.3.1l-.4.3c0 .2-.1.3-.3.4l-.1.2zm65.3 127.8h-.5.2l.3-.4-.6.1c.2-.7.5-1 .9-1 .2 0 .4.1.5.3h-.1v.4h.3c-.1-.1-.2-.2-.3-.4.3 0 .7-.2.9-.4.2-.2.5-.3.7-.3.3 0 .6.2.7.4v1.1l-.1.2v-.3-.3h-.1c-.1 0-.1 0-.2.1-.2.1-.3.1-.4.1-.1 0-.2.1-.2.1s0-.1.1-.1c.1-.1.2-.3.3-.5v-.4l-.3.4c0 .4-.1.6-.2.6s-.2-.1-.3-.2c-.1 0-.1-.1-.2-.1 0 .3-.1.4-.2.4s-.2-.1-.2-.1c-.1-.1-.2-.1-.2-.1s-.1 0-.1.2c-.2.1-.4.3-.7.2zm5.6 0c-.2 0-.4-.1-.4-.3h-.2s0-.1-.2-.3h.1c.3 0 .5 0 .5-.3-.4 0-.4 0-.7.4h-.3c-.2 0-.3 0-.5.1-.4 0-.8-.2-1-.4v-1.1l.3-.3c.1.1.2.1.3.1h.6c.2 0 .4.1.5.3.3.4.8.7 1.4.8.1 0 .3 0 .4-.1l.4.4v.4H95v.3zm62-10c.1-.4.1-.6 0-.7h-.1c-.1 0-.2.1-.3.2l-.7-.3-4.6-6.7-.7-1.1h.4l.7.4h.3l-.3-.4-.4-.3c-.2-.2-.3-.3-.5-.4-.2-.1-.4-.2-.5-.3v-.7c.4.4.4.4.7.4 0-.1 0-.2-.1-.2-.1-.1-.2-.1-.3-.1 0-.2-.1-.3-.3-.3.3 0 .5-.2.7-.4.2-.2.4-.3.7-.3h.7c.1 0 .3.1.3.2.1.1.2.2.4.2.4 0 .6-.3.7-.6v.3c0 .2.2.3.3.3l.3.4v-.7c.3 0 .5-.1.6-.2.1-.1.1-.3.1-.5 0-.4 0-.4.4-.4l.4-.4.3.4c-.3-.7.3-1.4 1.1-1.8l.3-.3c.4-.4.7-.4 1.4-.4h.7v1.1l.7-.4.7-.3c-.2-.2-.2-.3-.1-.4.1-.1.1-.2.1-.3h-.3c-.4-.1-.8.1-1.1.3v-1.1c-.2-.2-.3-.4-.4-.7v-.3c.1 0 .3-.1.4-.2.1-.1.2-.2.3-.2.3-.3.7-.7 1.1-.7h.7c1.1-.1 1.8-1.1 1.8-2.1h2.1c.4 0 .7.3.7.7h.7l-.4-.4c.2-.2.4-.3.7-.4-.2-.2-.4-.3-.7-.3h-.3l-.4-.4c.2-.2.3-.4.4-.7.3-.3.3-.3.3-.7 0-.3 0-.3-.1-.3h.1c.4 0 .4 0 .4-.3v-.4c0-.2.1-.3.3-.3h.3v.7l.7-.7v-.4l-.3-.3c-.2 0-.3-.1-.4-.3 0-.4 0-.4.4-.4.2 0 .3-.1.4-.3.1-.1.2-.3.3-.4l.3-.3v.7c.2 0 .3.1.4.3.3 0 .5-.2.7-.3.4-.4.4-.4.7-.4h.7v-2.5l-.3.4-.4-.4c0-.2.1-.5.2-.7.1-.2.2-.5.2-.7.3-.4.3-.4.7-.4h.4v-.7c.2 0 .3-.2.3-.3.1-.1.2-.2.4-.3.2-.1.3-.2.3-.4.4-.4.4-.4.4-.7-.7-.7-.7-1-.7-1.1 0-.2.1-.3.3-.4.1-.1.3-.2.4-.3.1 0 .3-.1.3-.2.1-.1.2-.2.4-.2.4-.2.7-.7.8-1.1l.3-.6c0-.4.3-.7.7-.7.2 0 .3-.2.3-.3v-.3h-.3v-1.4c.2 0 .3.2.3.3 0-.2.1-.3.3-.3.4-.3.7-.9.7-1.4v-.3l.3.3v.1h.1c.1 0 .3-.2.3-.2v-1.4h-.1c-.2 0-.3 0-.3.1-.1.1 0 .3 0 .4s.1.3 0 .4c-.1.1-.2.1-.4.1 0-.1 0-.3.1-.4.1-.4.1-.8-.1-1v-1.1l.4.3.3.4.4.3h.3v-.3c0-.4 0-.4-.3-.4-.1-.1-.2-.2-.2-.3 0 0 .1-.1.2-.1l.3-.4h.1c.3 0 .3 0 .3-.3 0-.2-.2-.4-.3-.4l-.3-.4-.4.4v.7h-.7v-.8c0-.4 0-.4.4-.7 0-.3.1-.7.2-.9.1-.1.1-.3.1-.5.4-.3.7-.9.7-1.4 0-.2.1-.4.2-.5.1-.2.2-.3.2-.5h-.4c-.2 0-.3.1-.3.3l-.4.4c0 .2-.1.3-.3.3-.2 0-.3-.1-.4-.3v-.4h.7c0-.2.1-.3.4-.3.3-.3.4-.7.3-1.1-.2-.2 0-.4.1-.6.1-.1.2-.3.2-.4.4-.3.7-.9.7-1.4 0-.7 0-1.1.4-1.4.4-.4 0-.7-.4-1.1v-.4c0-.1-.1-.3-.2-.3-.1-.1-.2-.2-.2-.4 0-.1-.1-.3-.2-.3-.1-.1-.2-.2-.2-.4l.4-.4h.3c-.2-.2-.2-.5 0-.7-.3-.4-.4-.9-.3-1.4.1-.5-.1-1-.4-1.4-.4-.9-.7-1.8-.7-2.8v-1.1c.2 0 .3.2.3.4l.4.3v-.3c-.2-.3-.3-.7-.4-1.1-.1-.4-.2-.7-.3-1 0-.1-.1-.3-.2-.3-.1-.1-.2-.2-.2-.4h.7c0 .1 0 .2.1.2.1.1.2.1.3.1v.3l.4-.3.1-.1c.1 0 .2.1.3.1v-.7c0-.4 0-.4.4-.4h.3v-.3h-.7c-.2 0-.3-.1-.3-.3-.3-.2-.4-.6-.1-.9 0-.1.1-.1.1-.1l.3-.3V98c-.7 0-.7-.7-.7-1.1 0-.4 0-1.1-.4-1.1v-.7c0-.2.1-.3.3-.4.3-.3.4-.7.4-1.1v-.4c0-.7-.7-1.1-1.4-1.4v-.4l.7-.7.4-.3c0 .1 0 .2.1.2.1.1.2.1.3.1.2 0 .3-.1.3-.3v-.7l1.1-.3c-.2 0-.3-.1-.4-.3l-.3-.3h-.7v-.7c-.2-.1-.3-.3-.3-.5s.1-.4.3-.5c0-.4.3-.4.7-.4h-.7l-.4-.3v.3c0-.1 0-.2-.1-.2-.1-.1-.2-.1-.3-.1-.3 0-.3 0-.3-.4v-.3l.3-.4v.7l.4-.3c.1-.2.3-.3.4-.5.1-.2.2-.4.3-.5 0-.1 0-.2-.1-.3-.1-.1-.2-.1-.3-.1V84c0-.2-.2-.4-.3-.4h-.7c0-.3 0-.3.3-.3h.4c.2 0 .4-.2.4-.3l-.3-.4c.2 0 .3-.2.3-.4 0-.4 0-.4-.4-.7-.2-.2-.3-.4-.3-.7 0-.3.1-.5.3-.7.3-.3.4-.7.4-1.1 0-.2-.2-.4-.3-.4l-.4.4-.3-1.4v-.3h-.4v-1.1h.7v-.7h-1v.4h-.7l.3-.7h.4l.7-.3h-.7c0-.3-.2-.5-.4-.7-.4-.4-.7-.7-.3-1.1v-.4h-.7l-.3.4c-.2 0-.4.2-.4.3v.3h-1.4l-.4-.3c0-.2.1-.3.3-.4.3-.3.7-.4 1.1-.4l.3-.3h-1.1c-.4 0-.4 0-.4-.4s0-.3.4-.3v-.3c0 .2.2.3.4.3l.4.3.7-.7h-.4c-.2 0-.3-.1-.3-.3v-.7l.3-.3.4-.4c-.2 0-.3-.1-.4-.3v-1.4c0-.3 0-.7-.3-.7-.2 0-.3-.1-.4-.3h-.3v.2h-.4v-1.4l-.4-.4c-.2.2-.4.3-.7.4-.7 0-.7-.7-.7-1.1 0-.3-.3-1-.7-1.1h1.3c-.2 0-.2-.2-.3-.3-.1-.1-.2-.3-.3-.4 0-.4-.3-.7-.7-.7-.4 0-.4 0-.7.4h-.2c.1-.1.2-.2.2-.4h.1c.2 0 .3 0 .6-.3l.4-.4.3-.3-1.1.3V61c.4-.4.4-.4.4-.7s-.4-.3-.7-.3c-.2 0-.4-.1-.4-.3 0-.2.1-.4.3-.4h.1-.2v-.4c0-.7 0-.7-.3-.7s-.4 0-.4.4h-.1c-.2 0-.2 0-.2.3h-.4c0-.4-.1-.8-.4-1.1v-.3c0-.4-.1-.8-.3-1.1-.4-.6-.7-1.4-.7-2.1 0-.2.1-.3.3-.4.1-.1.3-.2.4-.3h-1.1c0-.2.2-.4.4-.4l.3-.4v-.3h-.3v.3h-.7v.4c-.3-.3-.4-.7-.4-1.1v-.3c-.1-.8-.4-1.6-1.1-2.1h-.3l-.4.4c0 .2-.1.3-.3.3h-.3c-.3 0-.5-.2-.7-.3 0-.4 0-.4.3-.7.2-.2.3-.4.2-.6 0-.1-.1-.1-.2-.1.2 0 .3-.2.3-.4 0-.4 0-.4-.4-.4l-.3-.3h-.7c-.2 0-.3-.1-.3-.2s.1-.2.3-.2c.2-.2.2-.5 0-.7-.1-.1-.2-.2-.3-.4-.1-.2-.2-.3-.4-.3-.1-.2-.3-.3-.3-.5-.1-.2-.2-.4-.4-.5l-.3-.3v.3c0 .4 0 .4-.4.4h-.3c.1-.1.2-.3.1-.4-.1-.2-.3-.3-.5-.3l-.4-.4v-.4c.2.2.4.3.6.3h.1c0-.1 0-.2-.3-.7 0-.4 0-.4.4-.7-.2 0-.3-.1-.4-.2-.1-.1-.3-.2-.4-.2-.1 0-.2 0-.2.1-.1.1-.2.2-.2.4h-.6V42h.7v-.4c0-.1 0-.3.1-.4.1-.2.1-.5 0-.6 0 0-.1-.1-.1 0-.2-.2-.2-.3-.1-.4.1-.1.1-.2.1-.3v-.3c-.4 0-.7.3-1.1.7 0 .2-.1.3-.3.3 0-.2-.1-.3-.2-.5-.1-.1-.3-.2-.5-.2h-.3c.2 0 .3-.2.3-.3 0-.4 0-.4-.3-.4-.1 0-.3-.1-.4-.2.1.1.2.3.1.5s-.3.3-.5.3c0-.1 0-.2.1-.3v-.2c-.1 0-.3.1-.4.1-.1.1-.3.1-.5.1s-.3-.1-.4-.3c-.1-.1-.1-.2-.2-.2.1.1.3.1.4.1.2 0 .4-.1.6-.2.2-.1.3-.2.5-.2.1.1.1.1.2.1v-.1h-.1c-.4-.5-.6-1.1-.5-1.8h-.3c-.4 0-.7-.3-.7-.7-.1-.1-.2-.2-.3-.4-.1-.2-.2-.3-.4-.3-.4-.8-1-1.6-1.8-2.1-.6-.3-1.1-.8-1.4-1.4-.3-.6-.8-1.1-1.4-1.4-.4-.3-.7-.3-1.4-.3h-.4v-.7l-.4.3v-.7l.4-.4h.4l.3.4c0-.3-.1-.5-.3-.7l-.3.3v-.7l-2.5-1.8c-.6-.6-1.3-1-2.1-1.4l-.4.4-.4-.4-.3-.3c.3-.4.3-.4.3-.7 0-.2-.1-.3-.3-.4-.1-.1-.3-.2-.4-.3-.1 0-.3-.1-.3-.2-.1-.1-.2-.2-.4-.2h-.3v.3l.3.4h-1.8V23l.4-1.4-.7.7c0-.4 0-.6-.1-.7 0 0-.1-.1-.3-.1h-.7c-.4 0-.4 0-.4-.3l-.3-.4-3.2-1h.7v-1.1h-.4c-.3 0-.3 0-.3-.4-.2 0-.4-.1-.4-.3l-.3-.4-.4.4h-.7c-.2-.8-.8-1.4-1.6-1.6-.2-.1-.3-.1-.5-.2h-.1c-.6-.3-1.2-.6-1.7-1-.4-.3-.4-.3-.7-.3h-1.8v.3h-.7c0-.2.2-.3.4-.3l.4-.4h-.7c-.3 0-.3 0-.7.4v-.4h-.7c-.5 0-1.1-.3-1.4-.7 0-.3-.2-.5-.4-.7h-.3c-.4.3-.4.3-.7.3l-.3.6c.1-.4-.1-.7-.4-.9-.3 0-.7 0-.7-.4-.1-.1-.2-.2-.3-.4-.1-.2-.2-.3-.4-.3h-.3v.4c.2.2.2.5 0 .7-.4-.4-.4-.4-.4-.7v-.7c-.4 0-.4.4-.4.7 0 .3-.2.5-.3.7h-.4c.3.3.7.7 1 .7s.7 0 .7-.4c.1.1.2.2.3.4.1.2.2.3.4.3h.7c0 .2-.1.3-.3.4h-1.4c-.1 0-.1 0-.2.1 0 .1.1.2.2.3.3.3.7.4 1.1.3h.4c.3 0 .7 0 .7-.3v-.4-.4h1c.7.3 1.1.7 1.1 1.4l-.3.3h.3v-.7h1.1c.2 0 .4 0 .5-.1-.1.4-.1.8.2 1.1v.3h-.3V16l-.4.7h-.3v.3h-.4v.4h-.7v.3h-.4V17h-1.1c-.2 0-.3-.1-.4-.3 0-.3-.4-.3-.7-.3h-.2c-.3 0-.7 0-.7-.4s-.7-.3-1.1-.3h-.7c-.3 0-.7 0-.7-.4l-1.1-1.1h-.3c-.2 0-.4.2-.4.3l-.7.7h-.7v-.7h-.4l.4-.4h.1c.3 0 .3 0 .3-.3h-.7l-.3-.4V13l-.4.3c0 .4 0 .4.4.7v.4h-.7c-.4 0-.9-.2-1.2-.4-.2-.1-.3-.2-.5-.3-.4-.4-.7-.7-1.1-.7-.2 0-.3.1-.4.3-.1.1-.2.3-.3.4 0-.2-.1-.3-.3-.4v.4c-.1 0-.3.1-.3.2-.1.1-.2.2-.4.2-.3 0-.3 0-.3-.3 0 0-.2-.2-.3-.2-.1 0-.1.1-.1.2h-.2c-.4 0-.9.1-1.3.3-.2 0-.4.1-.5.2-.2.1-.3.2-.5.2h-.3v-.6c-.1.1-.2.2-.4.3v.7c-.4-.3-.9-.4-1.4-.4h-.7c-.2 0-.3.1-.5.1-.3.1-.6.2-.9.2-.7.3-1.4.4-2.1.3-.5 0-1.1.1-1.6.2s-1 .2-1.6.2c-.2 0-.5.1-.7.2-.2.1-.5.1-.7.2h-1.4c-.2 0-.5.1-.7.2-.2.1-.5.1-.7.2-1.6.7-3.2 1.1-4.9 1.4-.4 0-.8.1-1.1.4-.1.1-.2.1-.2.1-.2 0-.5-.1-.7-.3-.2-.1-.3-.2-.5-.2h-.7c-.1 0-.3.1-.4.2-.1.1-.2.2-.4.2 0 .2-.1.3-.3.3h-.4c-.1 0-.3-.1-.3-.2-.1-.1-.2-.2-.4-.2s-.4.1-.5.2c-.2.1-.3.2-.5.2-.3.3-.7.4-1.1.4h-.4c-.2 0-.3-.1-.3-.3-.4-.3-.4-.3-.7-.3h-.3c-.4.3-.4.3-.7.3h-.7c-.4 0-.4 0-.7.4s-.3.3-.7.3c-.2 0-.5-.1-.7-.2-.2-.1-.5-.2-.7-.2-.1 0-.3-.1-.4-.2-.1-.1-.2-.2-.3-.2v1.1h-.4c-.3 0-.3 0-.7-.4v.4l-.8-1.4-.4-.7h.4c.4 0 .4 0 .7-.4.4-.3.9-.4 1.4-.4.7 0 1.4 0 1.8-.7h.7l.4-.3.7-.7-.3-.4c.3-.4.3-.4.7-.4s.3 0 .3.4v-.4c0-.1 0-.3.1-.4 0-.1.1-.2 0-.3H76c-.3 0-.5.2-.7.4l-.7.3h-.3l-.4.4v-.4c-.3.3-.7.4-1.1.4l-.6.3c-.5.1-.9.4-1.1.8l-.4.4h-.3c0-.1 0-.2-.1-.2-.1-.1-.2-.1-.3-.1v-.3h-.3c-.2 0-.3.2-.3.3 0 .1 0 .3.1.4 0 .1.1.2 0 .3l-.9-1.6.7 2h-.4v.7c.3 0 .5.2.7.3l.3.4.7 1.4.4.7h-1c-.2.2-.4.3-.7.4-.3.7-1 1.1-1.8 1-.2 0-.4.2-.4.3v.4c0 .2-.1.3-.3.3-.2 0-.3-.1-.4-.3 0-.4 0-.4-.3-.4v-.4c0-.2.1-.3.3-.3l.4-.4v-.3c0-.4 0-.4-.4-.4-.2.2-.4.3-.7.4h-.3v.3c-.5.3-.5.5-.4.9 0 .2 0 .3.1.5v.3c.1.4.2.9-.4 1.1l-.3.3c.2 0 .3.1.3.3 0 .1-.1.3-.2.4-.1.1-.2.2-.2.3l-.3.5h.7v.3l-.3.4c-.2.2-.4.3-.7.3-.3.1-.5.2-.7.4h-.1c-1.2.4-2.3.8-3.4 1.4-.1.1-.2.2-.4.3-.2.1-.3.2-.3.4-.2.2-.3.3-.4.3-.2 0-.5-.1-.7-.3-.2 0-.3-.1-.4-.3v-.4h.7c.2 0 .3-.1.3-.3h.4l-.4-.4-.3-.4c-.2.2-.4.3-.7.3-.3.1-.5.2-.7.4-.2 0-.3.1-.3.3-.2 0-.4.2-.4.3h-.3v-.4l.3-.3.4-.4h-1.1c.3-.3.4-.7.4-1.1 0-.3-.2-.5-.4-.7-.4 0-.7.3-1.1 1.1 0 .4-.7.4-1 .4h-.3c.2 0 .3-.2.3-.4V26h-.4v.3l-.4.4-.3-.4c-.4-.3-.4-.3-.4-.7-.3-.9-.7-1.8-1.4-2.5v-.7c.4 0 1.1-.3 1.1-.7 0-.2.1-.3.3-.4l.4-.3v.3h.3V21c0-.2.1-.3.3-.4l.4-.3c.2 0 .3-.1.3-.3l.4-.7c0-.2.1-.3.3-.4h.7c.7 0 1.1-.4 1.4-1v.3h.3c0-.2.1-.3.4-.3 0-.4 0-.4.3-.4.2 0 .3.1.4.3l1.4-1.1h-.7l.7-.7.4-.4c.2 0 .3-.2.3-.3.4-.4.9-.6 1.4-.7.4 0 .8-.1 1-.4v-.7l.4-.4c.2 0 .3-.1.4-.3l.2-.2.8.2v.7l.4-.4.3-.3v-.7h.1c.2 0 .2 0 .2-.3l.4-.4c.1 0 .1 0 .2.1l-.2-.4c.2 0 .3.1.3.3.2 0 .3.1.4.3v.7c0 .4.4.4.7.4h.7l.4.3.7 1.2-.3-.8v-.7l-.3-.4-.4-.3v-.4l.4-.4.3-.3v-.1c0 .1.1.1.4.1.2 0 .3-.2.3-.3l.4-.3c0 .1 0 .1.1.2s.2.1.3.1c0 .1 0 .2.1.2.1.1.2.1.3.1.4 0 .4 0 .4-.4V10c.3-.2.7-.4 1.1-.4 0-.2.2-.4.4-.4 0-.3 0-.3.3-.3.2 0 .4-.2.4-.3.4-.3.4-.3.7-.3s.4 0 .7.3v-.7c.4 0 .4 0 .4.4.1-.1.2-.2.4-.3.2-.1.3-.2.3-.4s.1-.3.3-.4l.3.4v.3h.6v.3h.3l.4-.3h.7v.4h-.4c.2 0 .3.1.4.3.1 0 .3.1.3.2.1.1.2.2.4.2.5 0 .9-.1 1.4-.2.5-.1.9-.2 1.4-.2h.8c.2 0 .4-.1.4-.3v-.2c-.1.1-.2.2-.3.2h-.3c-.4.3-.4.3-.7.3-.2 0-.3-.1-.4-.3l.4-.4c.3 0 .5-.2.7-.3 0-.4.3-.7.7-.7h.5c.3 0 .7 0 .7-.7h.4c.2 0 .3-.1.3-.3l.4-.4c.1 0 .3-.1.4-.2.1-.1.2-.2.3-.2h.4l-.4.3-.3.4.3-.4.4-.3h.3c.6 0 1.1-.3 1.4-.7 0-.2.1-.3.3-.3 1.2-.9 2.7-1.4 4.2-1.4 1-.1 2 .1 2.8.7l.3.3v-.8c.4.4.4.4.7.4s.4 0 .4-.4c.2 0 .3-.2.3-.3v-.7h1.1c.4-.3.9-.4 1.4-.3h1c0 .1 0 .2.1.2.1.1.2.1.3.1.2-.2.4-.3.7-.3.4-.4.4-.4.7-.4s.4 0 .4.4c0-.2.1-.3.3-.4.3 0 .5.2.7.4 0 .1 0 .2.1.2.1.1.2.1.3.1.3 0 .4-.3.4-.6 0 .6.4.6.7.6.3 0 .7 0 .7.4h-.4c0 .1 0 .2-.1.3h.1l.4.3c.2 0 .3.1.3.3v-.3h2.1c.3 0 .3 0 .3.4 0 .2-.1.3-.3.4-.1.1-.3.2-.4.3h1.8V2.6h.4c.2-.2.4-.3.7-.4.4 0 .7.3.7.7h.4l.3-.1c0 .1-.1.1-.1.1-.1.1-.2.2-.2.4.3.3.3.3.7.3l.3.4-.7-1.1v-.1l.1-.1c.5.4 1 .6 1.6.6h.7l.1-.1.1.1c.1.1.2.2.2.3l.3-.3h.4c0-.3-.1-.5-.3-.7.3-.1.5-.3.8-.5.3-.2.6-.4.9-.5h1.1v.3l.3.4c.4 0 .4 0 .4.4v.7l.4-1.1 2.5.4V3l-.4.3v.3c0-.2.2-.3.4-.3s.3.2.3.3c0 .4.4.4.7.4h.4c.3 0 1.4-.7 1.4-1.1v-.3h.4c.5 0 1 .1 1.4.3 0 .1 0 .2.1.2.2.1.4.2.6.1h.4c.3 0 .3 0 .7.3l-.8.5c.2 0 .3.1.3.3h-.3l-.4-.3h-.3l-.4.7v.7l.4.4c0 .2 0 .3-.1.3h.1c.4.2.8.3 1.2.4l1.2.3.7.4v-.3h-.3c-.2-.2-.3-.4-.2-.6 0-.1.1-.1.2-.1 0-.1 0-.2.1-.3.1-.1.1-.2 0-.4l.3.3h.3c.4-.4.4-.4.4-.7v-.7c0 .2.2.3.3.3.2.3.4.6.7.9.3.3.5.6.7.9.1.1.2.2.3.4.1.2.2.3.4.3l.7-.7c.4 0 .4.3.4.7s0 .4.3.7l.4.4.3-.4v-.4h.4c.7 0 1.3.3 1.8.7.2.2.4.3.7.3h.3c.3 0 .5.2.7.4.2.1.5.2.7.3.5.1 1 .4 1.4.8.4.3.4.3.4.7 0 .2.1.3.3.3h-.7l-.4-.3v-.4l-.3.7h.3c.4 0 .8.1 1.1.4.2 0 .3.1.4.3.1.1.2.3.3.4 0 .1 0 .2.1.2.1.1.2.1.3.1h.7c.4 0 .4 0 .4.3h-.7v.4h2.5v.3h-.7v.4l.4.3c.1 0 .3.1.3.2.1.1.2.2.4.2 0 .3.2.5.4.7v.8h.3l1.1.7h-.7l1.1.7h.7c-.2 0-.4-.1-.4-.3 0-.2.1-.4.3-.4.2 0 .3-.1.3-.3-.2-.2-.4-.3-.7-.4l-.4-.3h1.4c.2 0 .3-.1.3-.3v1h.4l.3-.4.4-.3.4.3.3.4-.6.3h.2c.3.3.7.7 1.1.7s.4 0 .7-.4c.4 0 .7.4 1.1.7v.4h-.3c-.1 0-.3.1-.4.2-.1.1-.2.2-.4.2-.3 0-.3 0-.7.4-.2.2-.2.3-.1.4.1.1.1.2.1.3 0 .4 0 .4.4.4l.3-.4v-.7c0-.2.1-.3.3-.4.1 0 .3.1.4.2.1.1.2.2.3.2.4.3.4.3.7.3s.4 0 .4.4h.3c0-.2-.1-.5-.3-.6.1.1.3.2.5.3.2.1.4.2.5.4v.4c.4 0 .8.1 1 .3.1.1.2.2.2.4h-.3c-.3 0-.3 0-.3.3v.4c.2 0 .4.1.5.2.1 0 .1.1.2.1s.2.1.3.1v.1h-.7v.4h-.7l.7 1.4c0-.2.1-.3.3-.4 0-.2.1-.3.3-.3h1.1c.5 0 1 .1 1.4.3.4 0 .4 0 .4.4 0 .1-.1.3-.2.3-.1.1-.2.2-.2.4v.4l.4-.4c.4 0 .7.3.7.7.1.1.2.2.3.4.1.2.2.3.4.3h.4v.4c0 .2.1.3.3.3.4 0 .4 0 .4.4s0 .4-.4.4l.4.3c.4.4.4.4.4.7l2.5 2.5c.1.1.2.2.3.4.1.2.2.3.4.3.4.4.8.9 1.1 1.4 1.8 1.5 3.1 3.4 3.9 5.6l1.1 1.1c.4.4.8.9 1.1 1.4 0 .1.1.3.2.4.1.1.2.2.2.3.4.4.7.7.3 1.4-.3.3-.4.7-.3 1.1 0 .2.1.3.3.4.1.1.3.2.4.3.2.2.3.3.5.4.2.1.4.2.5.3.2.2.3.4.3.7.1.3.2.5.4.7.4.3.7.9.7 1.4.7.7.4 2.1 0 2.8v.3h.4l.3-.3v.3c0 .1.1.3.2.4.1.1.2.2.2.3 0 .2-.1.3-.3.4h.7l.4-.4c.2 0 .3.1.3.3 0 .3 0 .3.4.3h.4c.2.2.3.4.3.7 0 .1.1.3.1.4-.5.1-.5.4-.5 1 0 .3 0 .7-.4.7 0 .3.2.5.4.7 0 .1 0 .2.1.3.1.1.2.1.3.1l.7 1.8v-1.4c0-.1-.1-.3-.2-.3-.1-.1-.2-.2-.2-.4l-.4-.3h.7c0 .6.2 1.1.6 1.5l-.3.3v.7c.3.3.3.3.7.3h.4v-.3-.3.1c.1.2.2.4.3.5 0 .1 0 .2.1.2.1.1.2.1.3.1.4.3.7.7.3 1.4l.3.3c-.3 0-.3 0-.3.4-.2 0-.3.2-.3.4h-.1c-.2 0-.3 0-.6.3.1 0 .2 0 .3.1 0 0 .1.1.2.1s.1 0 .2-.1l.1-.1c0 .1 0 .2.1.2.1.1.4.1.6.1v-.7c.6 1.1.8 2.3.7 3.5 0 .2-.1.3-.3.4v.4h.4l.7-.4v.4l-.3.3-.4.4c-.2 0-.4.1-.4.3 0 .2.2.4.3.4l.4.3c.4 0 .7.3.7.7v.3l.1-1.1c.1 0 .1.1.2.1h.2l.2-.3h-.4c0-.2.2-.4.4-.4v-.3c.3 0 1.1.3 1.1.7v.3c-.3.3-.4.7-.4 1.1v.7h1.1c.3.4.3.4.3.7s0 .4-.3.4c-.4.4-.4.4-.4.7l-.3.4c-.2 0-.3.1-.4.3.4 0 .4 0 .4.4l.3.3c.2.1.3.3.5.4.2.1.4.2.5.4 0 .4-.1.8-.4 1.1v-.7c-.2 0-.3-.1-.3-.3-.4-.4-.4-.4-.7-.4-.2 0-.4.2-.4.3 0 .2.2.3.3.3.3 0 .3 0 .3.4v.3c-.1 0-.2 0-.3.1 0 0-.1.1-.2.1s-.2 0-.3-.2c-.4.4-.4.4-.4.7l.4.4h.7c.4 0 .4 0 .7-.4v-.4c0 .3.2.5.4.7.3.3.4.7.3 1.1 0 .3 0 .3.4.7l.1.2c.3 1 .5 1.6-.4 2.2v.3c.4 0 .7 0 .7.4v.4c0 .3 0 .3-.4.3 0 .4 0 .4.4.7.3.3.4.7.3 1.1.1 1.7.3 3.5.7 5.2V89.3c-.3.5-.1 1.1.4 1.4 0 0-.4 0-.4.3v.7c.1.7-.1 1.4-.3 2.1v.3h.3c.2 0 .3.1.4.3 0 .5.1 1.1.2 1.6s.2 1.1.2 1.6c0 .4.1.7.2 1.1.1.3.2.7.2 1.1l.4 2.8.3 2.5c-.2 0-.3.2-.3.3v.3c.5.3.5.7.4 1.2v.5c-.3.5-.3 1.2 0 1.8-.2.4-.3.9-.3 1.4-.3.4-.4.9-.4 1.4v.3c.4 1.6.3 3.4-.4 4.9v.4c0 .4-.1.7-.2 1.1-.1.3-.2.7-.2 1.1 0 .4 0 .7-.4.7 0 .2-.1.4-.3.4h-1.1c0 .1 0 .2.1.2.1.1.2.1.3.1h1.1l-.7.7h.4c.3 0 .3 0 .3.3v.4c.1.6-.1 1.2-.3 1.8 0 .2-.1.3-.1.5-.1.3-.2.6-.2.9 0 .3-.1.6-.2.9-.1.3-.2.6-.2.9-.5.9-.9 1.8-1.2 2.8-.1.2-.1.5-.2.7l-.3.9c-.1.3-.2.6-.4.9 0 .3-.2.5-.3.7-.4 1.4-1 2.7-1.8 3.9-.2.2-.3.5-.4.7-.1.2-.2.4-.3.7 0 .3-.2.5-.3.7-.1.2-.3.4-.4.7l-.3.4-.7.7c0 .4-.4 1.1-.7 1.1-.2 0-.3.1-.4.3-.2.3-.3.6-.5.9-.2.3-.4.6-.5.9-.3.8-.8 1.5-1.4 2.1-.4.3-.4.7-.4 1.4v.7h-.7c-.2 0-.3.2-.3.3-.4 1.7-1.6 3.1-3.2 3.9-.5.2-.7.4-.8.7-.1.2 0 .5.1.7h-.7c-.1.2-.3.3-.3.5-.1.2-.2.4-.4.5-.4.4-.6.9-.7 1.4-.4.4-.7.7-1 1.1-.7.8-1.4 1.5-2.2 2.1-.9.8-1.8 1.5-2.8 2.1-1.4 1-2.7 2-3.9 3.2 0-.2-.1-.3-.3-.4l-.3.4c0 .2-.1.3-.3.3l-.3-.3c-.2 0-.4.1-.4.3h.4v.4l-1.8.7h-.4c-.4.4-.8.9-1.2 1.4-.5.1-.6.3-.8.5zm26.3-64.7c.3 0 .7 0 .7.7v-3.2c0-.6-.3-1.8-1.4-1.8h-.3v.4c0 .3 0 .7.3.7.5.3.5.5.4.8v.3c0 .4.1.8.3 1.1h-.3v.3h-.4c0 .3.1.5.2.7.1.1.1.1.2.1.2.1.3 0 .3-.1zm-11.6-44.6l.4.3.4-.3c.1 0 .3-.1.3-.2.1-.1.2-.2.4-.2l.3-.3v.3l.4-.3c0-.2-.1-.4-.2-.6 0-.1-.1-.1-.2-.1h-1.1v-.3h.3c.4 0 .4 0 .4-.4v-.3h-.7v-.4h-.1c-.2 0-.2 0-.2.3h-.1c-.2 0-.3 0-.6.3-.2.2-.2.3-.1.4.1.1.1.2.1.3h.7v1.4l-.4.1zm-7-19.1v.3c0 .2.1.4.2.5.1.2.2.3.2.5l.4.4c.2 0 .3.1.4.3 0-.3 0-.3-.4-.7v-.3c0-.4 0-.4-.4-.4v-.4l1.1.4-.3.4h1.1V41c0-.1 0-.2.1-.2s.3.2.3.2h.4l-.4-.4c-.3-.3-.7-.4-1.1-.3l-1.6-.1zm-1.2-1.4c-.2 0-.2 0-.2.3v.7c0 .1 0 .2.1.3.1.1.1.2-.1.4h.3l.4-.3.7-.7c.3-.7 0-1.1-.7-1.4-.1-.1-.2-.2-.4-.3-.2-.1-.3-.2-.3-.4v1.1c-.7 0-1.1-.4-1.1-.7 0 .3 0 .7.3.7l1.1.3h-.1zm-12.6-11.6c.2.2.5.4.7.5.2.2.5.3.7.5l-.3.8-.3.7 1.8-.4c-.1-.3-.2-.5-.3-.8-.2-.5-.4-1.1-.4-1.7l-.7.4h-1.2zm-5.6-4.2c.3 0 .4 0 .7.3v-.7c-.3.1-.5.2-.7.4v-1.1h-.3l.3-.4c0-.1-.1-.3-.2-.3-.1-.1-.2-.2-.2-.4v-.3l1.1.2v.1l.1-.1.6.1v.4l.3.7h.3c-.1 0-.2.1-.3.2-.1.1-.2.2-.3.2v.3c.3 0 .3 0 .7.4h.3c.1 0 .3-.1.4-.2.1-.1.2-.2.4-.2-.2 0-.3-.1-.4-.3-.2-.2-.4-.3-.7-.4h.7l-1.1-1.8-.7.3-.2.2h-.1V20c-.1-.1-.2-.2-.3-.4-.1-.2-.2-.3-.4-.3-.3 0-.7 0-.7.4-.5.1-1 .4-1.4.7l-.4-.4c0-.1 0-.2-.1-.2-.1-.1-.2-.1-.3-.1v.3c.3 0 .3 0 .7.4l1.1 1.1c.2 0 .3.1.3.3-.3.2-.3.6-.1.9l.1.1c.2.2.3.3.4.3s.2.1.4-.1zM82 16.3c-.2 0-.5.1-.7.2-.2.1-.5.1-.7.2-.3 0-1.1 0-1.1.7v.3h.4c.4 0 .4 0 .4-.3.3-.4.3-.4.3-.7h.7l.4.4h2.8l.4-.4v-.3l.4.3c.2 0 .3-.1.3-.3 0-.4 0-.4-.3-.4h-.7l-.3.4-2.3-.1zm2.4-3.2v2.1h.7c.1-.1.2-.2.4-.3.2-.1.3-.2.3-.4 0-.1 0-.2.1-.3.1-.1.1-.2-.1-.4s-.4-.3-.7-.4c-.3.1-.3.1-.7-.3h.4c.7 0 .7-.4.7-.7 0 .2-.1.3-.3.3-.4.4-.4.5-.8.4zM95 14.9h.7c.2 0 .3-.2.3-.4s-.2-.3-.3-.3l-.4-.3v-.4h.7c.7 0 1.1-.4 1.4-1.1V12h-.7c-.3 0-.3 0-.3-.4l-.4.8-.7.7c0-.1 0-.2-.1-.3-.1-.1-.2-.1-.3-.1-.2 0-.4.2-.4.3-.1-.1-.2-.2-.3-.2-.1 0-.1 0-.2.1s-.2.1-.3.1c.1.1.2.2.4.3.2.1.3.2.3.4l.4.3c.3 0 .3 0 .3.4v.4l-.1.1zm31-3.5c.7.7 1.1.7 1.4.7l1.1 1.1c1.2 0 2.3.5 3.2 1.4l.4-.4v-.3c0-.2.1-.3.3-.4l-1.4-.3v-.7h1.1c.2 0 .3.1.3.3v-.3c0-.2-.1-.3-.3-.4-.3 0-.5-.2-.7-.4-.2-.2-.4-.3-.7-.3h-.3l-.4-.4c0-.1-.1-.3-.2-.3-.1-.1-.2-.2-.2-.4V10l.3-.4h-.3c0 .2-.1.4-.4.4-.2 0-.3.1-.3.3 0 .2.1.3.3.4-.2 0-.3.2-.3.3 0 .1 0 .1.1.2h-.1c-.1-.1-.2-.2-.4-.2-.1 0-.3-.1-.4-.2-.1-.1-.2-.2-.3-.2-.4 0-.4 0-.4.3l-1.1.4-.3.1zm-38.8 1c.2 0 .3.1.4.3l-.4.4h.7v.7c0 .2.2.3.3.3h.3l.4-.3c-.2-.2-.4-.5-.5-.7-.2-.3-.3-.5-.5-.7v-.7h.7c.3 0 .7 0 .7-.3.2 0 .4-.2.4-.3v-.7h.4l-.4-.4h.7v.3h.1l.2.7.3.4v-.7h.4c0-.1.1-.3.2-.4.1-.1.2-.2.2-.3v-.4c-.2 0-.3-.1-.3-.3l-.4-.3h-1c-.4-.4-.4-.4-.7-.4-.2 0-.4.1-.5.2-.2.1-.3.2-.5.2 0 .1 0 .2.1.2.1.1.2.1.3.1v.4c-.1 0-.3-.1-.3-.2-.1-.1-.2-.2-.4-.2-.3 0-.7.1-.9.2-.1.1-.3.1-.5.1-.4.3-.9.4-1.4.4h-.4c-.1 0-.3.1-.4.2-.1.1-.2.2-.3.2v.4l.3.3h-.7c-.3 0-.3 0-.7.4h1.4c0 .2-.2.3-.3.3h-.7l.3.4c-.2 0-.3.2-.3.4s.1.3.3.3h.7l1.1-.3c0-.2.1-.4.2-.5.1-.2.2-.3.2-.5.3-.4.7-.4 1.4-.4.2 0 .4-.1.5-.2s.3-.2.5-.2h.3v.2H88c-.4 0-.7.3-.7.7-.2.1-.3.3-.3.4-.1.2-.2.3-.4.3v.3h.3l.3-.3zm18.1.4h.2v.6c.4-1 1.4-1.7 2.5-1.8 0-.1 0-.2-.1-.2-.1-.1-.4-.1-.6-.1-.4 0-.4 0-.7.3-.1 0-.3.1-.4.2-.1.1-.2.2-.4.2-.3 0-.3 0-.7-.4-.3 0-.5.2-.7.4l-.3-.4c0-.1 0-.2-.1-.2-.2-.1-.4-.2-.6-.1-.3 0-.7 0-.7-.7h-.1c-.2 0-.2 0-.2.3.2 0 .3.1.3.3 0 .2-.1.3-.3.3h-.4l-.4.4-.4.4.4.3h.3c.1 0 .3.1.4.2.1.1.2.2.3.2.1 0 .3.1.4.2.1.1.2.2.3.2.5-.2.9-.3 1.4-.3l.6-.3zm8.3-.7c.2 0 .3.1.3.3 0 .1 0 .3-.2.4.1-.1.2-.2.2-.3v-.1-.7l-.3.4c-.4 0-.4 0-.4-.4h-1l.3-.3V11c0-.3 0-.6-.1-1 .1-.1.2-.1.4-.1h.1v.1c0 .1 0 .2-.1.3h.3V10h-.1c.1-1.1-.9-1.4-2.2-1.8-.2 0-.3.1-.3.3.3.4.3.4.7.4.1-.1.2-.1.3-.1.2 0 .5.3.8.8.1.1.2.3.3.4l-.3.3v1.3l-.3-.3h-.1v.5h.4v.1s.1.1.1 0c.2 0 .3-.1.5-.1.1 0 .1.1.1.3l.3.4c.2-.1.3-.2.3-.4zM121 11c.5-.1 1 .1 1.4.4h1.1l-.4-.4h-.1c-.5-.3-1.1-.5-1.7-.7-.2 0-.3-.1-.4-.3v-.4c0-.1 0-.2-.1-.2s-.3.2-.3.2l-1.1.4c0-.2.1-.3.3-.4h-.3c-.2 0-.4.2-.4.3h.4l-.4.3c-.1-.3-.3-.4-.5-.4h-.6c.4-.4.4-.7.4-1.4v-.2c-.1 0-.3-.1-.4-.2-.1-.1-.2-.2-.3-.2-.5.6-.6 1.4-.4 2.1v1.4h2.5c.6.1.6.1 1.3-.3zm-25.7 0h2.5l.4-.3-.4-.4.4-.3c.2 0 .3-.2.3-.4v-.3h-.3l.3-.3h.2c.2 0 .3.1.5 0l1-.4h-.1l1.5-.3v.3s-.2.2-.2.3c0 0 .1.1.2.1h.3c.2.1.3.3.5.3.2.1.4.2.5.4.1-.1.3-.2.4-.2.2 0 .4.1.6.2.1-.2.1-.3 0-.4.2 0 .3.2.3.4.2-.2.3-.4.4-.7 0-.4 0-.4.3-.4v-.4h-.3c-.2-.2-.4-.3-.7-.4-.2 0-.3-.1-.4-.3 0-.2-.2-.4-.3-.4-.2 0-.3-.1-.3-.3h-.7c-.4 0-.8.1-1.1.4 0 .4-.4.4-.7.4h-.7c-.4 0-.7.3-.7.7 0-.3-.4-.3-.7-.3h-.7l.4-.7h-.4c-.3 0-.3 0-.7.4v.7c.2 0 .3.1.4.3h-1.1v-.8c0-.3 0-.3-.4-.3-.1.1-.2.2-.4.3-.2.1-.3.2-.3.4-.4.4-.9.6-1.4.7h-.4c-.2 0-.3-.1-.3-.3h-.4l.4 1.8c0-.2.1-.3.3-.3h.7v.7l.7-.4V9.3h.3c0 .3.2.5.4.7.2 0 .3.1.3.3v.7h-.4zm18.1-1.7c.1.2.3.3.5.3l-.3-.3h.4l1.4-1.1.3-1.1-.3.4h-.7c-.3 0-.7 0-.7.3 0 .1-.1.3-.2.4-.1.1-.2.2-.2.3h-.4v.7l.2.1c-.1-.1-.1-.2-.1-.3.2 0 .4.2.4.3h-.3zm15.5 10.6c-.3 0-.6-.1-.8-.8l.7-1c.2 0 .4 0 .4.1s0 .2-.1.3-.1.2-.1.2.1.1.2.1h.5s-.1.1-.5.3h.7c.1-.3.2-.4.3-.4s.2.1.3.2l.2.2c-.1.1-.1.2-.1.3v.3c-.2 0-.3-.1-.5-.1s-.4 0-.6.1c-.3.2-.5.2-.6.2zm-1.5-.4c-.1-.3-.4-.4-.6-.5-.2-.1-.4-.2-.4-.5 0-.7 0-1.4-1.1-1.4v-.4c.2 0 .3-.2.3-.3l.4.3c.4 0 .7.3.7.7.1 0 .2 0 .3-.1l-.3-.3.4.2c.1 0 .2.1.3.2l1.1.7-.7 1-.4.4z"/></g></g></svg>