<?xml version="1.0" encoding="utf-8"?><svg id="Layer_1" xmlns="http://www.w3.org/2000/svg" xmlns:xlink="http://www.w3.org/1999/xlink" width="201.4" height="17.3" viewBox="0 0 201.4 17.3"><style>.st0{fill:#1d1d1b}.st1{fill:none}.st2{clip-path:url(#SVGID_2_)}.st3{clip-path:url(#SVGID_4_)}.st4{clip-path:url(#SVGID_6_)}.st5{clip-path:url(#SVGID_8_)}.st6{clip-path:url(#SVGID_10_)}.st7{clip-path:url(#SVGID_12_)}.st8{clip-path:url(#SVGID_14_)}.st9{clip-path:url(#SVGID_16_)}.st10{clip-path:url(#SVGID_18_)}.st11{clip-path:url(#SVGID_20_)}.st12{clip-path:url(#SVGID_22_)}.st13{clip-path:url(#SVGID_24_)}.st14{clip-path:url(#SVGID_26_)}.st15{clip-path:url(#SVGID_28_)}.st16{clip-path:url(#SVGID_30_)}.st17{clip-path:url(#SVGID_32_)}</style><g id="Group_131" transform="translate(-.025 -1.117)"><path id="Fill_1" class="st0" d="M3.7 6.6z"/><g id="Group_130"><path id="Fill_2" class="st0" d="M8.7 14.1c-.5-.1-1-.1-1.4-.2-.7-.1-1.4-.2-2.2-.3H5c-.2 0-.4.1-.7.1-.2.1-.4.1-.5.1-.2 0-.4-.1-.5-.2v-.3-.2h.1c.1 0 .2.1.3.1h.4V13c0-.1 0-.3-.1-.3H2.6l-.1-.1v-.1s.1 0 .1-.1c.1-.1.2-.1.3-.1.2 0 .3 0 .3-.1s-.1.1-.2 0c0-.1-.1-.2-.1-.2-.1 0-.1 0-.1-.1-.1-.1 0-.5.1-.8.1-.3.2-.6.1-.8 0 0-.1-.1-.2-.1-.3 0-.6.2-.8.3h-.1c-.2-.1-.5-.2-.7-.4-.1-.1-.3-.2-.4-.3H1c.1 0 .2 0 .3-.1.1-.1.1-.3.1-.4v-.2h-.1-.2c0 .1-.1.2-.1.3v.2H.6v-.3-.7c.3-.7.3-1.6.2-2.4 0 0 0-.1.1-.2 0-.1.1-.2.2-.2.1.1.3.2.5.2s.4-.1.5-.3c.1-.1.2-.1.3-.1h.2v.1c0 .1-.1.1-.1.2l.2.2.2-.2c0-.1.1-.2.2-.2.1-.1.3-.1.4-.1h.2l-.2.4s-.1-.1-.2-.1h-.1l.1.1h.2v-.1l.1-.1c.1-.1.3-.2.4-.3.1-.1.2-.1.4-.1h.1c.1.4.4.6.7.6.3 0 .6-.1.8-.2.1-.1.3-.1.4-.2 0 0 .1 0 .1.1v.1h-.1-.1c-.1.1-.1.2-.1.2v.2s0 .1-.1.1h.2c.1 0 .1-.1.2-.2s.1-.2.2-.2.1.1.1.4L8 6l-.5-.2.6-.2c.1 0 .2-.1.2-.1.1 0 .3-.1.4-.2.1-.1.3-.1.4-.1.2 0 .4.1.6.2.2.1.4.2.6.2 0 0 .1 0 .1-.1l.1-.1h.3c.1 0 .2 0 .3-.1.2-.1.3-.1.3-.1H11l.6-.2V5.3c0 .1 0 .1-.1.2v.1l.1-.1c.1 0 .2-.1.4-.2.1 0 .1-.1.1-.2s.1-.1.1-.1h.5c.1 0 .3 0 .3.4 0 0 0 .1.1.1V5c0 .1.1.1.1.2.1.1.1.3.1.5 0 .1-.1.2-.1.3-.1.1-.1.2-.1.3 0 .2.1.4.3.5l.2.2c.1.1.2.1.3.2.1.2.1.3.1.3V10c-.1-.2-.1-.3-.2-.3l-.2-.2-.2.4c.2.1.3.3.4.6 0 .1.1.2.2.3v2c-.1-.2-.3-.3-.4-.3-.3.1-.5.1-.8.2-.3.1-.7.2-1 .3-.2 0-.4 0-.5-.1-.1 0-.1.1-.2.1 0 0-.1.1-.2.1s-.1.1-.2.1h-.1v-.3-.2c-.1-.2-.2-.3-.1-.5s.2-.2.3-.2c.1 0 .2-.1.3-.1.1-.1.1-.2 0-.4-.1-.1-.2-.3-.3-.4l-.1-.1V11.3c-.5 0-.5.4-.6.8-.1.4-.2.8-.6.8-.1 0-.2.1-.2.1v.1c.1.6-.2.7-.5.7-.1 0-.2 0-.3.1-.1 0-.1 0-.2-.1 0 0-.1 0-.1-.1v.1l.4.2.4.1-.1.1c0-.2-.1-.1-.2-.1zM5.2 9.9h-.1c-.1 0-.3.1-.4.3l-.2.2.3.1.3.1.3-.3.4-.3c-.1 0-.1 0-.2-.1h-.4zm7.1.1l.7.4s0-.1.1-.1c.1-.1.1-.2.1-.3 0-.1 0-.2-.1-.3l-.1-.1h-.4s-.1-.1-.2-.1v.2c0 .2 0 .3-.1.3.1 0 .1 0 0 0 .1 0 0 0 0 0zm-5.5-.2c.1 0 .1.1.1.2s.1.2.1.2l.2-.2.6-.6c.2-.1.3-.2.4-.2h-.1l-1.6.5H6l.6.2c.1 0 .2-.1.2-.1z"/><path id="Fill_4" class="st0" d="M14.1 12.8c-.3.2-.8-.4-1.1.3v-.3h-.2c-.3.7.4.5.5.9l.1.1c.1-.2.1-.3.2-.7.3-.2.3.1.2.4l.5.1v-1c-.1 0-.2.1-.2.2"/><path id="Fill_6" class="st0" d="M12.5 13.1c-.7-.2-1.3-.2-.8.9 0-.5.2-.9.9-.7l-.1-.2"/><path id="Fill_8" class="st0" d="M11.7 14.1z"/><path id="Fill_10" class="st0" d="M11.7 14.6v-.4l-.2.4h.2z"/><path id="Fill_12" class="st0" d="M10.5 13.1l-.1.1.8.6c.1 0 .3-.1.3-.1-.2-.6-.7-.5-1-.6"/><path id="Fill_14" class="st0" d="M14.4 5.9h.2v-.2l-.2.2z"/><path id="Fill_16" class="st0" d="M100.4 13.8z"/><path id="Fill_18" class="st0" d="M45.9 10.7z"/><path id="Fill_20" class="st0" d="M130.6 12.7z"/><g id="Group_24" transform="translate(6.394 1)"><path id="Clip_23-2" class="st1" d="M8.1 2.6h167.7v12.5H8.1V2.6z"/><defs><path id="SVGID_1_" d="M8.1 2.6h167.7v12.5H8.1z"/></defs><clipPath id="SVGID_2_"><use xlink:href="#SVGID_1_" overflow="visible"/></clipPath><g id="Group_24-2" class="st2"><path id="Fill_22" class="st0" d="M46.8 15.2c0-.2 0-.3-.1-.5h-.1c-.1 0-.2 0-.3.1-.1.1-.2.1-.3.1-.1 0-.2 0-.2-.1-.1-.1-.2-.1-.3-.1-.2 0-.3 0-.5.1s-.4.1-.6.1c-.1 0-.2 0-.3-.1-.2-.1-.3-.1-.5-.1s-.4 0-.6.1c-.2.1-.4.1-.6.1-.1 0-.2 0-.3-.1-.4-.1-.7-.4-.9-.7-.1-.1-.2-.1-.2-.1-.1 0-.1.1-.2.3-.1.2-.2.5-.4.5H40.1v-.2l.1-.1c0-.1.1-.2.1-.2h-.1c-.1 0-.2.1-.3.1s.1-.1.2-.1c.1-.1.2-.1.2-.1h-.5l-.3-.3-.1-.1-.1.1c-.3 0-.4.1-.4.1 0 .2.1.3.2.5 0 .1.1.1.1.2-.2 0-.4-.1-.6-.1-.5 0-.9-.1-1.3-.3-.3-.3-.6-.4-.7-.4-.2 0-.4.2-.6.6-.1-.2-.2-.2-.3-.2-.1 0-.2.1-.3.2-.1.1-.2.2-.4.2s-.3-.1-.4-.3c-.1-.1-.2-.1-.3-.1-.3 0-.6.1-.9.2-.2.1-.5.1-.7.2h-.2.1s0-.1-.1-.2c0-.1-.1-.2-.1-.2h.1c.1 0 .1 0 .2.1 0 0 .1 0 .1-.1 0 0 0-.1.1-.1 0 0-.1 0-.1-.1l-.1-.1c-.2.1-.4.3-.6.4v.5l-1.1-.3c-.2-.1-.4-.1-.6-.1h-.1c-.3 0-.7 0-1 .1-.5 0-1 .1-1.5.1h-.2c-.5 0-1-.1-1.6-.1-.3 0-.6-.1-.9-.1l-1.6-.1c-.2 0-.3 0-.5-.1-.2 0-.4-.1-.6-.1H22c-.4.1-.9.2-1.3.2-.8 0-1.5-.1-2.2-.4-.2-.1-.5-.1-.7-.1-.4 0-.8-.1-1.1-.3-.1-.1-.2-.1-.3-.1-.1 0-.3.1-.4.2-.1.1-.2.2-.3.2-.1 0-.1 0-.1-.1-.1-.2-.3-.3-.5-.3s-.4.1-.5.1c-.2.1-.4.1-.6.1-.2 0-.4-.1-.6-.3-.1-.1-.2-.2-.2-.4-.1-.2-.2-.5-.4-.5h-.1c-.1 0-.2.1-.3.1-.2 0-.4-.1-.5-.2-.1-.1-.2-.1-.3-.1-.1 0-.2-.1-.3 0h-.4c-.1 0-.3 0-.4-.1-.3-.3-.6-.6-.8-.9-.1-.1-.2-.3-.3-.4h-.1c-.1.6-.3.9-.5.9s-.3-.2-.5-.4l-.1-.1v-2c.1.2.2.3.4.3.1 0 .2 0 .3-.1 0-.5.1-.5.3-.5.3 0 .5.1.7.2.2.1.5.2.7.2.2 0 .4-.1.5-.2l.1.1c0 .1.1.1.1.1l.2-.1c.2.1.5-.1.5-.2 0-.2-.1-.3-.2-.3h-.4-.1c-.2 0-.3 0-.3-.1s0-.2.1-.3c.1-.1.1-.2.2-.4l.1-.2h-.2c-.2 0-.3 0-.5-.1-.2 0-.3-.1-.5-.1-.3.2-.6.4-.8.6 0 .1-.1.1-.2.1h-.1v-.1C9 8.2 9 8.1 9 8s-.1-.3-.2-.4c-.1 0-.2.1-.2.1 0 .4-.1.6-.2.6-.2.1-.2-.1-.3-.3V5.5s0-.1.1-.2v-.2V5c0-.1 0-.1-.1-.2v-.1c0-.1.1-.2.2-.2.1-.1.2-.1.3-.1.1 0 .3-.1.4-.2 0-.2 0-.4-.1-.6v-.4h.2V3.8c.1 0 .1 0 .2-.1.1 0 .1-.1.2-.1 0 0 .1 0 .1.1v.7c.1 0 .2.1.2.1.2 0 .3-.2.3-.6 0-.3 0-.4.2-.4s.4.1.5.1h.1c.1 0 .1-.1.2-.2s.2-.3.3-.3h.2c.2 0 .3-.1.4-.1.2 0 .4.1.5.5h.2v-.3c0-.1 0-.3.1-.3s.1.1.2.3c.2-.1.5-.2.7-.3.1 0 .3-.1.3-.1.1.1 0 .2 0 .4v.4h.2c0 .3-.1.4 0 .4l.3-.3c.1 0 .3.1.4.2V4.2h-.1c-.1 0-.1-.1-.2-.1h-.1c.1.1.1.2.1.2.1.2.2.3.3.4.8.2 1.6.4 2.4.5.1 0 .1 0 .1-.1l-.2-.2h-.1c-.1 0-.1 0-.2-.1h-.1c.1.2 0 .2-.1.2s-.2 0-.2-.1c-.1-.1-.1-.3 0-.4 0-.1.2-.1.4-.2s.5-.1.5-.2c.1-.2.2-.3.4-.3s.3.1.5.2c.1.1.3.2.5.2s.3-.1.4-.5c0-.1 0-.1.1-.2v-.1h-.1-.1-.1c-.1.1-.3.1-.4.1-.2 0-.3-.2-.5-.6.1 0 .3.1.4.1.2.1.5.1.7.1h.4c.1 0 .1 0 .1.1v.4c0 .1-.1.2 0 .2h.1l.3-.3.3-.3c0-.2.1-.2.2-.2h.4l-.2.4-.1.2v.2c.1 0 .1-.1.2-.1.1-.1.2-.1.3-.2.1.1.3.2.5.2.3-.1.6-.2.8-.5l.3-.3c.3-.2.7-.3 1-.2 1.2 0 2.9.5 3.2 1.3.1.2.1.3.2.3s0-.1 0-.2v-.2h.1c.1.2.3.3.4.3.3 0 .5-.5.5-.6 0-.4.1-.6.2-.6s.2.1.3.2l.2.2c.2-.2.4-.2.6-.2h.7c.1 0 .2 0 .2.1.1.3.1.4.2.4s.2-.1.3-.3c.1-.1.2-.3.3-.3.1 0 .2.1.2.3 0-.2.1-.2.2-.2s.3.1.4.2c.1.1.3.2.4.2s.2-.2.3-.5c-.1.6.2.6.5.7.2 0 .4.1.5.3h-.1-.1c-.1.1-.1.3-.1.4.1.1.2.3.3.4.3 0 .4 0 .4.1v-.1c0-.1-.1-.2-.1-.3l.1-.1h.6c.1 0 .3 0 .4.1.2.2.3.3.3.5s-.2.4-.5.5v.2l1-.1v-.3-.3-.2c0-.2-.1-.3 0-.4l.2-.2c.2-.2.3-.4.5-.4s.3.2.5.5c.1 0 .1 0 .2-.1l.5-.3-.1.1c-.1.1-.1.2-.1.2v.1c-.1.2-.1.4-.1.4.1.2.3.3.5.4.1 0 .1.1.2.1l-.5-.6-.1-.1-.1-.1.1-.1c.2.2.5.4.9.4.2 0 .3 0 .5-.1h.3l.1-.3.1-.1.2-.2.9-.9c.1-.1.2-.1.3-.1h.2v.2c.1.1.2.1.3.1.1 0 .2 0 .3.1 0 .1.1.2 0 .3 0 .1.1.2.1.3 0 .1.1.1.1.2v-.2-.3c0-.2.1-.3.1-.3h1.5c0 .1 0 .1-.1.2s-.1.2-.1.4 0 .3.1.5v.1h.1v-.2c0-.1 0-.2.1-.2s.2.1.3.2c.1.1.2.2.3.2.1 0 .2 0 .2-.1.4-.3.6-.7.6-1.2 0-.1 0-.2.1-.2s.2-.1.3-.1c.2-.1.4-.2.6-.2h.1c.1.1.2.2.3.2.1 0 .2 0 .3-.1.1-.1.2-.1.3-.1.1 0 .1 0 .2.1s.1.1.2.1c0 0 .1 0 .1.1l-.3.5v-.1-.3c0-.1-.1-.1-.1-.2l-.1.1-.3.3.1.1c.1 0 .1.1.2.1h.1v.1s0 .1-.1.1-.2.1-.3.1h-.1c-.1 0-.2-.1-.3-.1l-.1-.1-.1.8.5.1h.1c.2.1.4.1.4.1 0 .2 0 .2-.1.2s0 0-.1-.1l-.1-.1-.1.1c.1 0 .1.1.2.1.1.1.3.1.4.1.6 0 1.1-.1 1.7-.2l.3.1v-.2c-.1-.1-.1-.2-.2-.3-.3-.1-.3-.4-.2-.6 0-.2.1-.4-.1-.5l.6.4c-.1.1-.2.2-.2.4v.1s.1 0 .1-.1c.1 0 .1-.1.1-.1.1-.2.1-.4.1-.6v-.3V3l.1.1 1.8 1.2c.1-.6.2-.8.3-.8s.3.3.5.5c.1.2.2.4.3.4h.2c.1 0 .1 0 .1-.1V4c0-.1-.1-.2 0-.3.3-.2.7-.4 1.1-.3h.9c.2 0 .4-.1.6-.2.2-.1.6-.2.9-.2.1 0 .3 0 .4.1.1.1.3.1.4.2.1 0 .1.1.2.1 0 0 0 .1-.1.1 0 .1-.1.1-.1.1-.1 0-.2-.1-.3-.2l-.1-.1v.6c.1-.1.2-.1.3-.2.2-.1.4-.3.7-.4h.1c.2 0 .4.2.5.3.1.1.1.1.2.1s.2-.1.3-.2c.1-.1.1-.2.2-.2s.1 0 .2.1h.2v.1c0 .1-.1.1-.1.2s-.1.1-.2.1c-.1.1-.2.2-.2.3 0 0 .1.1.1.2l.1-.1.3-.3c.1-.1.1-.2.2-.2 0-.1.1-.2.2-.3.1.1.2.1.3.2l.2.2H60h-.1c0 .1.1.3.2.3h.3c.1 0 .2-.1.3-.1h.1c.2.1.3.3.4.6 0 .1.1.2 0 .3v.2h.2l.8-.1-.2.2-.2.2v.2h.7s.1 0 .1-.1v-.1h-.1c-.1-.1 0-.2.1-.4s.1-.3.1-.4h-.1c-.1 0-.3.1-.4.1-.1 0-.2-.1-.2-.1 0-.1 0-.1.1-.2h.2c.1 0 .1 0 .1-.1.1-.3-.1-.4-.4-.6-.2-.1-.3-.2-.3-.4 0-.1.1-.3.2-.4l.1-.1c.2 0 .4.6.5 1 0 0 0 .1.1.1l.1-.1c0-.1.1-.1.1-.2s0-.2.1-.2v-.1l.1.1c.1.1.2.3.3.5 0 0 0 .1-.1.2v.1c0-.2.1-.3.1-.5 0-.1.1-.3.1-.5l.1.1c.1.1.2.1.3.1.1 0 .1 0 .2.1.2.1.3.1.5.1.3 0 .5-.2.6-.6 0-.1.3-.2.6-.2h.1s.1.1.2.3c0 .1.1.1.1.2h-.2c-.1 0-.2 0-.3-.1-.1 0-.3.1-.3.2 0 .2-.1.3-.2.4-.2.2-.4.4 0 .8.1.1.1.1.2.1s.1-.1.1-.2v-.2-.2c0-.4.2-.5.4-.5h.4c.1 0 .2 0 .3-.1.1-.1.2-.1.3-.2.1.1.2.1.2 0 0 0-.1-.1-.5-.2V3h.1c.2-.1.4-.1.6-.1 0 0 .1.2.1.4v.2h.2c.1-.2.4-.4.6-.4.2 0 .5.2.7.6v.2l-.3-.1-.1-.1-.1.1c-.1.1-.1.2-.1.3 0 .1.1.2.2.3l.1.1.1-.5c.2-.1.4-.2.7-.3 0 0 .1.1.1.2l-.1.1c-.1 0-.1.1-.1.1 0 .1 0 .1.1.2l-.3.3.7.2v-.3c-.1-.2-.1-.4 0-.6.3-.5.7-1 1.2-1.3h.2c.1.1 0 .5 0 .6h.1c-.2-.2.1-.3.3-.3h.6c.2 0 .4-.1.4-.3h.2v.2h.1c.1 0 .1 0 .2-.1.1 0 .1-.1.2-.1h.1v.3h.2c.2 0 .3.1.5.1h4c.7-.1 1.3-.2 2-.2.8 0 1.6.2 2.3.6.1 0 .2.1.3.1.3 0 .5-.1.7-.2.3-.2.6-.3.9-.3H84.5c.1 0 .3 0 .4-.1.1 0 .3-.1.4-.1.2 0 .5.2.5.4.2.4.4.6.5.6.2 0 .4-.2.6-.4.2-.2.4-.4.6-.4h.1c.1 0 .3.1.4.1.2 0 .4 0 .7-.1.2 0 .4-.1.7-.1h.2c.7 0 1.4.5 1.6 1.2h.2V4 3.7c0-.1-.1-.2-.1-.4h.2c.2 0 .3.1.5.1v.7s0-.1.1-.2.1-.3.1-.4c-.1-.2-.1-.4 0-.4h.1c.1 0 .2 0 .2.1.1 0 .2.1.2.1h.1v-.2l1.9.1h.1v.1c0 .1-.1.1-.1.2s.1.1.1.1c.2.1.4.1.5.1.3 0 .6-.1.9-.2.2-.1.5-.2.7-.2.1 0 .2 0 .3-.1.1-.1.3-.1.4-.1.2 0 .3.1.4.3.1-.2.2-.2.3-.2.1 0 .1.2.1.3 0 .2 0 .3.1.3h.1c.1-.1.3-.2.3-.3 0-.1-.1-.2-.2-.2l-.1-.1.1-.1c.2 0 .4-.1.6-.1.6 0 1.2.2 1.7.6l.2.2.1.1v-.1-.3-.2s0 .1.1.1c0 .1.1.2.1.3v.2c0 .1 0 .3.2.3.1 0 .1 0 .2-.1s.2-.2.2-.3c0-.1.1-.2.2-.3.1 0 .1-.1.2-.1h.4l-.2.7h-.1c-.1 0-.2 0-.3.1-.1 0-.1.1-.2.1l-.1.1 1.6.2.1-.1s0-.1.1-.1l-.4-.3c-.1.3-.1.4-.2.4s-.1-.1-.2-.3c0 0 0-.1-.1-.1.1-.3.4-.6.6-.6.1 0 .1 0 .1.1 0 .3.2.4.5.4h.1c.1 0 .1.1.2.1h.1v-.3c0-.2 0-.3.1-.5.1-.1.2-.2.4-.2.1 0 .2.1.3.3.1.2.2.3.3.3h.1s.1.1.1.2 0 .2.1.2 0 0 .1-.1c0-.1.1-.2.2-.3.1 0 .1-.1.1-.1.2-.3.4-.6.6-.6.2 0 .4.1.6.4 0 0 .1.1.2.1.2 0 .4-.1.6-.2.2-.1.5-.2.7-.2h.9c.3 0 .8.1 1 .8h.2c.1-.4.1-.5.2-.5s.2.1.2.1c.1.1.2.1.3.2h.1c.1 0 .3-.1.4-.2h.1c.2-.1.4-.2.6-.2h.1c.6.1 1.1.1 1.7.1.5 0 1.1 0 1.7-.1h.1c.2 0 .4.1.6.1.2.1.4.1.6.1.2 0 .4-.1.5-.2l.1.1h.5c.4.1.9.2 1.4.4h.1c.1 0 .1-.1.2-.2 0-.1.1-.2.3-.2h.1c.4.1.9.1 1.3.1H128v.3c0 .1.1.1.2.1s.1 0 .1-.1c.1-.2.3-.3.5-.3s.4.1.6.2c.2.1.4.2.6.2.2 0 .3-.1.4-.3h.1c.3.1.5.2.7.4.1.1.3.2.5.2s.4-.1.5-.1h.1c.4-.2.9-.3 1.4-.3.5 0 1.1.1 1.6.2h.2c.4.1.8.1 1.1.1h.6c.1 0 .1.1.2.2 0 .2.1.4.1.6v.2c.3-.1.2-.3.1-.5-.1-.1-.1-.2 0-.4v-.1l.6.6v-.2c0-.1 0-.3.1-.3l.2-.1c.2-.1.5-.1.8-.1H140.5c.3 0 .6 0 .9.1.5.1 1 .1 1.5.1h3.8c.5 0 1.1.1 1.6.2.1 0 .2.1.4.1s.4 0 .5-.1c.2 0 .3-.1.5-.1.1 0 .2 0 .4.1.1 0 .2.1.3.2l.6.3h.1c.1-.1.2-.1.3-.1.2 0 .4.1.5.3.1.1.2.2.4.2.1 0 .3.1.4.1.3 0 .6-.1.9-.2.3-.1.6-.2.9-.2.2 0 .4 0 .6.1h.1c.3 0 .5-.1.7-.3.1 0 .2-.1.3-.1h.1v.4h.1c.1 0 .1 0 .2-.1 1-.5 2.3-.5 3.3 0 .2.1.3.2.5.2s.3-.1.5-.4l.1.1c.1.1.1.2.2.2.2 0 .5-.1.7-.2.3-.1.7-.2 1-.2.5 0 1.2-.1 1.8-.1h.9c.5 0 1 .1 1.5.2.8.1 1.7.2 2.5.2.5 0 .9 0 1.4-.1v.3h.1c.1 0 .2-.1.2-.1.1-.1.2-.1.2-.1.1 0 .1.1.1.2 0 0 .1 0 .2.1h.2l-.1-.1-.1-.1s-.1-.1 0-.1.1-.1.1-.1l1.3.4h.1l1.8-.6v-.2-.1c.2 0 .3 0 .5.1 0 .4.2.5.3.5v7.9l-.2-.2-.5-.5c-.1 0-.1-.1-.2 0h-.1v.4c0 .1.1.3.1.4.1.3.2.6.2.9 0 .1-.1.1-.2.2l-.1.1-.3-.6s-.1.2-.1.4 0 .4-.1.4h-.1c-.1-.1-.3-.2-.5-.2h-.4c-.3 0-.6-.1-.7-.4 0 0-.1-.1-.1-.2-.1-.3-.3-.6-.6-.6-.2 0-.3.1-.4.2v-.1-.3c0-.2 0-.2-.1-.2 0 0-.1 0-.1.1s-.1.1-.1.1c-.1-.1-.2-.2-.3-.2-.2 0-.3.1-.4.3l-.3.3h-.1c-.1 0-.2 0-.3-.1v-.2-.1c-.1.4-.5.7-.9.7h-.7c-.3-.1-.6-.2-.9-.5-.1-.1-.2-.2-.4-.3 0 0 0-.1-.1-.1v-.1l-.2.2c-.2.1-.3.3-.3.3.1.3 0 .6-.2.7-.1.1-.2.2-.2.3-.1-.1-.2-.1-.3-.1h-.6c-.3 0-.5-.1-.6-.4-.2-.3-.5-.5-.9-.5s-.8.2-1.1.6c0-.1-.1-.2-.1-.2-.1-.2-.2-.3-.3-.5l-.1-.1c-.4-.3-.8-.6-.3-1.2 0 0-.1-.1-.1-.2l-.1-.1v.4c-.1-.1-.3-.2-.4-.2h-.1c-.1.1 0 .4 0 .6v.2c.1.2 0 .4-.1.5-.1.1-.2.1-.3.1h-.4c-.1 0-.2 0-.3.1-.1.1-.1.2-.1.4h-.1c-.1 0-.1 0-.2-.1s-.2-.2-.3-.2c-.1 0-.1.1-.2.2h-.6l.2-.1.2-.1H158s-.1 0-.1.1c-.1.1 0 .3 0 .4 0 .2.1.3 0 .4 0 0-.1.1-.2.1h-.2l-1.1-.3.1-.1c.1-.1.1-.1.1-.2 0-.6-.3-.7-.7-.8-.2-.1-.5-.2-.6-.4-.1-.1-.1-.2-.1-.4v-.2l-.4.9c.2 0 .3.1.3.1s0 .2-.1.4c-.3.2-.6.3-.9.3-.2 0-.5 0-.6-.2-.1-.2-.1-.2-.2-.2s-.1.1-.1.2 0 .2-.1.2c-.1-.1-.3-.1-.4-.2-.2-.1-.4-.2-.7-.3h-.3c-.1 0-.3 0-.3.1-.2.7-.3 1-.6 1-.2 0-.4-.2-.6-.4-.1-.2-.3-.3-.5-.4-.3-.1-.6-.2-.9-.2-.2 0-.3 0-.5.1-.1.1-.2.1-.2.1-.1 0-.2-.1-.3-.2-.1-.1-.2-.2-.3-.2-.1 0-.1 0-.2.1l-.2.2c0-.1-.1-.2-.1-.2v.4c-.1.1-.2.1-.3.1-.1 0-.2 0-.2.1v.2c-.1 0-.1 0-.2.1-.1 0-.1.1-.2.1 0 0 0-.2.1-.4-.2-.1-.3-.1-.5-.2-.3-.2-.6-.3-.9-.3h.2c-.4.1-.9.2-1.3.4l-.6.3h-.1-.2l.1-.2c.1-.1.1-.3.2-.5 0-.1.1-.3.1-.4v-.2l-.1.1c-.1.1-.1.2-.2.3-.1.1-.1.2-.2.2s-.2-.1-.2-.2l-.2-.2s-.1.1-.2.3c-.1.1-.1.2-.2.4 0 .1-.1.1-.1.2h.1c.1 0 .2.1.3.1l.1-.1.1-.1s.1.1.1.2v.3c-.1.1-.3.1-.4.1h-.9c-.2 0-.4 0-.5-.2-.3-.3-.7-.5-1.1-.4-.3 0-.6 0-.9-.2h-.1l.1.1c0 .1.1.2.2.2.1.1.1.1.2.1s.2.1.2.2 0 .3-.1.4h-.1-.1l-.1-.1c0-.1-.1-.1-.1-.1-.1 0-.2-.1-.2-.1-.1-.1-.2-.1-.4-.1-.1 0-.3.1-.4.2-.1.1-.2.1-.3.1-.2 0-.4-.2-.6-.3-.2-.2-.4-.3-.7-.4-.1 0-.2 0-.3.1-.1.1-.2.1-.4.1-.3 0-.6-.2-.8-.4h-.1c-.2 0-.4.1-.6.2l-.2.1c-.2.1-.3.2-.5.2-.2.1-.3.2-.5.3-.1-.1-.1-.2-.2-.3 0-.1-.1-.2-.1-.2 0 .1-.1.1-.2.1s-.2 0-.2-.1l-.1-.1c-.3.2-.7.4-1.1.3-.3 0-.7.1-1 .2-.5.2-1 .3-1.5.3H127c-.1 0-.2 0-.2-.1s0-.1.1-.2l.1-.1c.1-.1.1-.1.1-.2h-.2c-.5.1-1.1.2-1.6.4-.2.1-.4.1-.6.2l-.1.1v-.1c0-.1 0-.2.1-.3.1-.1.2-.1.3-.1h.1c-.1-.1-.2-.1-.2-.2-.1-.2-.3-.3-.5-.4-.1 0-.2 0-.2-.1v-.2-.1c-.1 0-.2-.1-.2-.1h-.1v.3c0 .2.1.4-.1.5-.1 0-.2.1-.3.1-.2 0-.3-.1-.4-.3l-.1-.1h-.1c-.1 0-.3.1-.3.1-.1.5-.3.6-.6.6h-.6c-.2 0-.4.1-.5.3 0 0-.1 0-.1.1l-.1.1c-.1 0-.1-.1-.2-.3 0-.2-.2-.3-.4-.3-.1 0-.3 0-.4.1-.1 0-.2.1-.3.1-.5 0-.8.4-.9 1.1 0 0-.1.1-.2.1h-.1l-.3-.6-.1-.2c.1-.1.2-.1.2-.2s0-.1-.2-.2h-.1c-.1 0-.1 0-.2.1h-.1c0-.2-.1-.5-.1-.7v-.3c0-.2-.1-.3-.1-.4 0-.1 0-.2-.1-.2v.1c0 .1-.1.2 0 .3.2.4 0 .5-.2.6-.1.1-.3.2-.3.4 0 .1 0 .2-.1.3l-.1.1h-.2-.1c-.1 0-.2.1-.4.1s-.5-.1-.6-.6V14.4c-.1.1-.2.2-.3.2-.1 0-.1 0-.2.1h.4c.1 0 .1 0 .2.1v.1h-.1c-.2 0-.2.2-.3.4s-.1.4-.3.4h-.2c-.1 0-.1-.1-.1-.2v-.1h.4l-.2-.2c-.2-.2-.4-.5-.7-.7-.1 0-.1.1-.2.1l-.1.1.1.1c-.1 0-.1.1-.2.1-.1.1-.2.1-.3.2-.1.1-.1.2-.1.4v.2c-.2 0-.2-.1-.3-.3v-.2c-.1-.3-.2-.4-.3-.4s-.2.1-.4.3c-.1.2-.3.3-.4.3-.1 0-.1 0-.1-.1 0 0-.1 0-.1.1l-.1.1-.1-.1c-.1-.1-.1-.2-.1-.3 0-.1.1-.1.2-.1H111.8c0-.3-.2-.4-.4-.4-.1 0-.2 0-.3.1-.1.1-.2.1-.4.1s-.4-.1-.6-.3c-.2-.2-.4-.3-.6-.3-.1 0-.2 0-.2.1 0 0-.1 0-.1.1l.3.2.1.1-.9.2h-.1c-.1 0-.1 0-.2.1V15.3c.1 0 .1.1.2.1l.1.1H108c-.2 0-.4-.1-.5-.2-.1-.2-.1-.4 0-.5h-.1c-.1 0-.2-.1-.3-.1 0 0 0-.1-.1-.1v-.1.5c.1.1.1.1.2.1v.5l-.5-.3h.1l.1-.1v-.1l-.1-.3-.1-.3s0 .1-.1.2c0 .1 0 .1-.1.2h-.1c-.2 0-.4.1-.5.2-.1.1-.3.2-.5.2-.1 0-.2-.1-.3-.2 0-.1-.1-.1-.2-.1s-.1.1-.2.1c0 .1-.1.1-.1.1s-.1 0-.1-.1c0 .1 0 .1.1.2 0 .2.1.3.2.3s.2.1.2.2 0 .2-.1.3c0 0 0 .1-.1.1 0 .1-.2.2-.3.2h-.1c-.2-.1-.3-.2-.3-.4 0-.3-.1-.6-.1-.8v-.4.3c0 .2 0 .4-.1.6l-.2.2s-.1-.1-.2-.4c0-.1-.1-.1-.2-.2l-.1-.1h.4c.1 0 .3-.2.3-.2-.1-.2-.2-.4-.2-.5l-.1-.2v.1c0 .1 0 .1-.1.2l-.3.3-.1.1c0-.1 0-.1-.1-.2h-.1-.1-.1c-.1 0-.1 0-.2-.1 0-.1-.1-.1-.1-.2s-.1-.2-.2-.3l-.1-.1v.4s.1 0 .1.1c0 .2.1.4 0 .5 0 .1-.1.1-.2.1-.2 0-.4-.1-.6-.3-.1-.1-.2-.1-.3-.2-.1-.1-.3-.1-.4-.1h-.1c-.1.1-.2.2-.2.4 0 .1.1.2.3.2v.2c-.1 0-.1 0-.2-.1-.2 0-.3-.1-.4-.2-.1-.1-.2-.1-.3-.1-.1 0-.2 0-.2.1v.1c.1.3 0 .7-.2.9-.1.1-.2.1-.4.1s-.3 0-.5-.1c-.2 0-.3-.1-.5-.1s-.4.1-.4.3v-.1-.1c0-.1 0-.3.1-.4.1-.2.2-.3.3-.5 0-.1.1-.1.1-.2H98c0 .2-.2.3-.4.3H97c-.1 0-.2 0-.3.1-.1.2-.2.4-.1.7 0 .1-.1.4-.2.4-.2 0-.5.1-.7.1h-.3c0-.1.1-.1.1-.2l.3-.3c.4-.2.4-.5.4-.8 0-.2-.1-.4-.1-.5 0-.1 0-.2-.1-.2l-.1 1v.1s-.1 0-.1-.1c-.1-.3-.1-.5-.3-.5-.1 0-.2.1-.4.3-.1.1-.2.2-.3.2h-.1c-.1-.1-.1-.4-.1-.5 0 .1-.1.2-.2.2s-.2-.1-.3-.1H94c-.1-.1-.3-.2-.5-.2-.3 0-.3.3-.3.6 0 .2 0 .3-.1.5l-.1.1c-.1-.2-.3-.3-.5-.2H92.2h-.1c-.2-.2-.5-.2-.7-.2-.3 0-.5 0-.7-.2-.2-.2-.2-.5-.2-.8-.1.4-.2.6-.2.6s-.1-.2-.1-.3c0-.2-.1-.4-.1-.4l-.1.1c-.1.1 0 0 0 0h-.1v.4c.1.1.2.1.2.2s-.1.2-.2.3c-.1.1-.2.2-.2.3 0 .1 0 .1.1.2-.2 0-.4-.1-.6-.2-.1 0-.1-.1-.2-.1-.3-.2-.7-.3-1.1-.3h-.6c-.1 0-.1 0-.1.1 0 0 0 .1.1.2.1.2.3.4 0 .7-.1.1-.3.2-.4.2-.2 0-.3-.2-.4-.4-.1-.2-.2-.4-.3-.4h-.1v-.2H86h-.1-.1c-.1 0-.1 0-.1-.1v.1c0 .1-.1.2-.1.2h-.1c-.1 0-.2-.1-.2-.2-.1-.1-.2-.2-.3-.2h-.1c-.1 0-.3.1-.4.1h-1.1c-.1 0-.2.1-.2.1s.1.1.1.2c.1.1.2.1.2.2v.1s-.1.1-.1.2v.1c-.1-.1-.2-.2-.3-.2h-.5c-.1 0-.2 0-.2-.1-.2-.3-.5-.5-.6-.5s-.3.2-.5.5c0 .1-.1.2-.2.2s-.1 0-.2-.1c0 0-.1 0-.1-.1h.1c.1 0 .1 0 .2-.1 0-.1.1-.1 0-.2s-.2-.2-.2-.4c-.2-.3-.4-.7-.6-.7h-.1C79 12.1 79 12 79 11.8v-.1-.1s-.1 0-.1.1c-.1.3-.1.7 0 1v.6h-.1c-.1 0-.2 0-.3-.1-.2 0-.3.1-.4.3v-.1-.2c-.1-.1-.2-.1-.3-.1h-.1c-.1.1-.3.1-.5.1-.4-.1-.8-.3-1-.7-.1.2-.3.4-.5.4-.1 0-.3 0-.4-.1-.1 0-.3-.1-.4-.1-.1 0-.2 0-.3.1v.1c-.3-.2-.6-.3-.9-.3-.3 0-.7.1-1 .1-.3.1-.7.1-1 .1h-.4c-.3-.1-.5-.1-.8-.1-.2 0-.4 0-.6.1-.3.1-.6.3-.8.6-.1.1-.1.2-.2.2 0 .1-.1.2-.1.3v.1c-.1-.1-.2-.1-.3-.1-.1 0-.2 0-.3-.1-.1-.1-.1-.2 0-.4 0 0-.1-.1-.1-.2l-.1-.1v.6l-.1-.1c-.1-.1-.2-.2-.2-.3 0-.2-.1-.4.3-.5.2 0 .4-.1.4-.2s-.1-.2-.4-.3c0 .2-.1.3-.1.3s-.1-.1-.2-.1-.1-.1-.2-.1l-2.3.1-2 .1v.5l-.1.1c-.1 0-.2 0-.3-.1-.1 0-.2-.1-.3-.1-.1 0-.1 0-.2.1h-.1c0-.3 0-.5-.2-.7-.1-.1-.2-.1-.3-.1h-.8c-.1 0-.2.2-.2.3v.2h.3l-.7.3-.1-.4-.3-1-.1 1.3h-.1-.1c-.2-.3-.3-.4-.4-.4s-.2.1-.4.2l-.1.1c-.1 0-.1.1-.2 0H58h-.1c-.8.2-1.6.4-2.3.6l-.1.1s0 .1-.1.1l.4.3v.1c0 .1-.1.1-.1.1-.1.2-.3.3-.6.3-.2 0-.5-.1-.6-.3h.1c.1 0 .1-.1.2-.2 0-.1 0-.1.1-.2.1-.2.4-.4.6-.5.1 0 .2-.1.3-.1H56.1v-.1c0-.1 0-.2-.1-.3-.1-.1-.1-.2-.2-.2s-.2 0-.2.1c-.1.1-.2.1-.2.1-.1 0-.1 0-.1-.1-.1 0-.1 0-.2-.1-.1 0-.1-.1-.2-.1h-.1v.4h-.1c-.1 0-.1.1-.2.1-.3-.5-.9-.8-1.4-.7h-1.2c-.3 0-.6-.1-.9-.2h-.2c-.3.1-.6.2-.9.4-.2.1-.4.2-.5.3.1.2.1.3 0 .4 0 0-.1.1-.2.1H48.9c-.1 0-.1 0-.1-.1 0 0 .1-.2.1-.3.1-.1.1-.2.1-.2h-.1-.1c-.2 0-.4.2-.5.4-.1.4.1.9.4 1.2.1.1.1.2.1.3l-.1.1-.1.1c0-.1 0-.1-.1-.2l-.1-.1s0-.1-.1-.1v.8l-.7-.7-.1-.1v.4h-.1-.1-.1c.1.1.1.1.1.2s-.3-.3-.3-.3c-.1 0-.2 0-.2.1 0 0 0 .1.1.2 0 0 .1 0 .1.1h.1l-.3.1zM44 13.5c-.1 0-.3 0-.3.2 0 .1-.2.1-.3.1h-.2c.1 0 .2 0 .2.1.1.1.3.1.5.1h.1c.3 0 .7-.2.7-.3v-.2c0-.4 0-.9-.5-1-.2-.1-.4-.2-.5-.4-.2-.2-.3-.4-.5-.4-.1 0-.2 0-.2.1s0 .1.1.2.2.3.1.4c-.1-.1-.1-.1-.2-.1-.2-.1-.3-.2-.4-.4-.1-.1 0-.2 0-.3v-.2c-.2 0-.2.3-.3.5 0 .2 0 .5-.4.5h-.1v.2c.2.2.5.3.8.4.3 0 .5-.2.6-.4.1.2.3.6.6.6.2 0 .3-.1.4-.2 0 0 .2.1.2.2s0 .3-.1.4c-.1.1-.2.1-.3.1v-.2zm1.5-.8c.4 0 .8.3 1 .9l-.2.2-.1.1h.2c.1 0 .2 0 .3-.1.1-.1 0-.2-.1-.4-.1-.1-.1-.2-.1-.2s.1-.1.2-.1c.3 0 1-.1 1-.7l-.1-.1c0-.1-.1-.2-.2-.2h-.1-.1c-.2.1-.4.2-.6.2-.3 0-.6-.1-.8-.3-.1-.1-.2-.2-.3-.2-.1 0-.2.1-.3.2l-.2.2h-.1l-.2.6.8-.1zm-20.3.6c0 .1.1.1.1.1.1 0 .1 0 .2.1.1 0 .2-.1.2-.1 0-.1 0-.2-.1-.3-.1-.1-.1-.2 0-.3 0-.2 0-.3.1-.4h.1c.1 0 .1 0 .2.1h.2c.4 0 .7-.3.8-.6v-.2h-.5c-.1 0-.1 0-.2-.1s-.1-.2-.1-.3l-.2.2-.5.4c0-.2-.1-.4-.2-.4s-.1.1-.2.2-.1.2-.2.2h-.1c0 .1.1.1.1.2.1.1.2.3.2.4 0 .1.1.2.2.3.1.1.2.2.2.3 0 .1-.1.2-.1.3h-.1c.1-.1 0-.1-.1-.1.1 0 .1 0 0 0zm7.9-.3c.1 0 .3.1.3.2 0 0 .1.1.1.2v.1c.3-.8 1.1-1.3 2-1.3v.4h-.1c-.1 0-.2 0-.2-.1h-.4v.1h.4c.1 0 .2-.1.3-.1.1 0 .3-.1.4-.1 0 .1.1.2.1.3V12.6c0-.2 0-.4-.1-.6 0-.1-.1-.2-.1-.2l-.1.2c0 .1-.1.1-.1.1-.1-.3-.3-.5-.6-.5-.2 0-.3 0-.5.1s-.3.1-.5.1-.4-.1-.5-.3v.1s0 .1-.1.1l-.6.3c-.1-.1-.1-.2-.1-.4 0-.3-.2-.3-.4-.4-.2 0-.5-.1-.4-.5h-.1s-.1 0-.1.1-.1.1-.1.2c.1.1.2.2.2.3 0 .1-.1.2-.2.3l-.1.1-.1.1c-.1.1-.2.2-.2.3 0 .1.1.1.3.2l.1.1c.2.1.4.1.5.2.1.1.3.2.4.3.1.1.3.2.3.2s.2 0 .3-.1zm-5.5-.9v1.3c.2-.2.3-.5.6-.8l.3-.4c0-.2 0-.3-.1-.4l-.1-.1c-.1 0-.1.2-.2.3 0 .2-.1.4-.2.4s-.1-.1-.3-.3zm70.6 0l-.2.2c.1.3.3.5.4.7l.2.3c0-.1 0-.2.1-.2.1-.2.1-.4.2-.7 0-.1-.2-.1-.3-.2-.3-.1-.4-.1-.4-.1zm-76.5.1l-.1.2c0 .1 0 .2.1.3l.3.3.1.1V13l.1-.1c-.2-.3-.3-.5-.2-.6l.1-.1h.6l.2-.1h-.3c-.3.2-.6.2-.9.1zm17.4-.1c0 .2.1.3.3.4.1.1.2.2.2.3 0 .1 0 .2-.1.3.3-.1.3-.3.2-.5v-.3l.1-.1.2-.2s-.1-.1-.2-.1c0 0-.1.1-.1.2s-.1.1-.1.1c-.1 0-.1-.1-.2-.2 0-.1-.1-.2-.2-.2s-.2 0-.2.1v-.6c-.1-.3-.1-.5.1-.8.1-.1.3-.2.5-.2h.4c.1 0 .2-.1.2-.2s-.2-.1-.3-.2c-.1 0-.1-.1-.2-.1l-.1-.4.1.1c.1 0 .1.1.2.1s.2.1.3.1c.1-.4.1-.8.2-1.1V8.3l-.3.2c-.1.1-.3.1-.4.1-.3 0-.7.1-.6.8l-.1-.1-.1-.1c-.2-.1-.3-.2-.4-.2 0 0-.1.2 0 .4s.4.4.6.4c.1 0 .2 0 .3-.1v.3s-.1.1-.2.1h-.4c-.1 0-.1 0-.2.1 0 .1-.1.2 0 .3h-.1c-.1 0-.1 0-.1-.1 0-1.3-.8-1.5-1.6-1.6 0 0-.1.1-.1.2 0 0 0 .1.1.1.1.1.3.2.4.3.3.2.6.5.9.8.2.3.3.7.4 1.1 0 .1 0 .2.1.3v.1c-.1.1-.2.2-.3.2-.1 0-.2 0-.3-.1-.1 0-.2-.1-.3-.1-.1 0-.2.1-.3.2.1 0 .2.1.3.1.2.1.4.1.6.2h.7l.1-.1zm54.2-1.3l.1.1c.1.2.2.3.3.5 0 .1 0 .3-.1.4-.1.4-.1.7.4.8l.2-.8.8.4v.4l.2-.1v-.1c0-.1-.1-.2-.1-.3v-.7-.3h.2l.2.2.1.1s0-.1-.1-.1c0-.1-.1-.2-.2-.3-.1-.1-.2-.1-.3-.1h-.2c-.1.1-.2.3-.2.5 0 .1-.1.2-.1.2-.1 0-.2-.1-.2-.1v-.3c0-.1.1-.3 0-.4l-.1-.1s-.1.1-.1.2v.2L94 11c0-.1-.1-.2-.1-.2-.1-.2-.1-.4-.5-.4h-.1c-.2 0-.4 0-.5.2-.1.1-.1.4 0 .8.1.2.1.3.2.5 0 .1.1.1.1.2l.1-.1.2-.2s0-.1-.1-.2l-.2-.6v-.1l.1-.1c0 .1.1 0 .1 0zm-78.1.7c0 .1.1.1.2.1s.2 0 .2.1 0 .1-.1.3l.6.2c.5.2 1.1.4 1.6.6.1 0 .1-.1.1-.1 0-.1.1-.1.1-.1s.1.1.1.2h.1c.1 0 .1-.1.2-.1 0-.1.1-.4 0-.4-.3-.2-.4-.3-.6-.3h-.2l.2.2.1.1h-.1c-.1 0-.2.1-.3.1-.1 0-.1 0-.2-.1l-.1-.1c-.1-.1-.3-.2-.4-.3-.3-.3-.7-.5-1.2-.5 0 0-.1.1-.3.1-.1-.1-.3-.2-.5-.2s-.4.2-.5.5H14.8c.1 0 .2-.1.3-.2l.1-.1zm152.1.3l-.4.2c.1.1.2.1.2.2.2.2.4.3.7.5.1 0 .2-.2.3-.3.1-.1.1-.2.2-.2l-.3-.2-.7-.2zm-143.8-.5c0 .1 0 .1.1.2.1.2.1.3.2.5 0 0 0 .1-.1.2 0 0 0 .1-.1.1l.5-.3.6-.3s0-.1.1-.1v-.1h-.1c-.1 0-.2-.1-.3-.1h-.5l-.4-.1zm-2.8-.7c-.2.1-.3.2-.3.3 0 .1.1.2.3.2V11.7c0 .1 0 .2.1.3v.1l.1-.1h.1c-.1-.4-.2-.7-.3-1.1v-.3zm125.2.1c0 .2.1.3.1.4 0 .2.1.3 0 .3-.1.1-.2.1-.3.2 0 0-.1 0-.1.1l.6.5c0-.1.1-.2.1-.4.1-.2.2-.5.2-.8 0-.1 0-.2-.1-.2h-.1-.1c-.1.1-.2 0-.3-.1zm-48.6.4s-.1.1-.1.2v.1c.1.4.2.6.4.6.1 0 .3-.1.4-.2.1-.1.3-.2.4-.2.1 0 .2.1.2.2l.1-.1-.3-.1c-.4-.3-.8-.4-1.1-.5zm-10.5.5c.1 0 .3 0 .4.3l.4-.2-1.3-1c.2.2.1.5 0 .6 0 .1-.1.1-.1.2s.1.1.2.1h.4zm40.4-.1v.3c.3-.1.3-.4.3-.6 0-.3 0-.6.4-.7-.2 0-.4-.1-.6-.1-.4-.1-.7-.1-1.1-.1h-.8c-.6 0-1.3.1-1.3 1.3h.5c.1 0 .3 0 .3-.1.1-.2.3-.4.5-.4.1 0 .2 0 .4.1.1 0 .2.1.4.1s.3-.1.4-.2v.1c0 .1 0 .1.1.2v.1h-.1-.1-.1s0 .1-.1.1v.1h.8s0-.1.1-.2zm6.9-.6l-.1.3-.2.5 1.8.2v-.1l-1.5-.9zM18.9 11s-.1 0 0 0c-.1.2-.2.2-.3.3-.2.1-.3.1-.5.2l-.2.1c.1 0 .1 0 .2.1s.2.1.3.1h.1c.3-.1.5-.2.7-.4.1-.1.2-.3.2-.5 0-.1-.2-.2-.3-.3-.1-.1-.3-.2-.4-.4.1.1.2.1.3.1.3 0 .4-.3.5-.5.1-.3.2-.5.5-.6.2-.2.4-.2.6-.2H21.8c.1 0 .2.1.2.2s0 .2-.1.2h-.2-.1c-.1-.1-.2-.1-.3-.1-.2 0-.4.2-.5.3-.2.2-.3.3-.5.3-.1 0-.2 0-.2-.1v.2c.1.1.1.1.2.1s.1-.1.2-.1h.1c.1.1 0 .2 0 .4h.1c.1 0 .1-.1.1-.2s0-.2.1-.2.1 0 .2.1.2.1.3.1c.2 0 .3 0 .5-.1.1 0 .2 0 .3-.1v-.4-.2h.6v-.3l.1.1.1.3c.1.1.1.1.1.2l.1-.2c.1-.2.1-.3.2-.5-.1 0-.2 0-.3-.1H22.8v-.1-.1H23.1c.2 0 .3-.1.5-.1s.3 0 .3.1c.1.1-.1.4-.4.7v.2c.1.1.1.1.2.1.1-.1.2-.3.3-.5l.1-.2c-.1.2-.1 0-.1-.1 0-.2-.1-.4-.3-.4h-.2-.1c-.1 0-.3-.1-.4-.1-.1-.1-.3-.1-.4-.1h-.2c-.1 0-.2 0-.3.1-.1 0-.1.2-.1.3-.2-.2-.5-.3-.8-.3-.2 0-.4 0-.7.1-.2.1-.4.1-.7.1-.2 0-.4 0-.6-.2h-.1c-.2 0-.3.1-.5.2-.1.1-.1.2-.1.4.1.1.1.3.2.4 0 0 .1.1.1.2l-.2-.1c-.2-.1-.4-.1-.5-.1h-.7v.2l.6.3h.6l-.1.1-.1.1v.1H18.1 18s0 .1.1.2c-.1 0-.3.1-.3.2-.1.2-.1.3 0 .5 0 .1.2.1.3.1.2 0 .3 0 .5-.1l.3-.1zm52.5-.9c0 .1-.1.3-.1.4-.1.3-.2.6-.2.9v.1l.1-.1v-.1c0-.1.1-.2.2-.2s.1.1.2.2l.7-.7-.1-.1.2-.1c.2-.1.3-.3.3-.3-.1-.3-.2-.4-.4-.4s-.2 0-.3.1-.3.3-.4.3c-.1.1-.1 0-.2 0zm16.2 0c.1 0 .1.1.2.1.2.1.4.2.3.3 0 .2 0 .3.1.5.1.1.3.2.4.1.1 0 .3 0 .4.1v-.1-.2c0-.1 0-.2.1-.2.1-.1.1-.2.1-.4-.1-.3-.4-.5-.7-.5h-.3c-.2 0-.5-.1-.6-.2 0 0-.1 0-.1.1l.1.4zm-64.2.8c.1 0 .1.1.1.3v0c0-.1.1-.3.2-.4.1-.1.2-.3.1-.5l-.3-.3v.5s-.1.1-.2.1h-.1s-.1.2-.1.4c0 .1 0 .2-.1.2.1 0 .1-.1.2-.1 0-.1.1-.2.2-.2zm46.1-.9c.1 0 .2.1.2.3 0 .1.1.1.1.2v.1l-.3.1.2.6.2-.3.5-1-.5-.3-1.1-.7-.3.7-.2.5v.1l.4-.1c.2-.1.5-.2.8-.2zm-56.6 0c-.1.1-.3.1-.4.2l-.1.1.5.8.2-.3s-.1 0-.1-.1c-.1 0-.1-.1-.2-.2v-.1h.2s0-.1-.1-.2c0-.1-.1-.1-.1-.2h.1zm105.8-.4c-.3 0-.4.1-.5.2-.1.1 0 .4.1.6.1.1.1.3.1.5v.2c.1-.1.2-.1.2-.2.1-.1.3-.2.3-.3v-.2c0-.1-.1-.1-.2-.1h-.1c-.1 0-.2-.1-.2-.2s.1-.3.2-.4l.1-.1zm-31.4.4c-.2 0-.4.2-.5.4-.1.2-.1.3 0 .5.1.1.2.2.3.2.1 0 .1 0 .2-.1s0-.2 0-.3v-.1c0-.1.1-.2.2-.3l.1-.1c-.1-.2-.2-.2-.3-.2zM25.8 9l.3.1c-.1.2-.1.5.2.7.1.1.2.2.2.4v.3H26l1.7.4c.1 0 .2-.2.2-.2-.1-.1-.1-.2-.1-.3 0-.1.1-.2.2-.2.2-.1.3-.1.2-.4 0-.1-.1-.1-.1-.1H28l.1-.1c.1-.1.1-.1.2-.1h2.3c0 .1-.1.1-.1.2-.1.1-.1.2-.1.2 0 .1.1.1.3.1.1 0 .3.1.4.2.1.1.1.1.2.1 0-.1 0-.1.1-.1s.1 0 .2.1c0 0 .1.1.2.1s.1-.1.1-.3l.1-.1c.1 0 .2.1.3.3s.2.3.3.3c.1 0 .2-.2.2-.7 0-.2.1-.3.2-.4 0-.1.1-.1.1-.2l-.2-.1c-.2-.1-.3-.1-.5-.2-.3 0-.4-.1-.4-.3 0-.1-.1-.2-.1-.3-.1-.2-.1-.4-.2-.4-.2-.1-.5-.1-.7-.1-.1 0-.3 0-.4.1-.1.1-.2.1-.3.1-.1 0-.3 0-.4-.1-.1-.1-.3-.1-.4-.1-.2 0-.4.1-.5.4-.1-.2-.3-.4-.5-.4H27.9l.3-.4H28c-.2 0-.3 0-.5.1-.1 0-.1.4 0 .6v.3s-.1.1-.2.1h-.5v.1h-.1l.1-.4v-.1c0-.1-.1-.2-.1-.2-.2.1-.5.2-.7.4-.3.2-.6.4-.9.4-.2 0-.4-.1-.5-.2l-.2-.2-.1-.1v1.4c.1-.2.2-.3.2-.3s.2.1.2.2l.2.2h.1c.1-.1.1-.2.1-.3l-.1-.1-.1-.1.5-.1-.1.3-.2.4-.1.1-.1.2.6-.1V10v-.2-.3c.3-.4.3-.4.3-.5zm108.3.7s-.2.2-.2.3v.1c.1.2.3.4.4.6.1.1.1.2.2.3 0-.1.1-.2.1-.3.1-.2.2-.4.1-.4-.1-.3-.4-.5-.6-.6zm-72.2.3c.2 0 .4.1.4.2.1.5.3.8.4.8.2 0 .3-.1.5-.3.2-.1.3-.3.5-.3v-.1-.2c-.1-.1-.1-.2-.2-.3l-.1-.1V10c-.1.2-.1.3-.2.3s-.1-.1-.2-.2c0-.1-.1-.1-.2-.1 0 0-.1 0-.1.1l-.1.1c0-.1 0-.3-.1-.4-.1-.1-.3-.2-.5-.2-.1 0-.1-.1-.2-.1 0-.1 0 0-.1-.1l1.1-.5v.4l.4.3.8-.4-1.4-.8-.2.5v.2l-.1-.1-.1-.1-.2-.1-.6-.3s-.1 0-.1.1c-.3.1-.3.3-.4.4.1.4.1.6 0 .7h-.1c-.1 0-.2-.1-.3-.2l-.2-.2c-.1-.1-.2-.1-.2-.2L60 9c0 .1.1.2.1.2.1.2.1.4.2.4.2 0 .3.1.5.2s.4.2.6.2c.1 0 .3 0 .4-.1 0 .1.1.1.1.1zM41.8 8h-.1c-.3.5-.3 1.2-.1 1.7.1.4.2.7.2 1.1.1 0 .3-.1.4-.1.3-.1.7-.2 1-.2.2 0 .5-.1.7-.2.3-.1.6-.2.9-.2.2 0 .4.1.6.2.1 0 .2-.1.4-.3l.1-.1s.1-.1.1-.2v-.1l-.3-.1c-.1 0-.3-.1-.4-.1-.3-.1-.5-.1-.8-.1H44.2c-.2 0-.2-.1-.3-.2 0-.1-.1-.1-.1-.1l-.1-.1h-.1l-.3.2-.4.4s-.1 0-.1-.1 0-.2.1-.3c.1 0 .1 0 .2-.1 0 0 .1 0 .1-.1h-.1-.1c-.1 0-.1.1-.1.2s-.1.1-.1.2c-.2.2-.4.4-.6.5-.1 0-.2-.3-.3-.4v-.2h.2c-.1 0-.1.1-.1.2s.1.2.1.2.1 0 .1-.1c.1-.4.1-.8 0-1.1 0-.1 0-.2-.1-.3 0-.1-.2-.1-.3-.1zm38 1.6c-.1.1-.1.2 0 .4.1.1.2.2.3.2.2.1.4.1.3.4h.1c.1 0 .1 0 .1-.1v-.3c0-.3-.1-.5-.1-.7-.1-.3-.3-.5-.5-.5s-.3.1-.5.1c-.2.1-.4.1-.6.1h-.1c.1.1.2.2.3.2.1.1.2.2.2.3v.1s-.1 0-.1-.1c-.1 0-.1 0-.2-.1 0 0 0 .1.1.3.1 0 .2-.1.3-.1.1-.1.3-.2.4-.3v.1zm-64.4-.3l-.2.2c-.1.1-.2.1-.2.2.1.2.1.4.2.6 0 .1.1.1.1.2l.2-.3.5-.5-.1-.1c-.2-.1-.3-.2-.5-.3zm37.7-.2l-.5.3-.4.2.7.7.1-.5.1-.5c.1 0 .1-.1 0-.2.1.1.1 0 0 0zm-3.9 0c-.2 0-.3.1-.3.3l-.4.3-.4.3h.1c.3.1.6.2.9.2.1 0 .2 0 .3-.1 0 0 .1 0 .1-.1.4-.2.8-.3 1.3-.3s.9.2 1.3.4h.1v-.2-.2c0-.2 0-.4.3-.4l.1-.1v-.1h-.2l-.9.1v-.1-.2c.2-.1.3-.2.5-.2.1 0 .1 0 .2.1h.1v-.1c-.1-.1-.2-.2-.3-.2H51.4c-.1 0-.2 0-.4-.1-.2 0-.4.1-.5.3-.2-.1-.4-.3-.5-.4l-.1-.1V7.9c0-.1.1-.2.2-.3l-.4.2s.1 0 .1.1 0 .2-.1.3c-.1.1-.1.2-.1.3s.1.1.3.1c-.1.1-.2.2-.2.3 0 .2.3.2.4.3-.1 0-.3 0-.4-.1h-.5zm15.9-.3c-.1 0-.2 0-.3.1-.2 0-.4.1-.6.2-.2.2-.2.4-.2.7.1.3.2.5.5.5.2 0 .3 0 .5-.1l.1-.1-.1.1-.2-.2h-.4s.1-.1.4-.2c.2-.3.4-.7.3-1zm-9.7.8s-.1.1-.2.1l-.1.1c.1.2.2.3.4.3s.3-.1.5-.2c.1-.1.2-.1.3-.2.1 0 .2-.1.2-.2l.2-.2c-.1-.1-.3-.2-.4-.2-.2 0-.3.2-.4.4 0 .1-.1.1-.1.2-.1 0-.1 0-.2-.1h-.2zM96 9c-.2 0-.5.2-.6.4l-.1.2.3.1c.4.1.7.3 1.1.4.1-.1.1-.3.2-.4v-.2l-.1-.1c-.3-.2-.5-.4-.8-.4zm15.8-.4c-.1 0-.2.1-.3.2l-.2.2.3.3.7.6.1-.2c.1-.2.2-.3.2-.4-.1-.3-.4-.5-.8-.7zM93 8.3c-.1 0-.2 0-.3.1-.1.1-.1.3 0 .5 0 .3.1.5-.2.6.1.3.3.4.5.4.3 0 .5-.1.7-.2.2-.1.4-.2.7-.2-.3 0-.5.1-.8.1-.3 0-.5-.1-.5-.2-.1-.2 0-.4.2-.6 0 0 0-.1-.1-.2s-.2-.3-.2-.3zm-10.3-.5h-.1c-.3.2-.6.4-.8.6-.2.2-.3.4-.5.6-.1.1-.1.2-.2.3.1.1.2.1.3.2.2.1.5.3.7.4.1 0 .2-.1.3-.2.1-.1.2-.1.2-.2h-.1l-.5-.3c-.1 0-.2-.1-.3-.1h-.1l.6-.6h.1c0 .2.1.3.1.3.1 0 .1-.2.2-.2v-.1c.1-.1.1-.2.1-.2h-.2-.1s0-.1.1-.2c.2-.1.3-.2.2-.3zM73.5 9s-.1 0-.1.1l-.2.2c.1 0 .3.1.4.1l.9.3.2-.4c0-.1.1-.2.1-.3h-1.3zM13 9.1l-.2.3h.4c.3 0 .5.1.8.1h.2c.1 0 .2-.1.3-.3 0-.1.1-.1.2-.2H14l-1 .1zm22.9-.2c.1 0 .1 0 0 0 .1 0 .1.1.1.2v.2l.1.1h.1c.1 0 .1-.1.1-.3 0-.2 0-.4.3-.5-.1 0-.2 0-.3-.1-.1-.1-.3-.1-.4-.1h-.2c-.1 0-.1.1-.1.2 0 .2.1.3.3.3zm82.2.2c0 .1.1.3.1.3.4 0 .8-.1 1.2-.2.1 0 .1-.1.1-.2v-.1s0-.1-.1-.1l-1.3.3s-.1 0 0 0zm23.8-.8c-.1 0-.3.1-.4.2-.1 0-.1.1-.2.1.1.1.1.2.2.3.1.2.2.5.4.5.1 0 .2 0 .3-.1l.3-.3c-.1-.1-.1-.2-.2-.2 0-.2-.2-.4-.4-.5zm-16.4-.2l-.8 1s.1 0 .1.1c.1 0 .1.1.2.1l.1-.1c.3-.2.6-.5.8-.8v-.1c0-.2-.2-.2-.4-.2zm7.7-.1c-.2.1-.4.1-.5.3-.1 0-.1.1-.2.1.1.2.4.3.6.4.1 0 .3-.1.3-.1l.1-.1.2-.1-.2-.2c-.1-.2-.2-.3-.3-.3zM83.9 8c-.2 0-.3.2-.5.4-.1.1-.2.2-.2.3h.3c.6 0 1.1-.3 1.3-.9h.1c-.1-.2-.2-.3-.3-.3-.1 0-.2.1-.3.3-.2.1-.3.2-.4.2zm50.1-.4s-.1 0-.1.1l-.1.1c0 .7.4.7.8.8.1 0 .2 0 .4.1h.1l.2-.1-.6-.4-.7-.6zm-121.4.5c.2 0 .4.1.4.4 0-.1.1-.2.2-.2.1-.2.3-.4.2-.4-.1-.1-.2-.2-.4-.2s-.3.1-.4.1c-.1.1-.3.1-.5.1s-.4-.1-.4-.3l-.1.1-.1.1c.1.3.2.4.5.4h.3c.1-.1.2-.1.3-.1zm99.1-.9c-.2.1-.4.1-.5.3-.1 0-.1.1-.2.1l.2.3.1.1.4-.3.5-.4-.1-.1h-.4zm-89.3.4c.2 0 .3 0 .4.1.1 0 .1-.1.2-.1-.1-.3-.4-.5-.7-.4-.2 0-.4 0-.6.1v-.1l-.2.2H21.8c.1.3.3.3.5.3l.1-.1zm100.2-.5c.1 0 .1.1.2.1.1.1.1.1.2.1s.1-.1.1-.2c0-.3-.1-.6-.2-.8-.1-.1-.1-.2-.1-.3h-.1c-.1 0-.1.1-.1.1 0 .2 0 .5.1.7-.2.1-.2.2-.1.3zm-2.8-1.7l-.1.1-.2.2.8.8c-.1-.2-.1-.5 0-.7.1-.1.3-.2.4-.2l-.9-.2zm-52.2-.1h-.1c-.1 0-.2.1-.2.2s-.1.1-.1.2c0 0 .1.1.1.2.1.1.2.3.3.3.3-.1.5-.2.7-.4.1-.1.3-.2.5-.3-.2 0-.4 0-.6-.1-.1-.1-.3-.1-.6-.1zM99.7 4c-.1 0-.2 0-.3.1-.1.1 0 .3 0 .5v.2c-.1.2 0 .4.1.6.1.1.2.2.4.2v-.2-.2s.1 0 .2.1c0-.2-.1-.3-.2-.4-.1-.2-.3-.4 0-.7-.1-.2-.1-.2-.2-.2zm8.1.6c.1 0 .1 0 .1.1.1.1.2.1.2.2s0 .2-.2.2c.1.2.2.3.3.3.1 0 .2-.2.2-.4 0-.1.1-.2.1-.2.1-.1.1-.6 0-.8 0-.1-.2-.1-.4-.1-.1 0-.2 0-.3-.1-.1.1-.1.2-.2.3-.2.2-.3.4-.3.6 0 .1.1.2.1.2l.1-.1c.2-.1.3-.2.3-.2zm-12.1.7l1.1.1-.2-.2c-.2-.2-.4-.4-.6-.5h-.1c-.1 0-.2.1-.3.1-.1 0-.1.1-.2.1.1-.1.1-.3.1-.4 0-.1-.2-.2-.3-.3-.1 0-.2-.1-.3-.2-.1-.1-.2-.1-.4-.1h-.1c-.4.6 0 .9.3 1.1.2 0 .3.2.4.3H95.7zm-12.9-.7l-.1.1c-.1.1-.1.2-.2.3 0 .1.1.2.2.2l.1.1c.1 0 .2-.1.4-.1.3-.1.5-.2.5-.2 0-.2-.1-.3-.2-.3h-.4c-.2.1-.3.1-.3-.1zm-29.4-.5c.3 0 .4.4.5.7.1.4.3.4.5.4h.2c.1 0 .2-.2.2-.4 0-.1.1-.2.1-.3l-.2-.2-.6-.5v.4c0 .1 0 .1-.1.1v-.1c-.3-.2-.5-.3-.8-.5-.1 0-.2.1-.2.2 0 0 .1.1.1.2h.3zm43.3.2v.2c0 .1.1.1.2.1s.1 0 .2.1c0 0 0 .1-.1.3 0 0 .1 0 .1.1 0-.1.1-.1.1-.1.1-.1.3-.1.4-.2.1 0 .1-.1.2-.1-.4-.2-.8-.3-1.1-.4zm-65.6-.5c-.1 0-.2 0-.2.1s0 .2.1.4.2.3.1.4c0 .1-.1.1-.2.1l.3.1.6.1.3-.2-.3-.3c-.2-.4-.4-.7-.7-.7z"/></g></g><path id="Fill_25" class="st0" d="M153.2 13.9"/><path id="Fill_27" class="st0" d="M123.5 13.6z"/><path id="Fill_29" class="st0" d="M123.5 13.6z"/><g id="Group_33" transform="translate(10.048)"><path id="Clip_32-2" class="st1" d="M13.3 3.6h1.9V5h-1.9V3.6z"/><defs><path id="SVGID_3_" d="M13.3 3.6h1.9V5h-1.9z"/></defs><clipPath id="SVGID_4_"><use xlink:href="#SVGID_3_" overflow="visible"/></clipPath><g id="Group_33-2" class="st3"><path id="Fill_31" class="st0" d="M14.3 3.9z"/></g></g><path id="Fill_34" class="st0" d="M71.4 11.2z"/><path id="Fill_36" class="st0" d="M41.9 13.2z"/><path id="Fill_38" class="st0" d="M124.5 10v.1h.1c-.1 0-.1 0-.1-.1z"/><path id="Fill_40" class="st0" d="M27 11.6z"/><path id="Fill_42" class="st0" d="M94 11.1z"/><path id="Fill_44" class="st0" d="M28.1 8.2l-.2.1c.1 0 .2 0 .2-.1z"/><path id="Fill_46" class="st0" d="M21.6 12.5z"/><g id="Group_50" transform="translate(27.404 6)"><path id="Clip_49-2" class="st1" d="M32.5 8.1h1.9v2.1h-1.9V8.1z"/><defs><path id="SVGID_5_" d="M32.5 8.1h1.9v2.1h-1.9z"/></defs><clipPath id="SVGID_6_"><use xlink:href="#SVGID_5_" overflow="visible"/></clipPath><g id="Group_50-2" class="st4"><path id="Fill_48" class="st0" d="M33.5 9.1z"/></g></g><g id="Group_53" transform="translate(24.663 6)"><path id="Clip_52-2" class="st1" d="M30.4 8.1h2.7v2h-2.7v-2z"/><defs><path id="SVGID_7_" d="M30.4 8.1h2.7v2h-2.7z"/></defs><clipPath id="SVGID_8_"><use xlink:href="#SVGID_7_" overflow="visible"/></clipPath><g id="Group_53-2" class="st5"><path id="Fill_51" class="st0" d="M31.8 8.9l-.1.1c-.1 0-.3 0-.4-.1.1-.1.2-.1.3-.2l.1-.2c-.1-.1-.2-.3-.2-.4v.4c-.3 0-.6-.1-.8-.1-.1 0-.1-.1-.1-.1v.3c0 .1.1.2.1.2.7-.3.9.4 1.1.8.3.6.8 0 1.1.3l.2-.4.2-.9-1.5.3z"/></g></g><path id="Fill_54" class="st0" d="M16.1 13c-.1 0-.2-.1-.3-.2-.3-.4-1 .4-1.2-.5 0-.1-.1-.2-.1-.2v1c.4.1.8.1 1.2.2.1 0 .2-.2.4-.3"/><g id="Group_58" transform="translate(26.49 6)"><path id="Clip_57-2" class="st1" d="M31 8.4h2v1.8h-2V8.4z"/><defs><path id="SVGID_9_" d="M31 8.4h1.9v1.8H31z"/></defs><clipPath id="SVGID_10_"><use xlink:href="#SVGID_9_" overflow="visible"/></clipPath><g id="Group_58-2" class="st6"><path id="Fill_56" class="st0" d="M32.1 9.4s0 .1-.1.1h-.3v-.1c.4-.5.5-.7-.1-.2-.4.3.2-.8-.4-.3l-.2.9c.6.9 1.2-.2 1.8-.1v-.4l-.1-.1c-.1.2-.6-.9-.6.2"/></g></g><g id="Group_61" transform="translate(9.135 1)"><path id="Clip_60-2" class="st1" d="M12.4 2.6h2.4v1.8h-2.4V2.6z"/><defs><path id="SVGID_11_" d="M12.4 2.6h2.4v1.8h-2.4z"/></defs><clipPath id="SVGID_12_"><use xlink:href="#SVGID_11_" overflow="visible"/></clipPath><g id="Group_61-2" class="st7"><path id="Fill_59" class="st0" d="M13.1 3.9c.6 0 1.1-.1 1.7-.2-.8-.4-1.5-.7-2.1-.9-.1 0-.3.4-.3.4.2.3.5.7.7.7"/></g></g><g id="Group_64" transform="translate(27.404 6)"><path id="Clip_63-2" class="st1" d="M32.5 8.1h1.9v2.1h-1.9V8.1z"/><defs><path id="SVGID_13_" d="M32.5 8.1h1.9v2.1h-1.9z"/></defs><clipPath id="SVGID_14_"><use xlink:href="#SVGID_13_" overflow="visible"/></clipPath><g id="Group_64-2" class="st8"><path id="Fill_62" class="st0" d="M33.4 9.1z"/></g></g><g id="Group_67" transform="translate(27.404 6)"><path id="Clip_66-2" class="st1" d="M31.7 8.1h1.9v2.1h-1.9V8.1z"/><defs><path id="SVGID_15_" d="M31.7 8.1h1.9v2.1h-1.9z"/></defs><clipPath id="SVGID_16_"><use xlink:href="#SVGID_15_" overflow="visible"/></clipPath><g id="Group_67-2" class="st9"><path id="Fill_65" class="st0" d="M33.2 8.6c-.3 0-.9-.2-.9.4-.1.6-.6-.8-.4.2h.1c.5.9 1 .5 1.4-.1 0-.2-.1-.5-.2-.5"/></g></g><g id="Group_70" transform="translate(19.183 1)"><path id="Clip_69-2" class="st1" d="M23.5 2.6h1.9v1.7h-1.9V2.6z"/><defs><path id="SVGID_17_" d="M23.5 2.6h1.9v1.7h-1.9z"/></defs><clipPath id="SVGID_18_"><use xlink:href="#SVGID_17_" overflow="visible"/></clipPath><g id="Group_70-2" class="st10"><path id="Fill_68" class="st0" d="M25.3 3.2c-.3-1-.9.4-1.3-.1l-.4.2c.3.2.7.4 1 .4.2 0 .9-.1.7-.5"/></g></g><path id="Fill_71" class="st0" d="M66.8 15.3c.1.1.4-.3.6-.4l-.7-.4-.1-.4-.6.6c.2.2.5.5.8.6"/><path id="Fill_73" class="st0" d="M87.6 14.7l-.4-.5c-.2.2-.5.1-.5.6.1 1 .8-.4.9.4.1-.1.7-.3 0-.5"/><path id="Fill_75" class="st0" d="M46.1 4.7c0-.1 0-.2-.1-.2-.1-.1-.3-.1-.4-.1-.1 0-.2.2-.2.4h.2c0 .1.1.2.1.3v.2c-.4.2 0 .4.1.5l.1-.3.1-.1c0-.2-.5-.7.1-.7"/><path id="Fill_77" class="st0" d="M45.9 5.4l-.1.1c.1 0 .1 0 .1-.1"/><path id="Fill_79" class="st0" d="M71.7 14.3v.5c.1.2.3.7.6.4.2-.2.1-.7.2-1-.3.2-.5.7-.8.1"/><path id="Fill_81" class="st0" d="M174.2 14l-.1.2 1.3.8s.2-.2.2-.3c-.4-.6-1.1.1-1.4-.7"/><path id="Fill_83" class="st0" d="M120.2 14.7c-.3.2-.6.4-.9.7l.5.2.7-.4c-.1-.3-.3-.6-.3-.5"/><g id="Group_87" transform="translate(47.5 6)"><path id="Clip_86-2" class="st1" d="M54.4 8.1h1.9v2.1h-1.9V8.1z"/><defs><path id="SVGID_19_" d="M54.4 8.1h1.9v2.1h-1.9z"/></defs><clipPath id="SVGID_20_"><use xlink:href="#SVGID_19_" overflow="visible"/></clipPath><g id="Group_87-2" class="st11"><path id="Fill_85" class="st0" d="M55 8.7v.8l.6-.1.2.3c0-.3-.1-.5-.2-.8-.1-.2-.4-.2-.6-.2"/></g></g><path id="Fill_88" class="st0" d="M131.5 14.6c-.2 0-.3.3-.4.4.2.1.5.2.7.2.1 0 .2-.3.3-.5-.2-.1-.4-.1-.6-.1"/><path id="Fill_90" class="st0" d="M151.5 13.5c-.3.1-.6.3-.9.4.2.8.7-.5 1 .2l.1-.3c-.1-.1-.2-.3-.2-.3"/><g id="Group_94" transform="translate(37.452 6)"><path id="Clip_93-2" class="st1" d="M44.8 8.1h1.9v2.1h-1.9V8.1z"/><defs><path id="SVGID_21_" d="M44.8 8.1h1.9v2.1h-1.9z"/></defs><clipPath id="SVGID_22_"><use xlink:href="#SVGID_21_" overflow="visible"/></clipPath><g id="Group_94-2" class="st12"><path id="Fill_92" class="st0" d="M45.8 8.5c-.2.4-.1 1-.6 1.2.4.2.6 0 .6-.5.1-.6.3-.2.4 0 .4-.6-.4-.3-.4-.7"/></g></g><g id="Group_97" transform="translate(10.048)"><path id="Clip_96-2" class="st1" d="M12.8 3.6h1.9V5h-1.9V3.6z"/><defs><path id="SVGID_23_" d="M12.8 3.6h1.9V5h-1.9z"/></defs><clipPath id="SVGID_24_"><use xlink:href="#SVGID_23_" overflow="visible"/></clipPath><g id="Group_97-2" class="st13"><path id="Fill_95" class="st0" d="M13.2 4.3l1.1-.4c-.1-.1-.3-.2-.3-.2-.3.3-.9-.2-.8.6"/></g></g><g id="Group_100" transform="translate(10.048)"><path id="Clip_99-2" class="st1" d="M13.3 3.6h1.9V5h-1.9V3.6z"/><defs><path id="SVGID_25_" d="M13.3 3.6h1.9V5h-1.9z"/></defs><clipPath id="SVGID_26_"><use xlink:href="#SVGID_25_" overflow="visible"/></clipPath><g id="Group_100-2" class="st14"><path id="Fill_98" class="st0" d="M14.3 3.9z"/></g></g><g id="Group_103" transform="translate(10.048)"><path id="Clip_102-2" class="st1" d="M13.3 3.6h1.9V5h-1.9V3.6z"/><defs><path id="SVGID_27_" d="M13.3 3.6h1.9V5h-1.9z"/></defs><clipPath id="SVGID_28_"><use xlink:href="#SVGID_27_" overflow="visible"/></clipPath><g id="Group_103-2" class="st15"><path id="Fill_101" class="st0" d="M14.3 3.9z"/></g></g><path id="Fill_104" class="st0" d="M71.7 14.8z"/><path id="Fill_106" class="st0" d="M71.4 14.1c-.1-.1-.2-.1-.3-.2 0 0-.2.2-.2.3.2.4.3.7.5 1l.1-.4c-.1-.1-.3-.3-.1-.7"/><path id="Fill_108" class="st0" d="M71.7 14.8z"/><path id="Fill_110" class="st0" d="M71.7 14.8z"/><path id="Fill_114" class="st0" d="M123.5 13.4c-.1-.3-.2-.3-.3-.1 0 .3 0 .6.1.8h.3l-.1-.6v-.1"/><path id="Fill_116" class="st0" d="M123.5 13.6z"/><g id="Group_120" transform="translate(52.981 6)"><path id="Clip_119-2" class="st1" d="M62.5 8.1h1.9v2.1h-1.9V8.1z"/><defs><path id="SVGID_29_" d="M62.5 8.1h1.9v2.1h-1.9z"/></defs><clipPath id="SVGID_30_"><use xlink:href="#SVGID_29_" overflow="visible"/></clipPath><g id="Group_120-2" class="st16"><path id="Fill_118" class="st0" d="M62.6 9.2l1.2.1.4-.1c-.5-.1-.9-.2-1.4-.2 0 0-.1.2-.2.2"/></g></g><path id="Fill_121" class="st0" d="M38.7 11.2c.4-.5-.4-.2-.4-.8 0-.7-.4-1-.9-.2l.6.7c.3.2.6.4.7.3"/><path id="Fill_123" class="st0" d="M35 9.7c-.1.4.2.3.4.4l.7-.3c-.3-.1-.6-.3-.9-.4 0 .1-.1.2-.2.3"/><path id="Fill_125" class="st0" d="M184.5 15.4c-.1 0-.1-.2-.2-.6v-.1c0-.1-.3-.2-.4-.2-.1.1-.2.2-.3.2-.1 0-.2 0-.3-.1-.1-.1-.2-.1-.3-.1-.1 0-.1 0-.2.1v.1s0 .1-.1.1-.1 0-.1-.1l-.3-.4v-1.1l1.3.5 1.1-.4-2.2-.3c-.1 0-.1.1-.2.1l-.1.1V6.4h.4c.1 0 .1 0 .2.1H183.1l-.3-.1-.3-.4h.1s.1-.1.2-.1h.5c-.1.2 0 .5.1.7 0 0 .1.1.2.1s.2 0 .3-.1c.1-.1.2-.1.4-.1.1 0 .2 0 .2.1.2.2.5.3.8.3.1 0 .2 0 .3.1h.5v-.1c0-.1-.1-.2 0-.2.1-.1.2-.2.3-.2.1 0 .2 0 .3.1.1 0 .2.1.4.1.4 0 .7-.1 1.1-.1.6-.1 1.2-.1 1.7-.1h1.6c.3-.1.5-.1.8-.1.8 0 1.7.2 2.5.6v-.1-.3c.1-.2.2-.4.3-.4.1 0 .2.1.2.2.1.1.2.1.2.2.1 0 .2.1.3.1.2.1.3.1.5.2.2 0 .4-.1.5-.3.1 0 .2 0 .3.1h.1s.1 0 .1.1c.1-.3.2-.4.2-.4.1 0 .1.1.1.5h.3c.5 0 .6.7.6 1.1.1.6.3.7.7.7v.2h-.2c-.1 0-.3 0-.4.1-.1.1-.3.1-.4.2l-.2.1.1.1c.1.1.2.2.3.2.1 0 .2.1.3.1h.2H198.3c-.4.2-.4.5-.3.9 0 .2.1.4 0 .5H199.3c.4 0 .8.1.9.3.1.2.1.5 0 .7-.1.1-.2.2-.3.2-.1 0-.2-.1-.3-.1-.1-.1-.3-.2-.5-.2-.1 0-.2-.1-.3-.1-.1 0-.2.1-.3.1-.1 0-.1.1-.2.1.2.2.2.4.2.5 0 .1-.3.2-.5.3s-.4.1-.5.3c0 .1 0 .3.2.5h-.2c-.3 0-.6.3-.8.5-.2.3-.4.5-.7.5v-.3c-.1 0-.1-.1-.2-.1h-.2c-.1 0-.2 0-.3-.1s.1-.2.2-.3c.1-.1.2-.1.2-.2s-.1-.2-.3-.3h.1c.1 0 .1 0 .2-.1h.9v-.2-.1l-1.3-.3.2.6c-.1 0-.3 0-.4.1-.2 0-.4.1-.6.1h-.3c-.4-.1-.9-.2-1.4-.2-.4 0-.7.1-1.1.2-.1 0-.1 0-.2.1 0 0-.1.1-.2.1s-.1-.1-.2-.2h-.2c-.1 0-.1 0-.1.1 0 0 0 .2.2.4.1.1.2.2.4.3 0 0 .1 0 .1.1h.2s-.1 0-.1.1l-.1.1c-.5-.1-.9-.2-1.4-.2-.7 0-1.4.2-1.9.6 0 0-.1 0-.1-.1-.1-.2-.2-.4-.3-.4-.1 0-.2.1-.3.1 0 0-.1 0-.1.1.4 0 .4.3.5.7l.8-.3c-.1.5-.4.7-.7.7-.1 0-.2-.1-.3-.1-.1-.1-.2-.1-.3-.1-.5-.1-1-.1-1.5-.2l-.6-.1c0 .1 0 .1.1.2s.1.3.1.3c-.1.1-.1.2-.2.2s-.1-.1-.2-.2v-.1c0-.1-.1-.1-.1-.1l-.1.1c-.3-.4-.3-.3-.4-.3zm-.1-1.6c.1 0 .1.1.1.2s0 .3.1.3c0 0 .1 0 .1-.1.1-.1.2-.3.2-.4 0-.1 0-.1.1-.2l-1-.1V14.2s0-.1.1-.1c0 0 .1-.1.1-.2.1 0 .2-.1.2-.1zm1.3-2.2c0 .2.1.3.2.6 0 0 0 .1-.1.1-.1.1-.1.2-.2.2-.4.1-.5.2-.6.3-.1.2 0 .4.2.6l.2.2c.1-.1.3-.2.4-.3l.1-.1-.3-.2.5-.1 1.3-.2s0-.1-.1-.1c-.1-.1-.1-.2-.2-.3h-.1c-.1 0-.1 0-.2.1-.1 0-.1.1-.2.1s-.3 0-.4-.1c-.1 0-.1 0-.2-.1h.1c.1 0 .2-.1.2-.1 0-.1 0-.1-.1-.2s-.3-.2-.4-.2c0-.1 0-.2-.1-.2zm-1.9-.1c-.1 0-.2 0-.2.1 0 0-.1 0-.1.1l.3.1.9.5.3-.3-.3-.1c-.4-.2-.6-.3-.9-.4zm3.8.6h.1v.1l1-.1c-.2-.1-.3-.1-.5-.2-.3-.2-.6-.3-1-.3h-.1c-.4 0-.4.1-.4.1s.1.1.2.1.2.1.3.1v.2h.4z"/><g id="Group_129" transform="translate(93.173 2)"><path id="Clip_128-2" class="st1" d="M106.8 5h1.5v2.1h-1.5V5z"/><defs><path id="SVGID_31_" d="M106.8 5h1.5v2.1h-1.5z"/></defs><clipPath id="SVGID_32_"><use xlink:href="#SVGID_31_" overflow="visible"/></clipPath><g id="Group_129-2" class="st17"><path id="Fill_127" class="st0" d="M107.5 5.4s-.1.1-.2.1l.9 1.2c0-.2 0-.4.1-.6l-.8-.7"/></g></g></g></g></svg>