<?xml version="1.0" encoding="utf-8"?><svg xmlns="http://www.w3.org/2000/svg" viewBox="0 0 60 60"><path d="M8.8 12.9zm2 2c-.1 0-.1 0 0 0l-.1-.1c0-.1.1-.1.1-.1h-.2-.1-.1c-.1 0-.1-.1-.2-.2l-.2-.2s-.1.1-.1.4c0 .1-.1.1-.2.1s-.1 0-.2.1v-.1-.1c0-.1-.1-.1-.1-.1s-.1 0-.1-.1c0 0-.1 0-.1.1l.1.1-.1.1s-.1 0-.1-.1c-.1 0-.2-.1-.2-.1-.2-.2-.5-.4-.8-.6 0 0-.1-.1-.1-.2v-.1c.2-.1.3-.2.2-.4 0-.1 0-.1.1-.1v-.1s0 .1.1.1h.1v-.1-.1c0-.1.1-.1.1-.2 0 0 0-.1.1-.1l.1.1c0-.1 0-.2.1-.3.1 0 .1-.1.1-.1.3 0 .4-.2.5-.4 0-.1.1-.1.1-.2l-.1.1v-.1s.1 0 .1.1c.1-.1.2-.3.3-.4h.1l.1-.2s0-.1.1-.1c0-.1.1-.1.1-.1.1-.2.2-.2.4-.3.1 0 .2-.1.3-.1v-.1-.1l.1-.1.1-.1.1-.1h-.1-.1l.1-.2.1.1v.1l.1-.1c0-.1.1-.1.1-.1v-.1-.1s.1 0 .1-.1l.1-.1c.1 0 .1 0 .1.1l-.1-.2h.1c.1 0 .1.1.1.1v.2c0 .1.1.1.2.1h.2l.1.1.5.9-.1-.1h.2v.2c.1 0 .2.1.2.1l.1.1.4.7h-.1-.1l-.2.2c-.1.2-.2.3-.4.4v.2c0 .1 0 .1-.1.1 0 0-.1 0-.1-.1 0 0 0-.1-.1-.1s-.1-.1-.1-.1v-.1s0-.1.1-.1c0-.1 0-.1-.1-.1s-.1-.1-.2-.1h-.1l.1.1c-.1.1-.1.3 0 .4s.1.3 0 .4v.2c.2.1.1.2.1.3 0 0 0 .1-.1.1h-.1l.2-.1h.1v.2c-.4.2-.7.4-1 .7-.1.1-.1.1-.1.2s0 .1-.1.1c-.1.1-.1.1-.2.1 0 0-.1 0-.1-.1h.1l.1-.1h-.1s-.1 0-.1-.1l-.2.2v.2zm-.2-1.6c-.1.1-.2.1-.2.1V13.7h.1c.1 0 .1-.1.1-.1v-.2-.1zm.5-.9s-.1 0 0 0c-.2.2-.3.4-.4.6 0 0 0 .1-.1.1l.2-.1v-.1h.2v-.1-.3c.1 0 .1-.1.1-.1zm1.5-.9c-.1 0-.1 0 0 0-.1 0-.1.1 0 0 0 .1.1.1.1.2h.3v-.1-.1c0-.1-.1-.1-.1-.1s-.1 0-.1.1h-.2zm1.2.8c0 .1-.3 0-.2.3l-.1-.1h-.1c.1.3.2.1.4.2h.1c0-.1 0-.1-.1-.3 0-.1.1 0 .1.1l.1-.1-.2-.1c0-.1 0-.1 0 0zm-.5.4c-.2.1-.4.2 0 .5-.1-.2-.1-.4 0-.5.1 0 .1 0 0 0zm.2.6l-.1-.1.1.1zm-.7-.2l.4.1s.1-.1 0-.1c-.2-.1-.3 0-.4 0zm-.4-3.2s0-.1 0 0v-.2.2zm32.6.7zm12.7 25.9l-2.5-1.2-.4-.2h.2l.2-.1.1-.1h-.1-.2c-.1 0-.3-.1-.4-.1 0 0 0-.1-.1-.1v-.1H54.8l-.1-.1-.2-.1c.1 0 .1-.1.1-.2s.1-.2.3-.2h.1c.1 0 .3 0 .3-.1v-.2h.1s.1 0 .1.1h.1v-.1-.1c.1 0 .1-.1.1-.1 0-.1 0-.1-.1-.2 0-.1-.1-.1-.1-.1s0-.1.1-.1h.2c-.2-.1-.2-.3-.1-.5v-.1c0-.1.1-.2.3-.2.1 0 .1-.1.1-.1h.1s0-.1-.1-.1c0-.1-.1-.1-.1-.1-.1 0-.2-.1-.3-.1l-.1-.1c.1-.1.1-.1.1-.2s.1-.3.2-.3.2-.1.3-.2c0-.2 0-.4-.1-.5h.1c.1 0 .1 0 .2-.1l.1-.1c.1-.1.2-.1.3-.1.1 0 .2.1.2.1h.2-.1c.1-.1.1-.1.1-.2l-.1-.1h-.2c-.1 0-.2 0-.2-.1v-.2-.2c0-.1-.1-.1-.1-.1v-.1c.1 0 .1-.1.1-.1s0-.1-.1-.1v-.1-.1.1l.1.1v-.3c0-.1-.1-.1-.1-.1h-.2v-.1l.1-.4.1.1h.1c.1 0 .3-.1.3-.2s.1-.1.2-.2h.2l-.4-.2c0 .1 0 .1-.1.1s-.1 0-.1-.1c-.1-.1-.1-.2-.1-.4 0-.1 0-.1.1-.2l.1-.1h-.2c0-.1.1-.1.1-.1.1-.1.1-.2.1-.2v-.2c-.3 0-.4-.1-.4-.2s.1-.1.1-.2l.2-.2c.1-.1.1-.3 0-.5 0 0 0-.1-.1-.1 0-.1.1-.1.1-.1l.1-.1v-.1l-.1-.1.1-.1h-.1-.1c-.1 0-.1 0-.1-.1 0 0 0-.1-.1-.1h-.1v-.1c0-.1-.1-.1 0-.1h.1c0-.1 0-.1.1-.2s.1-.3.1-.4c-.1-.1-.1-.3-.3-.4-.1-.1-.1-.1-.1-.2v-.1h.6-.1s-.1 0-.1-.1h-.1s0-.1.1-.1c0-.1.1-.1.1-.1s-.1 0-.1-.1h-.2V23.1h.2l-.1.1h-.1l-.1-.1c0-.1 0-.1-.1-.1-.3-.1-.3-.2-.3-.3.1-.1.1-.3.1-.4-.1-.1-.1-.2 0-.3l-.1.1v.1s0 .1-.1.1h-.1v-.1-.1-.1-.1c.1-.1 0-.2-.1-.3-.1-.1-.1-.2 0-.3s.1-.3 0-.4c-.1-.1-.1-.2 0-.4 0-.1-.1-.1-.2-.2h-.1c-.1 0-.1-.1-.1-.1-.1 0-.1-.1-.2-.1l.1-.1.1-.1h-.1v-.1-.1l-.3-.3c-.1-.1-.1-.2-.2-.3-.2-.1-.4-.4-.5-.6 0-.1-.1-.1-.1-.2v-.1h.2l-.4-.4c-.1-.1-.1-.1-.2-.1h.1s.1 0 .1.1v-.1-.2-.1l.1-.1c0-.1 0-.1-.1-.1 0 0-.1 0-.1.1l-.1.1h-.1c-.1-.1-.1-.1-.1-.2v-.1-.1l-.1-.1c-.1 0-.1 0-.1.1-.1 0-.1-.1-.2-.2 0-.1-.1-.2-.2-.2h-.1-.2s0-.1.1-.1l.1-.1c0-.1-.1-.1-.1-.2l-.1-.1c-.1-.1-.1-.1-.2-.1s-.3.1-.4.1c0 0-.1 0-.1-.1s.1-.1.1-.2c0 0 0-.1.1-.1h.2v-.1s0-.1-.1-.1h-.1v-.1l.2-.2c0-.1.1-.1.1-.1l.1-.1h-.1s-.1 0-.1.1l-.1.1h-.1-.1-.1l-.2-.2s-.1 0-.1-.1v-.1c-.1 0-.1-.1-.2-.1 0-.1 0-.2.1-.2l-.1.1c0 .1-.1.1-.1.1h-.1-.1l.1.1v.1h-.1c-.1 0-.1 0-.1.1l-.1.1s-.1 0-.1-.1v-.1-.1l.1.1v-.1-.4h-.2v.1h-.1-.1-.1c-.1 0-.1.1-.1.1h-.1c-.1-.1 0-.1 0-.1v-.1c.1-.1.1-.1.1-.2h-.1-.1-.1c-.1 0-.1 0-.1-.1h-.1V14v-.1h.1l.1.1c.1-.1.1-.1.1-.2l-.1-.1c-.2 0-.2-.1-.2-.3 0-.1 0-.2-.1-.2h-.2v.2l-.3-.1h-.1v.1s0 .1.1.1c0 0-.1 0-.1-.1-.1 0-.1-.1-.1-.1 0-.1.1-.1.1-.2L49 13v-.1s0 .1-.1.1c-.1.1-.1.1-.1.2l-.1.1-.1.1.3-.4h.1v-.1l.1-.3H49s-.1 0-.1.1c-.1-.1-.1-.1-.2-.1s-.2 0-.2-.1 0-.1-.1-.1h-.1-.1V12.7l-.1.1H48h-.1v-.2c0-.1.1-.2.1-.3 0-.1.1-.1.1-.1l-.1.1c0 .1-.1.1-.1.2h-.1v-.1-.1-.1h.2V12l-.1.1h-.2V12l-.1-.1s-.1 0-.1-.1v-.1-.1-.1l-.1.1c0 .1-.1.2-.1.2h-.1c-.1-.1-.1-.1-.1-.2s-.1-.1-.1-.1c0-.1-.1-.1-.1-.1s-.1 0-.1.1v.1l-.1.1-.1-.1c-.1 0-.1-.1-.1-.1 0-.1-.1-.1-.1-.1h-.1c-.1.2-.2.3-.3.3-.1 0-.2-.1-.2-.1-.1-.1-.1-.1-.2-.1 0 0-.1 0-.1.1 0-.1.1-.1.1-.1.1-.1.1-.1.2-.1l.1-.1-.1.1s-.1 0-.2-.1c-.1 0-.1-.1-.2-.1s-.1.1-.2.2c0 .1-.1.1-.1.1-.1 0-.1 0-.2-.1 0 0-.1 0-.1-.1 0 0 .1 0 .1-.1.1 0 .1-.1.1-.1.1 0 .2-.1.2-.2s0-.1.1-.2v-.1l-.2.3v-.2H45c-.1 0-.1 0-.1.1h-.1s0-.1.1-.2c0 0-.1 0-.1.1-.1 0-.1-.1-.1-.1-.1-.1-.1-.1-.2-.1s-.1.1-.1.2-.1.1-.1.2c0-.1-.1-.1-.2-.2H44c0-.1-.1-.1-.2-.2-.1 0-.2-.1-.2-.2s0-.2.1-.3c-.1.1-.1.2-.1.2v-.1-.1l-.1.1s.1.1 0 .1l-.1.1s-.1 0-.1.1v.1c-.1 0-.1-.1-.2-.2v-.1c-.1-.2-.3-.3-.5-.3v.1c0 .1 0 .2-.1.3h-.1c-.4-.3-.4-.4-.4-.5 0-.1 0-.2-.1-.2v-.1h-.1-.1v-.1s0 .1-.1.1-.1-.1-.1-.1c0-.1 0-.1-.1-.1s-.2 0-.3-.1c0-.1-.1-.1-.1-.2h-.1v.1s.1.1 0 .1v.1c0-.1-.1-.1-.1-.1h-.1c-.1 0-.1 0-.1-.1-.1-.2-.1-.3-.2-.3s-.1.1-.2.1l-.1.1-.1-.1h.1v-.1c0-.1 0-.1-.1-.1 0-.1-.1-.3-.1-.3v-.1-.1l-.1.1c-.1.1-.1.3-.1.4v.2s-.1 0-.1-.1c-.1 0-.1 0-.1.1v-.1-.1l-.1-.1h-.1c-.2 0-.3-.1-.4-.3 0 .1-.1.1-.2.1s-.1 0-.2-.1c-.1 0-.1-.1-.2-.1h-.1c-.1-.1-.3-.2-.5-.1H37c-.1-.1-.2-.1-.4-.1h-.1c-.3.3-.5.4-.5.5l-.1.1v.2s-.1 0-.1-.1h-.1v-.1l-.1-.1V8.7l-.1-.1c0-.1 0-.2.1-.2s.1 0 .1-.1c0 0 0-.1-.1-.1 0 .1 0 .1-.1.1l-.1-.1s0-.1-.1-.1h-.8l-.7.1v.2h-.1-.1-.1s-.1 0-.1.1c0-.1 0-.2-.1-.3h-.1-.1-.1-.1l-.1.1v.1h.2l-.3.1-.1-.2V8v.4l-.1-.1s-.1 0-.1.1h-.1-.1-.1-.1l-.9.3v.1l.1.1V9c-.2-.1-.3 0-.4 0-.1 0-.2 0-.2-.1h.1c.1 0 .1 0 .1-.1v-.1c0-.1.1-.1.2-.2 0 0 .1 0 .1-.1h.2v-.1-.1l-.1-.1h-.1s-.1 0-.1.1h-.2-.1v.2h-.1-.1c-.1-.2-.3-.3-.5-.3h-.6c-.1 0-.2 0-.3-.1H29c-.1 0-.2.1-.3.2-.1.1-.1.1-.2.1v.1h-.2-.1v-.1-.1h-.1c-.1 0-.1.1-.2.1 0 .2.1.4.2.5l.1.1V9l-.1-.1V9.2l-.1-.1h-.1v.2h-.1-.1l.1.1-.1.1c0-.1 0-.2-.1-.2 0 0-.1 0-.1.1l-.1.1h-.1-.1s-.1 0-.2.1c-.1 0-.1.1-.2.1h-.2c-.1 0-.2 0-.3.1-.1 0-.1.1-.2.1H26c-.1 0-.3-.1-.4-.2l-.1-.1-.1.1c0 .1-.1.2-.1.2h-.1v-.1-.1s-.1 0-.1.1l.1-.1.1-.1h-.1c-.1 0-.1-.1-.1-.1l-.1-.1v.1s-.1.1 0 .1c0 .1.1.1.1.2 0 0 0 .1.1.1h-.4c-.1 0-.2 0-.3-.1-.1-.1-.2-.1-.3-.1-.1 0-.1.1-.2.3 0-.1-.1-.1-.1-.1s-.1 0-.1.1-.1.1-.1.1c-.1 0-.1 0-.1-.1h-.1c-.1 0-.2.1-.4.1-.1 0-.1.1-.2.1s0-.1 0-.1-.1-.1 0-.1h.1v-.1h-.1l-.2.2v.2h-.6c-.1 0-.3.1-.4.1-.2.1-.3.1-.5.2s-.4.1-.6.1c-.1 0-.2 0-.3.1-.1 0-.2.1-.4.1H19.3c-.1 0-.2.1-.4.1-.4.2-.8.4-1.2.4-.1 0-.2 0-.3.1-.1 0-.2.1-.3.1H17h-.1c-.1 0-.1.1-.1.1 0 .1 0 .1-.1.1h-.1c-.1 0-.1-.1-.1-.1-.1 0-.2.1-.2.1-.1.1-.1.1-.3.1h-.1c-.1 0-.1-.1-.1-.1-.1-.1-.1-.1-.2-.1h-.1c0 .1-.1.1-.2.1h-.1-.1c-.1 0-.1 0-.2.1-.1 0-.1.1-.1.1-.1 0-.3-.1-.4-.1-.1 0-.1-.1-.2-.1.1.2.1.3.1.4h-.1c-.1 0-.1 0-.2-.1h-.1l-.4-.7h.1s.1-.1.2-.1c.1-.1.2-.2.4-.1.2 0 .3 0 .4-.2h.1l.1-.1c.1-.1.1-.2.1-.2l-.1-.1s-.1 0-.1.1c0 0-.1 0-.1.1h-.1v-.1-.1-.1c-.1.1-.1.1-.2.1-.2.1-.3.1-.4.4 0 0 0 .1-.1.1 0 0 0-.1-.1-.1s-.1-.1-.2-.1c0 0-.1 0-.1.1.1.1.1.2.1.2s-.1 0-.1-.1l-.9-1.1v-.1-.1c-.1.1-.1 0-.1 0l-.1-.1v-.1l.1-.1c.1 0 .1-.1.1-.1s0-.1-.1-.1l-.1-.1h.1v.1c0 .1.1.1.1.1l.1-.1s0-.1.1-.1l.1.1c0 .1.1.1.1.1.1 0 .1 0 .1-.1 0 0 0-.1-.1-.2 0-.1-.1-.1 0-.2 0 0 .1-.1.2-.1v-.1s0-.1.1-.1l.1-.1c.1-.1.1-.1.2-.1s.1 0 .2.1v-.1-.1c.1 0 .1.1.1.1.1-.2.2-.2.2-.3 0-.1.1-.1.1-.1l.1.1c0 .1.1.1.1.1 0 .1.1.1.1.1s0-.1.1-.1h.2l.1.1h-.1s.1 0 .1.1c.1 0 .1.1.2.1.2 0 .4-.1.7-.1.1 0 .2-.1.3-.1 0 0 .1 0 .1-.1H16h-.1c-.1.1-.1.1-.2.1s-.3-.2-.3-.3l.1-.1c.1-.1.1-.1.1-.2 0-.2.1-.2.2-.2h.2c.1 0 .1 0 .1-.1s.1-.1 0-.2v-.1H16c0 .2 0 .2-.1.2s-.1-.1-.3-.1h.2c.1 0 .3-.1.4-.1h.1c.1 0 .1.1.1.1v.2c0-.1.1-.1.1-.2s0-.1.1-.1c.1-.1.1-.1.2-.1h.1v.2s0-.1.1-.1c-.1-.1 0-.2 0-.2h.1c.2 0 .3-.1.3-.3 0-.1.1-.1.1-.2.3-.2.7-.4 1.1-.3.3 0 .5.1.7.2l.1.1v-.1-.1c.1 0 .1.1.2.1 0 0 .1 0 .1-.1.1-.1.1-.2.1-.3v-.2H20.1c.1-.1.2-.2.4-.2h.2c0 .1.1.1.1.1l.1-.1c0-.1.1-.1.1-.1s.1 0 .1.1c0-.1 0-.1.1-.1s.1 0 .2.1c.1 0 .1.1.2.1h.1c0-.1.1-.1 0-.2 0 .2.1.2.3.2.1 0 .2 0 .2.1h-.1v.2c.1.1.1.1.2.1h.1v-.2h.4c.1.1.1.1.1.2s-.1 0-.2.1v.1l.4-.1-.1-.2v-.1c0-.1-.1-.1 0-.1 0 0 0-.1.1-.1.1-.1.1-.2.2-.2s.1.1.2.1h.1l.1-.1v.4c.1 0 .1.1.2.1h.1l-.3-.3c.1.1.2.1.3.1.1 0 .2 0 .3-.1h.1v-.1-.1c.1-.1.2-.3.4-.5l.1-.1h.1v.1H25.3V5s0 .1.1.1l.1.1v-.1V5v-.1l.6-.1v.1c-.1 0-.1.1-.1.1V5.1s.1 0 .1.1.1.1.1.1h.1c.1-.1.2-.3.1-.5v-.1s.1 0 .1-.1c.4-.1.5-.1.5-.1l.1.1c.1 0 .1 0 .1-.1s.1-.1.1-.1h.1s.1 0 .1.1h.1l-.1.2v-.1s0-.1-.1-.1l-.2.1h.1v.1h-.1-.2V5H27.3v.1h-.1-.1.2c.2 0 .5-.1.7-.1h.1v-.1l-.1-.1c-.1 0-.1-.1-.1-.2s0-.1-.1-.2l.3.1-.1.1s.1 0 .1-.1v-.2-.1-.1l.1.1.8.4c0-.2.1-.3.1-.3l.1.1.1.1h.2v-.1-.1c.1-.1.3-.2.5-.2h.3c.1 0 .1-.1.2-.1.1-.1.3-.1.4-.1h.1c.1 0 .1 0 .1.1l.1.1-.1.1s-.1 0-.1-.1v.2l.1-.1c.1-.1.2-.1.3-.1.1 0 .2.1.2.1s.1 0 .1.1c.1 0 .1-.1.1-.1 0-.1.1-.1.1-.1h.1v.1l-.1.1-.1.1v.1l.1-.1.1-.1s0-.1.1-.1c0 0 0-.1.1-.1s.1 0 .1.1c.1 0 .1.1.1.1h-.1c0 .1.1.1.1.1H32.7c.1 0 .1.1.1.2v.2l.8.2-.1.2h.4V5c0-.1.1-.1 0-.2-.1 0-.1 0-.1.1 0 0-.1 0-.1-.1v-.1h.2c0-.1-.1-.2-.1-.2-.1 0-.1-.1-.1-.1s0-.1.1-.1h.1c.1 0 .2.2.2.4v-.1-.4.1c.1.1.1.1.1.2v0-.3h.1s.1 0 .1.1h.1c.1 0 .1.1.2.1s.2-.1.2-.2.1-.1.2-.1h.1l.1.1v.1h-.2l-.1.1c0 .1-.1.1-.1.1-.1.1-.1.2 0 .3h.1v-.1-.1-.1c0-.2.1-.2.2-.2H35.5l.1-.1c.1 0 .1 0 .1-.1s-.1 0-.2-.1H35.8s0 .1.1.1v.1h.1c.1-.1.2-.1.3-.1.1 0 .2.1.3.3v.1l-.1-.1v.1l-.1.1s0 .1.1.1v.1-.1c.1 0 .2-.1.3-.1v.1h-.1s-.1 0-.1.1c0 0 0 .1.1.1l-.1.1h.1v-.1-.2c.1-.2.3-.4.5-.5h.1v.3h.1c0-.1.1-.2.2-.2h.2c.1 0 .1 0 .2-.1v.1h.2v.1h.1c.1 0 .1.1.2.1.4 0 .7.1 1 .1.1 0 .2 0 .3.1.1 0 .3.1.4.1.6 0 1.3.2 1.8.6.1.1.2.1.3.1h.2s.2 0 .3.1h.2c.1 0 .3 0 .3.3 0 .2.1.3.2.3s.1 0 .2-.1c.2-.1.3-.1.4-.1h.1c.1.1.3.1.4.1.1 0 .2.1.4.1.3.1.4.4.4.7v-.1-.2h.1c.1 0 .1.1.2.1v.2l.1-.1c.1 0 .1-.1.1-.1 0-.1 0-.1.1-.1 0 0 .1 0 .1.1l.1.1.1-.1.7.5s-.1 0-.1.1v.1c.1.1.3.2.5.2.1 0 .2 0 .3.1h.1c.1 0 .3 0 .3.2h.1V8c0 .1-.1.1 0 .1s.1 0 .2-.1v-.1-.1c.3.1.6.3.7.7v.2l.1-.1.1-.2v.4h.1c.1 0 .1 0 .1-.1l.1-.1c.1 0 .1 0 .1.1l.1.1-.2.2h-.1-.1-.2l.5.4h.1l-.1-.2-.1.1v-.1-.1c.2-.1.3-.1.4-.1h.1v.1c0 .1 0 .2.1.3 0 .1.1.1.1.1s.1 0 .1-.1.1-.1.1-.1h.2v.2c0 .1 0 .1.1.2v.2h.2c.1 0 .2-.1.3-.1.1 0 .2.1.2.3 0 .1.1.1.3.1.1 0 .2.1.3.1.1 0 .1.1.1.1.2.1.5.3.3.7v.1c.1-.1.1-.1.2-.1s.1.1.1.1v.1c0 .1.1.1.2.1s.2.1.3.1c.3.4.7.7 1.1 1.1.1.1.1.1.1.2.1.1.1.3.4.3v.1l.1.1s.1 0 .1.1l.3.6s0 .1.1.1h.2c.1 0 .1 0 .1.1.2.3.4.5.6.8.1.1.2.3.4.5l.4.7c.1.1.2.3.3.4 0 .1.1.1.1.2-.1 0-.1.1-.1.1s0 .1.1.1c.3 0 .3.2.3.4s0 .3.2.4v.4c-.1.2.1.3.2.4.3.4.5.8.6 1.3 0 .1.1.3.1.5 0 .1.1.2.1.2v.1c-.1 0-.1.1-.2.1h-.1l.1.1c.1 0 .1 0 .1-.1s.1-.1.1-.1l-.1.3h.2s0 .1.1.1c.1.1.1.2.2.4 0 .1.1.2.1.3.1.2.1.3.1.5 0 .3.1.6.2 1 .1.2.1.4.1.6v.2c.1.4.1.7.1 1.1 0 .1 0 .3.1.4.1.1.1.2 0 .4 0 0 0 .1-.1.1-.1.1-.1.2-.1.3.1.1 0 .3-.1.4 0 .1-.1.1-.1.1 0 .2 0 .4.1.6.1.2.1.4 0 .7 0 .1 0 .2.1.4 0 0 0 .1.1.1H60h-.1-.1v.1c.2.4.1 1-.1 1.4-.1.2-.1.3 0 .4h-.1c-.1 0-.1 0-.1.1v.7c0 .4-.1.8-.2 1.2-.1.3-.2.6-.3.8-.2.4-.4.9-.4 1.4h-.1v.2h-.1s0 .1-.1.1v.1h.1v.1c-.1.1-.2.2-.2.3 0 .1-.1.1-.1.1l-.1.5.1.1c0 .1-.1.1-.1.2h-.1c-.2-.1-.2 0-.2 0zm-1.4-4.3l-.1.1c-.1.1-.2.1-.3.2 0 0 0 .1.1.1l.1.1.1-.1.1-.2v-.2zm.5-7.8l-.1.2h.5s-.1-.1 0-.2c-.1 0-.1 0-.1.1H57s0-.1-.2-.1c.1 0 .1 0 0 0zm.9-1.9l-.1.1c-.1.1-.1.1-.1.2s0 .1.1.1l.1.1s0-.1.1-.1c.1-.1.1-.1.1-.2s0-.1-.2-.2c.1 0 0 0 0 0zM56 20.1h-.3c.1.1.1.3.1.5 0 .1 0 .1.1.2V20.5c0-.1 0-.2.1-.4zm.2-.2l-.2.2-.1.1H56.2c.1-.1.1-.2.1-.3h-.1zm.9-.4c-.3.1-.2.3-.2.4v.1l.1.1V20c.1-.1.1-.3.1-.5 0 .1 0 0 0 0zm-.5-.4c-.1.1-.1.3.1.4l.1.1v-.1c0-.1.1-.1 0-.1 0-.1-.1-.2-.2-.3 0 .1 0 0 0 0zm-2.3-1.5l.1.3h.1l-.1.1h.1c.1 0 .1 0 .2-.1.1 0 .1-.1.2-.1s.1.2.1.2c0-.1-.1-.1-.1-.2-.1-.2-.1-.4-.2-.5l-.1-.1c-.1-.1-.2-.3-.4-.3-.1 0-.2.1-.3.1 0 0 0 .1.1.1 0 .1.1.1.1.1h.1c.1 0 .2.1.2.2s.1.2.2.2c0 0 0 .1-.1.1s0 0-.2-.1c.1.1.1 0 0 0zm1-2.4l-.3.3v.2h.1c.1-.1.2-.1.2-.3.1-.1.1-.2 0-.2.1 0 .1 0 0 0 .1 0 .1 0 0 0zm-2.2-.4c-.1 0-.1.1-.2.2 0 .1-.1.1-.1.1v.1H53.1c.1 0 .1-.1 0-.1V15v-.1c0-.1.1-.1.2-.1h.1-.3zm.2-.3l-.1.1.1.1.2.2h.1l-.1-.1s-.1-.1-.2-.3c-.1.1 0 0 0 0zm1.4-.4v.5c.1-.1.1-.2.2-.2s.1 0 .1.1c0-.1-.1-.2-.1-.3l-.2-.1zm-3.1-1.4h-.2v.6h.1s.1 0 .1-.1c.1-.2.1-.4 0-.5.1 0 .1 0 0 0zm.1-.6v.2h.4v-.1c0-.1 0-.1-.1-.1h-.3zM46.5 11h-.1v.4l.1-.1.2-.2c-.1 0-.1 0-.2-.1zm-31.4-.3c0 .1-.1.1-.1.1l.3.2h-.1.2l-.1-.1c-.1-.2-.2-.2-.2-.2zm1.2.1v.1H17.1v-.1-.1l.1.1v-.1c0-.1 0-.1-.1-.1H17l.1.1-.1.1h-.2c-.1 0-.2-.1-.3-.1s-.2.1-.3.1c-.1 0 0 .1.1 0-.1 0 0 0 0 0zm30.3 0s.1 0 0 0l.1.1h.1l-.1-.1-.3-.3h-.1c0 .1-.1.2 0 .2h.1c0 .1.1.1.2.1-.1 0-.1 0 0 0zm4.7-.4c.1 0 .1 0 0 0 .1 0 .1 0 0 0 .1.1.1.1.1.2h-.1v.2c.1 0 .1 0 .1-.1 0 0 .1 0 .1-.1.1 0 .2-.2.2-.3 0 0-.1-.1-.1-.2l-.1-.1h-.1c-.1 0-.2.1-.2.1v.1c0 .2 0 .2.1.2zm-6.1-.1l.2.3-.1.1h.1v-.1-.1s.1-.2.1-.3v-.1-.1c0-.1-.1-.1-.1-.1-.1 0-.1.1-.1.1l-.1.1-.1-.1s0-.1.1-.1l.1-.1-.1.1v-.1c0-.1 0-.1-.1-.2-.1 0-.1-.1-.2-.1s-.2.1-.2.3V10.1s.1 0 .1-.1v-.1-.2h.2V10c0 .1-.1.1-.1.1-.1.1-.2.2 0 .4l.3-.2zm-26.3-.2h-.1c-.1 0-.2 0-.3.1v.1s0 .1.1.1.1.1.1.1h.1v-.1c-.1-.1-.2-.2-.1-.2 0 0 .1 0 .1-.1 0 .1.1.1.1 0zm-3.4 0c-.2.1-.3.1-.5.3v.1l.1-.1c.1 0 .2-.1.3-.1 0-.1.1-.1.1-.2zm.3-.1c-.1.1-.1.2-.1.2.1.1.1.1.2.1 0 0 .1 0 .1.1 0-.1 0-.1.1-.2v-.1H16c0-.1-.1-.1-.2-.1zm1.3.4h.2l.2-.2V10l-.1-.1s-.1 0-.2-.1c.2 0 .2-.1.2-.3 0-.1 0-.2.1-.3.1-.1.2-.1.3-.1.1-.1.2-.1.2-.2h.1V9s-.1 0-.1.1h-.1c-.1 0-.1.1-.2.2s-.1.2-.2.2v.1h.1c0-.1.1-.1.1-.1l.1.1-.1.1s.1 0 .1.1v.2s0 .1.1.1v.1s.1-.1 0-.1l-.1-.1c-.1-.1-.2-.3-.3-.4v-.1-.1c.1 0 .1-.1.2-.1l.1-.1v-.1V9h.2s0-.1-.1-.1l.1.1.1.1V9v-.2H18h-.1-.1.1c.1-.1.1-.1.2-.1h.1s0 .1-.1.3v.1h.1c0-.1 0-.1.1-.2v-.1c-.1 0-.1-.1-.1-.1 0-.1-.1-.1-.1-.1H18h-.1-.1-.1-.1c-.1 0-.1 0-.2.1v.2c-.1 0-.1-.1-.2-.1s-.3.1-.4.1c-.1.1-.2.1-.4.2h-.1c-.1 0-.1.1-.2.1v.1l.1.1h.1H16c-.1 0-.1 0-.2.1h-.1.4v.2H16l.1-.1.1.1c-.1 0-.1.1-.1.1s0 .1.1.2h.2c.1 0 .1-.1.1-.1h.1v.2s.6.3.5.3zm-2.9-.4v.1c0 .1.1.1.2.1s.1 0 .2-.1.1-.1.2-.1.1 0 .1.1V10v-.2h-.1c-.1 0-.1.1-.2.1-.1.1-.1.1-.2.1-.1.1-.1.1-.2 0zm5.4-.4c.1.1.2.1.2.2s.1.1.1.1c.1 0 .1.1.1.2h-.1.2l.1-.1s0-.1-.1-.1H20v-.2h.2c.1 0 .1 0 .2-.1s.1-.2.1-.3v-.1h-.1-.1s-.1 0-.1-.1l-.2.2-.1.2c0-.1-.1-.1-.1-.1l-.1.1-.1.1zm26.6-.1c-.1 0-.1 0-.2.1h-.1l.1.1.3.3.2-.2v-.1c0-.1-.1-.2-.3-.2zM19 9.6c.1.1.1.2.1.2v.1l.3-.4v-.1h-.1-.1c0 .1-.1.1-.2.2.1-.1 0 0 0 0zm1.6-.2l.1.5.1-.2c0-.1.1-.2.1-.4 0-.1 0-.1-.1-.1v.2c-.1.1-.1.1-.2 0 .1.1 0 .1 0 0zm-1.8-.3s0 .1 0 0c.1.1.1.2.1.2l-.1.1V9.6s0-.1.1-.1 0 0 .1.1v-.2-.2c-.1-.1-.1-.1-.2-.1zm3.8.2c.1 0 .1 0 .1.1v.1c0-.3.3-.6.6-.7V9h-.1-.1v.1h.2s.1 0 .1-.1l.1-.1s0 .1.1.1v.1V9c0-.1 0-.1-.1-.2 0-.1-.1-.1-.1-.1l-.1.1s0 .1-.1.1c-.1-.1-.1-.2-.2-.2s-.1 0-.2.1-.1.1-.2.1-.1 0-.1-.1c-.1.1-.1.1-.2.1l-.1-.1c0-.1-.1-.1-.2-.1s-.2 0-.2-.2v.1l.1.1c0 .1 0 .1-.1.1V9c0 .1-.1.1 0 .1l.1.1h.1c.1 0 .1 0 .2.1.1 0 .1.1.1.1l.1.1.2-.2zM45 9.1c0 .2.1.2.4.2h.3c-.3-.1-.4-.1-.4-.2s.1-.1.1-.2v-.1-.1h-.1c-.1 0-.1.1-.1.2-.1.1-.1.2-.2.2zm-1.9-.4c.1 0 .1 0 0 0 .1.1.1.2.1.2-.1.2 0 .3.1.3s.1.1.1.1v-.1s0-.1.1-.1c0-.1.1-.1.1-.1 0-.2-.1-.2-.2-.3-.1 0-.2-.1-.2-.2h-.1v.2zm-16.3-.1s.1 0 0 0c.1.1.1.2.1.2h-.1s-.1 0-.1.1c0 0-.1 0-.1.1h-.1H26.8c.1.1.2 0 .2-.1v-.1c0-.2 0-.3-.2-.4-.1 0-.1-.1-.2-.1-.1-.1-.1-.1-.2-.1h-.1s0 .1.1.1c0 0 .1.1.1.2l-.1-.1c-.1 0-.1-.1-.2-.1v-.1-.1c-.1 0-.1.1-.1.2v.2H26c.1.1.2.1.3.1.1 0 .2-.1.2-.2.1.1.1.2.2.2 0 .1.1.1.1 0zm-7.3-.2h.1c0 .1.1.2.1.3.1 0 .1.1.1.1v.1s-.1 0-.1.1h.7v-.1l-.1-.1s0-.1.1-.1c0 0 .1-.1 0-.2h-.1s0-.1.1-.1c.3-.1.6-.2.9-.2v.2h.2c.1 0 .1 0 .1.1H21.9v-.1s.1 0 .1.1c.1 0 .1.1.1.1v-.3-.2V8H22c-.1 0-.1 0-.2-.1l-.1-.1-.1-.1c0-.1-.1-.1-.1-.1h-.1c-.1 0-.2 0-.3.1-.1.1-.1.1-.2.1h-.1-.1c-.1 0-.2 0-.2.2 0-.1-.1-.1-.2-.1h-.1-.1l.1-.2h-.1c-.1 0-.1 0-.2.1 0 0 0 .1.1.2s-.1 0-.1.1h-.1v.1h-.1V8v-.1c0-.1 0 0-.1-.1l-.2.2c-.1.1-.2.3-.4.3h-.1s-.1 0-.1-.1h-.1l.3.6c0-.1 0-.1.1-.1h.2v-.1h-.1l.2-.1v.4l.2-.1v-.1s-.1-.2-.1-.3zm7.8.1c.1 0 .3.1.4.3 0 0 0 .1-.1.1V9h.2v-.1c0-.1-.1-.1-.1-.1h.1c.1 0 .4-.1.4-.3 0 0 0-.1-.1-.1H28c-.1.1-.2.1-.3.1-.1 0-.2 0-.3-.1l-.1-.1c-.1 0-.1 0-.1.1l-.1.1-.1.2.3-.2c-.1 0-.1 0 0 0zm21.2-.2c-.1 0-.1.1-.1.2v.1c-.1.1-.1.1-.1.2s.1.1.1.1v-.1c0-.1 0-.1.1-.1s0 0 .1.1v-.2c0-.1 0-.2.1-.3-.1.1-.1.1-.2 0zm-5.5.2c-.1 0-.1 0-.2.1s-.1.1-.1.2c0 0 0 .1.1.1s.1-.1.1-.1l.1-.1h.1c0-.1 0-.2-.1-.2zm-18.2 0c0 .1.1.1.1.1.1 0 .1.1.1.2.1-.1.1-.1.1-.2v-.1-.1-.1H25v.1l-.1.1c0 .1 0 0-.1 0v-.1s-.1 0-.1.1c0-.1 0-.2-.1-.2-.1-.1-.1-.2 0-.3 0-.1.1-.1.2-.1h.1v-.1l-.1-.1h-.1l-.1-.2h.2v-.3-.4.2l-.1.1c-.1 0-.3.1-.2.4 0 0-.1 0-.1-.1v.1c.1.1.1.1.2.1s.1 0 .1-.1v.1h-.2-.1v.1h-.1c-.1-.5-.4-.5-.7-.6 0 0 0 .1-.1.1.1 0 .1.1.2.1.1.1.3.1.4.3.1.1.2.3.2.4 0 0 0 .1.1.1v.1c0 .1-.1.1-.1.1h-.1-.1c-.1 0-.1 0-.1.1h.5l.3.1zm-7-.2c0 .1.1.1.1.1H18.2s0-.1.1-.1c-.1-.1-.1-.1-.2-.1s-.2 0-.3.1zm28.9-1c-.1 0-.1 0 0 0-.3.2-.2.3-.1.4.1.1.1.1.1.2l.1.1h.1l.4.3v-.1c0-.1-.1-.2-.1-.3H47h-.1c.1 0 .1-.1.1-.1 0-.1 0-.1-.1-.1l-.1-.1c0-.2-.1-.2-.1-.3zm.7.6V8s.1 0 .1.1 0 .1-.1.1l.1.1h.2c0-.2-.2-.3-.3-.4zm-7.1-.3s-.1.1 0 .1c0 .1.1.1.1.1.1 0 .1.1.1.2h.1v-.1-.3c0-.2-.1-.2-.2-.2H40.1c0 .1.1.1.1.1l.1.1h-.1-.1v.1h.1l.1-.1zm1.2-.4c-.1 0-.2.1-.3.1-.1.1-.2.1-.3.2l-.1.1.1.1.2.2h.2l-.1-.1-.1-.1-.1-.1.3-.2v.1l.1-.1c.1 0 .1-.1.1-.1s.1 0 0-.1h0zm-15.9-.5s-.1 0 0 0c-.2.3-.1.5 0 .7.1.1.1.3.1.4.1 0 .1 0 .1-.1.1-.1.2-.1.4-.1.1 0 .2-.1.3-.1.1-.1.2-.1.4-.1h.2l.1-.1.1-.1v-.1h-.5-.1c-.1 0-.1 0-.1-.1v-.1h-.1l-.1.3h-.1v-.1s0-.1.1-.1h-.1v.2c-.1.1-.1.2-.2.2l-.1-.1v-.1s0 .1.1.1v0c0-.1 0-.3-.1-.4v-.1c-.3 0-.3-.1-.4-.1zm11.5.5c0 .1 0 .1-.1.1v.4l.1-.1.1.1.3-.3v-.1l.1-.1c.1 0 .1-.1.1-.1 0-.1-.1-.2-.1-.2-.1 0-.1.1-.1.1-.2.2-.2.2-.4.2.1 0 0 0 0 0zm-13.7.2c0 .1 0 .1 0 0v.2h.1c.1 0 0-.1 0-.1 0-.1 0-.2.1-.2h-.1-.1-.1v.1c-.1 0 0 .1.1 0-.1 0-.1 0 0 0zm18.6 0c-.1 0-.1.1-.2.1l-.1.1c.1 0 .2.1.3.1.2 0 .3-.1.4-.2 0-.1-.1-.1-.1-.1s-.1 0-.1.1c0-.2-.1-.1-.2-.1zm-5.6-.3l.1.1v.2h-.1l.1.2.1-.2.1-.3c-.2-.2-.4-.3-.6-.5l-.2.4h.2c0 .1.2.1.3.1zm-7.9-.2c-.1 0-.1 0-.1.1l-.3.3c.1 0 .2.1.3.1h.1c.1-.1.4-.1.5-.2.1 0 .3.1.4.1v-.1V7h.1-.1v-.1-.1c.1-.1.1-.1.2-.1h.1v-.1l-.1-.1h-.1-.1-.1l-.3.3c-.1 0-.1-.1-.2-.1l-.1-.1V6.3l-.1.1v.2h.1l-.1.1c0 .1.1.1.1.1h-.1c0 .1 0 .1-.1.1zm4.9.1c.1 0 .1 0 .1.1 0 .2.1.3.2.3s.1-.1.2-.1c.1-.1.1-.1.2-.1v-.1s0-.1-.1-.1v-.1.1s-.1 0-.1-.1l-.1-.1h-.1v-.2c-.1 0-.1-.1-.2-.1h-.1l.4-.2v.1l.2.4.2-.1-.6-.3-.1.2v.1h-.1l-.1-.1c-.1-.1-.1-.1-.2-.1 0-.1-.1 0-.1 0v.3s-.1 0-.1-.1l-.1-.1-.1-.1v.1c0 .1.1.1.1.2.1 0 .1 0 .2.1s.2.1.2.1h.2zM30 6.8l-.1.1-.2.1.3.3v-.5zm8 .1s-.1 0 0 0c-.1.1-.1.1-.2.1l.1.1c.1.1.2.1.3.1l.1-.1s0-.1.1-.1l-.4-.1zm-3.3-.4s-.1 0 0 0c-.2 0-.3.1-.3.1-.1.1-.1.2-.1.3 0 .1.1.2.2.2h.2-.1l-.1-.1h-.2l.1-.1c.3-.1.3-.2.3-.4zm-3.8.4c-.1.1 0 .2.1.2s.1 0 .2-.1l.1-.1.1-.1.1-.1c0-.1-.1-.1-.2-.1s-.1.1-.1.1v.1c-.2.2-.2.2-.3.1.1 0 0 0 0 0zm11.1-1s0 .1 0 0c-.1.1-.2.1-.2.2 0 0 0 .1.1.1v.1h.4v-.1h-.1c-.1-.2-.2-.2-.2-.3zm-20.9-.1c-.1 0-.1 0-.1.1V6l.1.1s0 .1-.1.1h.4l.1-.1c0-.1-.1-.1-.1-.1-.1-.1-.2-.2-.3-.2zm14.6-.7c-.1 0-.1.1-.1.1v.1s0 .1.1.1c0 .1.1.1.1.1.1 0 .2-.1.3-.1.1 0 .1-.1.2-.1h-.2c-.2-.2-.3-.2-.4-.2zM30 4.7c.1 0 .2.1.2.3.1.1.1.2.2.2h.1s.1-.1.1-.2 0-.1.1-.1l-.3-.3V4.8c-.1-.1-.2-.1-.4-.2l-.1.1v.1c.1 0 .1-.1.1-.1zm-12.1 5zm-.1-1.5s-.1.1 0 0zm11.2.6c-.1.1-.1.1-.2.1l.1-.1v-.1c0-.1-.1-.1-.1-.1v.2h-.3-.1v.1s0 .1.1.1c.2-.1.4.1.4.3.1.2.3 0 .4.1l.1-.1v-.4l-.4-.1zm-14.6 3.1h-.1c-.2-.1-.2.3-.5.1 0-.1-.1-.1-.1-.1l.2.3.4-.1c.1 0 .1-.1.1-.2zm15.4-3c0 .1 0 .1 0 0l-.1.1v-.1c.1-.2.1-.3-.1-.1-.1.1 0-.3-.1-.1v.4c.2.4.4-.1.6-.1v-.2H30c0 .1-.2-.3-.2.1zM15.1 8c.2-.1.4-.2.6-.4h-1s-.1.2 0 .2c.1.1.2.2.4.2zm15.5.6c-.1 0-.3-.1-.4.2 0 .2-.2-.3-.1.1h.1c.2.4.4.2.5-.1-.1-.1-.1-.2-.1-.2zM23.9 5c-.2-.4-.3.2-.5 0l-.1.1c.1.1.3.1.4.1 0 .1.2 0 .2-.2zm9 3.8c.1 0 .1-.1.2-.2l-.3-.1-.1-.2-.2.2c.2.1.3.2.4.3zm7.5.5c0-.1-.1-.1-.1-.2-.1.1-.2 0-.2.2-.1.4.3-.1.3.2 0 0 .2 0 0-.2zM24.5 5.2c0-.1 0-.1 0 0-.1-.2-.2-.2-.2-.1 0 0-.1.1-.1.2h.1s0 .1.1.1v.1c-.1.1 0 .1.1.2v-.2c0-.1-.2-.3 0-.3zm10.3 3.2v.2c.1.1.1.3.2.2v-.5c-.1.1-.1.3-.2.1zm21 24l-.5.3.1.1c.3-.1.1-.4.4-.4zm-5-17.7h-.4l.1.1.3.1v-.2zm-5.2-3.5l-.2.3.2.1v.1c0-.1.1-.2.1-.3 0-.1-.1-.1-.1-.2zm7.8 6.5h-.2c0 .1 0 .2.1.2h.2c-.1 0-.1-.1-.1-.2zm3.1 6.5c-.1-.1-.1-.2-.2-.3-.3.1.3.2 0 .4h.1l.1-.1zM38.9 8.9c-.1.1-.1.4-.3.4.1.1.2 0 .2-.1.1-.2.1-.1.1 0 .3-.2 0-.1 0-.3zM15.3 7.5l.4-.3h-.1c-.1.1-.4 0-.3.3zm19.4.8l-.1-.1-.1.1.2.4.1-.2c-.2 0-.2 0-.1-.2zM52 15.2c.1-.1 0-.2 0 0-.1 0-.2.1-.3.2 0 0 0 .1.1.1l.2-.3zm-2.5-1.4l.3.3h.1c-.1-.1-.2-.2-.3-.4l-.1.1zM22.1 8.2c.1-.2-.2 0-.2-.2-.1-.3-.3-.4-.3 0l.3.2s.2.1.2 0zM20.6 8c0 .2.1.1.2.1L21 8c-.1 0-.2 0-.4-.1V8zm36.8 28.3c0 .1-.1.1 0 0l.1.1-.1-.1zM26.7 46zm3.4 4.1c-.1 0-.1-.1-.2-.1-.1-.1-.1-.2-.2-.2s-.1.1-.2.1c-.1.1-.1.1-.2.1h-.7-.1c-.3 0-.5-.2-.7-.5V49.8h-.1c-.1 0-.1 0-.2-.1v-.1-.1.1c0 .1-.1.1-.1.2v.2h-.1-.1v.1h-.8-.1V50v-.1s0-.1-.1-.1-.1-.1-.2-.1-.2 0-.3.1c-.1 0-.2.1-.3.1h-.2s-.1-.1-.2-.1l-.1.1v-.1-.1c-.1 0-.1.1-.1.1s0 .1.1.1c.1.1.1 0 .1.1h-.1-.1c-.3 0-.6-.1-.8-.3l-.1-.1v-.1V49.8l-.1-.2v-.1c0-.1 0-.1-.1-.1h-.1c-.1 0-.1.1-.1.1 0 .1-.1.1-.1.1h-.1-.1-.1l.1-.3h.2s.1 0 .1-.1l-.8-.2h-.1l.1.1c0-.1.1-.1.1-.1l.1.1v.1c-.1.1-.2.2-.3.2 0 0-.1 0-.1-.1s-.1-.2-.2-.2h-.1l-.1.1c0 .1 0 .1-.1.2l-.1.1c-.1 0-.1-.1-.1-.1 0-.1-.1-.1-.1-.1v-.1-.1l-.1.1h-.1c-.1.1-.2.2-.3.2-.1 0-.1-.1-.2-.2h-.5-.2c-.3 0-.5-.1-.6-.5h-.1c-.1.1-.1.2-.1.2s-.1 0-.1-.1l-.1-.1h-.1-.4c-.4-.2-.9-.4-1.4-.5-.1 0-.2-.1-.2-.1-.1-.1-.2-.1-.3-.2h-.1v-.1h-.1-.1c-.2-.1-.4-.3-.5-.4H16h-.1-.1-.1c-.3-.2-.5-.3-.8-.4l-.6-.3-.7-.4-.6-.4.1-.1-.1-.1h-.1c-.1 0-.2-.1-.3-.3-.1-.1-.1-.3-.3-.3h-.1c-.1 0-.1-.2-.2-.3 0-.2-.2-.2-.3-.3-.4-.2-.8-.5-1.1-.9l-.3-.3c-.1-.1-.2-.3-.3-.4v-.1c.1-.1.1-.1.1-.2H10c-.1 0-.1.1-.1.1 0 .1-.1.1-.1.1v-.3h-.1s-.1 0-.1.1l-.1-.1c-.1-.1-.3-.2-.4-.3.1-.1 0-.2-.1-.2-.1-.1-.2-.2-.3-.4-.1-.3-.3-.5-.5-.7-.1-.1-.3-.3-.4-.5-.1-.1-.1-.1-.1-.2l-.6-.9c0-.1-.1-.2-.2-.3-.1-.1-.2-.2-.2-.3v-.1c0-.1 0-.3-.1-.3-.2-.1-.1-.2-.1-.4v-.2c-.1-.2-.1-.4-.3-.5-.2-.1-.3-.4-.3-.6 0-.1-.1-.2-.2-.3l-.1-.1h.1s.1 0 .1-.1 0-.1-.1-.1c-.4-.3-.6-.8-.5-1.3 0-.2 0-.3-.2-.4l.1-.1.1-.1c0-.1-.1-.1-.1-.2-.1-.1-.2-.3-.3-.5-.1-.4-.3-.7-.4-1.1-.3-.2-.4-.5-.4-.8 0-.5-.1-1-.3-1.4.1 0 .1 0 .1-.1s0-.1-.1-.1c0-.1-.1-.1-.1-.1l.1-.1v-.1-.1l-.1.1h-.1-.1l.1-.6v-.1l-.3-.7h-.1V28c.1 0 .2-.1.2-.1l3.2-.2-.1.3v.1h.2l.1-.1c.1-.1.2-.1.4-.1 0 0 .1 0 .1.1h.1c-.3 0-.3.1-.3.1h.4c-.1.1-.1.2 0 .2.1.1 0 .3-.1.4h-.1c-.2.1-.3.2-.3.3 0 .1 0 .1.1.1h-.2.2l-.1.1c0 .1.1.1.1.1v.5h-.2c.3.1.3.2.3.4v.1c0 .1 0 .2-.1.3v.2s.1 0 .1.1c-.1.1 0 .1.1.1h.1s.1 0 .2.1c0 0 .1 0 .1.1v.2c.1.1.1.3-.1.4-.1.1-.1.2-.1.3.1.2.2.3.3.4l-.1.1c-.1 0-.1.1-.1.1v.1c-.1.1-.1.3-.3.3h-.1l-.1.1V33h.1v.2c.1 0 .1-.1.2-.1h.1c.1-.1.1-.1.2-.1s.1.1.1.2 0 .2.1.2h.1v.1c0 .1-.1.1 0 .1H8v.2-.1c0 .2 0 .2.1.3h.1c.1 0 .1 0 .1-.1l.1-.1c.1 0 .1 0 .1.1v.4h-.1-.1c-.1.1-.2.2-.2.4 0 .1 0 .2-.1.3l-.1.1h-.1.4V35h.2c.1 0 .2.1.2.3 0 .1.1.2 0 .2 0 0-.1.1 0 .1h.2v.4c0 .1.1.2.1.2.1 0 .2-.1.3-.1h.1v.3c0 .1-.1.1-.1.2 0 .2.1.4.2.4 0 0 .1 0 .1.1v.2h.2s0 .1-.1.1h.1l.1-.1h.2l.1-.1h.2s-.1 0-.1.1v.1c0 .1.1.3.1.4.1.1.3.2.5.3.1 0 .1.1.1.1l.1.1h-.1c-.1 0-.1 0-.2.1-.1 0-.1.1-.1.1h-.1H10.8v.2H11.1s0-.1-.1-.1h-.1-.1v-.1c0-.1.1-.1.1-.1l.1.1.1.1c.1.1.2.2.2.3 0 .1 0 .3.1.4.1.1.1.2.1.3v-.1-.1-.1-.1l.1-.1s.1 0 .1.1V39.5c0 .1 0 .2.2.2.1 0 .1.1.1.3s0 .3.2.4c.1 0 .2.1.2.4 0 .1.1.1.3.1h.1c.1 0 .1 0 .2.1h.2v.2h.1c.1 0 .1 0 .1.1v.1c.1 0 .3.1.4.1s.2.1.4.1.4.1.6.3l.2.2c.1 0 .1.1.1.1s-.1 0-.1.1h-.1c.2.1.4.1.7.2h.1l-.1.1h-.2v.1c0 .1 0 .2.1.2l.1.1s0 .1-.1.1c0 0-.1 0-.1-.1-.1 0-.1-.1-.2-.1l-.1.1c-.1 0-.1-.1-.2-.1-.1-.1-.1-.1-.2-.1h-.1v-.1h.1l.2.3.1-.1c-.1 0-.1.1-.2.1-.1.1-.1.1-.2.1h-.1l.2.2c.1.1.3.3.4.3 0 0 .1 0 .1.1.1.1.2.1.3.1.1 0 .3-.1.4-.3 0 .1.1.1.1.1l.1-.1c0-.1.1-.1.1-.1.1 0 .2.1.2.2v.1l.1.1c0-.1.1-.1.2-.1s.1 0 .2.1.1.1.2.1.1 0 .1-.1v.2c0 .1.1.1.2.1h.2c.1 0 .3-.1.4-.3s.1 0 .1 0V44.1c-.1 0-.1 0-.1.1v.1h.2c0 .1-.1.2-.1.3V44.9l.1-.1c0-.2.1-.2.1-.2.1 0 .1 0 .1-.1s.1-.1.1-.1h.2c.1 0 .1 0 .2.1s.1.2 0 .2v-.1c0-.1 0-.1.1-.1h.1l-.1-.1h.1c.1 0 .1-.1.1-.1l.1-.1h.1v.2h-.2v.1c.1.1.1.2.1.4h.2v-.1h.1c.1 0 .1 0 .1-.1l.1-.1v-.1c.1 0 .1.1.1.1V44.9c.1 0 .1 0 .1-.1.1 0 .1 0 .1-.1h.2v.2l-.1.1H20v.2H20.3c.1 0 .2.1.2.2l.2.2h.1l-.1-.1h.4v-.1-.1s-.1 0-.1-.1h.1c.1 0 .1.1.2.1 0 .1 0 .1-.1.2h.1s.1 0 .1.1v0c0-.1.1-.1 0-.2v-.1-.1l.1.1h-.1v.4-.1c0-.1.1-.1.1-.1h.1c.1 0 .1 0 .2-.1.1 0 .1-.1.2-.1s.1 0 .1.1c0 0 0 .1.1.1l.1-.1s0-.1.1-.1v-.1-.1s-.1 0-.1-.1v-.1-.1c0-.1.1-.1.1-.1.1 0 .1.1.1.2v.4c0-.1 0-.1.1-.2 0-.1.1-.1.1-.1v.1s0 .1.1.1h.1-.1-.1l-.1.1c0 .1 0 .2.1.2v0l.1-.1h.1v.1h.2v.1s0 .1.1.1v-.2h.1c.1 0 .1.1.2.1l.1.1c.1 0 .1.1.2.1s.1-.1.1-.1 0-.1-.1-.1v-.1h.1c.1 0 .1.1.1.1l.1.1c.1 0 .1-.1.1-.1 0-.4.1-.4.2-.4h.4c.1 0 .1 0 .1-.1v.2c0 .1-.1.1-.1.2l-.1.1c0-.1.1-.1.1-.1H25.1c.1-.1.1-.2.1-.3 0-.1 0-.1.1-.2H25.6s0 .1-.1.1c0 .1-.1.1-.1.1-.1.1-.2.2-.1.3V45.8l.1-.4c0 .1 0 .2.1.2 0 0 .1 0 .1-.1s.1-.1.1-.1v.2c0-.1.1-.1.1-.1s.1 0 .1.1c.1 0 .1.1.2.1s.1-.1.1-.2V45.2c0 .1.1.1.2.1h.1c.1.1.2.1.3.1.1 0 .2 0 .3.1.1.1.1.2.1.3 0-.1.1-.2.1-.2s0 .1.1.1c0 .1 0 .1.1.1v-.1c-.1 0-.1-.1-.1-.1s0-.1.1-.1l.1-.1s0-.1-.1-.1h.1c.1 0 .1 0 .2.1l.1.1c.1.1.2.1.4.1H28.6v-.1c-.1-.1-.1-.2 0-.3 0-.1.1-.1.2-.1s.1.1.1.2.1.2.1.2v.1h.2v-.1s.1 0 .1.1.1.1.1.1h.7s0-.1-.1-.1-.1-.1-.1-.1v-.1c0 .1.1.1.1.1H30.3l.2.2c.1 0 .1-.1.2-.2l.1-.1h0v.1l.1.1c.1.1.2.3.2.3.1 0 .1.1.1.1V45.7v-.2h.1c.1 0 .1 0 .1-.1v.2h.1c.1 0 .1-.1.2-.1s.3.1.4.3c0-.1.1-.2.2-.2h.2c.1 0 .1 0 .1-.1.1.1.2.1.3.1.1 0 .3 0 .4-.1s.3-.1.4-.1H34c.1 0 .2 0 .4-.1l.3-.3s0-.1.1-.1v-.1-.1H35.1v.1l.1.1V44.6h.1l.1.1c0 .1 0 .1-.1.2-.1 0-.1.1-.1.1s.1.1.2.1V45l.1.1.1.1.9-.1c.1 0 .3-.1.5-.1l.2-.1v-.2H37.5s.1 0 .1-.1c0 .2.1.3.2.3h.2l.1-.1s0-.1-.1-.1h-.2l.2-.2.1.1.2.4-.1-.4.1.1s.1 0 .1-.1h.2c.3-.1.5-.3.8-.4v-.1l1.2-.1v-.1c0-.1.1-.1.2-.1s.1 0 .2.1c-.1 0-.1 0-.1.1v.1c0 .1-.1.2-.2.2l-.1.1h-.1v.1s0 .1.1.1c0 .1.1.1.1.1s.1 0 .1-.1.1-.1.1-.1H41.2s0-.1-.1-.2h.2c.1.1.2.2.4.2.1 0 .3-.1.4-.1.1-.1.3-.1.4-.1h.1c.1 0 .2-.1.3-.2l.1-.1-.1-.1s.1 0 .1-.1v.2h.1c.1 0 .1-.1.1-.2 0-.2-.1-.3-.3-.4l-.1-.1v-.1l.1.1-.1-.2.3.2h.1v-.1-.1h.1s-.1 0-.1-.1h.1s.1 0 .1-.1l-.1-.1.1-.1c0 .1.1.2.1.2s.1 0 .1-.1l.1-.1h.2c.1 0 .1-.1.2-.1.1-.1.1-.1.2-.1h.1c.1 0 .2-.1.3-.1.1-.1.1-.1.3-.1.1 0 .3.1.4.1h.1v-.1-.3l.1-.1.1.1v.1l.1-.1v.2s.1 0 .1-.1c.1 0 .1 0 .1.1h.1v-.1-.1c0-.1-.1-.1-.1-.1l-.1-.1c.1 0 .1-.1.2-.1.1-.1.2-.1.4-.1h.1c.1 0 .1 0 .2.1h.1c0-.1.1-.1 0-.3 0 0 .1 0 .1.1.1 0 .1-.1.1-.1 0-.1.1-.1.1-.1h.2c.1 0 .2-.1.3-.3.1-.1.1-.1.1-.2h.1l.1.1.1.1-.1.1v.1h.1c0-.1.1-.2.1-.3 0 0 0-.1-.1-.1v-.1l.4-.1c.1 0 .1-.1.2-.1.1-.1.2-.1.2-.2l.4-.4.7-.5.4-.4.1-.1c.1-.1.2-.1.3-.3.2-.4.5-.7.8-.9l.2-.2c.1-.1.2-.2.3-.2 0 0 .1 0 .1-.1V37v-.1h.1c.2 0 .2-.1.2-.3 0-.1.1-.3.2-.3H53c.1 0 .1 0 .1-.1s.1-.2.2-.2c0 0 .1 0 .1-.1l.1-.1c0-.1.1-.1.1-.1.1-.1.3-.1.4-.1.1 0 .2 0 .3-.1-.2-.1-.3-.2-.2-.3 0-.1.1-.1.2-.1h.1l.7.4c-.1 0-.2 0-.2.2s-.1.3-.3.4c-.1.1-.3.2-.2.4h-.1-.1V36.8h.1c.1 0 .1-.1.1-.1v-.1c0-.1.1-.1.1-.1s.1 0 .1.1.1.1.1.1v.1c0-.1.1-.2.1-.2.1-.1.2-.3.1-.5V36v-.1H55.2v-.1-.1c-.1-.1-.2-.1-.2-.1h.2l.9.4.1.1h.2l.1.1s0 .1.1.1V36.6c.1.1.1.1.2.1s.1.1.1.1v.1h-.1v.2s-.1 0-.1-.1l-.1-.1c-.1 0-.1.1-.1.1s.1.1.1.2c.1 0 .1.1.1.1s-.1.1-.1.2v.1c0 .1.1.1 0 .1v.1c0 .1-.1.3-.2.3h-.1l.1.1.1.1h-.1-.1c0 .1-.1.2 0 .3v.2c-.1 0-.1 0-.1-.1l-.1-.1v.1l-.1-.1v.1c0 .1-.1.1-.1.1h-.1s.1 0 .1-.1H55.6c-.3.2-.5.4-.7.7v.1h.1s.1 0 .1-.1.1-.2.1-.2.1 0 .1.1v.2c0 .1-.1.2-.1.2v.1c0 .1-.1.1-.2.1s-.2.1-.2.1c0 .1 0 .1.1.2v.1s.1 0 .1-.1c.1-.2.1-.2.2-.2h.2l-.1.1-.3.3c0 .1-.1.1-.1.1s-.1 0-.1-.1c0 0 0-.1-.1-.1V40.6c.1.1 0 .3-.1.4l-.1.1c0-.1-.1-.2-.1-.3v.1c0 .1 0 .1-.1.1-.3 0-.3.2-.3.4v.2c-.3.5-.8.9-1.4 1h-.2s-.1 0-.1-.1l.1.1.1.1h-.1c-.1 0-.1 0-.1.1v.3c.1.1.1.2.1.2h-.5c0 .1-.1.3-.3.3-.1 0-.1.1-.1.1h-.1c0-.1-.1-.1-.1-.1-.1 0-.1.1-.1.2s0 .2-.1.2c0 0-.1 0-.1-.1v.1h-.1-.1-.1-.1v.2c-.1-.1-.1-.1-.2-.1s-.1 0-.1.1c-.1 0-.1 0-.1.1h-.1.1c0-.1 0-.1-.1-.1s-.1 0-.2-.1h-.1l.1.1v.1l-.1.1c-.1.1-.1.1-.3.1-.1 0-.2 0-.2-.1s0-.2.1-.3l-.4.2.1.2s0 .1.1.1c0 .1.1.1.1.1v.1c0 .1-.1.3-.2.3s-.1 0-.2-.1c0 0 0 .1-.1.1l-.1.2v-.1-.1c0-.1 0-.2-.1-.2h-.2-.1l.3.1h.1v.1h-.1c-.1 0-.3.1-.4.2l-.1.1V45.7c-.1.2-.1.4-.2.5 0 .1-.1.1-.1.1l-.1.1c0-.1 0-.1-.1-.1h-.1-.1c-.1 0-.1 0-.1-.1l-.1-.1-.1-.1v.1s0 .1.1.1 0 .1 0 .1c-.2.1-.3.1-.5.2h-.1v-.1-.1c0-.1-.1-.1-.1-.1v-.1h.5v.2h-.1-.1s-.1 0-.1.1c-.1.1-.1.4 0 .5v.1h-.4c-.1.1-.2.2-.3.2h-.1c-.1 0-.1 0-.1.1s-.1.1-.1.1h-.1-.2l.1-.2v.1s0 .1.1.1l.1.1.1-.2h-.2V47l.1-.1h.2l-.1-.3H45.5h-.1v-.1h.2v-.1h-.1-.1-.1l-.6.3-.2.1v.1l.1.1c.1 0 .1.1.2.2 0 .1 0 .1.1.2l-.3-.1.1-.2v.5h-.1l-.9-.3v.4c-.1 0-.1-.1-.2-.1s-.1-.1-.2-.1-.1 0-.1.1v.1s.1.1 0 .1c-.1.1-.3.3-.5.3-.1 0-.2.1-.3.1-.1 0-.1.1-.2.1-.1.1-.3.2-.5.2h-.2-.1v-.1h.2l-.1-.2-.1.1c-.1.1-.2.2-.3.2-.1 0-.1 0-.2-.1h-.1c-.1 0-.1.1-.1.1 0 .1-.1.1-.1.1h-.1v-.1s0-.1.1-.1l.1-.1-.1-.1-.1.1-.1.1v.1s0 .1-.1.1-.1 0-.1-.1c-.1 0-.1-.1-.1-.1h.2c0-.1-.1-.1-.1-.1h-.1-.1c-.1 0-.1-.1-.2-.2V48v-.1h-.1l-.3.2.1-.2-.4.1H39v.4c.1 0 .1 0 .2-.1h.1v.1h-.1-.1c0 .1.1.1.2.2.1 0 .1.1.1.1s0 .1-.1.1h-.1c-.1 0-.2-.2-.2-.4v.2l-.1-.1c.1.2.1.2.1.1v-.1.4h-.2-.2c-.1 0-.2 0-.2.3 0 .1-.2.1-.3.1l-.1-.1s0-.1-.1-.1H38.2l.1-.1c0-.1 0-.1.1-.2s.1-.2-.1-.3h-.1V48.8c0 .2-.1.2-.2.2s-.1 0-.2.1l-.1.1-.1.1s.1 0 .2.1h-.1c-.1 0-.2.1-.2.1l-.1-.1v-.1h-.1c-.1.1-.2.2-.3.2s-.2-.1-.3-.2v-.1h.1v-.1-.1l-.1-.1h-.1v.1c-.1.1-.1.1-.3.1V49l.1-.1s.1 0 .1-.1c0 0 0-.1-.1-.1l.1-.1-.3-.1v.1c0 .1.1.1 0 .2-.1.2-.2.4-.4.6h-.1v-.3h-.1c0 .2-.1.2-.2.2h-.1c-.1 0-.2 0-.2.1H35v-.1h-.1-.1v-.1h.2-.2l-.9.1h-.7c-.3.1-.6.1-.9.1-.3 0-.6-.1-.8-.2h-.1c-.1 0-.2 0-.3.1-.1.1-.2.1-.3.1H30.5c-.2.6-.3.6-.4.7zm-4.1-.9c0 .1-.1.1-.1.2s.1.1.1.1.1 0 .1.1c.1 0 .1.1.1.1h.1c.1-.2 0-.3-.1-.4-.1 0-.1-.1-.1-.2h-.2-.1l-.3-.1.1.1.2.2c.1 0 .1-.1.2-.1 0 .1 0 .1 0 0zm-1.9-.2c0 .1 0 .1.1.2s.1.2 0 .3h.2v-.2-.1-.2c0-.1-.1-.1-.1-.1-.1-.1-.1 0-.2.1.1 0 .1 0 0 0 .1 0 .1 0 0 0zm1.2.1c-.1 0-.1.1-.2.1 0 0-.1 0-.1.1l.4.2v-.1h-.1-.1s0-.1.1-.1c.1-.1.1-.1 0-.2 0 .1 0 0 0 0zm5.7.1s.1.1 0 0c.1.1.1.1.1 0l.1-.1-.1-.1s-.1 0-.1.1c-.1 0-.2.1-.2.1 0 .1 0 .1.1.1h.1c-.1 0-.1-.1 0-.1zm-10.2-.8l-.1.1s0 .1-.1.1-.1.2-.1.3l.1.1s.1 0 .1.1l.1-.1c.1-.1.2-.1.2-.2v-.1h-.1-.1l-.1-.1s0-.1.1-.1v-.1zm16.3-.1c-.1 0-.2.1-.2.2l-.2.2h.6l.1-.1v-.1s-.1 0-.1-.1l-.2-.1zm5.3-.7h-.1s0 .1-.1.2v.1l.4.2V48v-.1-.1c.1 0 .3.1.4.1l.1-.1-.1-.1-.1.1c-.1 0-.2-.1-.2-.2-.1.1-.2 0-.3 0zm-11.6.1c-.2 0-.5.1-.5.4l.1.1.1-.1c0-.1.1-.1.1-.1l.2-.2s.1-.1 0-.1zm.3.1c0 .1 0 .1 0 0v.2h.1c.1-.1.2-.1.3-.2l.2-.2.1-.1s-.1 0-.1-.1c-.1-.1-.2-.1-.3-.1-.1 0-.1 0-.1.1l-.1.1.2.1h.2l-.2.3c0-.1 0-.1-.1-.1s-.2-.1-.2 0c0 0-.1.1 0 0zm-4.3-.4c.1 0 .2 0 .2.1s0 .1-.1.2v.1c0 .1.1.1.1.1h.1v-.2c0-.1 0-.2.1-.2-.1-.1-.1-.1-.2-.1 0-.1-.1-.1-.2 0-.1 0-.2 0-.3.1.1-.1.2-.1.3-.1zm-1.2-.3c0 .1-.1.1-.1.2h.1c.1.1.2.1.3.1.1 0 .2-.1.2-.1v-.1l-.1.1c-.1-.1-.2-.1-.4-.2zm6.4-.2c-.1 0-.1 0 0 0l-.1.1c0 .1 0 .2.1.3.1.1.1.2.2.2s.1 0 .2-.1c.1 0 .2-.1.2-.1l-.1-.1-.1-.1h.2V47s-.1 0-.1.1l-.2.2v-.1l-.1-.1c-.2-.1-.3-.1-.2-.2zm-12.1.2l-.4.1v.1l.1.1c.1 0 .1 0 .2-.1h.1v-.2zm14.3-.1s0 .1-.1.2v.1h.5l.1-.1s0-.1.1-.1l-.1-.1c-.2.1-.3 0-.5 0zm-5.3.2c.1 0 .2 0 .2.1l-.1-.1.1.1c.1 0 .1-.1.2-.1V47l-.1-.1h-.1v.1s0 .1-.1.1l-.1.1-.1-.1c.2-.1.1-.1.1-.1 0-.2-.1-.2-.2-.3-.1 0-.1 0-.1-.1v.2c-.1.1 0 .2.1.3h.1l.1.1zm7.1-.9l-.1.2-.1.3.7.4.1-.5c-.1 0-.3.1-.4.1l-.1-.1v-.1h.1l-.2-.3zm-.7.1l-.3.3v.1l-.1.1-.1.1c.1.1.1.2.1.2l.1-.1c0-.1.1-.1.1-.1h.1v-.1c0-.1.1-.2 0-.4.2-.1.2-.1.1-.1zm3.2.2l-.2.2.6.2V46.7h.2c.1 0 .2.1.3.1 0-.1.1-.1.1-.2-.1-.1-.1-.2-.1-.3.1 0 .1 0 .1.1 0 0 .1 0 .1.1 0 0 .1 0 .1.1h.1s0-.1-.1-.1c0-.1-.1-.1-.1-.1-.1 0-.1 0-.2-.1-.1 0-.1-.1-.2-.1s-.1 0-.2.1h-.2c-.1-.2-.1-.3-.2-.3s-.1.1-.2.1c-.1.1-.1.1-.2.1v.1l.1.1.2.2-.1-.1v-.1c0-.1 0-.1.1-.1 0 0 .1 0 .1.1l.1.1c0 .2.1.2.2.2h.2l-.4.3v-.1l-.2-.3zm-11.9.1s.1 0 0 0c0 .1.1.1.1.2s0 .1.2.2h.1c.1 0 .1 0 .2-.1s0-.1 0-.3c0-.1-.1-.1-.1-.2 0 0 0-.1-.1-.1l-.1.1v.1c0 .1.1.1.1.2h-.1v-.1c-.1-.1-.1-.1-.1-.2v-.2c0-.1.1-.3-.1-.3l-.1.3-.3-.2V46h-.1v.6h-.1l-.1-.1v.1c0 .1 0 .1.1.1h.2c0-.1.1-.1.1-.2v-.1s.1 0 .1.1v.1c0 .1-.1.1 0 .2s0 0 0-.1c.1.1.1 0 .1 0zm11.5-.1s0 .1-.1.1c-.1.1-.1.2-.1.3h.1c.1 0 .2-.1.2-.1.1-.1.1-.2 0-.3 0-.1-.1-.2-.2-.2s-.1 0-.2.1c0 0 .1 0 .1.1h.2zm-8.8-.2l-.1.1.5.4c-.1-.1-.1-.2 0-.3v-.1l-.1-.1h-.1-.1c0 .1 0 .1-.1 0zm-13.4.2l.3.3.2-.1-.2-.4c0 .1-.1.3-.2.3 0-.1-.1-.1-.1-.1zm3.7-.4l-.2.2c.1.1.1.3.2.4.1 0 .1 0 .1-.1h.1l-.2-.5zm5.4.2l.4.3.1-.1c0-.2-.1-.2-.1-.2-.1 0-.1 0-.1.1-.1-.1-.2 0-.3-.1 0 .1 0 .1 0 0zm16.5-.5c-.1 0-.1.1-.2.1l-.1.1-.1.1s0 .1-.1.1c.1 0 .1.1.1.1.1 0 .1-.1.1-.2v-.1h.2l.1-.1c.1-.1 0-.2 0-.1zM25 45.7c0 .1 0 .1 0 0-.1.2-.1.3-.1.4l.1.1s.1 0 .1.1l.1-.1-.2-.5zm18.5.2c.1 0 .1.1.2.1h.1v.2l.2-.2v-.1-.1h-.2c0-.1.1-.1 0-.1 0-.1-.1-.1-.2-.1h.1c.1 0 .1 0 .2-.1v-.1l.1-.1.1-.2c-.4 0-.4 0-.4.1-.2.2-.4.3-.7.3-.1 0-.2 0-.3-.1V45.7s0 .1-.1.1v.1h.1l.3-.1v.2c-.1.1-.1.1-.2.1h-.1v.1l.1.1c.1 0 .1-.1.2-.1.3-.1.4-.2.5-.3zm-28.1-.4c-.1 0-.1.1 0 0-.1.1-.1.3-.1.4v.1h.1c0-.1.1-.1.1-.2l.1-.1c-.1 0-.1-.1-.2-.2 0 .1 0 0 0 0zm1.6 0s-.1 0 0 0l-.1.1h.1c.1 0 .2.1.4.1l.1-.1v-.1h-.1c-.1.1-.2 0-.4 0zm.6-.5h-.1c-.1 0-.1 0-.1.1v.1l.1.1.1.1c0 .1-.1.1-.1.1h-.1.1c.1 0 .1-.1.1-.2-.1-.1-.1-.2 0-.3zm28.8-.6c0 .2.1.4.1.5l.1.1c.1 0 .2 0 .2-.1 0-.2-.1-.5-.3-.7-.1-.1-.2-.2-.2-.4-.1 0-.1.1-.1.1-.1.1-.2.1-.3.2l-.2.2c-.1.1-.3.2-.4.2h-.1l-.1.1v.2h.2c.1 0 .3-.1.4-.1h.1s.1 0 .1.1l.1.1h.1l.1-.3v-.1h.1v.2h.1v-.1-.1-.1c.1 0 .2.1.2.1v.1h-.1s-.1 0-.1-.1c.1-.1 0-.1 0-.1zm-31.4.1c-.2 0-.3 0-.5.1 0 .1.1.1.1.2l.5-.2c0-.1 0-.1-.1-.1.1 0 0 0 0 0zm32.3-.5h-.1l.1.3.1.2.1-.1c0-.1.1-.1.1-.1.1-.1.2-.1.1-.4h.1s0-.1-.1-.1c-.1-.1-.1-.1-.2-.1s-.2 0-.2.1v-.1l.1-.1s.1 0 .1-.1c0 0 0-.1-.1-.1.1.2.3.4.5.4.1 0 .3 0 .4-.1v-.1h-.2c-.1 0-.3-.1-.4-.1-.1-.1-.3-.2-.4-.3l-.1-.1V43v-.1h.1c.1 0 .2 0 .2-.1H47.2c-.1 0-.1.1-.2.1v.1c0-.1-.1-.1-.1-.1-.1 0-.2 0-.1-.2-.1.1 0 .1 0 .2l.1.1v.2h.1v-.1-.1s.1 0 .1.1l.1.1s.1 0 .1-.1c0 .1.1.1.1.2.1.1.1.2.1.3 0 .1-.1.1-.1.2h-.1-.1v.1h.1c-.1 0 0 0 0 .1l.1.1-.1-.1c.1 0 .1 0 0 0zm4-.2l-.1.1H51v.1c.1 0 .1 0 .2.1.1 0 .2.1.3.1h.1c.1 0 .1-.1.1-.1l-.2-.1c-.1 0-.2-.1-.2-.2-.1 0 0 0 0 0zm-7-.5c-.1 0-.1.1-.1.1 0 .1 0 .1.1.1s.1.1.1.1l-.1.1c-.1 0-.3.2-.3.4l.1.1c.1-.1.2-.2.3-.2.1 0 .1 0 .2.1h.1c.1 0 .1-.1.1-.1 0-.1 0-.1.1-.1v-.2h-.1c-.1 0-.1.1-.1.1h-.1c-.1 0-.3-.1-.4-.2.1-.1.1-.2.1-.3 0 .1 0 0 0 0zm.9.4c.1 0 .1 0 .2.1.1 0 .1.1.2.1v-.1s0-.1-.1-.1-.1-.1-.1-.1h.1c.1 0 .1 0 .2.1l.1.1v.1c.1-.1 0-.1 0-.2s-.1-.1 0-.2l.1-.1c-.1 0-.1 0-.2-.1-.1 0-.2.1-.2.3-.1-.1-.1-.1-.2-.1s-.1.1-.2.1H45c0-.1-.1-.1 0-.2l.1-.1c.1 0 .1 0 .1-.1 0 0 0-.1.1-.1h0-.2l-.2.2v.1s.1.2.3.3zm3.3-.4l-.1.1c.1.1.1.1 0 .2h.1c.1 0 .2 0 .2-.1v-.1s-.1-.1-.1 0h-.1l-.1-.1c.2.1.2 0 .1 0zm-36.4-.6v.2c.1 0 .1.1.2.1h.1c0-.2 0-.3-.2-.3h-.1zm37.7-.1c.1 0 .1 0 .2.1 0 0 .1 0 .1.1l.1.1c.1 0 .3-.1.4-.2 0-.1.1-.1.2-.2s.3-.1.2-.3h.1c.1 0 .1-.1.2-.1l.1-.1v.2l.1-.1c.1 0 .1-.1.1-.1s-.1-.1-.1-.2-.1-.1-.1-.1 0-.1.1-.1c0 0 .1 0 .1-.1v-.1l.1.1h.1c.1-.1.1-.2.1-.3 0-.2.1-.4.3-.4h.2l-.4-.2v.1h-.2c-.1 0-.1 0-.1.1v.1h.1l-.1.2-.1-.3v-.2l-.1.2s.1 0 .1.1l.1.1-.1.1c0-.1-.1-.2-.2-.2s-.1 0-.2-.1l-.1-.1s0-.1.1-.1c-.1.1-.2.1-.4.2-.1 0-.1.1-.2.1v.1s.1 0 .1.1v.1c0 .1-.1.1 0 .2v.2l-.1.1c-.2.1-.4.3-.5.4V42c0-.1 0-.1-.1-.1h-.1-.1-.1-.1-.1-.1v.1h-.1-.1s0 .1.1.2c0 .1 0 .1.1.2v.1h.1c.2.2.3.2.3.1zm-38.2-.4c.1.2.1.4.1.6h.1c.2-.2.1-.3 0-.5l-.1-.1c.1.1 0 .1-.1 0zm36.2-.1s0 .1 0 0c.1.1.1.2.2.3l.1.1v-.1-.1-.1s-.1-.1 0-.1h.2s-.1 0-.1.1l-.1.1-.1.1c-.1-.2-.1-.2-.2-.3zm.6-.7c.1.3 0 .7-.3.8.1.1.1.1.2.1s.2-.1.2-.2c.1-.1.1-.2.2-.2h.1v-.1c0-.1.1-.1.1-.2l.1.1.1.1h.2s.1 0 .1.1v-.1-.1c-.1 0-.1 0-.1-.1v-.1-.1-.1-.1h-.1H48.6h-.1c0 .1-.1.1-.1.1.2.1.1.1 0 .1zm-35.8.3s-.1 0-.1.1c-.1 0-.1.1-.1.1 0 .1 0 .2.1.3h.1v-.3-.2zm-.1-.5c0 .1.1.2.1.4l.1.3.1-.1.1-.1-.4-.5zm37.7-.4c0 .1.1.1.1.1v-.1c0-.1-.1-.1 0-.1h.1l-.4-.4c.1.1.1.3.2.5zm2.8-.1c0 .1.1.1.1.1.1 0 .2-.1.3-.3v-.1.1h-.1c-.1 0-.1 0-.1.1-.1 0-.1.1-.2.1zm-.8-.1c.1 0 .1 0 .1.1l.1.1s.1 0 .1-.1c.1-.1.1-.1.2-.1s.1 0 .1-.1c.1 0 .1-.1.1-.1 0-.1 0-.1-.1-.1.3 0 .4-.2.4-.4.1-.1.2-.3.3-.4.1 0 .1-.1.1-.2l-.1-.1H53.2l.1-.1c.1 0 .1-.1.2-.1l.1-.1.1-.1c-.1 0-.1.1-.2.1l-.1.1v-.1-.1h-.1v-.1c0-.1-.1-.1-.1-.1s-.1 0-.1.1-.1.1-.1.2v-.1c0-.1 0-.1.1-.2v-.1H53c-.1 0-.1.1-.1.1 0 .1-.1.2 0 .3 0 .1.1.2.1.2H53.3c-.1 0-.1.1-.1.1 0 .1 0 .1.1.2s.1.2.1.3c-.1.1-.1.2-.2.3-.1-.1-.2 0-.2 0h-.1-.1l-.1-.1s0-.1.1-.1c.2 0 .1-.1.1-.3 0-.1 0-.2.1-.3h-.1-.1c0 .1 0 .1-.1.1 0 0-.1 0-.1-.1V39h-.1l-.1-.1-.1-.1-.1-.1h-.1v.2c.2.1.4.2.5.3v.1l.1.1h-.1c-.1 0-.1.1-.2.2 0 0 0 .1-.1.1l.1.1c.1 0 .1.1.1.1s0 .1-.1.1c0 0-.1 0-.1.1 0 0 0 .1.1.1h-.2l.1.2h.1l.1-.1v-.1l.1.1s-.1 0-.1.1c-.1.1-.1.2-.2.2s-.1-.1-.1-.3c0 0 0-.1-.1-.1H52c.1.2.2.3.2.4zm-1.5-.9s-.1 0 0 0l-.1.1.1.1s.1 0 .1.1.1.1.1.1l-.1.1c-.1 0-.1.1-.1.1v.3s0 .1.1.1c0 0 .1 0 .1-.1l.1-.1s.1 0 .1.1v-.4l.1.1v-.1-.1h-.1c-.1 0-.1 0-.2-.1 0 0-.1-.1-.1 0 0 0-.1 0-.1-.1v-.2zM9.8 40v.4c0 .1.1.1.1.1h.1c0-.1 0-.1.1-.1.1-.1.1-.1.1-.2s-.1-.1-.1-.1l-.3-.1zm42-.1c.1.1.1.1.1.2s.1.2.2.2h.1l-.1-.1-.1-.1s0-.1.1-.1c0 0 0-.1-.1-.1v-.1.2c-.1-.1-.2-.1-.2-.1-.1-.1-.2-.1-.2-.1v-.1-.1l-.2.4v.1h.1s.1 0 .1-.1c.1 0 .1-.1.2-.1zm-.3-1c0 .1.1.1 0 0 .2.1.3.2.3.2l-.1.1s-.1 0-.1.1v.1c.1-.1.2-.1.3-.2v-.1l-.1-.1c-.1-.1-.1-.1-.3-.1zM10 38.1c-.1 0-.1 0-.1.1-.1 0-.2.1-.3.1l-.1.1s.1.1 0 .1l.1-.1.1-.1s.1 0 .1.1h.1l.1-.3zm42.7-.1c0 .1 0 .1 0 0 0 .1.1.2.1.2.1 0 .1-.1.1-.1h.1-.2V38h.1c.1 0 .1 0 .2-.1.2-.1.4-.1.5-.4h-.1-.1s-.1 0-.1-.1c-.1 0-.1.1-.2.1-.1.1-.3.2-.5.3v.2h.1zm1.2-.2c0 .1.1.1.1.2v.1h.1c.1 0 .1 0 .2-.1 0-.1 0-.1-.1-.2h-.3c.1 0 .1 0 0 0zm.9-.6l-.1.1c-.1.1-.1.2-.2.3V37.9l.3-.4.1-.1-.1-.2c.1.1 0 0 0 0zm.3.2s0 .1.1.1c0 .1.1.2.1.2.1 0 .2-.1.2-.3s0-.3.2-.3v-.2h-.1c-.1 0-.2.1-.2.2-.1.3-.1.4-.3.3 0 .1 0 .1 0 0zm-.6-.4h.1v-.2h-.4l.1.1h.2v.1c-.1 0-.1 0 0 0-.1 0-.1 0 0 0zM6.8 30.7c0 .1 0 .2-.1.4v.1l.1.1.1-.1c0-.2.1-.3.1-.4l-.2-.1c.1 0 0 0 0 0zm10.6 15.1zm36-5.3c0-.1 0 0 0 0zM43 43.8l.1-.1-.1.1c.1 0 0 .1 0 0 .1.1.1.2.1.2v-.2l.3-.1h.1v-.1l-.1-.1c-.2.2-.4-.1-.5-.2-.2-.2-.3.1-.4 0v.2l.1.4.4-.1zm11.5-8.2s.1 0 0 0c.3-.1.1-.5.4-.4h.1l-.4-.2c-.1.1-.2.2-.2.4.1.1.1.2.1.2zm-12.3 8.2c0-.1.1-.1.1-.1v.1c-.1.2-.1.3.1.1.1-.2 0 .3.2.1l-.1-.4c-.3-.3-.4.2-.6.2v.2h.1c0-.1.3.2.2-.2zM56 39.4c-.1.2-.3.4-.4.7.3-.2.6-.4.8-.5l-.1-.2c0-.1-.2-.1-.3 0zm-14.4 4.9c.1 0 .3 0 .3-.2s.3.3.1-.1h-.1c-.3-.3-.4-.1-.5.2.1 0 .2.1.2.1zM49 46c.3.3.2-.3.5-.2l.1-.2c-.1 0-.3 0-.4.1-.1 0-.3.1-.2.3zm-9.7-1.5c-.1 0-.1.1-.2.2l.3.1.1.1.1-.3c-.1 0-.2 0-.3-.1zm-7.8 1.1l.1.2c.1-.1.2 0 .2-.2 0-.4-.3.2-.4-.1.1 0-.1 0 .1.1zm16.8.5c.1 0 .1.1 0 0 .1.1.2.1.2 0v-.2s-.1.1-.1 0l-.1-.1v-.1c.1-.1-.1-.1-.1-.2v.2c.1.2.4.2.1.4zm-10.7-.9V45c-.1-.1-.1-.3-.2-.1-.1.1 0 .3 0 .4 0-.1 0-.3.2-.1zM7.2 30.8l.3-.5s-.1-.1-.1 0c-.3.1.1.3-.2.5zm12.4 13.8c.1 0 .2-.1.4-.1l-.1-.1-.3.1v.1zm6.3 1v-.3h-.2l-.1-.1c0 .1 0 .2.1.3 0 .1.1.1.2.1zM16 42.9c.1 0 .1 0 .2-.1l-.2-.2s-.1.1-.2.1c.1.1.1.2.2.2zm-5.6-4.5c.1.1.2.1.3.1.2-.2-.3-.1-.1-.3h-.1c-.1.1-.1.2-.1.2zm22.8 7.2c.1-.2 0-.4.2-.5-.1-.1-.2 0-.2.2 0 .3-.1.1-.1 0-.2.3.1.1.1.3zM56 39.9c-.1.1-.1.3-.1.4.1 0 .1 0 .1-.1 0 0 .3-.1 0-.3zm-.2.5zm-18.1 4.9s.1 0 .1.1c0 0 .1-.1 0-.1l-.2-.4v.2c.1-.1.2 0 .1.2zm-19.4-.6c0 .1 0 .1 0 0 .1-.1.1-.1.2-.3 0 0-.1 0-.1-.1l-.1.4c0-.1 0 0 0 0zm2.9.1l-.4-.1h-.1c.1 0 .3.1.5.1-.1.1 0 0 0 0zm28.3-2.5c0 .3.2 0 .3.2.1.2.4.2.3-.1l-.4-.1c0-.1-.2 0-.2 0zm1.5-.4c-.1-.1-.1-.1-.2 0 0 .1-.1.2-.1.3.1 0 .2-.1.4-.1-.1-.1-.1-.1-.1-.2zM3.7 28.1s0-.1 0 0v-.2-.1l-.1.1-.1.1v-.1-.1-.1h.1c.1 0 .2 0 .2-.1v-.2c0-.1-.1-.2 0-.2.1-.1.1-.2.1-.3v-.1-.1-.1h-.1-.1l-.1-.1v-.1-.2-.3-1.1-.1-.3c0-.5.1-1 .4-1.3h-.1c-.1-.1-.2-.1-.1-.1l.1-.1.1-.1v-.4c.1-.1.2-.2 0-.4 0 0 0-.1.1-.1v-.1c0-.1-.1-.1-.1-.1h.2c0-.1 0-.1.1-.2s.1-.1.2-.1H4.8c.1 0 .2-.1.2-.2h.1v.2c0 .1 0 .1.1.2v.1l.1-.1.1-.1v-.1V21.7c0 .2.2.2.3.2h.2v-.1c0-.1 0-.1.1-.2 0 0 0-.1.1-.1.1-.1.1-.3.2-.3h.1c.1 0 .2.1.3.1 0 .1 0 .1-.1.2-.1 0-.1.1-.1.1s0 .1-.1.1v.2c.1 0 .1-.1.1-.1.1 0 .1.1.1.2s0 .2.1.2.1 0 .1-.1c-.1.1 0 .3.1.4.1.1.1.2.1.3h-.1c.1-.1.1 0 .1 0 0 .1 0 .2-.1.2l-.1-.1s0-.1-.1-.1-.1 0-.1.1v-.1c0-.1 0-.1.1-.2v-.1h-.1c-.1.1-.1.3-.2.5h.2V23.6c-.1.3-.2.6-.1.9v.2l-.1.1v.1c.1 0 .1 0 .1-.1.1 0 .1-.1.1-.1v-.1.1c-.2.4-.1.9.1 1.2-.1 0-.1 0-.1.1 0 0 0 .1.1.1v0c.1-.1.1-.1.2-.1.1-.4.1-.5.1-.6.2.1.3.1.3.3 0 0 0 .1-.1.1l-.1.1c-.1.3-.1.6-.1.9h.2c.1 0 .1 0 .1.1 0 0 0 .1-.1.1h.1s-.1 0-.2.1H7l-.1.1c.2.1.1.2.1.3 0 .1-.1.1 0 .2s0 .1 0 .1l-.1.1h-.5l.1-.2c0-.1.1-.2.1-.3l-.1-.2-.1-.2v.1c0 .2-.1.5-.1.7 0 0 0 .1.1.1l-2.7.2zm2.2-1.2c-.1.2-.1.3-.2.4v.2l.1-.2.2-.3-.1-.1zm.7.3h.1-.1l-.1-.1h.2c-.1 0-.1-.1-.2-.1h-.1l.2.2zm-.6-.7s0 .1 0 0l.1.1c0 .1.1.2.2.2s.1-.1.2-.1l.1-.1-.1-.1-.1-.1-.1.1v-.2l-.1-.3h-.1s-.1 0-.1.1V26.4s0-.1-.1-.1c0 0-.1 0-.1.1s-.1.1-.1.1v.1h.2l.1-.1zm0-1c0 .1-.1.1-.1.1-.1.1-.1.3-.1.4v0h.1v-.1-.1H6v-.3zm-1.2-5s.1 0 0 0l.6-.1-.2-.1-.4.2zM15.7 38zm.3 1.2h-.2s-.1 0-.1-.1H15.4h-.2-.1-.1l-1-.3h.2l-.1-.1H13.8l-.8-.2h.2s0-.1-.1-.1l-.1-.1h.2c.2 0 .2.1.3.1H13.8h-.1c0-.1-.1-.1-.3-.1-.1 0-.3-.1-.3-.1s-.1 0-.1-.1c-.2-.1-.2-.1-.3-.1H12.4l.1-.1.2-.2v-.1-.1h.4v-.1h.4c.1 0 .2 0 .3.1.1 0 .2.1.3.1s0-.1-.1-.1h.2c.1 0 .1 0 .2.1l.1-.1h-.2.1c.1 0 .2 0 .3.1.3.1.6.2 1 .2.1 0 .1 0 .1.1h-.1l.1.1v.1h-.1-.1.1c.1 0 .1 0 .1.1v.1l-.1-.1.1.1v.1h-.2s0 .1.1.1l.1.1h-.2.2-.1l.1.1h.1l.1.1.1.1.1.1s-.1 0-.1.1c0 0-.1 0-.1.1 0 0 0 .1.1.1l-.1-.1-.1-.1.1.1c-.1 0-.1 0 0 0 0 0 0 .1 0 0 .1.1.1.1 0 0 .1.1 0 .1 0 0l-.1.1.1-.1zM14 38c.1.1.2.1.3.1 0 0 .1 0 .1.1l-.2-.2H14h0c.1 0 .1 0 0 0zm-1.1.4c-.1-.1.1 0-.1-.1h.1c-.3-.1-.2 0-.3 0h-.1l.2.1c.1.1 0 0-.2 0h.4c0 .1 0 .1 0 0zm-.1-.1c.1-.1.1-.1-.4-.2.2 0 .3.1.4.2-.1 0-.1 0 0 0zm-.4-.2zm.4 0h-.3H12.8zm-3.7 8.1zm-9 8.9l.1-.1-.1.1c.1-.1.1-.1.4-.3l.2-.1c.2-.1.4-.1.5-.2-.1 0-.2 0-.2.1l.5-.2.2-.1h-.2c.1 0 .1-.1.2-.1h-.1c-.1 0-.1 0-.2.1-.1 0-.1.1-.2.1.1 0 .1-.1.1-.1h.1l.3-.1c-.2.1-.4.1-.6.2l.1-.1h.1c.2-.1.4-.2.7-.3l.2-.1h.2l-.2.1c-.1 0-.2.1-.3.1-.4.1-.6.2-.7.2-.1 0-.1.1-.3.1l.1-.1s.1-.1.5-.2c.2-.1.4-.1.6-.3-.1 0-.2 0-.4.1.3-.1.6-.2.8-.3h.1c.4-.2.9-.3 1.3-.4H4l.2-.1-.4-.1c.1 0 .1 0 .2-.1-.1 0-.4.1-.7.2h-.1c-.2.1-.4.1-.6.2h.2c-.1 0-.3.1-.4.1h.1c.1 0 .1-.1.2-.1h-.1l.1-.1H3l.1-.1c-.1 0-.3.1-.4.1-.1 0-.3.1-.4.1h.1l.4-.2H3.1c.3-.1.5-.1.8-.3.1-.1.3-.1.4-.1l.3-.1.2-.1-.8.1c-.1.1-.3.1-.4.1h-.1-.1s.1-.1.2-.1.1 0 .2-.1h-.2c.1 0 .2-.1.3-.1l.3-.1c.1 0 .1 0 .1-.1-.2.1-.4.1-.7.1.1-.1.3-.1.5-.1.1 0 .2-.1.3-.1 0-.1.2-.1.2-.1h-.1c.1 0 .1-.1.2-.1s.1 0 .2-.1h-.1.1-.2-.2.3c.1 0 .1-.1.2-.1s.2-.1.3-.1c0 0 0-.1-.1-.1 0 0-.1 0-.1-.1h.5-.1.2c.1 0 .1 0 .2-.1h-.1-.6s-.1 0-.1.1H5v-.1c0-.1.1-.1.2-.1.3 0 .3-.1.4-.1.1-.1.1-.1.2-.1h-.2-.2-.1H5.6c.1 0 .1 0 .1-.1s.1-.1.3-.1c.1 0 .3 0 .3-.1s.1-.1.3-.1v-.1s0-.1-.1-.1l-.1-.1h.4c-.1-.1-.1-.1 0-.2 0-.1.1-.1 0-.1-.1-.1 0-.2.1-.3l.1-.1s.1 0 .1.1h.1v-.2-.1h.1s.1 0 .1.1v.1h.2s.1 0 .1.1v.1l.1.1h-.2l.1.1h-.2l-.1.1-.1-.1s.1.1.2.1.2.1.2.1h.1c.1 0 .1-.1.1-.1 0-.1.1-.1-.4-.4 0 0-.1 0-.1-.1-.1 0-.1-.1-.2-.1v-.1h.2v-.1c-.1-.3-.1-.3-.1-.4l.1-.1s.1 0 .1-.1c0 0 0-.1-.1-.1 0 0 .1 0 .1.1h.1l.1-.1v-.1c0-.1 0-.2-.3-.4V48l.1.1.2.1c0 .1.1.1.1.1l.3.2.2.1-.1-.1c-.1 0-.1-.1-.2-.2l-.1-.1-.1-.1V48c.1 0 .1.1.2.1v.2l-.1-.1v-.1l-.1-.1-.1-.1h.1l.2.2V48h-.1s0-.1-.1-.1l-.1-.1s.1 0 .1.1h.1l.1.1s0-.1-.1-.1l-.1-.1.2-.1v.1l.1.1v-.1h.2-.2v-.5l-.1-.1s.1.1.2.1h.1l-.1-.1-.1-.1-.2-.1h.2l.2.1-.1-.1s0-.1-.1-.1c0 0-.1-.1 0-.1h.1v-.1h-.1l-.1-.1c-.1 0-.1-.1-.1-.1v-.1c.1 0 .1 0 .1.1l.7.5-.1-.1c-.1-.1-.1-.1-.2-.1l-.1-.1.1.1h.1s0 .1.1.1l.2.1-.1-.1-.1-.1h.1s.1 0 .1.1c0 0 .1 0 .1.1H9l-.1-.1c-.1-.1-.1-.1-.2-.1h.2s-.1-.1-.2-.1h.1s0-.1-.1-.1c-.2-.1-.3-.2-.3-.3s0 0 .1 0h.1s0-.1-.1-.1h.1l.1.1.2.2c-.1 0-.1-.1-.1-.1s0-.1-.2-.2c-.1 0-.1-.1-.1-.1V46l.1.1.1.1c.1.1.1.2.2.2l.3.1-.3-.2c.1 0 .1.1.2.1l-.1-.1-.1-.1c0-.2.1-.1.1-.1h.2S9.1 46 9 46s-.1-.1-.1-.1h.4c.1 0 .2.1.3.2l-.2-.1s.1 0 .1.1c0 0 .1 0 .1.1l-.1-.1c-.1 0-.1-.1-.1-.1 0-.1-.1-.1-.1-.1h.4v-.1l-.1-.1c-.1 0-.1-.1-.2-.1l-.1-.1c.1 0 .1 0 .1.1.1 0 .1.1.1.1.1 0 .1.1.1.1h.1s-.1 0-.1-.1h.2v-.1-.1l-.1-.1s-.1 0-.1-.1h-.1.1c.1 0 .1 0 .2.1 0 0 0-.1-.1-.1l-.1-.1h.1l.1.1c.1 0 .2.1.2.1h.2c-.1-.1-.2-.1-.3-.2-.1 0-.1-.1-.2-.1 0 0 0-.1-.1-.1H9.9v-.1c.1 0 .2 0 .2.1l-.1-.1h.4v-.1-.1s.1 0 .1-.1v-.1l-.2-.2-.3-.5s-.1 0-.1-.1h-.1c.1 0 .1 0 .1.1h.1l-.2-.1H10.1c.1 0 .1.1.1.1 0 .1.1.1.2.1l-.1-.1h.1v-.1-.1l.1-.2c-.1-.1-.2-.1-.2-.1.1.1.2.1.3.1v-.1l-.1-.1h-.1l-.1-.1.1.1.4.1-.3-.1h.1l-.1-.1c0-.1-.1-.2-.1-.3h-.1s-.1 0-.1-.1l-.1-.1h.2l.1.1h.1c.1 0 .1.1.1.1v.1l.1.1h.1s-.1 0-.1-.1h.2c.1 0 .1-.1.1-.1s0-.1.1-.1c0 0 0-.1-.1-.1l-.1-.1c-.1 0-.1-.1-.1-.1s.1 0 .1.1c0 0 .1 0 .1.1 0-.1-.3-.2-.6-.3 0 0-.1 0-.1-.1h.2-.1l-.2-.1.3.1H10.2l-.1-.1V42c.1 0 .1.1.2.1V42h.1v-.1-.1h.1v-.1-.1h.4s-.1 0-.1-.1c.2-.4.2-.5.1-.5 0 0 .1 0 .1.1h.1V41h.4s-.1 0-.1-.1H11v-.1c0-.1.1-.1.1-.1h.2s-.1-.1-.2-.1h.1l-.1-.1s-.1-.1 0-.1h.1v-.1-.1h.2c0-.1-.1-.1-.1-.1h-.2l.1-.1s.1 0 .1-.1v-.1-.2c0-.1.1-.1.1-.1s.1 0 .1-.1c0 0 0-.1.1-.1v-.1s.1-.1 0-.1V39c0-.1.1-.1.2-.1 0 0 .1 0 .1-.1 0 0 0-.1.1-.1h.1l-.1-.1s-.1 0-.1-.1h.2v-.1-.1h.5c.1 0 0 0 0 0h.7l-.3-.1h.1l.7.2h-.1-.1s-.1 0-.1.1c-.1 0-.1 0-.1.1l.1.1h-.1l.1.1h.1c.1 0 .1 0 .1.1l.1.1h.1v-.1-.1s0-.1-.1-.1H14.1l-.2-.1h.1l1 .3H15.3l.2.1v.1s0 .1.3.1c.1 0 .1 0 .1.1h-.1H15.5s.1.1.2.1.1.1.1.1l-.1.1.1.1.1.1v.1h-.2.1c0 .1.1.1.1.1l.1.1h-.1-.1c-.1 0-.1 0-.2-.1l.1.1h-.1-.1.1-.1-.1c-.1.1-.2.1-.3.2h.1v-.1c.1 0 .1 0 .2.1 0 0 .1 0 .1.1 0 0 0 .1.1.1s.1.1.1.1h-.1-.1s.1.1.2.1h.1s-.1-.1 0-.1h.1l-.1.1h-.1-.1l.1.1s.1 0 .1.1v.1l-.2-.1.1.1h-.1l.1.1.1.1c.1 0 .1.1.1.1-.1.1-.2.2-.4.2h-.2-.1.1s.1.1.2.1l.2.1h-.3l.1.1v.1h-.1s.1 0 .1.1l.1.1h-.1c.1 0 .1.1.1.1h-.2-.1l.1.1h-.2-.1-.2c-.1 0-.1-.1-.1-.1H14.5h.1s0 .1-.1.1-.3-.1-.4-.1H14v.1l.2.1h.1c.1 0 .1 0 .1.1h.1l.1.1h-.2l.1.1-.1-.1c-.1 0-.1-.1-.1-.1h-.2H14.2v.1l.1.1.4.3v.1h-.1c-.1 0-.1 0-.1-.1h-.1v-.2l.2.1.1.1v.1h-.1l-.1-.1h-.1l.1.1h-.1-.1c.1.1.3.2.4.2 0 0 .1 0 .1.1v.1s.1.1 0 .1h-.1v.2h-.1l-.1-.1.1.1h.1l-.1-.1h-.1.1l-.3-.1h-.1-.2.1l-.1-.1h-.1-.1V43.8h.2c.1 0 .1 0 .2.1.1 0 .1.1.2.1h-.1l-.1-.1.1.1h.1l.1.1h-.6c.3.1.3.1.3.2H14s.1 0 .1.1c0 0 .1 0 .1.1.1.1.1.1.1.2v.2c0 .1.1.1 0 .1H14h-.1.1v-.5l.1.1.1.1h-.1l.1.1.1.1s-.1 0-.1-.1l-.1-.1H14l.1.1.1.1.1.1h-.2s-.1 0-.1-.1c-.1 0-.1 0-.2-.1 0 0-.1 0-.1-.1h-.1l.1.1-.1-.1v.1c.1 0 .1.1.1.1.1 0 .1.1.1.1v-.1s.1 0 .1.1c.1 0 .1.1.2.1s.2 0 .3.1c-.1 0-.2-.1-.4-.1l.1.1.1.1-.2-.1h-.1l.1.1.2.1h-.1-.1l.2.2v.2H14s0-.1-.1-.1l-.1-.1c-.1-.1-.2-.1-.3-.1l.1.1.1.1.1.1v.1s0 .1.1.1c0 0 0 .1.1.1h.1v.1H14l.1.1c-.1 0-.1 0-.2-.1h-.1.1-.1l-.1-.1h-.1.1l.1.1h-.1l-.1-.1-.6-.6.1.1c.1 0 .1.1.2.1.1.1.3.2.4.4-.1 0-.1-.1-.2-.1l.1.1s0 .1.1.1h-.1s-.1 0-.1-.1h-.1l-.1.3v.1l-.1.1c0 .1 0 .2-.1.3-.1.1-.1.1-.2.1h-.1v.1s.1.1 0 .1v.2c-.1 0-.1 0-.1-.1-.1 0-.1-.1-.2-.1 0 0 0 .1.1.1l.1.1c-.1 0-.1.1-.1.1v.1h-.1c-.1 0-.3-.1-.4-.1l.1.1.2.1h-.1s-.1 0-.1-.1l.1.1.1.1h-.1l.1.1-.1.2h-.1l-.1-.1H12v.4h-.1l.1.1s-.1 0-.1-.1l-.1-.1.1.1h.2c0 .1-.1.1-.1.1h-.4l.1.1.1.1-.1-.1s-.1 0-.1-.1c0 0-.1 0-.1-.1l.1.1.1.1-.2-.2v-.1c-.1 0-.1.1-.2.1h.1l-.1-.1h.2c.1.1.2.2.1.2h-.1l-.1-.1.1.1c.1 0 .1.1.1.1s.1.1 0 .1c0 0-.1 0-.1-.1h-.1-.1-.1l.1.1v.1c.1.1.2.2.1.2s-.1 0-.1-.1v.2s0 .1-.1.1-.2-.1-.3-.1l.1.1h-.1-.1v.1l.1.1c-.1.1-.2.2-.2.3h-.1-.1s0 .1.1.1h-.1l-.1-.1h.1l.1.1s-.1 0-.1.1v.1s-.1 0-.1-.1c0 0 .1 0 .1.1h-.1-.1.1-.1-.1.1H9.6h.5-.1-.1 0c-.1 0-.3.1-.3.1h.1s-.1 0-.1.1c-.1 0-.1 0-.2.1h-.1H9.6 9.3h.1c.1 0 .2-.1.2-.1-.1.1-.2.1-.3.1l-.2.7s.1 0 .3-.1l-.2.3h-.1l.3-.1h-.2c-.1.1-.2.1-.4.2h.1l-.3.1h.1l.1-.1s-.1 0-.1.1h-.2l.2-.1.3.1-.4.2.5-.2.2-.1-.4.1h-.1l-7.4 3.1.7-.3-.1.1-.2.1-.8.4-.3.1-.4.1.5-.2s0 .1-.2.2H.5c-.2.1-.5.1-.4.1zm2.8-1.5h-.1L2 54h-.1s.2-.1.4-.1l.1-.1.5-.2zm2.5-2.2l-.4.1h.2c.2 0 .4 0 .6-.1H6h-.1l-.4.1-.1-.1zm2.2-.5h-.2c-.1 0-.2 0-.3.1h.2l.3-.1c.1 0 .1 0 0 0zm.5-.5H8h.4-.3zm-1.5-.3l-.3.2h.1l.4-.1H7l-.2-.1h-.2zm.3.1H7c.1 0 .1 0 .2.1h.2c-.1 0-.1 0-.1-.1h-.4zm3.7-1.1s0 .1.1.1c0 0 .1 0 .1.1.1.1.1.1.3.2l-.1-.1-.2-.2h-.1l-.1-.1c.1 0 .1 0 0 0zm-2.2-.3s.1 0 .1.1v.1c.1-.1 0-.1-.1-.2s-.1-.1-.2-.1h-.1v.1s0 .1.1.1h.1c.1 0 .1 0 .1-.1zm.5-.4c.1 0 .1 0 0 0l.2.2c.1.1.2.1.3.1l-.1-.1v-.1l-.4-.1zm2.3 0c.1 0 .1.1.1.1.1 0 .2.1.2.2 0 0-.1-.1-.2-.1h-.1c.1-.2 0-.2 0-.2.1 0 .1 0 0 0zm.4-.3c.1.1.2.1.2.1h.1c-.1-.1-.2-.2-.4-.2-.1 0-.1 0-.1-.1l-.1.1h.1c.1.1.2.1.2.1zm-1.4-1.3c.1 0 .1.1.2.1s.1.1.2.1c0 0-.1-.1-.2-.1s-.2-.1-.2-.1c0-.1-.1-.1-.1-.1 0 .1 0 .1.1.1-.1 0-.1.1-.1.1.1 0 .1-.1.1-.1zm-.6-.3c.1 0 .1.1 0 0 .1 0 .1.1.1.1l.1.1c0-.1-.1-.1-.3-.2l-.2-.1.1.1h.1l.2.1c0-.1-.1-.1-.1-.1-.1-.1-.2-.1-.2-.2-.1-.1-.2-.1-.3-.1l.3.2h-.2l-.1-.1.1.1.3.2h-.1s.1 0 .1.1l-.2-.2h.3c.1.1.1.1.2.1l-.1-.1c0 .1-.1.1-.1 0zm1.4-.4c0 .1.1.2.2.3h.1s0-.1-.1-.1l-.1-.1-.1-.1c.1.1 0 0 0 0zm-1.2 0c.1 0 .1 0 0 0 .1 0 .1.1.1.1l.1.1.1.1H10.4h-.1s0-.1-.1-.1c-.1-.1-.1-.1-.2-.1 0 0 .1 0 .1.1l.1.1h-.1-.1c0-.3 0-.3-.2-.3.1 0 .1 0 0 0zm1.4 0s.1.1 0 0l.1.1s0-.1-.1-.1l-.2-.3h-.1-.1v.2h.2l.2.1c-.1-.1-.1-.1-.2-.1 0 0 0 .1.2.1 0 0 0 .1 0 0 0 .1 0 .1 0 0 0 .1 0 .1 0 0 0 .1 0 .1 0 0zm-.7-.6l.1.1c.1.1.2.1.3.1.1 0 .1.1.1.1v-.1-.1h-.1-.1l-.1-.1v.1l.1.1c-.1-.1-.1-.1-.2-.1h-.1c.1-.1.1-.1 0-.1zm.2-1l.2.2h.1l.1.1c.1 0 .1 0 .1.1l-.1-.1c-.1 0-.1-.1-.1-.1-.1-.1-.2-.2-.3-.2.1 0 .1 0 0 0 .1 0 .1 0 0 0zm.1-.1l.4.3.4.1-.4-.3v.2h-.1l-.1-.2-.2-.1zm.8-.3s0 .1 0 0c.1.2.2.2.3.3v-.1c-.1-.1-.2-.1-.3-.2l-.1-.1v.1h.1c-.1.1-.1.1 0 0 0 .1 0 .1 0 0zm.1 0l.1.1h.4l-.3-.2H12.2c-.1 0-.1 0-.2-.1l-.2-.1H12.1 12c-.1 0-.1 0-.1-.1h-.2-.1v.1c-.1-.1-.2-.1-.3-.1 0 0 0 .1.1.1s.1.1.1.1.1 0 .1.1l.1.1-.2-.1h.2c.1 0 .1.1.2.1l.1.2-.3-.2zm2-.1c0 .1.1.1.1.1l.1.1H14.2l-.2-.1H14.3s-.1 0-.1-.1h-.1v.1c-.1 0-.2 0-.2-.1h-.2zm-1.4-1c.1 0 .1 0 .1.1 0 0 0 .1.1.1h.2s0-.1-.1-.1H12.9l.1.1v-.1c-.1 0-.1 0-.1-.1l-.1-.1c-.1-.1-.1-.1-.2-.1h.1c.1 0 0 0 0 0l-.1-.1-.2-.2c-.1 0-.1 0-.1.1.1.1.1.1.1.2l-.1.1H12l.1.1c.1 0 .2.1.2 0l.1.1-.1-.1zm-.1-.7l.1.1h.2s.1 0 .1-.1h.2c-.1-.1-.1-.1-.2-.1 0 0 .1 0 .1.1h-.1-.1c-.1 0-.1-.1-.1-.1H12.5c.1.1.3.1.4.2l.1.1-.6-.3c-.1-.1-.3-.1-.4-.1V42.4c.2-.2.3-.1.2-.1 0 0 .1 0 0 0zm-1.4-.5c0 .1.1.1.1.1.1 0 .1 0 .1.1 0 0 0 .1.2.2h.1c-.1 0-.1-.1-.1-.1H11.5l-.1-.1s-.1 0-.1-.1l-.2-.1h.4l-.1-.1c-.1 0-.1 0-.2-.1h.2s.1 0 .1.1h.1s-.1-.1-.2-.1-.2-.1-.2-.1h-.1-.1-.1s0 .1.1.1h-.2l.1.1h-.1c-.1 0-.1-.1-.1-.1h-.1-.1c0 .1.1.1.1.1h.1c.1 0 .1.1.2.1v.1h-.1c-.1 0-.2 0-.3-.1.5.1.4.1.3 0zm2 .1c-.1 0-.1 0 0 0l.4.3-.1-.1V42s0-.1-.3-.1h.1c.1-.1 0-.1-.1 0 0-.1-.1-.1-.1-.1h-.1c-.1 0-.1 0-.1-.1l-.1-.1c.1.1.3.1.5.1.1 0 .1 0 .2-.1h-.4c-.1 0-.3-.1-.4-.1h-.1s-.1 0-.1-.1l-.1-.1h-.1-.1v.1h-.1c-.1 0-.1 0-.2-.1 0 0 .1.1.2.1 0 0 .1 0 .1.1h-.1.2c.1 0 .1.1.2.1.2.1.4.1.4.2s0 0 .1.1h.2zm.3-.7H13.4c.1 0 .1 0 .1-.1V41h.2s0-.1-.1-.1h.2l.1.1v-.1c-.1 0-.1-.1-.2-.1s-.1 0-.1-.1h-.1l.1.1h.2c0-.1-.1-.1-.1-.1l-.1-.1H13.9l-.5-.2c.1 0 .1.1.1.1h-.1s.1 0 .1.1h.1v.1l-.4-.2v.1h.1l.1.1c-.1-.1-.2-.1-.3-.1H13s-.1 0-.1-.1l-.2.1h.1c.1 0 .1.1.2.1l.1.1c0 .1 0 .1-.1.2v.1h-.1s-.1 0-.1-.1h-.1l.1.1h-.1-.1s.1.1.2.1.1.1.1.1h.1l.1-.1zm-1.5-.2c.1.1.2.1.3.1h-.1-.1c0-.2 0-.2-.1-.1h.1v.1l-.1-.1zm-.1-.3c.4.2.4.3.4.4h.2V41v-.1h.1l-.1-.1H12.4c.1 0 .1 0 .2.1h-.1c-.1 0-.1 0-.2-.1h-.1l-.1-.1H12h-.2v.1c-.2-.1-.2-.1-.3-.1zm.6-.3c.1 0 .1 0 .2.1 0-.1 0-.1-.2-.1 0 0 0-.1 0 0 0-.1 0-.1 0 0l-.4-.2.3.1.1.1zm1.3 0h.4s-.1-.1-.2-.1h.1v-.1-.1h.1s0-.1-.1-.1c0 0-.1 0-.1-.1h-.2-.1-.1c0-.1-.1-.1-.2-.1v.1h-.1l-.1-.1h-.1c0 .1.1.1.1.1.1.1.1.1.2.1H13.2s.1.1.2.1.1.1.2.1v.2h-.1-.1.1l-.1-.1c-.1 0-.1-.1-.1-.1h-.2l-.1-.1h-.1s-.1-.1-.2-.1l-.2-.1.5.1h.1c.1 0 .1 0 .1.1v.1s.1 0 .1.1h.1l.1.1h-.2l.2.1c-.2 0-.2 0-.1-.1-.1.1-.1.1 0 0v.1c-.1 0-.2-.1-.3-.1H13c.1 0 .1.1.2.1l.2-.1zm-1.6-.5l.1.1h.1c.1 0 .1.1.1.1s.1.1.2.1h.2l-.1-.1-.1-.1h-.4-.1c.1 0 0 0 0-.1zm.9.1c.1 0 .1 0 .1.1.1.1.2.1.3.1H13c-.1 0-.1 0-.1-.1l-.2-.1zm1.3-.7s0 .1 0 0c.1.1.2.1.2.1h.1v-.1s-.1-.1 0-.1h.2l-.1-.1h-.1-.1c-.1.3-.2.3-.2.2zm-1.8 0c.1.1.1.1 0 0 .1.1.1.1.2.1h.1-.1.2c.1 0 .2 0 .2-.1v-.1s-.1 0-.1-.1h-.1c-.2.1-.3.2-.4.2.1 0 .1 0 0 0 .1.1.1 0 0 0zm-3.3 9.8zm1.8-7h.2-.1l-.1-.1.1-.1h.1l-.1.1h-.1c.1.1-.2 0-.4 0-.2-.1 0 .1-.2 0l.1.1h.5c0 .1 0 .1 0 0zm2-3.5c.1 0 .1 0 0 0 .2 0-.1-.1.3-.1h.1l-.4-.1-.1.1c0 .1.1.1.1.1zm-2.2 3.7s0-.1 0 0c.1 0 .2.1 0 0 0-.1.4.1.2 0l-.3-.2c-.4-.1 0 .1 0 .2l.1.1c0-.1.3 0 0-.1zm5.1-2.1v.2c.2-.1.3-.1.4-.1-.1 0-.1-.1-.1-.1-.1 0-.2-.1-.3 0zm-4.9 2.4s.1-.1-.1-.1c-.2-.1.3.1 0-.1-.3-.1-.2 0 0 .1-.1 0 .1.1.1.1zm4.4 0c.4.1-.1-.1.1-.1l-.1-.1h-.2c0 .1 0 .2.2.2zm-4.9.4l.1.1h.2l.1.1-.2-.2h-.2zm-.8 1.9l.2.1c-.1-.1 0-.1-.2-.2-.3-.2.1.1-.2 0 .1 0 .1.1.2.1zm5.5-2.2h0s-.1-.1 0 0c-.1-.1-.1-.1-.2-.1-.1-.1-.1-.1-.2-.1l.1.1c.1 0 .3.1.3.1zm-4.6.9l-.2-.1c-.1 0-.2-.1-.2 0 .1.1.3.1.4.1-.1 0-.2-.1 0 0zM1.6 54.1l-.2.1-1 .5.3-.1c.6-.3-.1-.1.9-.5zm6.1-6.5c0-.1-.1-.1-.1-.2h-.2l.1.1c.1.1.2.1.2.1zm1-1.4l-.3-.2v.1s-.1 0-.1-.1c.1.1.2.1.3.1 0 .1 0 .1.1.1zm-2 2.6l-.1-.1c-.1 0-.1 0-.1.1l.1.1s.1 0 .1-.1zm-1.8 2.6c-.1 0-.1-.1-.2-.1-.5.1.2.1-.2.1h.4zm4.8-6.9c-.1-.1-.4-.2-.4-.3-.1 0 0 .1.1.1.2.1.1.1 0 0 .2.3.2.2.3.2zm6.1-4.2l.1.1h.1c-.1 0 .1 0-.2-.1zm-5.4 3.3l-.4-.2.1.1c.1 0 .2 0 .3.1zm-2.5 4.6c.1 0 .1 0 0 0l-.2-.2.2.2c-.1-.1 0 0 0 0zm-.1-1.1l-.1.1v.1c0-.1.1-.1.1-.2 0 .1 0 0 0 0zm4.9-6.1c.2.1.1 0 .3.1.2.1.4.1.1-.1h-.4c.1 0 0 0 0 0zm.7-.1c-.1-.1-.1 0-.1 0h.1c0 .1.1.1.1.1 0-.1-.1-.1-.1-.1zm-5.9 15c.1-.1.1-.2.1-.2h-.1H7.2h-.1s0-.1-.1-.1H6.7h-.1c0-.1 0-.1.1-.3v-.1l-.1.1c-.1.1-.2.1-.3.2h-.1s0-.1.1-.1l.1-.1h-.1l.1-.1s.1 0 .1-.1c0 0 0-.1.1-.1v-.1l-.1.1-.1.1c-.1.1-.1.1-.1.2l-.3.3h-.1c-.1 0-.1 0-.1-.1v-.1c0-.1.1-.1.1-.2-.1.1-.3.1-.4.2l.1-.1c-.1 0-.1 0-.1.1-.1 0-.1.1-.1.1l.1-.1c-.1 0-.2 0-.3.1-.1 0-.1.1-.2.1l.1-.1c0-.1.1-.1.1-.1h.2c-.1.1-.2.1-.3.2-.1 0-.1.1-.1.1l-.1.1v-.1s0-.1-.1-.1H4.1c-.1 0-.2 0-.2-.1h-.8H3h-.1-.1c-.1.1-.3.1-.4.1-.1 0-.1 0-.2-.1v-.1h-.1H2s0-.1.1-.1l.1-.1c-.1 0-.1.1-.2.1s-.1.1-.2.1l.1-.1c-.1 0-.1 0-.2.1-.1 0-.1 0-.2.1l.1-.1c0-.4.1-.4.2-.5.1-.1.2-.1.3-.1H2l.1-.1s.1 0 .1-.1H2c.2-.1.4-.3.7-.4H3c-.5.2-.8.3-.8.3.1-.1.2-.1.4-.2l1.8-.7c-.1 0-.1.1-.2.1h.2s-.1 0-.1.1-.1.1-.1.1c.1 0 .1 0 .2-.1l-.1.1h.1c.1-.1.3-.1.4-.1.1 0 .1-.1.2-.1h-.2s.1-.1.4-.2l.4-.1.1-.1c-.1 0-.3.1-.4.1-.1 0-.1 0-.1.1h-.3l.3-.1.2-.1.1-.3h-.1c-.4.2-.6.2-.6.2s.2-.1.3-.1l2.4-1 .2-.1.3-.1.2-.1.2-.1.1-.1c.1 0 .1-.1.7-.3h-.1.1l-.3.1-.4.2h-.1s.2-.1.5-.2.4-.2.4-.2h-.1l.3-.1.2-.1h.1s-.1 0-.2.1l-.2.1.2-.1s.2-.1.3-.1h-.2l-.3.1c-.3.1-.4.2-.4.2l.2-.1s-.1 0-.1.1H9v.2l.1-.1-.5.2c-.1.1-.2.1-.3.2.1 0 .1-.1.2-.1h-.1l.4-.2.4-.1h.1l.2-.1s-.1 0-.1.1l-.1.1s.1 0 .4-.2l.2-.1h.1l-.1.1s.1 0 .1-.1l.4-.2-.1.1-.2.1-.2.1.2-.1.3-.1-.5.3-.1.1.1-.1h.1c-.1 0-.1.1-.1.1l.6-.3c.1-.1.1-.1.2-.1s-.1 0-.1.1c-.1.1-.4.2-.6.4l-.2.1.1-.1.1-.1-.1.1s.3-.2.4-.3l.3-.2s-.1 0-.1.1l-.1.1.1-.1-.5-.1.1-.1h.1l.1-.1s-.1 0-.1.1l-.2.1.3-.2-.3.3-.1.1-.1.1-.1.1-.4.4-.2.1.1.1.3-.3.3-.2c.1 0 .1-.1.2-.1l.1-.1-.2.2.1-.1-.1.1-.2.1-.1.1-.1.1.2-.2.1-.1-.1.1h.1l.6-.6-.1.2-.3.1v.1l.2-.2v-.1l.1-.1-.1.2-.2.3.1-.1-.1.1s0 .1-.1.1c.1-.1.2-.3.4-.5l.1-.1s0-.1.1-.1v.2l-.1.2.1-.1v-.1l-.1.1v.2-.1l-.2.3v.2s0 .1-.1.1l-.1-.2v.1c.1 0 .1-.1.1-.1v-.1l.1-.1c0-.1.1-.2.1-.3 0-.1.1-.1.1-.2l-.1.1-.1.1.1-.2.1-.1.1-.2v.1c-.1.1-.1.3-.2.5.1-.2.1-.3.1-.3v.1c0 .1-.1.1-.1.2 0 0 0-.1.1-.1v-.1l.1-.1V51v-.1V51.2 51 51.3v-.1-.2.8-.1.2h.1v-.2-.2-.2-.3c0 .1.1.2.1.4V51l.1.2v.1-.3.1s0 .1.1.1c0 0 .1-.1.1-.2 0 0 0-.1.1-.1v.6-.1-.2-.1-.1l.1-.1V51.2c0-.1 0-.2.1-.2 0 0 .1.1.1.2v.1l-.1-.1V51.5v-.1s0-.1.1-.1v.4l.1.1v-.1-.2c0-.2 0-.4.1-.5V51v.2h.1l.2-.1h.2c.1-.1.1-.1.2-.1s.2.1.3.2c0 0 .1 0 .1-.1s.1-.1.1-.1l.1.1c0 .1.1.2.1.2v-.1-.1h.2c.1 0 .2.2.2.4V51.2h.1v-.1-.2-.1h.5v.2h.1c.1 0 .1-.1.1-.1s0-.1.1-.1v-.1l.1.1v-.1-.1h.1c.1 0 .1.1.2.2l.1.1V50.6l.1.1v.4h.1V50.8v.1l-.1-.1v-.1-.2.1c0 .1.1.1.1.1v-.1-.2-.1s0 .1.1.1c0 .1.1.1.1.1v-.2l.1.1.1-.1c0-.1 0-.1.1-.1h.1c.1 0 .1.1.2.3v-.2.1s0 .1.1.1v-.1-.1h.1c.1 0 .2 0 .3-.1h.2v-.1.1c.1 0 .1.1.2.1v-.1-.1c.1 0 .1 0 .2-.1 0 0 .1 0 .1-.1l.2-.1.1-.1c0 .1.1.1.1.1v-.1s.1 0 .1.1l.1.1v-.1l.1.1.1.1v-.1c0-.1.1-.2.2-.2h.4v.1l.1.3c0-.1 0-.1-.1-.2l-.1-.1.1.2v-.1-.1s0-.1.1-.1H18.8c.1 0 .1 0 .2-.1l.1-.1s.1 0 .1-.1l.1-.1h.1v-.1-.1h.1s.1 0 .1.1v-.1s.1 0 .1.1c0 0 .1 0 .1.1.1 0 .1-.1.1-.1s0-.1.1-.1h.1V49v-.1c0-.1 0 0 0 0l.1.1.1.1v-.2h.1c.1 0 .1 0 .1.1h.1s0-.1-.1-.1l.1.1v-.1-.1l.2-.2h.1c.1 0 .3-.1.3-.2l.1.1v-.1-.1l.1.1-.1-.1h.2V48l-.1-.1.1.1 1.9 1.9.3.3-.3-.1.1.1.4.3s0 .1.1.1c-.1-.6-.2-.6-.3-.6 0 0 0 .1.1.1l.1.1h-.2-.1c-.1 0-.1 0-.1-.1l-.1-.1c-.1-.1-.1-.1-.2-.1v.1l-.1-.1H23v.2l-.1-.1v-.1c.1.1.1.2.1.2s0 .1-.1.1-.1 0-.2-.1c0 0-.1 0-.1-.1v.1s0 .1.1.1l.2.2s0 .1.1.1 0 .1-.1.1-.1 0-.1-.1c-.1-.1-.1-.1-.2-.1h-.1v.3l-.1-.1-.1-.1c-.1-.1-.3-.2-.3-.4l-.1-.1.1.1h-.1s.1.1.1.2v.1c.1.1.1.2.1.2s0 .1.1.2h-.1v.1-.1s-.1 0-.1.1c0 0 0 .1.1.2s.1.1.1.2H22v-.1c-.1-.2-.2-.2-.3-.2-.1 0-.1-.1-.1-.1-.1-.1-.1-.1-.1-.2l.1.3s.1.1.1.2v.1h-.1-.1l-.1-.1v.2s-.1 0-.1-.1c0 0-.1 0-.1-.1.1.2.2.4.1.4l-.1-.1-.1-.1H21h-.1v.2s-.1 0-.1-.1l-.1-.1v.1s0-.1-.1-.1v.1l.1.1v.1l-.1-.1h-.1s-.1 0-.1-.1c0 .1-.1.1-.1.2v.1l.1.2-.1-.2V52.1s-.1 0-.1-.1l-.1-.1V52l.1.1c.1.1.1.1 0 .1h-.1l-.1.1h-.1l-.1-.1h-.1-.1c-.1 0-.1 0-.1-.1l.1.1h.1c.1 0 .1 0 .1.2h-.1-.1v.1l-.1-.1-.1-.1v.2s-.1 0-.1-.1V52.7l-.1-.1-.1-.1v.1c0 .1 0 .1-.1.2-.1 0-.1.1-.1.1 0 .1-.1.2-.2.2h-.1V53v-.1c-.1.1-.1.1-.1.2 0 0 0 .1-.1.1v-.1-.1-.1s0-.1-.1-.1c0-.1-.1-.1-.1-.1s-.1 0-.1-.1c0 0 .1 0 .1-.1v-.1-.1l.1.1h.1l.1.1c0-.1 0-.2-.1-.2 0-.1-.1-.2-.1-.3h-.1-.1-.1c-.1.1-.1.1 0 .5v.1c0 .1.1.1.1.2s-.1 0-.1-.1v-.1.4l-.1-.1c0-.1-.1-.1-.1-.1h-.1c-.1 0-.1.2 0 .5l-.1-.3c0-.1 0-.1-.1-.2l-.2-.6v.2c.1.1.1.1.1.2v.2h-.1c-.1 0-.1 0-.1-.2V52.9h.1l-.1-.1-.1-.2v.5L17 53v-.1c0-.1-.1-.1-.1-.1V53.8c0-.1-.1-.1-.1-.1v.2l-.1-.1c0-.1-.1-.1-.1-.1l.1.1v.1l-.1.1v.1c-.1 0-.1 0-.1-.3h-.1v.1c0 .1 0 .1.1.2 0 0 0 .1.1.2l-.1-.1V54v-.1l-.1-.2v.1s0 .1-.1.1c0 .1 0 .1-.1.1s0 0-.1-.1 0 0 0 .1v.2c0 .1 0 .1.1.1s.1.1.1.2v.2l-.1-.1-.2-.6v.4l-.1-.1s0-.1-.1-.1 0-.1 0-.1l-.1-.3V54.1l-.1-.1v-.1-.1.1c0 .1.1.2 0 .2 0 0-.1 0-.1-.1l-.1-.1h-.1c-.1 0 0 0 0 0s0 .2.1.2v.1s-.1 0-.1-.1v.1c.1.2.1.4 0 .4h-.1-.1v-.4V54.8s-.1 0-.1.1v-.1-.1-.3l-.1-.4.1.4c0-.1-.1-.2-.1-.2v.2s0-.1-.1-.2v-.3l.1.1v.1l-.1-.1-.1-.4V53.9s-.1-.1-.1-.2v-.2 0c0-.1 0-.1-.1-.1h-.1v.4c0 .1 0 .1.1.2v.1-.1-.1l-.1-.2.1.1c0 .1.1.1.1.2v.2c0 .1 0 .3.1.3v.1l-.1-.1-.1-.1v.5c0-.1 0-.1-.1-.1 0-.1-.1-.1-.1-.1-.1 0-.1 0-.1-.4v.1c0 .1.1.1 0 .2v.2s-.1 0-.1-.1-.1-.1-.1-.1h-.1v.1s.1.2 0 .3v.1s-.1-.1-.1-.2 0-.1-.1-.1v-.1-.1.1s0-.1-.1-.1h-.1-.1V54.9c0-.1 0-.1-.1-.1-.1-.1-.1-.2-.1-.2V54.8s0-.1-.1-.1c0-.1-.1-.2-.1-.2v-.1-.1-.1.6s0 .1-.1.1-.1-.1-.1-.3c0 .1 0 .1-.1.1h-.1-.1v.1c0-.1-.1-.1-.1-.1-.1 0-.1 0-.1.1l-.1.1h-.1-.1-.1c0 .1-.1.1-.1.2V55.4s-.1 0-.1-.2v-.1-.2-.1c0-.1 0-.1-.1-.1v-.1c-.1 0-.1 0-.2.1h-.1l-.3.2V55.2c0-.3-.1-.3-.1-.3h-.1-.1v.2h.1l-.1.1V54.6v.3c0-.1 0-.1-.1-.1s0 0-.1.1l-.5.2v.1l.1.1v.1l-.1.1c-.1 0-.1 0-.1-.1l.1-.1v-.1c0-.1.1-.1.1-.2 0 0 .1 0 .1-.1v-.1-.1h-.1-.1l-.1.2h-.1c0-.3-.1-.3-.2-.3h-.1-.1c-.1 0-.1 0-.1-.1-.1 0-.1.1-.2.1-.1.1-.1.1-.2.1-.1.1-.1.2-.1.2s0-.1.1-.1c0-.1.1-.1.1-.1-.2.1-.3.4-.3.6v.1-.2l-.1.2v-.3.2c0 .1 0 .1-.1.1s-.1 0-.1.1l-.9.4zm-.1-.7s-.1 0-.1.1h-.1.1c.1 0 .2-.1.2-.1l.1-.1c.1-.2.2-.3.2-.4v-.2-.1c-.1 0-.1.1-.1.1 0 .1-.1.1-.1.2v-.1-.1c0-.1.1-.1.1-.1l.1-.1-.2.2-.2.2v.1s.1-.1.2-.1l-.2.3c.1 0 .1 0 .1-.1v.1c0 .2-.1.2-.1.2zm.5-.3c.1.1 0 .2-.1.4l-.1.1h-.1.1l.1-.1c0-.1 0-.1.1-.1s.3-.1.4-.3v-.1c0 .1-.1.1-.2.1H8v-.1-.1s-.1 0-.1.1l-.1.1-.1.1.2-.1zm-4.1.3c-.1 0-.1 0 0 0 .1.1.1 0 .2-.1.1 0 .1-.1.2-.1.1-.1.2-.1.3-.2.2-.1.4-.1.5-.2l.1-.1H5l.2-.1-.2.1-.3.1c.1 0 .1-.1.2-.1 0 0-.1 0-.1.1 0 0-.1 0-.1.1l-.1.1-.2.2c-.1 0-.1.1-.1.1-.3 0-.4 0-.5.1zm1.6-.1l-.1.1c.3-.2.6-.4 1-.5l-.1.1-.1.1-.1.1.2-.1-.2.2.1-.1.2-.2.1-.1s-.1 0-.1.1c0 0-.1 0-.1.1.1-.1.1-.2.1-.2-.1 0-.1 0-.1.1 0 0-.1 0-.1.1 0 0 0-.1.1-.1h-.1l-.2.1.1-.1v-.3s0-.1.2-.2h-.1l-.1.1c-.1.1-.2.2-.3.2h-.1l-.1.1c-.1.1-.2.1-.2.2v.1s0 .1-.1.1l-.1.1c.2-.1.3-.1.3-.1zm-.5-.4l-.7.5.2-.1.5-.4c.2 0 .2-.1.3-.1-.1 0-.1.1-.2.1-.1.1-.1.1-.2.1l.1-.1zm-1.1.1s-.1.1-.2.1-.1.1-.2.1l-.2.2.1-.1c.1-.1.3-.2.5-.3-.1 0 0 0 0 0v.1-.1zm3.1-.1c-.1 0-.1.1-.1.1 0 .1 0 .1-.2.2.1 0 .1-.1.2-.2.1 0 .1 0 .1-.1.1 0 .1 0 0 0H7c.1-.1 0-.1-.1 0 .1-.1.1-.2.1-.2s0 .1-.1.2c.1-.1.1-.2.2-.3.2-.2.4-.4.6-.4l.1-.1v-.1l-.1.1s-.1 0-.2.1c.5-.5.4-.6.4-.6l-.1.1-.1.1c0 .1-.1.1-.1.2-.1.1-.1.1-.2.3-.1.1-.2.2-.3.4l-.1.2c-.1 0-.1.1-.1.1-.1 0-.1 0-.1.1v.1H7l-.1-.3zm-3.8-.2s0 .1-.3.1l-.1.1c0 .1-.1.1-.1.2 0 0 .1 0 .1-.1h.1l-.1.1s.1 0 .1-.1l.3-.1v-.1l-.1.1-.1.1h-.1-.1s.1-.1.2-.1c.1-.1.2-.1.2-.2.1-.1.1 0 0 0 .1 0 .1-.1 0 0-.1 0-.2 0-.4.1h.1c.1 0 .3-.1.3-.1zm1.8-.2c-.1.1-.1.1-.2.1l-.4.3c-.1 0-.1.1-.1.1h-.1l.5-.2.1-.1.2-.2-.1.1c.1-.1.2-.1.3-.2.2-.1.3-.2.5-.3l-.1.1c-.2 0-.3 0-.4.1H5l-.4.2h.3c-.1 0 0 0 0 0zm-.2-.2c-.1 0-.2.1-.4.2l-.1.1-.3.1-.3.2c.1 0 .1 0 .1-.1l1-.5zm-.6.2l-.2.1-.3.1c.1 0 .3-.1.4-.1.2-.1.4-.2.5-.3l.2-.2c.2-.1.3-.1.5-.2s.4-.2.5-.2h.2l-.1.1-.2.1h-.1.1c-.1 0-.2.1-.3.1-.1.1-.2.1-.3.1h-.1l-.1.1h-.1.1c.1-.1 0 0-.1 0h-.1c.1 0 .1-.1.2-.1s.1-.1.2-.1h.2l.2-.1c.1 0 .1-.1.2-.1 0 0 .1 0 .2-.1l-.2.2.4-.3.1-.1H6l.1-.1h.1l-.5.3-.1.1-.1.1.5-.2c.1-.1.1-.1.2-.1s.1-.1.2-.1v-.1l.1-.1c-.1.1-.3.1-.4.2l.1-.1H6l.1-.1c-.1 0-.1 0-.2.1l-.3.1-.1.1-.2.1v-.1l-.1.1c-.1 0-.1.1-.1.1l-.2.1h-.1.1l-.2.1c-.4.2-.5.2-.7.3h-.1.1l.1.2zm-.1-.4h-.1l-.2.1-.6.3.2-.1s.1 0 .1-.1c0 0 .1 0 .1-.1h.3l.2-.1zm2.4-.4c-.2.1-.3.2-.4.3-.1.1-.1.1-.2.1l-.2.1h-.1v.1l.1-.1c.2.1.3 0 .4 0s.2-.1.2-.1h.1s.1 0 .1-.1h.3s-.1 0-.1.1l-.1.1s0 .1-.1.1l-.1.1h.1l.1-.1h.1l-.1.1-.1.1c.2-.3.3-.3.4-.5l.1-.1.2-.2s0-.1.1-.1l.1-.1.1-.1c.1-.1.1-.1.2-.1V53h-.1-.1c-.1 0-.2.1-.3.1l.3-.1.3-.2h-.1l-.1.1-.2.1-.2.1-.1.1v-.1l.2-.1c-.1 0-.1.1-.3.1-.1.1-.3.1-.4.2l.1-.1.2-.1-.9.5c.1 0 .1-.1.2-.1l-.1.1-.1.1.1-.1s.1 0 .1-.1l.1-.1-.6.4.4-.1.2-.1.2-.1zm5.5.2v.5l.1-.3v-.2-.1c0-.1 0-.2-.1-.2v.1c.1.1.1.2 0 .2.1 0 .1 0 0 0zM8.8 53s-.1 0 0 0c-.2.2-.4.5-.6.7-.2.2-.3.3-.4.5l.1-.1c.1 0 .1 0 .2-.1h.2c.1 0 .1-.1.2-.1v.1c.1 0 .1-.1.1-.1l.1-.1s0-.1-.1-.1v-.1-.1c0-.1 0 0 0 0l-.1.1-.1.1.1-.1.1-.1.1-.1-.1.1-.2.2c0-.1.1-.1.1-.2 0 0 0-.1.1-.1 0 0 0 .1-.1.1s0 .1-.1.1h.1c0-.2.1-.3.3-.6 0 .1 0 .1 0 0zm2.9.7c0 .1 0 .2.1.2v.2c0-.1 0-.3-.1-.4 0-.1 0-.2-.1-.3l-.1-.1v.5c.1-.1.2-.1.2-.1zm-.9 0c.1 0 .1 0 0 0 .1.3.1.4.1.4s0-.1.1-.1c0-.1 0-.1.1-.1v-.2 0c0-.2 0-.2-.1-.2l.1-.2v.2l.1.1.1-.1-.2-.3v.3-.1-.1s0-.1-.1-.1v.2c-.2.1-.2.2-.2.3-.1 0-.1-.1-.1-.1v-.1-.1V53.7l.1.1c0 .1.1.1.1.1-.1-.1-.1-.1-.1-.2zm-5.9-.1s-.3.1-.4.1l-.5.4.4-.1.3-.1.1-.1c0-.1.1-.1.1-.2zm4.4-.2s-.1 0-.1.1l-.2.2v.2h.1c.1-.1.1-.1.2-.1s.1.1.1.1 0-.1.1-.1c0-.1.1-.2.1-.2l.1-.1-.1.1v-.1-.1l.1-.1v-.1-.1s-.1 0-.1.1V53v-.1l.1-.1-.1.1c0 .1 0 .1-.1.1 0 .1-.1.1-.1.1-.1.1-.1.2-.1.2v.1c0 .1 0 .1 0 0zm4.5 0s.1 0 0 0c.1.1.1.1.1.2 0 .2.1.2.1.2h.1v-.1-.1-.1c0-.1-.1-.2-.1-.2l-.2.1c.1-.1.1-.1 0-.1v.1c-.1.2-.1.3 0 .3v-.1c.1 0 .1-.1 0-.2zm-2.6-.2c-.1 0-.1.1-.1.1v.3c0 .1 0 .2.1.2h.1v-.1-.1-.1c-.1-.1-.1-.2-.1-.3zm-3.2.3c-.1 0-.1.1-.1.1l-.1.1h.1l.1-.2v.2l.6-.6-.1.1-.1.1c-.1 0-.2 0-.4.2 0 .1 0 .1 0 0zm4.9-.2c0 .2 0 .2.1.2 0 0 .1 0 .1.1v-.1l-.2-.2v-.2l-.1.1s0 .1-.1.1v.1c.1-.1.1 0 .2-.1l-.1.1v0l.1-.1zm-5.2.1l-.1.1-.1.1c.1 0 .1-.1.1-.1l.2-.2-.1.1zm5.5-.8s-.1 0 0 0c-.1.1-.1.1-.1.2v.4c0 .1.1.1.1.1v-.1-.1l-.1-.1v-.2-.1c.1 0 .1 0 .1-.1 0 .1 0 0 0 0zm-7.7.6l-.3.1.3-.1.4-.2s.1 0 .1-.1c-.1 0-.1 0-.1.1-.1 0-.1 0-.2.1l.2-.1h-.2c-.1.1-.2.1-.3.2h.1s0-.1 0 0zm8.9-.6v.4c0 .1.1.1.1.1s.1 0 .1-.1c0 0 0-.1.1-.1 0 0-.1 0-.1.1v-.3c-.2 0-.2-.1-.2-.1zm-7.5.3c.1-.1.2-.1.3-.2-.1 0-.1 0-.1.1H7l-.1.1.1-.1-.1.1zm6.4-.5v.5h.1c.1-.1.1-.1.1-.4-.1 0-.2-.1-.2-.1zm4-.1c-.1.1 0 .2.1.3 0 .1.1.1.1.1v-.1c0-.1 0-.1-.1-.1-.1.1-.1-.1-.1-.2.1 0 .1 0 0 0zm-.8-.1v.2l.2.3v-.1-.1c-.1-.2-.1-.2-.2-.3zm4-.8l.1.1.1.1v.1l.1.1s0-.1-.1-.1c0 0-.1-.1-.2-.3 0 0 0 .1 0 0zm-10.1 0v.5c0-.1.1-.1.1-.2v-.1l-.1-.2.1-.1-.1.1v.1-.1zm-.5 0c-.1.1-.1.1-.2.1-.1.1-.3.2-.3.2v.1l.1-.1h.1l.3-.2v-.1zm4.3-.6c0 .1 0 .3.1.4 0 .1.1.1.1.1h.1s0-.1-.1-.1c0-.1-.1-.1-.1-.2v.1c0-.2 0-.2-.1-.3zm.6 0s-.1 0 0 0V51.1c0 .2.1.3.1.3v-.1-.1c0-.1 0-.1-.1-.1v-.3zm.8 0c.1 0 .1 0 0 0 .1.1.1.1.1.2s.1.1.1.1V51v-.1c0-.1 0-.2-.1-.3h-.1V50.8zm1.6 1.3zm-12.5 2zm2.4-1.3l-.1.1.1-.1zm1.4 2.6c-.1.1-.1.1-.1 0h.1c0-.1 0-.1 0 0l.1-.2v.1l-.1.1c-.1-.1-.1-.1-.2-.1v-.1l-.1.1v.1c.2-.1.1.1.1.3 0 .2.2 0 .2.1l.1-.1.2-.4c0 .1-.3.1-.3.1zm-6.7-.8c.4-.2-.5.1.3-.2.1 0 .1-.1.1-.1l-.9.4s0 .1.1.1.3-.1.4-.2zm7.1 1c-.1 0-.1 0 0 0-.1 0-.1 0 0 0 .1-.2.2-.3 0 0-.2.1.1-.4-.1-.2l-.2.4c0 .4.3-.1.4-.1l.1-.2c-.1.1-.1-.4-.2.1zm.4-4.1s.1 0 .2-.1l.7-.4-.4.2-.5.3zm.1 3.7c-.1 0-.1-.1-.2.1s0-.3-.1.1c0 .4.1.2.3-.1v-.1zm.9-4.1c.4-.4-.2.2 0 0l-.2.2.2-.2zm.3 4.4s.1-.1.1-.2l-.1-.1V55l-.1.2c0 .1 0 .2.1.3zm2.7-.6c0-.1 0-.1-.1-.2 0 .1 0 .1.1.2v.2s.1-.1 0-.2zm-3.2-3.6l.1-.1-.1.1-.1.2-.1.1-.2.2.1-.1v-.1l.3-.3zm1.2 3.7v.2c0 .1.1.3.1.1 0-.1 0-.2-.1-.3.1 0 .1.2 0 0zm11.9-4.5l.4.2s0-.1-.1-.1c-.2-.1-.1.2-.3-.1zm-6 3.6v.3l.1.1v-.2c0-.1 0-.2-.1-.2zm-2.1.5l.1.3.1-.1s0 .1.1.1c-.2-.1-.2-.1-.3-.3.1 0 0 0 0 0zm3.5-1v.2h.1c0-.1 0-.1-.1-.2.1 0 0 0 0 0zm2.1-1.5v.2c.2.3 0-.2.1 0v-.1s0-.1-.1-.1zm-8 2.8v.5c.1.1.1 0 .1-.2s0-.1.1 0c-.1-.2-.2-.1-.2-.3zm-2.9-3.7l.3-.1.1-.1-.4.2zm.3-.2zm1.2 3.9l.1.5v-.2c-.1-.1-.1-.2-.1-.3zm6.2-1.5c0-.1-.1-.1 0 0 0 .1 0 .2.1.3l-.1-.3zm-.7 1h.1v-.1c0 .1-.1 0-.1.1-.1 0 0 0 0 0zM6.6 54c.3-.2.1-.1.3-.3.3-.3.5-.4 0-.1l-.3.4c0-.1 0 0 0 0zm.3-.6c-.2.1-.1.1-.2.1l.2-.1.2-.1c-.1 0-.1.1-.2.1zM24.6 50c-.1 0-.1-.1-.2-.1h-.1v.1h-.1l-.2-.1-.3-.3h.2v-.2l-.3.1v.1l-1.9-1.9h-.2l.2.2v-.1-.1h.1c0-.1-.1-.1-.1-.1v-.1c0-.1.1-.1.1-.2 0 0 .1 0 .1-.1s.1-.1.2-.1h.1l-.1-.1c-.1 0-.1-.1-.1-.1h.4c.1 0 0 0 0 0s0-.1-.1-.1h.1l-.1-.1c.1 0 .1.1.1.1.1.1.2.1.4.2.1.1.1.1.2.1h.1v.1s0 .1.1.1h.1v.1c0 .1.1.1.3.2.1 0 .1.1.2.1v-.1h.2c.1.1.3.2.3.2h-.1v.1c.2.1.2.1.2.2s0 .1.2.2c0 0 .1.1.1.2.1.1.1.1.1.2l-.1-.1h-.1l-.1-.1-.1-.1.1-.1.2-.3h-.2l.2.1v.1c0 .1 0 .1-.1.1s-.2.1-.2.2h-.1s0 .1.1.1h.1c-.1 0-.2.1-.2.1 0 .1 0 .2.1.3l-.1-.1v.1c.1 0 .1.1.2.1v-.2c.1.1.1.2.1.2h-.1-.1c-.1 0-.1.1-.2.1l-.1.1h.1l.1.1.1.1h-.1c.2.4.3.5.3.5zm-1-1.2l.2.1.1.1c0 .1 0 .2.3.3h.1s0-.1-.1-.1v-.1h-.1V48.8H24s-.1 0-.1-.1h-.1s0-.1-.1-.1l-.1.2zm-.4-2.3l.5.2-.2-.1-.3-.1zm-2.3-16.3s-.1 0 0 0c-.1 0-.1 0 0 0l-.1-.1v-.2.2-.2-.4h-.1l-.1-.1v-.2c-.1 0-.1.1-.1.1h-.1v.2c0 .1.1.2 0 .3v.2l-.1-.1v-.1.4c-.1-.1-.1-.3-.2-.5 0 .3-.1.3-.1.3v-.2-.1.2c.1.1.1.1 0 .1h-.2s-.1 0-.1.1-.1.1-.1.1h-.1v-.1-.1-.1.1l.1-.2c0 .1-.1.1-.1.1v-.2l-.1.1-.1.1v-.2l.1-.1v-.1l-.1.1v.1l-.1.1v-.1-.1-.1c0-.1 0-.1.1-.2 0 0 0-.1.1-.1v-.1l-.1.1.1-.1h-.1s0 .1-.1.1c-.1.1-.1.1-.1.2h.1s0 .1-.1.1c0 .1-.1.1-.1.2s0 .2-.1.3c0-.1.1-.3.1-.4l-.1.1-.1.1c0-.1 0-.1.1-.2 0 0 0-.1.1-.1l-.1.1-.1.2v-.1-.1-.1l-.2.2h-.2v-.2s.1 0 .1-.1l.1-.1c.1-.1.1-.2.2-.3l-.1.1-.1.1-.1.1h-.1v.1h-.1s0-.1.1-.1v-.1l-.1.1s0-.1.1-.2V29v.1l.1-.1s0-.1.1-.1l-.1.1h-.1s.1 0 .1-.1l.1-.1v-.1l-.1.1c0 .1-.1.1-.1.2-.1.1-.3.2-.5.3l.2-.2-.1.1h-.1s-.1 0-.1.1l.1-.1h-.1l.1-.1V29l-.1-.1c-.1 0-.1-.1-.1-.1s0-.1-.1-.1c0-.1-.1-.1-.1-.1-.1-.1-.2-.1-.2-.3 0-.1 0-.2.1-.3l-.1-.1c-.1 0-.1-.1-.1-.1l-.1-.1s-.1 0-.1-.1.1-.1.1-.1c.1-.1.2-.1.2-.1s-.1 0-.1-.1c-.1 0-.1 0-.2-.1v-.1l-.1-.1c0-.1.2-.2.5-.2H17.1s0-.1.1-.1h.1H17l.1-.1H17v-.2H17.3s.1 0 .1-.1 0-.1-.1-.1l-.1-.1V26v-.1h.2l-.1-.1h.2l-.1-.1h-.1-.1v-.1c.1-.1.2-.1.3-.1h.2l-.1-.1-.2-.1h.4l-.1-.1-.1-.1V25l.2.1v.1l.1.1.1-.1h-.1l.1.1h-.2c-.1-.1-.2-.1-.2-.2h.2l-.1-.1c-.1 0-.1-.1-.2-.1l-.1-.1h.4l-.1-.1-.2-.2h.1v-.1-.1-.1c0-.1 0-.1.1-.1s.2.1.3.1l-.1-.1h.2V24c0-.1-.1-.1 0-.1.1-.1.3-.2.3-.3H18.7v-.1H19v-.1-.1c.1 0 .2-.1.3-.1.1 0 .1-.1.1-.1h.1c.1 0 .1-.1.2-.1l.2-.1c0 .1 0 .1.1.1v-.1s.1 0 .1.1l.1.1V23l.1.1c0 .1 0 .1.1.1l.1-.1c0-.1.1-.1.2-.1s.1 0 .2.1h.2v.4c0-.1.1-.1 0-.2v-.1 0h.2c.1 0 .1 0 .1.1.1.1.2.1.3.1.1 0 .1 0 .1.1h.1c.1 0 .2.1.2.2 0 0 0 .1.1.1h.1v.5c0 .1 0 .1.1.1H22.7v.1h.2l-.1.1-.1.1h.1c.1 0 .1 0 .1.1V25.1h.1l-.1.1-.1.1h.1c.1 0 .1 0 .1.1.1.1.1.2.2.3v.2c0 .1 0 .3.1.4h-.1H23.5c-.1.1-.1.1-.1.2h.1l.2.1h.1v.1H21h-.5.2-.2.4-.2.1c.1 0 .2 0 .3-.1h.1-.4.4-.2s.1 0 .1-.1h.2-.4c-.1.1-.3.1-.4.2.1-.1.2-.1.4-.2l.1-.1-.1.1h.1l-.1.1h.1c-.1 0-.2.1-.2.1l.1-.1s-.1 0-.1.1v-.1-.1l.1-.1.1-.1V26l.1-.1-.1.1-.1.1V26l.1-.1-.1.1c0 .1-.1.1-.1.1 0 .1-.1.1-.1.1l.1-.1-.1.1v-.1c0-.1.1-.1.1-.2v-.1-.1l-.1.1-.1.3-.1.1.1-.1v-.2l-.1.1-.1.4.1-.3-.1.1v-.1-.2V25.6v-.1.7-.1c0 .1 0 .2-.1.3V26 25.6v-.1-.1.1-.2V25.3v-.1.1-.1V25.5c0 .1 0 .2.1.3v0c0-.1-.1-.1-.1-.2v.2h-.1v.1l.1.2-.1-.1-.1-.2v.1s0 .1.1.1c-.1-.1-.1-.1-.1-.2v.1l-.1-.1c-.1-.1 0-.1-.1-.1s0 .1.1.1h-.1-.1l.1.1s0 .1.1.1l-.1-.1-.1-.2-.1-.1v.1h-.1l-.1-.1c-.1-.1-.2-.1-.3-.2 0 0 0 .1.1.1v.1c.1.1.2.1.3.2s0 .1 0 .1v.1h-.1s0 .1.1.1 0 0 .1.1h-.1c.1 0 .1 0 .1.1h.1c.1 0 .2 0 .2.1h.2H19.9 20.2 19.9h.7-.3H20h.1-.2-.1.2c.1 0 .2 0 .3-.1H20h.6c-.1 0-.2.1-.4.1h.4-.1c.1 0 .1 0 .2-.1h-.1c-.2.1-.2.1-.3.1l-.3.4c.1 0 .1 0 .1-.1l.1-.1h0l-.1.1.1-.1.1-.1.1-.1-.1.1-.1.1h.1l.1-.1-.1.1-.2.2.1-.1.2-.2-.1.1.1-.1c-.2.2-.2.3-.2.3s.1-.2.2-.3c0 .1 0 .1-.1.1v-.1-.1.1s0 .1-.1.2v-.1-.1-.1 0-.1V26.5v-.1s0 .1.1.2V26.3l.1.1c.1.1.1.2.1.4v.1s0 .1.1.1l-.1-.1-.1-.1c.2.5.3.5.4.6v-.1c-.1-.1-.2-.2-.2-.4l.1.1-.1-.3v-.1c0 .1.1.1.1.1l.1.1v.1l-.1-.1-.1-.1.3.4V27l-.1-.2-.1-.1v-.1s0 .1.1.1l.1.1-.1-.1.1.1.1.1.1.1h-.2l-.1-.1-.1-.1.1.1.1.1.1.1-.1-.1-.1-.1h.1c.1 0 .1.1.1.1l.1.1.1.1v.1l-.1-.1s-.1 0-.1-.1c0 0 0 .1.1.1l-.1-.1-.1-.1.1.2.1.2.2.2c0 .1.1.1.1.1h.1v-.1l-.1-.1.1.1.1.1s-.1-.1-.2-.1l-.1-.1-.1-.1.2.2h.1c0-.1-.1-.1-.1-.1l-.1-.1h.1l.1.1-.5-.3.1.1H21l.1.1h.1v.1l-.2-.2v-.1.1l.2.2-.2-.2-.1-.1-.1-.1h-.1l.1.1s-.1 0-.1-.1l-.1-.1-.1-.1h.2c.1 0 .1.1.2.1l.1-.1-.1-.1h.1l-.1-.1h-.1l-.1-.1h.2s.1 0 .1.1c0 0 .1 0 .1.1l.1.1.1.1.1.1h-.2l.2.1h.1s-.1-.1-.3-.2l.1.1.1.1.1.1c.1 0 .1.1.1.1h.1l-.2-.1h.1v-.1-.1h.1l-.1-.1-.1-.1-.2-.1h0-.2-.1c-.1 0-.1-.1-.1-.1-.1 0-.1-.1-.1-.1.1 0 .1 0 .2.1h0-.1.1c.1 0 .3.1.4.1h.1H21.2h.1-.4-.2H22s-.1 0-.1-.1h-.1.3-.2H23.6s0 .1.2.1h.1-.1.1-.1-.1c0-.1.1-.1.1-.1H23.5s.1 0 .2.1h.2l-.1.1h.1c.1 0 .1 0 .1.1v.1h-.2.1-.1c0 .1.1.1.1.1.1 0 .1.1.1.1h-.4l.1.1H23.4h-.1-.1c-.1.1-.2.1-.3.2h.1c.1 0 .1 0 .2.1 0 0 .1 0 .1.1s0 .1.1.1.1.1.1.1h-.1-.1l.1.1.1.1v-.1h.2l-.1.1-.1.1s-.1 0-.1-.1 0-.1-.1-.2l.1.1.1.1v.1l-.2-.1h-.1s.1.1 0 .1h-.1s.1.1.1.2l.1.1v.1c-.1.1-.2.1-.3.1-.1 0-.3 0-.4-.1l-.1-.1.1.1s.1 0 .1.1c0 0-.1 0-.1-.1l.1.2.3.1h-.1-.1v.1h-.1c-.1 0 0 0 0 0l-.1-.1v.1c0 .1.1.1 0 .1 0 0-.1 0-.1-.1 0 .1.1.1 0 .1 0 0-.1 0-.1-.1s-.1 0-.1-.1c0 0 0 .1.1.2-.1-.1-.1-.1-.2-.1 0 0-.1 0-.1-.1s-.1-.1-.1-.1l-.1-.1h-.1l.1.1h-.1c-.1-.1-.2-.2-.2-.4v-.1l-.1.1.1.2s0 .1.1.1.1.1.1.1c0 .1.1.2 0 .2l-.1-.1v0-.1c0-.1-.1-.1-.1-.2l-.1-.1-.1-.1.1.2v.1l-.1-.1-.1.1v.7c0-.1 0-.1-.1-.1l-.1-.1s0-.1-.1-.1v-.1l.1.2v.1c-.1 0-.1 0-.1.1v-.1-.4.1l-.1-.1s0-.1-.1-.1v.7l-.1.1s0-.1-.1-.1l.3.6zm-.9-.6c0 .1 0 .1 0 0 0 .1.1.2.1.3v-.1-.1-.3-.2c0 .1 0 .1-.1.1v.6-.3zm.5-1.7v.4-.1-.1-.2c.1-.1.1-.1.1-.2v-.1V27.3v-.1-.1.5-.1.2l-.1.2c0-.1 0 0 0 0 0 .1 0 .1 0 0 0 .1 0 .1 0 0v0zm.3-.4c0 .1.1.4.2.6-.1-.2-.2-.4-.2-.6 0-.2-.1-.3-.1-.5v.7c0-.1 0-.1.1-.2l-.1.2v.1-.1-.1c.1 0 .1-.1.1-.1-.1-.1 0 0 0 0 0 .1 0 .1.1.2-.1-.1-.1-.1-.1-.2zm0 0l.2.6V28v-.1s0-.1-.1-.3v.1c.1-.1 0-.1-.1-.2.1 0 0 0 0 0 0-.1 0-.1 0 0 .1 0 0 0 0 0zm-.8 0v.1c0 .1-.1.2-.1.3l.1-.2v-.1.1c0-.1.1-.1.1-.2.1-.2.1-.2.1-.3v.1c0 .2-.1.2-.2.2.1.1.1.1.1.2v.1-.1c0-.1.1-.2.1-.2v-.1-.1-.1c.1-.1.1-.2.1-.3 0 0 0 .1-.1.1 0 0 0 .1-.1.1s0 .1 0 .1c0 .1-.1.1-.1.1l.1-.1s0-.1.1-.1v.2l-.2.2c.1 0 .1 0 0 0l-.1.3.1-.1v-.2zm.1-.3c-.1.1-.1.2-.1.2l-.2.2s.1 0 .1-.1c0 0 .1-.1.1-.2.1 0 .1-.1.1-.1.1 0 0 0 0 0zm.2-.4l-.4.4c-.1.1-.2.2-.2.4l.3-.4h-.1v-.1l.1-.1.3-.2zm0 0l-.3.2-.1.1-.1.1.1-.1.1-.1c0 .1.1 0 .3-.2zm-1.1.3H19h-.1-.1.2l.3-.1.2-.1h-.2l.1.1-.2.1-.2.1c.1-.1.2-.1.2-.1zm.7-.2l-.4.1-.1.1h.2c.1 0 .1-.1.1-.1s.1 0 .1-.1l-.2.1c.1 0 .1-.1.2-.1h.1zm1.8 0c.1 0 .2.1.3.1h.1c.1 0 0 0 0 0H22c-.1 0-.1 0-.1-.1h.2-.2-.1-.1c.1 0 .1 0 0 0zm-2.6-.4H19 19.3c0 .1 0 .1-.2 0zm-1.7-.3h-.1-.1-.1.6l.1-.1h-.1c-.1 0-.1 0-.3.1h0zm-.1-.6c0 .1.1.1.2.1h.1c.1 0 .1.1.2.1h.1-.4c0-.1-.1-.1-.2-.2zm.7-.7c.1 0 .1 0 .2.1h.1s0-.1-.1-.1c0 0-.1 0-.1-.1-.1-.1-.2-.1-.3-.2l.1.1c0 .1 0 .2.1.2 0 .1 0 .1 0 0 0 .1 0 .1 0 0zm3.4 2.3s0-.1 0 0l-.1-.1-.1-.1h.1l-.1-.1h-.1s.1 0 .1.1c-.1 0-.1-.1-.2-.1l-.1-.1h-.1l.2.1h.1l-.1-.1h-.1.1l.1.1c.2.1.3.1.3.3 0-.1 0-.1 0 0 0-.1 0-.1 0 0zm0-.5s-.1 0 0 0h-.7l.4.1h-.2.2-.1-.1.5-.2H21.5c-.1 0-.1 0-.1-.1-.1 0-.1 0 0 0zm-.9-.1c-.2-.1-.3-.1-.4-.1l.2.1h.2l-.1-.1h-.2c.1.1.2.1.3.1zm0 0l-.2-.3c0-.1-.1-.2-.1-.2v-.2l.3.4V26.6zm0 0l-.2-.2c-.1 0-.1-.1-.1-.1-.1 0-.1-.1-.1-.1.1 0 .1.1.1.1l.1.1.1.1.1.1zm0 0c0-.1 0-.2-.1-.2v-.1-.1-.1.2-.1 0c0-.1 0-.1-.1-.1v.2c-.2-.4-.2-.5-.1-.5l.1.1s0 .1.1.1c0 .2.1.4.1.5v.1zm0 0v-.1l-.1-.2v-.2-.2.6l.1.1zm-.3-.4c-.1-.1-.1-.2-.1-.2l-.1-.1v-.1-.1.1c0 .1.1.1.1.2l.1.1c-.1-.1 0 .1 0 .1zm.3-.4c0-.1 0-.1 0 0v.2-.2-.3c0-.2 0 0 .1-.1l-.1.4zm-.2.8h.3-.3s-.1 0 0 0zm.3-1s0-.1 0 0c0-.1 0 0 0 0-.1.2-.1.3 0 0 0-.1-.1.4-.1.2v-.4c.1-.4.1.1.1.1v.1s-.1.4 0 0zm2.9 1.9v.2c.1 0 .3-.1.4-.1-.1 0-.1-.1-.1-.1h-.3zm-2.9-1.6v-.1c0-.2-.1.3 0-.1s.1-.2 0 .1v.1zm1.4 3.9c.2.3 0-.2.2 0v-.1c-.1 0-.1-.1-.2-.1s-.1 0 0 .2zm-1.1-4.1c0 .1 0 .1-.1.1l-.1.2-.1.1.1-.2.2-.2zm.2.7l-.2.1c.1-.1.1-.1.2-.1.4-.2-.1 0 .2-.1 0 0-.1 0-.2.1zm.6 3.3s.1 0 0 0c.1.1.1.1 0 0 .1 0 .1 0 0 0 .1-.1.1-.1 0 0v-.2-.1c0-.1-.1-.1-.1-.2v.2c0 .1.2.2.1.3zm-.9-3.6l.1-.2.1-.1-.2.3s.1-.1 0 0zm-.5.6c-.2.1-.3.1-.4.1h.1c.1-.1.2-.1.3-.1zm.6.3l.2.2v.1l-.2-.3zm.2-.3l.3.1h-.1.1l-.3-.1c.1 0 0 0 0 0zm-.4.4l.1.1v.1s-.1-.1-.1-.2c0 .1 0 0 0 0zm-.2-.4l-.1.2c-.1.3.1-.2 0 .1l.1-.1v-.2zm.5-.4c.1-.1.3-.2.4-.3.1 0 0 0-.1.1-.2.1-.1.1 0 0-.1.1-.2.1-.3.2zm2.7 1.4l.1.2h.1c-.1-.1.1-.1-.2-.2zm-2.9-1.5c-.1.1 0 0 0 0 .1-.1.2-.3.3-.4l-.2.2c-.1.1-.1.1-.1.2zm-.3.5c0-.1 0-.2 0 0l.2.2-.2-.2zm.6.4c0 .1 0 .1 0 0zm-.2 0c.1.2.1.1.2.2.2.2.3.3.1 0l-.3-.2s-.1 0 0 0zm.5.4l-.1-.1.1.1c-.1 0 0 0 0 0zm10.9 2.7l-.1-.1v-.2.2-.5h-.1l-.1-.1v-.2c-.1 0-.1.1-.1.1h-.1v.2c0 .1.1.2 0 .3v.2l.2-.2v-.1.4c-.1-.1-.1-.3-.2-.5 0 .3-.1.3-.1.3v-.2-.1.2c-.1.1-.1.1-.2.1h-.2s-.1 0-.1.1l-.1.1H31v-.1-.1-.1.1l.1-.2c0 .1-.1.1-.1.1v-.2l-.1.1-.1.1v-.2l.1-.1v-.1l-.1.1v.1l-.1.1v-.1-.1-.1c0-.1 0-.1.1-.2 0 0 0-.1.1-.1v-.1l-.1.1.1-.1h-.1s0 .1-.1.1c-.1.1-.1.1-.1.2h.1s0 .1-.1.1c0 .1-.1.1-.1.2s0 .2-.1.3c0-.1.1-.3.1-.4l-.1.1-.1.1c0-.1 0-.1.1-.2 0 0 0-.1.1-.1l-.1.1-.1.2v-.1-.1-.1l-.2.2H30h-.1v-.2s.1 0 .1-.1l.1-.1c.1-.1.1-.2.2-.3l-.1.1-.1.1-.1.1h-.1s-.1 0-.1.1h-.1s0-.1.1-.1v-.1l-.1.1s0-.1.1-.2V29v.1l.1-.1s0-.1.1-.1l-.1.1h-.1s.1 0 .1-.1l.1-.1v-.1l-.1.1c0 .1-.1.1-.1.2-.1.1-.3.2-.5.3l.2-.2c0 .1-.1.1-.1.1h-.1c-.1 0-.1 0-.1.1l.1-.1h-.1l.1-.1V29l-.1-.1c-.1 0-.1-.1-.1-.1s0-.1-.1-.1c0-.1-.1-.1-.1-.1-.1-.1-.2-.1-.2-.3 0-.1 0-.2.1-.3l-.1-.1c-.1 0-.1-.1-.1-.1l-.1-.1c-.1-.1-.1 0-.1-.1s.1-.1.1-.1c.1-.1.2-.1.2-.1s-.1 0-.1-.1c-.1 0-.1 0-.2-.1v-.1l-.1-.1c0-.1.2-.2.5-.2H28.5s0-.1.1-.1h.1H28.4h-.1v-.2H28.6c.1 0 .1 0 .1-.1 0 0 0-.1-.1-.1s-.1-.1-.1-.1v-.1-.1h.2l-.1-.1h.2l-.1-.1h-.2v-.1c.1-.1.2-.1.3-.1h.2l-.1-.1-.2-.1h.4l-.1-.1-.1-.1v-.1l.2.1v.1l.1.1.1-.1H29l.1.1H29c-.1-.1-.2-.1-.2-.2h.2l-.1-.1c-.1 0-.1-.1-.2-.1l-.1-.1h.4l-.1-.1-.2-.2h.1v-.1-.1-.1c0-.1 0-.1.1-.1s.2.1.3.1l-.1-.1h.2v-.1c0-.1-.1-.1 0-.1.1-.1.3-.2.3-.3H29.9v-.1H30.2v-.1-.1c.1 0 .2-.1.3-.1.1 0 .1-.1.1-.1h.1c.1 0 .1-.1.2-.1l.2-.1c0 .1 0 .1.1.1V23s.1 0 .1.1l.1.1v-.1l.1.1c0 .1 0 .1.1.1l.1-.1c0-.1.1-.1.2-.1s.1 0 .2.1h.2v.4c0-.1.1-.1 0-.2v-.1 0h.2c.1 0 .1 0 .1.1.1.1.2.1.3.1.1 0 .1 0 .1.1h.1c.1 0 .2.1.2.2 0 0 0 .1.1.1h.1v.5c0 .1 0 .1.1.1H33.9v.1h.2l-.1.1-.1.1h.1c.1 0 .1 0 .1.1V25.2h.1l.1-.2-.1.1h.1c.1 0 .1 0 .1.1.1.1.1.2.2.3v.2c0 .1 0 .3.1.4h-.1H34.9c-.1.1-.1.1-.1.2h.1l.2.1h.1v.1H32.4h-.5.2-.2.5c.1 0 .2 0 .3-.1h.1-.4 0-.1H32.5h-.2s.1 0 .1-.1h.2H32.3c-.1.1-.3.1-.4.2.1-.1.2-.1.4-.2h.1l.1-.1h-.1l-.1.1h.1c-.1 0-.2.1-.2.1l.1-.1s-.1 0-.1.1v-.1-.1l.1-.1.1-.1.1-.1-.1.1-.1.1V26l.1-.1-.1.1c0 .1-.1.1-.1.1 0 .1-.1.1-.1.1l.1-.1-.1.1v-.1c0-.1.1-.1.1-.2v-.1-.1l-.1.1-.1.3v-.2l-.1.1.1.7.1-.5-.1.1v-.1-.2V25.7v-.1.6-.1c0 .1 0 .2-.1.3V26 25.6v-.1.1-.2V25.4v-.1.1-.1V25.6c0 .1 0 .2.1.3v0c0-.1-.1-.1-.1-.2v.2h-.1v.1l.1.2-.1-.1-.1-.2v.1s0 .1.1.1c-.1-.1-.1-.1-.1-.2v.1l-.1-.1c-.1-.1 0-.1-.1-.1s0 .1.1.1h-.1-.1l.1.1s0 .1.1.1V26h-.1l-.1-.1v.1h-.1l-.1-.1c-.1-.1-.2-.1-.3-.2 0 0 0 .1.1.1v.1c.1.1.2.1.3.2s0 .1 0 .1v.1h-.1s0 .1.1.1 0 0 .1.1h-.1c.1 0 .1 0 .1.1h-.1.1c.1 0 .2 0 .2.1h.2H31.5 31.8h-.5.7-.3H31.4h.1-.2-.1.2c.1 0 .2 0 .3-.1H31.4h.6-.1c-.1 0-.2.1-.4.1h.4-.1c.1 0 .1 0 .2-.1h-.1c-.2.1-.2.1-.3.1h-.1c.1 0 .1 0 .1-.1l.1-.1h0l.1-.1.1-.1-.1.1-.1.1h.1l.1-.1-.1.1-.2.2.1-.1.2-.2-.1.1.1-.1c-.2.2-.2.3-.2.3s.1-.2.2-.3c0 .1 0 .1-.1.1v-.1-.1.1s0 .1-.1.2v-.1-.1-.1 0-.1V26.4v-.1s0 .1.1.2l.2.4v-.1l.1.1c.1.1.1.2.1.4v.1s0 .1.1.1l-.1-.1-.1-.1c.2.5.3.5.4.6v-.1c-.1-.1-.2-.3-.2-.4l-.2-.4-.1-.3v-.1c0 .1.1.1.1.1l.1.1v.2l-.1-.1-.1-.1.3.4v-.1l-.1-.2H32v-.1s0 .1.1.1l.1.1-.1-.1.1.1.1.1.1.1-.1-.1-.1-.1-.2-.2.1.1.1.1.1.1-.1-.1-.1-.1h.1c.1 0 .1.1.1.1l.1.1.1.1v.1l-.1-.1s-.1 0-.1-.1c0 0 0 .1.1.1l-.1-.1-.1-.1.1.2.1.2.3.3c0 .1.1.1.1.1h.1v-.1c0-.1 0 0 0 0l-.1-.1.1.1.1.1s-.1-.1-.2-.1l-.1-.1-.1-.1.2.2h.1c0-.1-.1-.1-.1-.1l-.1-.1h.1l.1.1-.4-.3.1.1h-.1l.1.1h.1v.1l-.2-.2-.1-.1v.1l.2.2-.2-.2-.1-.1-.1-.1h-.1l.1.1s-.1 0-.1-.1l-.1-.1h.1L32 27h.1l.1.1c.1 0 .1.1.2.1l-.1-.1-.1-.1h.1-.2l-.1-.1h.2s.1 0 .1.1c0 0 .1 0 .1.1l.1.1.1.1h.1l.1.1-.1-.2h-.1l.2.1h.1s-.1-.1-.3-.2h-.1.1l.1.1.1.1c.1 0 .1.1.1.1h.1l-.2-.1h.1v-.1-.1h.1l-.1-.1-.1-.1-.2-.1h0-.2-.1c-.1 0-.1-.1-.1-.1-.1 0-.1-.1-.1-.1.1 0 .1 0 .2.1h0-.1.1c.1 0 .3.1.4.1h.1H32.5h.1-.4-.2 1.2s-.1 0-.1-.1H33h.3-.2H34.8s0 .1.2.1h.2-.1-.1-.1.1-.1s.1 0 .2.1h.2l-.1.1h.1c.1 0 .1 0 .1.1v.1c0 .1-.1 0-.1 0h-.1.1-.1c0 .1.1.1.1.1l.1.1H35l.1.1H35h-.2-.1-.1c-.1.1-.2.1-.3.2h.1c.1 0 .1 0 .2.1 0 0 .1 0 .1.1s0 .1.1.1.1.1.1.1h-.1-.1l.1.1.1.1v-.1h.2l-.1.1-.1.1s-.1 0-.1-.1h-.1l.1.1.1.1v.1l-.2-.1h-.1s.1.1 0 .1h-.1s.1.1.1.2l.1.1v.1h-.1c-.1 0-.3 0-.4-.1l-.1-.1.1.1s.1 0 .1.1c0 0-.1 0-.1-.1l.1.2c.1.1.1.1.1.2h-.1-.1v.1h-.1l-.1-.1v.1c0 .1.1.1 0 .1 0 0-.1 0-.1-.1 0 .1.1.1 0 .1 0 0-.1 0-.1-.1s-.1 0-.1-.1c0 0 0 .1.1.2-.1-.1-.1-.1-.2-.1 0 0-.1 0-.1-.1s-.1-.1-.1-.1V29l.1.1h-.1c-.1-.1-.2-.2-.2-.4v-.1l-.1.1.1.2s0 .1.1.1l.1.1c0 .1.1.2 0 .2l-.1-.1v0-.1c0-.1-.1-.1-.1-.2l-.1-.1-.1-.1.1.2v.1l-.1-.1-.1.1v.7c0-.1 0-.1-.1-.1l-.1-.1s0-.1-.1-.1v-.1l.1.2v.1c-.1 0-.1 0-.1.1v-.1-.1l-.1-.2v.1l-.1-.1s0-.1-.1-.1c0 .6.1.8 0 1 .1 0 .1 0 0 0 .1 0 .1.1 0 0 0 .1 0 .2-.1.2s0-.1-.1-.1c.3-.1.3-.1.2-.1zm-.8-.6c0 .1 0 .1 0 0 0 .1.1.2.1.3v-.1-.1-.3-.2c0 .1 0 .1-.1.1 0 .2-.1.2 0 .3v.3-.3zm.5-1.7v.4-.1-.1-.2c.1-.1.1-.1.1-.2v-.1V27.3v-.1-.1.5-.1.2s-.2.2-.1.2c-.1 0-.1 0 0 0-.1-.1-.1 0 0 0-.1 0-.1 0 0 0-.1.1-.1.1 0 0-.1.1-.1.1 0 0v.1s-.1 0 0-.1zm.2-.4c0 .1.1.4.2.6 0-.2-.1-.4-.2-.6 0-.2-.1-.3-.1-.5v.7c0-.1 0-.1.1-.2l-.1.2v.1-.1-.1c.1 0 .1-.1.1-.1 0-.1 0 0 0 0 0 .1 0 .1.1.2 0-.1 0-.1-.1-.2.1 0 0 0 0 0zm.1 0l.2.6V28v-.1s0-.1-.1-.3v.1c0-.1 0-.1-.1-.2 0-.1 0-.1 0 0zm-.8 0l-.1.1c0 .1-.1.2-.1.3l.1-.2v-.1.1c0-.1.1-.1.1-.2.1-.2.1-.2.1-.3v.1c0 .2 0 .2-.1.2.1.1.1.1.1.2v.1-.1c0-.1.1-.2.1-.2v-.1-.1-.1c.1-.1.1-.2.1-.3 0 0 0 .1-.1.1 0 0 0 .1-.1.1s0 .1 0 .1c0 .1-.1.1-.1.1s0-.1.1-.1 0-.1.1-.1v.2l-.2.2-.1.3.1-.1v-.2zm.1-.3c-.1.1-.1.1-.1.2l-.2.2s.1 0 .1-.1c0 0 .1-.1.1-.2l.1-.1zm.2-.4l-.4.4c-.1.1-.2.2-.2.4l.3-.4h-.1v-.1l.1-.1.3-.2zm-.1 0l-.2.2-.1.1-.1.1.1-.1.1-.1c0 .1.1 0 .2-.2zm-1 .3s-.1 0 0 0h-.2-.1-.1.2l.3-.1.1-.1h0-.1v.1l-.1.1-.2.1c.1-.1.2-.1.2-.1zm.7-.2l-.4.1-.1.1h.2c.1 0 .1-.1.1-.1s.1 0 .1-.1l-.2.1s.1-.1.3-.1c-.1 0 0 0 0 0zm1.8 0c.1 0 .2.1.3.1h.1c.1 0 0 0 0 0h-.1-.1.2-.2-.1c0-.1 0-.1-.1-.1.1 0 0 0 0 0zm-2.6-.4h-.1H30.8c0 .1-.1.1-.2 0zm-1.7-.3h-.1-.1-.1.6l.1-.1h-.1c-.1 0-.2 0-.3.1h0zm-.1-.6c0 .1.1.1.2.1h.1c.1 0 .1.1.2.1h.1-.4c0-.1-.1-.1-.2-.2zm.6-.7c.1 0 .1 0 .2.1h.1s0-.1-.1-.1c0 0-.1 0-.1-.1-.1-.1-.2-.1-.3-.2l.1.1c0 .1.1.2.1.2.1.1.1.1 0 0 .1.1.1.1 0 0zm3.5 2.3s0-.1 0 0l-.1-.1-.1-.1h.1l-.1-.1h-.1s.1 0 .1.1c-.1 0-.1-.1-.2-.1h.1l-.1-.1h-.1l.2.1h.1l-.1-.1h-.1.2l.1.1c-.1 0 0 .1.1.3 0-.1 0-.1 0 0 0-.1 0-.1 0 0zm-.1-.5H32l.4.1h-.2.2-.1-.1.5-.1H32.9c-.1 0 0 0-.1-.1zm-.9-.1c-.2-.1-.3-.1-.4-.1l.2.1h.2l-.1-.1h-.2c.2.1.3.1.3.1zm.1 0c-.1 0-.1 0 0 0l-.2-.3c0-.1-.1-.2-.1-.2v-.2l.3.4V26.6zm0 0l-.2-.2c-.1 0-.1-.1-.1-.1-.1 0-.1-.1-.1-.1.1 0 .1.1.1.1l.1.1.1.1c-.2-.1 0 0 .1.1zm0 0c0-.1 0-.2-.1-.2v-.1-.1-.1.2-.1 0c0-.1 0-.1-.1-.1v.2c-.2-.4-.2-.5-.1-.5l.1.1s0 .1.1.1c0 .2.1.4.1.5v.1zm0 0v-.1l-.1-.2v-.2-.2.6l.1.1zm-.3-.4c-.1-.1-.1-.2-.1-.2l-.1-.1v-.1-.1.1c0 .1.1.1.1.2l.1.1c-.1-.1 0 .1 0 .1zm.3-.4c0-.1 0-.1 0 0v.2-.2-.3c0-.2 0 0 .1-.1l-.1.4zm-.2.8h.3-.3c-.1 0-.1 0 0 0zm.2-1s0-.1 0 0c0-.1 0 0 0 0 0 .2 0 .3 0 0 0-.1-.1.4-.1.2v-.4c.1-.4.1.1.1.1v.1c.1 0 0 .4 0 0zm3 1.9v.2c.1 0 .3-.1.4-.1-.1 0-.1-.1-.1-.1H35zm-2.9-1.6v-.1c0-.2-.1.3 0-.1s.1-.2 0 .1v.1zm1.4 3.9c.2.3 0-.2.2 0v-.1c-.1 0-.1-.1-.2-.1s-.1 0 0 .2zm-1.2-4.1c0 .1 0 .1-.1.1v.2l-.1.1.1-.2c0-.1.1-.1.1-.2zm.3.7l-.2.1c.1-.1 0-.1.2-.1.4-.2-.1 0 .2-.1-.1 0-.2 0-.2.1zm.6 3.3c.1.1.1.1 0 0 .1 0 .1 0 0 0 .1-.1.1-.1 0 0v-.2-.1c0-.1-.1-.1-.1-.2v.2c0 .1.2.2.1.3zm-.9-3.6l.1-.2.1-.1-.2.3s.1-.1 0 0zm-.5.6c-.2.1-.3.1-.4.1h.1c.1-.1.2-.1.3-.1zm.5.3l.2.2v.1l-.2-.3zm.3-.3l.3.1h-.1.1l-.3-.1zm-.5.4l.1.1v.1s0-.1-.1-.2c0 .1 0 0 0 0zm-.1-.4l-.1.2c-.1.3.1-.2 0 .1l.1-.1v-.2zm.5-.4c.1-.1.3-.2.4-.3.1 0 0 0-.1.1-.2.1-.1.1 0 0-.1.1-.2.1-.3.2zm2.7 1.4l.1.2h.1c-.1-.1.1-.1-.2-.2zm-3-1.5c0 .1 0 0 0 0 .1-.1.2-.3.3-.4l-.1.2-.2.2zm-.2.5c-.1-.1-.1-.2 0 0l.2.2-.2-.2zm.6.4c0 .1 0 .1 0 0-.1 0 0 0 0 0zm-.3 0c.1.2.1.1.2.2.2.2.3.3.1 0l-.3-.2c.1 0 0 0 0 0zm.5.4l-.1-.1.1.1c.1 0 0 0 0 0zm11 2.7s-.1 0 0 0l-.1-.1v-.2.2-.5h-.1l-.1-.1v-.1-.1c-.1 0-.1.1-.1.1h-.1v.2c0 .1.1.2 0 .3v.2l-.1-.1v-.1.4c-.1-.1-.1-.3-.2-.5 0 .3-.1.3-.1.3v-.2-.1.2h-.1s-.1 0-.1.1-.1.1-.1.1h-.1v-.1-.1-.1.1l.1-.2c0 .1-.1.1-.1.1v-.2l-.1.1-.1.1v-.2l.1-.1v-.1l-.1.1v.1l-.1.1v-.1-.1-.1c0-.1 0-.1.1-.2 0 0 0-.1.1-.1v-.1l-.1.1.1-.1h-.1s0 .1-.1.1c-.1.1-.1.1-.1.2h.1s0 .1-.1.1c0 .1-.1.1-.1.2s0 .2-.1.3c0-.1.1-.3.1-.4l-.1.1-.1.1c0-.1 0-.1.1-.2 0 0 0-.1.1-.1l-.1.1-.1.2v-.1-.1-.1l-.2.2h-.1-.1v-.2s.1 0 .1-.1l.1-.1c.1-.1.1-.2.2-.3l-.1.1-.1.1-.1.1h-.1s-.1 0-.1.1h-.1s0-.1.1-.1v-.1l-.1.1s0-.1.1-.2V29v.1l.1-.1s0-.1.1-.1l-.1.1h-.1s.1 0 .1-.1l.1-.1v-.1l-.1.1c0 .1-.1.1-.1.2-.1.1-.3.2-.5.3l.2-.2-.1.1h-.1c-.1 0-.1 0-.1.1l.1-.1h-.1l.1-.1V29l-.1-.1c-.1 0-.1-.1-.1-.1s0-.1-.1-.1c0-.1-.1-.1-.1-.1-.1-.1-.2-.1-.2-.3 0-.1 0-.2.1-.3l-.1-.1c-.1 0-.1-.1-.1-.1l-.1-.1s-.1 0-.1-.1.1-.1.1-.1c.1-.1.2-.1.2-.1s-.1 0-.1-.1c-.1 0-.1 0-.2-.1v-.1l-.1-.1c0-.1.2-.2.5-.2H40s0-.1.1-.1h.1H39.9l.1-.1h-.1v-.2H40.2c.1 0 .1 0 .1-.1s0-.1-.1-.1l-.1-.1V26v-.1h.2l-.3-.2h.2l-.1-.1H40h-.1v-.1c.1-.1.2-.1.3-.1h.2l-.1-.1-.2-.1h.4l-.1-.1-.1-.1v-.1l.2.1v.1l.1.1.1-.1h-.1l.1.1h-.2c-.1-.1-.2-.1-.2-.2h.2l-.1-.1c-.1 0-.1-.1-.2-.1l-.1-.1h.4l-.1-.1-.2-.2h.1v-.1-.1-.1c0-.1 0-.1.1-.1s.2.1.3.1l-.1-.1h.2v-.1c0-.1-.1-.1 0-.1.1-.1.3-.2.3-.3H41.4v-.1H41.7v-.1-.1c.1 0 .2-.1.3-.1.1 0 .1-.1.1-.1h.1c.1 0 .1-.1.2-.1l.2-.1c0 .1 0 .1.1.1v-.1s.1 0 .1.1.1.1.1.1v-.1l.1.1c0 .1 0 .1.1.1l.1-.1c0-.1.1-.1.2-.1s.1 0 .2.1h.2v.4c0-.1.1-.1 0-.2v-.1 0h.2c.1 0 .1 0 .1.1.1.1.2.1.3.1.1 0 .1 0 .1.1h.1c.1 0 .2.1.2.2 0 0 0 .1.1.1h.1v.5c0 .1 0 .1.1.1H45.4v.1h.2l-.1.1-.1.1h.1c.1 0 .1 0 .1.1V25h.1l-.1.1-.1.1h.1c.1 0 .1 0 .1.1.1.1.1.2.2.3v.2c0 .1 0 .3.1.4h-.1H46.2c-.1.1-.1.1-.1.2h.1l.2.1h.1v.1H43.7h-.5.2-.2.4-.2.1c.1 0 .2 0 .3-.1h.1-.4 0-.1H43.6h-.2s.1 0 .1-.1h.2H43.4c-.1.1-.3.1-.4.2.1-.1.2-.1.4-.2l.1-.1h-.1l-.1.1h.1c-.1 0-.2.1-.2.1l.1-.1s-.1 0-.1.1v-.1-.1l.1-.1.1-.1.1-.1.3-.1-.1.1-.1.1V26l.1-.1-.1.1-.1.1c0 .1-.1.1-.1.1l.1-.1-.1.1v-.1c0-.1.1-.1.1-.2v-.1-.1l-.1.1-.1.3v-.2l-.1.1-.1.4.1-.3-.1.1v-.1-.2V25.6v-.1.7-.1c0 .1 0 .2-.1.3V26 25.6v-.1.1-.2V25.4v-.1.1-.1V25.6c0 .1 0 .2.1.3v0c0-.1-.1-.1-.1-.2v.2h-.1v.1l.1.2-.1-.1-.1-.2v.1s0 .1.1.1c-.1-.1-.1-.1-.1-.2v.1l-.1-.1s0-.1-.1-.1 0 .1.1.1h-.1-.1l.1.1s0 .1.1.1l.3-.1-.1-.1v.1h-.1l-.1-.1c-.1-.1-.2-.1-.3-.2 0 0 0 .1.1.1v.1c.1.1.2.1.3.2s0 .1 0 .1v.1h-.1s0 .1.1.1 0 0 .1.1h-.1c.1 0 .1 0 .1.1h-.2.1c.1 0 .2 0 .2.1h.2-.2H43.3h-.5.7-.3H42.9h.1-.2-.1.2c.1 0 .2 0 .3-.1H42.9h.6c-.1 0-.2.1-.4.1h.4-.1c.1 0 .1 0 .2-.1h-.1c-.2.1-.2.1-.3.1h-.1c.1 0 .1 0 .1-.1l.1-.1h0l.1-.1.1-.1-.1.1-.1.1h.1l.1-.1-.1.1-.2.2.1-.1.2-.2-.1.1.1-.1c-.2.2-.2.3-.2.3s.1-.2.2-.3c0 .1 0 .1-.1.1v-.1-.1V26.6v-.1-.1-.1 0-.1V26.4v-.1s0 .1.1.2l-.1-.1v-.1l.1.1c.1.1.1.2.1.4v.1s0 .1.1.1l-.1-.1-.1-.1c.2.5.3.5.4.6v-.1c-.1-.1-.2-.3-.2-.4l-.1.1-.1-.3v-.1c0 .1.1.1.1.1l.1.1v.2l-.1-.1-.1-.1.3.4v-.1l-.2-.1-.1-.1v-.1s0 .1.1.1l.1.1-.1-.1.1.1.1.1.1.1-.1-.1-.1-.1-.1-.1.1.1.1.1.1.1-.1-.1-.1-.1h.1c.1 0 .1.1.1.1l.1.1.1.1v.1l-.1-.1s-.1 0-.1-.1c0 0 0 .1.1.1l-.1-.1-.1-.1.1.2.1.2.3.3c0 .1.1.1.1.1h.1v-.1l-.1-.1.1.1.1.1s-.1-.1-.2-.1l-.1-.1-.1-.1.2.2h.1c0-.1-.1-.1-.1-.1l-.1-.1h.1l.1.1-.4-.3.1.1h-.1l.1.1h.1v.1l-.2-.2-.1-.3v.1l.2.2-.2-.2-.1-.1-.1-.1h-.1l.1.1s-.1 0-.1-.1l-.1-.1h.1l-.1-.1-.1-.1h.2l.1.1c.1 0 .1.1.2.1h-.1l-.1-.1h.1l-.1-.1h-.1l-.1-.1h.2s.1 0 .1.1c0 0 .1 0 .1.1l.1.1.1.1.1.1-.1-.1h-.1l.2.1h.1s-.1-.1-.3-.2H44l.1.1.1.1.1.1c.1 0 .1.1.1.1h.1l-.2-.1h.1v-.1-.1h.1l-.1-.1-.1-.1-.2-.1h0-.2-.1c-.1 0-.1-.1-.1-.1-.1 0-.1-.1-.1-.1.1 0 .1 0 .2.1h0-.1.1c.1 0 .3.1.4.1h.1H44h.1-.4-.2 1.2s-.1 0-.1-.1h-.1.3-.2H46.3s0 .1.2.1h.2-.1-.1l-.1-.3H46.1s.1 0 .2.1h.2l-.1.1h.1s.1 0 .1.1v.1h-.2.1-.1c0 .1.1.1.1.1.1 0 .1.1.1.1h-.4l.1.1h-.1-.2-.1-.1c-.1.1-.2.1-.3.2h.1c.1 0 .1 0 .2.1 0 0 .1 0 .1.1 0 0 0 .1.1.1s.1.1.1.1H46h-.1l.1.1.1.1v-.1h.2l-.1.1-.1.1s-.1 0-.1-.1h-.1l.1.1.1.1v.1l-.2-.1h-.1s.1.1 0 .1h-.1s.1.1.1.2l.1.1v.1c-.1.1-.2.1-.3.1-.1 0-.3 0-.4-.1l-.1-.1.1.1s.1 0 .1.1c0 0-.1 0-.1-.1l.1.2c.1.1.1.1.1.2h-.1-.1v.1h-.1l-.1-.1v.1c0 .1.1.1 0 .1 0 0-.1 0-.1-.1 0 .1.1.1 0 .1 0 0-.1 0-.1-.1s-.1 0-.1-.1c0 0 0 .1.1.2-.1-.1-.1-.1-.2-.1 0 0-.1 0-.1-.1s-.1-.1-.1-.1h.5l.1.1h-.1c-.1-.1-.2-.2-.2-.4v-.1l-.1.1.1.2s0 .1.1.1l.1.1c0 .1.1.2 0 .2l-.1-.1v0-.1c0-.1-.1-.1-.1-.2l-.1-.1-.1-.1.1.2v.1l-.1-.1-.1.1v.7c0-.1 0-.1-.1-.1l-.1-.1s0-.1-.1-.1v-.1l.1.2v.1c-.1 0-.1 0-.1.1v-.1-.1l-.1.1v.1l-.1-.1s0-.1-.1-.1v.6c.1.1.1.1 0 .1.1.1 0 .1 0 0 0 .1 0 .1 0 0-.1.1-.1 0 0 0h-.1.1zm-.9-.6c0 .1 0 .1 0 0 0 .1.1.2.1.3v-.1-.1-.3-.2c0 .1 0 .1-.1.1v.6-.3zm.5-1.7v.4-.1-.1c.1-.1.1-.1 0-.2.1-.1.1-.1.1-.2v-.1V27.3v-.1-.1.5-.1.2l-.1.2c0-.1 0 0 0 0 0 .1 0 .1 0 0 0 .1 0 .1 0 0v0zm.3-.4c0 .1.1.4.1.6.1-.2 0-.4-.1-.6 0-.2-.1-.3-.1-.5v.7c0-.1 0-.1.1-.2l-.1.2v.1-.1-.1c.1 0 .1-.1.1-.1 0-.1 0 0 0 0 0 .1 0 .1.1.2-.1-.1-.1-.1-.1-.2zm.1 0l.2.6V28v-.1s0-.1-.1-.3v.1c0-.1 0-.1-.1-.2s-.1-.1 0 0zm-.8 0l-.1.1c0 .1-.1.2-.1.3l.1-.2v-.1.1c0-.1.1-.1.1-.2.1-.2.1-.2.1-.3v.1c0 .2 0 .2-.1.2.1.1.1.1.1.2v.1-.1c0-.1.1-.2.1-.2v-.1-.1-.1c.1-.1.1-.2.1-.3 0 0 0 .1-.1.1 0 0 0 .1-.1.1v.1c0 .1-.1.1-.1.1s0-.1.1-.1c0 0 0-.1.1-.1v.2l-.2.2-.1.3.1-.1v-.2zm0-.3c-.1.1-.1.1-.1.2l-.2.2s.1 0 .1-.1c0 0 .1-.1.1-.2.1 0 .1-.1.1-.1.1 0 .1 0 0 0zm.2-.4l-.4.4c-.1.1-.2.2-.2.4l.3-.4h-.1v-.1l.1-.1.3-.2zm0 0l-.2.2-.1.1-.1.1.1-.1.1-.1.2-.2zm-1 .3c-.1 0-.1 0 0 0H42h-.1-.1.2l.3-.1.1-.1h0-.1v.1l-.1.1H42h.2zm.6-.2l-.3.1-.1.1h.2c.1 0 .1-.1.1-.1s.1 0 .1-.1l-.2.1s.1-.1.2-.1zm1.9 0c.1 0 .2.1.3.1h-.1.2-.2-.1c0-.1 0-.1-.1-.1.1 0 0 0 0 0zm-2.7-.4h-.1H42.2c.1.1 0 .1-.2 0zm-1.7-.3h-.1-.1-.1.6l.1-.1h-.1s-.1 0-.3.1h0zm0-.6c0 .1.1.1.2.1h.1c.1 0 .1.1.2.1h.1-.4c-.1-.1-.2-.1-.2-.2zm.6-.7c.1 0 .1 0 .2.1h.1s0-.1-.1-.1c0 0-.1 0-.1-.1-.1-.1-.2-.1-.3-.2l.1.1c0 .1.1.2.1.2 0 .1 0 .1 0 0 .1.1.1.1 0 0zm3.5 2.3c-.1 0-.1-.1 0 0l-.1-.1-.1-.1h.1l-.1-.1h-.1s.1 0 .1.1c-.1 0-.1-.1-.2-.1l-.1-.1h-.1l.2.1h.1l-.1-.1h-.1.1l.1.1c0 .1.1.1.3.3 0-.1 0-.1 0 0 0-.1 0-.1 0 0zm-.1-.5s-.1 0 0 0h-.7l.4.1h-.2.2-.1-.1.5-.2H44.4c-.1 0 0 0-.1-.1zm-.9-.1c-.2-.1-.3-.1-.4-.1l.2.1h.2l-.1-.1h-.2c.2.1.2.1.3.1zm0 0l-.2-.2c-.1 0-.1-.1-.1-.1-.1 0-.1-.1-.1-.1.1 0 .1.1.1.1l.1.1.1.1.1.1zm0 0s0-.1 0 0l-.2-.3c0-.1-.1-.2-.1-.2v-.2l.3.4V26.6l-.1-.2-.2-.2c0 .1.1.1.1.1l.2.3zm0 0c0-.1 0-.2-.1-.2v-.1-.1-.1.2-.1 0c0-.1 0-.1-.1-.1v.2c-.2-.4-.2-.5-.1-.5l.1.1s0 .1.1.1c0 .2.1.4.1.5v.1zm0 0v-.1l-.1-.2v-.4-.1.6l.1.2zm-.3-.4c0-.1-.1-.2-.1-.3 0-.1-.1-.1-.1-.1v-.1-.1.1c0 .1.1.1.1.2l.1.1c-.1 0 0 .2 0 .2zm.3-.4c0-.1 0-.1 0 0v.2-.2-.3c0-.2 0 0 .1-.1l-.1.4zm-.1.8h.3-.3c-.1 0-.1 0 0 0zm.2-1s0-.1 0 0c0-.1 0 0 0 0 0 .2 0 .3 0 0 0-.1-.1.4-.1.2v-.4c.1-.4.1.1.1.1v.1s0 .4 0 0zm2.9 1.9v.2c.1 0 .3-.1.4-.1-.1 0-.1-.1-.1-.1h-.3zm-2.9-1.6v-.1c0-.2-.1.3 0-.1s.1-.2 0 .1c.1 0 0 .1 0 .1zm1.4 3.9c.2.3 0-.2.2 0v-.1c-.1 0-.1-.1-.2-.1 0 0-.1 0 0 .2zm-1.1-4.1c0 .1 0 .1-.1.1v.2l-.1.1.1-.2c0-.1.1-.1.1-.2zm.2.7l-.2.1c.1-.1.1-.1.2-.1.4-.2-.1 0 .2-.1 0 0-.1 0-.2.1zm.7 3.3c0 .1.1.1 0 0 .1 0 .1 0 0 0 0-.1 0-.1 0 0v-.2-.1c0-.1-.1-.1-.1-.2v.2c0 .1.1.2.1.3zm-1-3.6l.1-.2.1-.1-.2.3c.1 0 .2-.1 0 0zm-.4.6c-.2.1-.3.1-.4.1h.1c.1-.1.2-.1.3-.1zm.5.3l.2.2v.1l-.2-.3zm.2-.3l.3.1h-.1.1l-.3-.1c.1 0 .1 0 0 0zm-.4.4l.1.1v.1s-.1-.1-.1-.2c0 .1 0 0 0 0zm-.2-.4l-.1.2c-.1.3.1-.2 0 .1l.1-.1v-.2zm.5-.4c.1-.1.3-.2.4-.3.1 0 0 0-.1.1-.2.1-.1.1 0 0-.1.1-.2.1-.3.2zm2.7 1.4l.1.2h.1c-.1-.1.2-.1-.2-.2zm-2.9-1.5c0 .1 0 0 0 0 .1-.1.2-.3.3-.4l-.1.2c-.1.1-.2.1-.2.2zm-.3.5c0-.1 0-.2 0 0l.2.2-.2-.2zm.7.4c0 .1 0 .1 0 0-.1 0 0 0 0 0zm-.3 0c.1.2.1.1.2.2.2.2.3.3.1 0l-.3-.2zm.5.4l-.1-.1.1.1c-.1 0 0 0 0 0z"/></svg>