<?xml version="1.0" standalone="no"?>
<!DOCTYPE svg PUBLIC "-//W3C//DTD SVG 20010904//EN"
 "http://www.w3.org/TR/2001/REC-SVG-20010904/DTD/svg10.dtd">
<svg version="1.0" xmlns="http://www.w3.org/2000/svg"
 width="300.000000pt" height="300.000000pt" viewBox="0 0 300.000000 300.000000"
 preserveAspectRatio="xMidYMid meet">
<metadata>
Created by potrace 1.11, written by Peter Selinger 2001-2013
</metadata>
<g transform="translate(0.000000,300.000000) scale(0.100000,-0.100000)"
fill="#000000" stroke="none">
<path d="M1326 2990 c-647 -82 -1160 -553 -1298 -1193 -29 -138 -32 -436 -5
-572 125 -619 596 -1088 1207 -1201 131 -25 411 -25 534 0 592 117 1051 551
1191 1128 184 754 -248 1528 -989 1772 -185 61 -457 89 -640 66z m365 -662
c98 -36 157 -74 229 -147 68 -69 116 -148 146 -241 16 -49 18 -105 22 -492 l3
-438 85 0 85 0 -3 -112 -3 -113 -142 -3 c-163 -3 -199 8 -250 75 l-28 36 -5
486 c-5 477 -6 487 -28 543 -27 68 -99 146 -162 179 -62 31 -207 39 -282 14
-107 -35 -198 -134 -198 -216 0 -58 -2 -59 -136 -59 l-124 0 0 38 c0 104 55
227 142 315 66 67 183 127 293 151 104 23 270 15 356 -16z m-113 -614 c130
-27 122 -17 122 -140 0 -106 0 -106 -22 -100 -171 50 -290 59 -385 31 -314
-93 -263 -499 66 -523 88 -6 182 21 269 78 35 22 65 40 67 40 3 0 5 -56 5
-124 l0 -124 -49 -31 c-81 -52 -154 -74 -267 -79 -76 -3 -116 0 -160 13 -265
76 -434 316 -395 559 44 267 282 438 586 420 50 -3 123 -12 163 -20z"/>
</g>
</svg>
